<?xml version="1.0" standalone="no"?>
<!DOCTYPE svg PUBLIC "-//W3C//DTD SVG 1.1//EN" "http://www.w3.org/Graphics/SVG/1.1/DTD/svg11.dtd" >
<svg xmlns="http://www.w3.org/2000/svg">
<metadata>Generated by IcoMoon</metadata>
<defs>
<font id="pe-icon-set-books-text" horiz-adv-x="1024">
<font-face units-per-em="1024" ascent="960" descent="-64" />
<missing-glyph horiz-adv-x="1024" />
<glyph unicode="&#x20;" horiz-adv-x="512" d="" />
<glyph unicode="&#xe600;" glyph-name="align-center" d="M896 864h-768c-17.6 0-32 14.4-32 32s14.4 32 32 32h768c17.6 0 32-14.4 32-32s-14.4-32-32-32zM768 736h-512c-17.6 0-32 14.4-32 32s14.4 32 32 32h512c17.6 0 32-14.4 32-32s-14.4-32-32-32zM736 224h-448c-17.6 0-32 14.4-32 32s14.4 32 32 32h448c17.6 0 32-14.4 32-32s-14.4-32-32-32zM864 608h-704c-17.6 0-32 14.4-32 32s14.4 32 32 32h704c17.6 0 32-14.4 32-32s-14.4-32-32-32zM832 96h-640c-17.6 0-32 14.4-32 32s14.4 32 32 32h640c17.6 0 32-14.4 32-32s-14.4-32-32-32zM832 352h-640c-17.6 0-32 14.4-32 32s14.4 32 32 32h640c17.6 0 32-14.4 32-32s-14.4-32-32-32zM992 480h-960c-17.6 0-32 14.4-32 32s14.4 32 32 32h960c17.6 0 32-14.4 32-32s-14.4-32-32-32zM992-32h-960c-17.6 0-32 14.4-32 32s14.4 32 32 32h960c17.6 0 32-14.4 32-32s-14.4-32-32-32z" />
<glyph unicode="&#xe601;" glyph-name="align-left" d="M864 864h-832c-17.6 0-32 14.4-32 32s14.4 32 32 32h832c17.6 0 32-14.4 32-32s-14.4-32-32-32zM704 736h-672c-17.6 0-32 14.4-32 32s14.4 32 32 32h672c17.6 0 32-14.4 32-32s-14.4-32-32-32zM704 224h-672c-17.6 0-32 14.4-32 32s14.4 32 32 32h672c17.6 0 32-14.4 32-32s-14.4-32-32-32zM800 608h-768c-17.6 0-32 14.4-32 32s14.4 32 32 32h768c17.6 0 32-14.4 32-32s-14.4-32-32-32zM800 96h-768c-17.6 0-32 14.4-32 32s14.4 32 32 32h768c17.6 0 32-14.4 32-32s-14.4-32-32-32zM833.6 352h-801.6c-17.6 0-32 14.4-32 32s14.4 32 32 32h801.6c17.6 0 32-14.4 32-32s-14.4-32-32-32zM992 480h-960c-17.6 0-32 14.4-32 32s14.4 32 32 32h960c17.6 0 32-14.4 32-32s-14.4-32-32-32zM992-32h-960c-17.6 0-32 14.4-32 32s14.4 32 32 32h960c17.6 0 32-14.4 32-32s-14.4-32-32-32z" />
<glyph unicode="&#xe602;" glyph-name="align-right" d="M992-32h-832c-17.6 0-32 14.4-32 32s14.4 32 32 32h832c17.6 0 32-14.4 32-32s-14.4-32-32-32zM992 96h-672c-17.6 0-32 14.4-32 32s14.4 32 32 32h672c17.6 0 32-14.4 32-32s-14.4-32-32-32zM992 608h-672c-17.6 0-32 14.4-32 32s14.4 32 32 32h672c17.6 0 32-14.4 32-32s-14.4-32-32-32zM992 224h-768c-17.6 0-32 14.4-32 32s14.4 32 32 32h768c17.6 0 32-14.4 32-32s-14.4-32-32-32zM992 736h-768c-17.6 0-32 14.4-32 32s14.4 32 32 32h768c17.6 0 32-14.4 32-32s-14.4-32-32-32zM992 480h-801.6c-17.6 0-32 14.4-32 32s14.4 32 32 32h801.6c17.6 0 32-14.4 32-32s-14.4-32-32-32zM992 352h-960c-17.6 0-32 14.4-32 32s14.4 32 32 32h960c17.6 0 32-14.4 32-32s-14.4-32-32-32zM992 864h-960c-17.6 0-32 14.4-32 32s14.4 32 32 32h960c17.6 0 32-14.4 32-32s-14.4-32-32-32z" />
<glyph unicode="&#xe603;" glyph-name="alt-f" horiz-adv-x="960" d="M360 352h48l-24 80zM835.2 928h-710.4c-68.8 0-124.8-56-124.8-124.8v-710.4c0-68.8 56-124.8 124.8-124.8h710.4c68.8 0 124.8 56 124.8 124.8v710.4c0 68.8-56 124.8-124.8 124.8zM489.6 193.6c-3.2-1.6-6.4-1.6-9.6-1.6-14.4 0-27.2 9.6-30.4 22.4l-22.4 73.6h-86.4l-22.4-73.6c-4.8-17.6-22.4-27.2-40-20.8-17.6 4.8-27.2 22.4-20.8 40l96 320c4.8 12.8 16 22.4 30.4 22.4s27.2-9.6 30.4-22.4l96-320c4.8-17.6-4.8-35.2-20.8-40zM608 192c-35.2 0-64 28.8-64 64v288c0 17.6 14.4 32 32 32s32-14.4 32-32v-288c17.6 0 32-14.4 32-32s-14.4-32-32-32zM768 448h-32v-192c17.6 0 32-14.4 32-32s-14.4-32-32-32c-35.2 0-64 28.8-64 64v192c-17.6 0-32 14.4-32 32s14.4 32 32 32v32c0 17.6 14.4 32 32 32s32-14.4 32-32v-32h32c17.6 0 32-14.4 32-32s-14.4-32-32-32z" />
<glyph unicode="&#xe604;" glyph-name="alt" d="M867.2 960h-710.4c-86.4 0-156.8-70.4-156.8-156.8v-710.4c0-86.4 70.4-156.8 156.8-156.8h710.4c86.4 0 156.8 70.4 156.8 156.8v710.4c0 86.4-70.4 156.8-156.8 156.8zM960 92.8c0-51.2-41.6-92.8-92.8-92.8h-710.4c-51.2 0-92.8 41.6-92.8 92.8v710.4c0 51.2 41.6 92.8 92.8 92.8h710.4c51.2 0 92.8-41.6 92.8-92.8v-710.4zM640 256v288c0 17.6-14.4 32-32 32s-32-14.4-32-32v-288c0-35.2 28.8-64 64-64 17.6 0 32 14.4 32 32s-14.4 32-32 32zM800 512h-32v32c0 17.6-14.4 32-32 32s-32-14.4-32-32v-32c-17.6 0-32-14.4-32-32s14.4-32 32-32v-192c0-35.2 28.8-64 64-64 17.6 0 32 14.4 32 32s-14.4 32-32 32v192h32c17.6 0 32 14.4 32 32s-14.4 32-32 32zM446.4 553.6c-3.2 12.8-16 22.4-30.4 22.4s-25.6-9.6-30.4-22.4l-96-320c-6.4-17.6 3.2-35.2 20.8-40 17.6-6.4 35.2 3.2 40 20.8l22.4 73.6h86.4l22.4-73.6c3.2-12.8 16-22.4 30.4-22.4 3.2 0 6.4 0 9.6 1.6 16 4.8 25.6 22.4 20.8 40l-96 320zM392 352l24 80 24-80h-48z" />
<glyph unicode="&#xe605;" glyph-name="arrow-down-f" horiz-adv-x="960" d="M835.2 928h-710.4c-68.8 0-124.8-56-124.8-124.8v-710.4c0-68.8 56-124.8 124.8-124.8h710.4c68.8 0 124.8 56 124.8 124.8v710.4c0 68.8-56 124.8-124.8 124.8zM630.4 329.6l-150.4-150.4-22.4 22.4c0 0 0 0 0 0l-128 128c-12.8 12.8-12.8 32 0 44.8s32 12.8 44.8 0l73.6-73.6v339.2c0 17.6 14.4 32 32 32s32-14.4 32-32v-339.2l73.6 73.6c12.8 12.8 32 12.8 44.8 0s12.8-32 0-44.8z" />
<glyph unicode="&#xe606;" glyph-name="arrow-down" d="M867.2-64h-710.4c-86.4 0-156.8 70.4-156.8 156.8v710.4c0 86.4 70.4 156.8 156.8 156.8h710.4c86.4 0 156.8-70.4 156.8-156.8v-710.4c0-86.4-70.4-156.8-156.8-156.8zM156.8 896c-51.2 0-92.8-41.6-92.8-92.8v-710.4c0-51.2 41.6-92.8 92.8-92.8h710.4c51.2 0 92.8 41.6 92.8 92.8v710.4c0 51.2-41.6 92.8-92.8 92.8h-710.4zM512 192c-17.6 0-32 14.4-32 32v416c0 17.6 14.4 32 32 32s32-14.4 32-32v-416c0-17.6-14.4-32-32-32zM512 179.2l-150.4 150.4c-12.8 12.8-12.8 32 0 44.8s32 12.8 44.8 0l105.6-105.6 105.6 105.6c12.8 12.8 32 12.8 44.8 0s12.8-32 0-44.8l-150.4-150.4z" />
<glyph unicode="&#xe607;" glyph-name="arrow-left-f" horiz-adv-x="960" d="M835.2 928h-710.4c-68.8 0-124.8-56-124.8-124.8v-710.4c0-68.8 56-124.8 124.8-124.8h710.4c68.8 0 124.8 56 124.8 124.8v710.4c0 68.8-56 124.8-124.8 124.8zM672 416h-339.2l73.6-73.6c12.8-12.8 12.8-32 0-44.8-6.4-6.4-14.4-9.6-22.4-9.6s-16 3.2-22.4 9.6l-128 128c0 0 0 0 0 0l-22.4 22.4 150.4 150.4c12.8 12.8 32 12.8 44.8 0s12.8-32 0-44.8l-73.6-73.6h339.2c17.6 0 32-14.4 32-32s-14.4-32-32-32z" />
<glyph unicode="&#xe608;" glyph-name="arrow-left" d="M867.2-64h-710.4c-86.4 0-156.8 70.4-156.8 156.8v710.4c0 86.4 70.4 156.8 156.8 156.8h710.4c86.4 0 156.8-70.4 156.8-156.8v-710.4c0-86.4-70.4-156.8-156.8-156.8zM156.8 896c-51.2 0-92.8-41.6-92.8-92.8v-710.4c0-51.2 41.6-92.8 92.8-92.8h710.4c51.2 0 92.8 41.6 92.8 92.8v710.4c0 51.2-41.6 92.8-92.8 92.8h-710.4zM704 416h-416c-17.6 0-32 14.4-32 32s14.4 32 32 32h416c17.6 0 32-14.4 32-32s-14.4-32-32-32zM416 288c-8 0-16 3.2-22.4 9.6l-150.4 150.4 150.4 150.4c12.8 12.8 32 12.8 44.8 0s12.8-32 0-44.8l-105.6-105.6 105.6-105.6c12.8-12.8 12.8-32 0-44.8-6.4-6.4-14.4-9.6-22.4-9.6z" />
<glyph unicode="&#xe609;" glyph-name="arrow-right-f" horiz-adv-x="960" d="M835.2 928h-710.4c-68.8 0-124.8-56-124.8-124.8v-710.4c0-68.8 56-124.8 124.8-124.8h710.4c68.8 0 124.8 56 124.8 124.8v710.4c0 68.8-56 124.8-124.8 124.8zM726.4 425.6c0 0 0 0 0 0l-128-128c-6.4-6.4-14.4-9.6-22.4-9.6s-16 3.2-22.4 9.6c-12.8 12.8-12.8 32 0 44.8l73.6 73.6h-339.2c-17.6 0-32 14.4-32 32s14.4 32 32 32h339.2l-73.6 73.6c-12.8 12.8-12.8 32 0 44.8s32 12.8 44.8 0l150.4-150.4-22.4-22.4z" />
<glyph unicode="&#xe60a;" glyph-name="arrow-right" d="M867.2-64h-710.4c-86.4 0-156.8 70.4-156.8 156.8v710.4c0 86.4 70.4 156.8 156.8 156.8h710.4c86.4 0 156.8-70.4 156.8-156.8v-710.4c0-86.4-70.4-156.8-156.8-156.8zM156.8 896c-51.2 0-92.8-41.6-92.8-92.8v-710.4c0-51.2 41.6-92.8 92.8-92.8h710.4c51.2 0 92.8 41.6 92.8 92.8v710.4c0 51.2-41.6 92.8-92.8 92.8h-710.4zM736 416h-416c-17.6 0-32 14.4-32 32s14.4 32 32 32h416c17.6 0 32-14.4 32-32s-14.4-32-32-32zM608 288c-8 0-16 3.2-22.4 9.6-12.8 12.8-12.8 32 0 44.8l105.6 105.6-105.6 105.6c-12.8 12.8-12.8 32 0 44.8s32 12.8 44.8 0l150.4-150.4-150.4-150.4c-6.4-6.4-14.4-9.6-22.4-9.6z" />
<glyph unicode="&#xe60b;" glyph-name="arrow-up-f" horiz-adv-x="960" d="M835.2 928h-710.4c-68.8 0-124.8-56-124.8-124.8v-710.4c0-68.8 56-124.8 124.8-124.8h710.4c68.8 0 124.8 56 124.8 124.8v710.4c0 68.8-56 124.8-124.8 124.8zM630.4 521.6c-6.4-6.4-14.4-9.6-22.4-9.6s-16 3.2-22.4 9.6l-73.6 73.6v-339.2c0-17.6-14.4-32-32-32s-32 14.4-32 32v339.2l-73.6-73.6c-12.8-12.8-32-12.8-44.8 0s-12.8 32 0 44.8l128 128c0 0 0 0 0 0l22.4 22.4 150.4-150.4c12.8-12.8 12.8-32 0-44.8z" />
<glyph unicode="&#xe60c;" glyph-name="arrow-up" d="M867.2-64h-710.4c-86.4 0-156.8 70.4-156.8 156.8v710.4c0 86.4 70.4 156.8 156.8 156.8h710.4c86.4 0 156.8-70.4 156.8-156.8v-710.4c0-86.4-70.4-156.8-156.8-156.8zM156.8 896c-51.2 0-92.8-41.6-92.8-92.8v-710.4c0-51.2 41.6-92.8 92.8-92.8h710.4c51.2 0 92.8 41.6 92.8 92.8v710.4c0 51.2-41.6 92.8-92.8 92.8h-710.4zM512 224c-17.6 0-32 14.4-32 32v416c0 17.6 14.4 32 32 32s32-14.4 32-32v-416c0-17.6-14.4-32-32-32zM640 512c-8 0-16 3.2-22.4 9.6l-105.6 105.6-105.6-105.6c-12.8-12.8-32-12.8-44.8 0s-12.8 32 0 44.8l150.4 150.4 150.4-150.4c12.8-12.8 12.8-32 0-44.8-6.4-6.4-14.4-9.6-22.4-9.6z" />
<glyph unicode="&#xe60d;" glyph-name="backspace-f" horiz-adv-x="960" d="M835.2 800h-454.4c-38.4 0-72-17.6-96-44.8l-284.8-307.2 288-310.4c22.4-25.6 56-41.6 92.8-41.6h454.4c68.8 0 124.8 56 124.8 124.8v454.4c0 68.8-56 124.8-124.8 124.8zM726.4 342.4c12.8-12.8 12.8-32 0-44.8-6.4-6.4-14.4-9.6-22.4-9.6s-16 3.2-22.4 9.6l-105.6 105.6-105.6-105.6c-6.4-6.4-14.4-9.6-22.4-9.6s-16 3.2-22.4 9.6c-12.8 12.8-12.8 32 0 44.8l105.6 105.6-105.6 105.6c-12.8 12.8-12.8 32 0 44.8s32 12.8 44.8 0l105.6-105.6 105.6 105.6c12.8 12.8 32 12.8 44.8 0s12.8-32 0-44.8l-105.6-105.6 105.6-105.6z" />
<glyph unicode="&#xe60e;" glyph-name="backspace" d="M868.8 68.8h-449.6c-43.2 0-84.8 19.2-115.2 51.2l-304 328 302.4 324.8c28.8 35.2 72 54.4 118.4 54.4h449.6c84.8 0 155.2-68.8 155.2-155.2v-448c-1.6-86.4-70.4-155.2-156.8-155.2zM86.4 448l265.6-284.8c17.6-20.8 41.6-32 68.8-32h449.6c51.2 0 91.2 41.6 91.2 91.2v449.6c0 51.2-41.6 91.2-91.2 91.2h-451.2c-27.2 0-52.8-11.2-70.4-32l-1.6-1.6-260.8-281.6zM739.2 289.6c-8 0-16 3.2-22.4 9.6l-252.8 252.8c-12.8 12.8-12.8 32 0 44.8s32 12.8 44.8 0l252.8-252.8c12.8-12.8 12.8-32 0-44.8-6.4-6.4-14.4-9.6-22.4-9.6zM486.4 289.6c-8 0-16 3.2-22.4 9.6-12.8 12.8-12.8 32 0 44.8l252.8 252.8c12.8 12.8 32 12.8 44.8 0s12.8-32 0-44.8l-252.8-252.8c-6.4-6.4-14.4-9.6-22.4-9.6z" />
<glyph unicode="&#xe60f;" glyph-name="book-1-f" horiz-adv-x="704" d="M0 832c0-70.4 57.6-128 128-128h576v-704h-576c-70.4 0-128 57.6-128 128v704zM64 832c0-35.2 28.8-64 64-64h512v128h-512c-35.2 0-64-28.8-64-64z" />
<glyph unicode="&#xe610;" glyph-name="book-1" horiz-adv-x="768" d="M672 768h-512c-17.6 0-32 14.4-32 32s14.4 32 32 32h512c17.6 0 32-14.4 32-32s-14.4-32-32-32zM736-64h-576c-88 0-160 72-160 160v704c0 88 72 160 160 160h576c17.6 0 32-14.4 32-32s-14.4-32-32-32h-576c-52.8 0-96-43.2-96-96s43.2-96 96-96h576c8 0 16-3.2 22.4-9.6s9.6-14.4 9.6-22.4v-704c0-17.6-14.4-32-32-32zM64 672v-576c0-52.8 43.2-96 96-96h544v640h-544c-35.2 0-68.8 11.2-96 32z" />
<glyph unicode="&#xe611;" glyph-name="book-audio-f" horiz-adv-x="992" d="M80 760h492.8v64h-492.8c-17.6 0-32-14.4-32-32s14.4-32 32-32zM772.8 608c-12.8 11.2-33.6 9.6-44.8-3.2s-9.6-33.6 3.2-44.8c44.8-38.4 68.8-94.4 68.8-153.6s-25.6-113.6-68.8-153.6c-12.8-11.2-14.4-32-3.2-44.8 6.4-8 14.4-11.2 24-11.2 8 0 14.4 3.2 20.8 8 57.6 51.2 91.2 124.8 91.2 201.6 0 78.4-33.6 150.4-91.2 201.6zM859.2 688c-14.4 11.2-33.6 9.6-44.8-4.8s-9.6-33.6 4.8-44.8c68.8-56 108.8-140.8 108.8-230.4s-40-172.8-108.8-228.8c-14.4-11.2-16-32-4.8-44.8 6.4-8 16-11.2 24-11.2 6.4 0 14.4 1.6 20.8 8 84.8 65.6 132.8 168 132.8 275.2 0 110.4-48 211.2-132.8 281.6zM0 792v-640c0-44.8 35.2-80 80-80h560v640h-560c-44.8 0-80 36.8-80 80zM192 440c0 9.6 6.4 16 16 16h96l144 128v-384l-144 128h-96c-9.6 0-16 6.4-16 16v96z" />
<glyph unicode="&#xe612;" glyph-name="book-audio" d="M784 174.4c-9.6 0-17.6 3.2-24 11.2-11.2 12.8-9.6 33.6 3.2 44.8 43.2 38.4 68.8 94.4 68.8 152 0 59.2-25.6 113.6-68.8 152-12.8 11.2-14.4 32-3.2 44.8s32 14.4 44.8 3.2c57.6-49.6 91.2-121.6 91.2-198.4s-33.6-150.4-91.2-200c-6.4-6.4-12.8-9.6-20.8-9.6zM872 97.6c-9.6 0-17.6 3.2-24 11.2-11.2 14.4-9.6 33.6 4.8 44.8 67.2 57.6 107.2 140.8 107.2 230.4s-40 174.4-108.8 230.4c-14.4 11.2-16 32-4.8 44.8 11.2 14.4 32 16 44.8 4.8 84.8-70.4 132.8-171.2 132.8-280s-48-209.6-131.2-278.4c-6.4-6.4-12.8-8-20.8-8zM480 144c-8 0-16 3.2-20.8 8l-136 120h-83.2c-27.2 0-48 20.8-48 48v96c0 27.2 20.8 48 48 48h83.2l134.4 120c9.6 8 22.4 11.2 33.6 4.8 11.2-4.8 19.2-16 19.2-28.8v-384c0-12.8-8-24-19.2-28.8-3.2-1.6-6.4-3.2-11.2-3.2zM256 336h80c8 0 16-3.2 20.8-8l91.2-80v240l-91.2-80c-6.4-4.8-12.8-8-20.8-8h-80v-64zM672 16h-560c-62.4 0-112 49.6-112 112v640c0 62.4 49.6 112 112 112h496c17.6 0 32-14.4 32-32v-128h32c17.6 0 32-14.4 32-32v-640c0-17.6-14.4-32-32-32zM64 667.2v-539.2c0-27.2 20.8-48 48-48h528v576h-528c-17.6 0-33.6 3.2-48 11.2zM112 816c-27.2 0-48-20.8-48-48s20.8-48 48-48h464v96h-464z" />
<glyph unicode="&#xe613;" glyph-name="book-author-f" horiz-adv-x="704" d="M64 832c0-35.2 28.8-64 64-64h512v128h-512c-35.2 0-64-28.8-64-64zM128 704c-70.4 0-128 57.6-128 128v-704c0-70.4 57.6-128 128-128h576v704h-576zM192 192c0 0 0 68.8 52.8 80s52.8 30.4 52.8 43.2v19.2c-22.4 20.8-43.2 54.4-43.2 92.8v60.8c0 59.2 54.4 89.6 96 89.6s96-30.4 96-89.6v-60.8c0-38.4-19.2-72-43.2-91.2v-19.2c0-12.8 0-32 56-43.2 49.6-11.2 51.2-80 51.2-80h-318.4z" />
<glyph unicode="&#xe614;" glyph-name="book-author" horiz-adv-x="768" d="M672 768h-512c-17.6 0-32 14.4-32 32s14.4 32 32 32h512c17.6 0 32-14.4 32-32s-14.4-32-32-32zM736-64h-576c-88 0-160 72-160 160v704c0 88 72 160 160 160h576c17.6 0 32-14.4 32-32s-14.4-32-32-32h-576c-52.8 0-96-43.2-96-96s43.2-96 96-96h576c8 0 16-3.2 22.4-9.6s9.6-14.4 9.6-22.4v-704c0-17.6-14.4-32-32-32zM64 672v-576c0-52.8 43.2-96 96-96h544v640h-544c-35.2 0-68.8 11.2-96 32zM576 128h-384v32c0 32 16 97.6 78.4 110.4 19.2 4.8 25.6 8 28.8 9.6 0 0 0 1.6 0 1.6v6.4c-27.2 30.4-43.2 68.8-43.2 107.2v59.2c0 75.2 67.2 121.6 128 121.6s128-46.4 128-121.6v-59.2c0-38.4-16-76.8-43.2-105.6v-6.4c0 0 0-1.6 0-1.6 1.6-1.6 9.6-6.4 30.4-11.2 59.2-12.8 76.8-75.2 76.8-110.4v-32zM264 192h240c-3.2 8-9.6 14.4-17.6 16-54.4 11.2-80 35.2-80 75.2v33.6l11.2 9.6c16 14.4 32 38.4 32 67.2v59.2c0 40-38.4 57.6-64 57.6s-64-17.6-64-57.6v-59.2c0-28.8 16-54.4 32-68.8l11.2-9.6v-33.6c0-40-25.6-64-78.4-75.2v0c-11.2 0-17.6-6.4-22.4-14.4z" />
<glyph unicode="&#xe615;" glyph-name="book-bookmark-f" horiz-adv-x="704" d="M576 384l-126.4 96-129.6-96v384h256zM640 704v-449.6l-190.4 145.6-91.2-67.2-102.4-76.8v448h-128c-70.4 0-128 57.6-128 128v-704c0-70.4 57.6-128 128-128h576v704h-64zM640 896h-512c-35.2 0-64-28.8-64-64s28.8-64 64-64h128v64h384z" />
<glyph unicode="&#xe616;" glyph-name="book-bookmark" horiz-adv-x="768" d="M736-64h-576c-88 0-160 72-160 160v736c0 17.6 14.4 32 32 32s32-14.4 32-32v-736c0-52.8 43.2-96 96-96h544v704h-96c-17.6 0-32 14.4-32 32s14.4 32 32 32h128c8 0 16-3.2 22.4-9.6s9.6-14.4 9.6-22.4v-768c0-17.6-14.4-32-32-32zM640 352l-158.4 120-161.6-120v480h320v-480zM384 768v-288l97.6 72 94.4-72v288h-192zM352 704h-224c-70.4 0-128 57.6-128 128s57.6 128 128 128h544c17.6 0 32-14.4 32-32s-14.4-32-32-32h-544c-35.2 0-64-28.8-64-64s28.8-64 64-64h224c17.6 0 32-14.4 32-32s-14.4-32-32-32z" />
<glyph unicode="&#xe617;" glyph-name="book-check-f" horiz-adv-x="960" d="M63.751 832c0-35.2 28.8-64 64-64h448v128h-448c-35.2 0-64-28.8-64-64zM703.751 512c-140.8 0-256-115.2-256-256s115.2-256 256-256c140.8 0 256 115.2 256 256 0 142.4-115.2 256-256 256zM839.751 299.2l-150.4-169.6-104 104c-12.8 12.8-12.8 32 0 44.8s32 12.8 44.8 0l56-56 105.6 118.4c11.2 12.8 32 14.4 44.8 3.2s14.4-32 3.2-44.8zM383.751 256c0 155.2 110.4 283.2 256 313.6v134.4h-512c-70.4 0-128 57.6-128 128v-608c0-70.4 57.6-128 128-128h299.2c-27.2 46.4-43.2 102.4-43.2 160z" />
<glyph unicode="&#xe618;" glyph-name="book-check" d="M736-64c-158.4 0-288 129.6-288 288s129.6 288 288 288 288-129.6 288-288-129.6-288-288-288zM736 448c-123.2 0-224-100.8-224-224s100.8-224 224-224 224 100.8 224 224-100.8 224-224 224zM721.6 97.6l-104 104c-12.8 12.8-12.8 32 0 44.8s32 12.8 44.8 0l56-56 105.6 118.4c11.2 12.8 32 14.4 44.8 3.2s14.4-32 3.2-44.8l-150.4-169.6zM640 768h-480c-17.6 0-32 14.4-32 32s14.4 32 32 32h480c17.6 0 32-14.4 32-32s-14.4-32-32-32zM536 32h-376c-88 0-160 72-160 160v608c0 17.6 14.4 32 32 32s32-14.4 32-32v-608c0-52.8 43.2-96 96-96h376c17.6 0 32-14.4 32-32s-14.4-32-32-32zM672 440v0c-17.6 0-32 14.4-32 32v168h-480c-88 0-160 72-160 160s72 160 160 160h512c17.6 0 32-14.4 32-32s-14.4-32-32-32h-512c-52.8 0-96-43.2-96-96s43.2-96 96-96h512c8 0 16-3.2 22.4-9.6s9.6-14.4 9.6-22.4v-200c0-17.6-14.4-32-32-32z" />
<glyph unicode="&#xe619;" glyph-name="book-cover-f" horiz-adv-x="704" d="M63.817 832c0-35.2 28.8-64 64-64h512v128h-512c-35.2 0-64-28.8-64-64zM127.817 704c-70.4 0-128 57.6-128 128v-704c0-70.4 57.6-128 128-128h576v704h-576zM511.817 320h-320v256h320v-256z" />
<glyph unicode="&#xe61a;" glyph-name="book-cover" horiz-adv-x="768" d="M671.801 768h-512c-17.6 0-32 14.4-32 32s14.4 32 32 32h512c17.6 0 32-14.4 32-32s-14.4-32-32-32zM735.801-64h-576c-88 0-160 72-160 160v704c0 88 72 160 160 160h576c17.6 0 32-14.4 32-32s-14.4-32-32-32h-576c-52.8 0-96-43.2-96-96s43.2-96 96-96h576c8 0 16-3.2 22.4-9.6s9.6-14.4 9.6-22.4v-704c0-17.6-14.4-32-32-32zM63.801 672v-576c0-52.8 43.2-96 96-96h544v640h-544c-35.2 0-68.8 11.2-96 32zM575.801 256h-384v320h384v-320zM255.801 320h256v192h-256v-192z" />
<glyph unicode="&#xe61b;" glyph-name="book-down-circle-f" horiz-adv-x="960" d="M63.751 832c0-35.2 28.8-64 64-64h448v128h-448c-35.2 0-64-28.8-64-64zM383.751 256c0 155.2 110.4 283.2 256 313.6v134.4h-512c-70.4 0-128 57.6-128 128v-608c0-70.4 57.6-128 128-128h299.2c-27.2 46.4-43.2 102.4-43.2 160zM703.751 512c-140.8 0-256-115.2-256-256s115.2-256 256-256c140.8 0 256 115.2 256 256 0 142.4-115.2 256-256 256zM822.151 201.6l-118.4-118.4-118.4 118.4c-12.8 12.8-12.8 32 0 44.8s32 12.8 44.8 0l41.6-41.6v179.2c0 17.6 14.4 32 32 32s32-14.4 32-32v-179.2l41.6 41.6c12.8 12.8 32 12.8 44.8 0 12.8-11.2 12.8-32 0-44.8z" />
<glyph unicode="&#xe61c;" glyph-name="book-down-circle" d="M640 768h-480c-17.6 0-32 14.4-32 32s14.4 32 32 32h480c17.6 0 32-14.4 32-32s-14.4-32-32-32zM536 32h-376c-88 0-160 72-160 160v608c0 17.6 14.4 32 32 32s32-14.4 32-32v-608c0-52.8 43.2-96 96-96h376c17.6 0 32-14.4 32-32s-14.4-32-32-32zM672 446.4v0c-17.6 0-32 14.4-32 32v161.6h-480c-88 0-160 72-160 160s72 160 160 160h512c17.6 0 32-14.4 32-32s-14.4-32-32-32h-512c-52.8 0-96-43.2-96-96s43.2-96 96-96h512c8 0 16-3.2 22.4-9.6s9.6-14.4 9.6-22.4v-193.6c0-17.6-14.4-32-32-32zM736-64c-158.4 0-288 129.6-288 288s129.6 288 288 288 288-129.6 288-288-129.6-288-288-288zM736 448c-123.2 0-224-100.8-224-224s100.8-224 224-224 224 100.8 224 224-100.8 224-224 224zM736 64c-17.6 0-32 14.4-32 32v256c0 17.6 14.4 32 32 32s32-14.4 32-32v-256c0-17.6-14.4-32-32-32zM736 51.2l-118.4 118.4c-12.8 12.8-12.8 32 0 44.8s32 12.8 44.8 0l73.6-73.6 73.6 73.6c12.8 12.8 32 12.8 44.8 0s12.8-32 0-44.8l-118.4-118.4z" />
<glyph unicode="&#xe61d;" glyph-name="book-down-f" horiz-adv-x="608" d="M79.842 862.4h476.8v64h-476.8c-17.6 0-32-14.4-32-32s14.4-32 32-32zM393.442 136l-41.6-41.6v355.2c0 17.6-14.4 32-32 32s-32-14.4-32-32v-356.8l-41.6 41.6c-12.8 12.8-32 12.8-44.8 0s-12.8-32 0-44.8l118.4-123.2 118.4 123.2c12.8 12.8 12.8 33.6 0 44.8-12.8 14.4-33.6 14.4-44.8 1.6zM79.842 816c-44.8 0-80 35.2-80 80v-608c0-44.8 35.2-80 80-80h121.6c6.4 1.6 14.4 3.2 22.4 3.2v240c0 52.8 43.2 96 96 96s96-43.2 96-96v-240c8 0 14.4-1.6 22.4-3.2h169.6v608h-528z" />
<glyph unicode="&#xe61e;" glyph-name="book-down" horiz-adv-x="672" d="M630.228 139.2h-158.4c-17.6 0-32 14.4-32 32s14.4 32 32 32h126.4v536h-488c-60.8 0-110.4 49.6-110.4 110.4s49.6 110.4 110.4 110.4h457.6c17.6 0 32-14.4 32-32v-126.4h32c17.6 0 32-14.4 32-32v-600c-1.6-16-16-30.4-33.6-30.4zM110.228 897.6c-25.6 0-48-20.8-48-48s20.8-48 48-48h425.6v96h-425.6zM220.628 139.2h-110.4c-60.8 0-110.4 49.6-110.4 110.4v600c0 17.6 14.4 32 32 32s32-14.4 32-32v-600c0-25.6 20.8-48 48-48h110.4c17.6 0 32-14.4 32-32s-16-30.4-33.6-30.4zM347.028-49.6c-17.6 0-32 14.4-32 32v428.8c0 17.6 14.4 32 32 32s32-14.4 32-32v-428.8c0-19.2-14.4-32-32-32zM347.028-64l-116.8 121.6c-12.8 12.8-11.2 32 0 44.8 12.8 12.8 32 11.2 44.8 0l72-73.6 72 73.6c12.8 12.8 32 12.8 44.8 0s12.8-32 0-44.8l-116.8-121.6z" />
<glyph unicode="&#xe61f;" glyph-name="book-edit-f" horiz-adv-x="960" d="M847.751 512l-332.8-331.2-70.4-180.8 182.4 68.8 332.8 331.2zM127.751 768h448v128h-448c-35.2 0-64-28.8-64-64s28.8-64 64-64zM470.151 225.6l169.6 169.6v308.8h-512c-70.4 0-128 57.6-128 128v-608c0-70.4 57.6-128 128-128h286.4l41.6 107.2c3.2 8 8 16 14.4 22.4z" />
<glyph unicode="&#xe620;" glyph-name="book-edit" d="M160 832c-17.6 0-32-14.4-32-32s14.4-32 32-32h480c17.6 0 32 14.4 32 32s-14.4 32-32 32h-480zM1016 390.4l-112 112c-12.8 12.8-32 12.8-44.8 0l-155.2-155.2v324.8c0 17.6-14.4 32-32 32h-512c-52.8 0-96 43.2-96 96s43.2 96 96 96h512c17.6 0 32 14.4 32 32s-14.4 32-32 32h-512c-88 0-160-72-160-160v-608c0-88 72-160 160-160h308.8l-20.8-52.8c-4.8-11.2-3.2-24 6.4-33.6 6.4-6.4 14.4-9.6 22.4-9.6 4.8 0 8 0 12.8 1.6l182.4 68.8c4.8 1.6 8 4.8 11.2 8l331.2 331.2c6.4 6.4 9.6 14.4 9.6 22.4s-3.2 16-8 22.4zM160 96c-52.8 0-96 43.2-96 96v480c27.2-20.8 60.8-32 96-32h480v-355.2l-113.6-113.6c-3.2-3.2-6.4-6.4-8-11.2l-25.6-64h-332.8zM560 92.8l41.6-41.6-68.8-25.6 27.2 67.2zM659.2 83.2l-67.2 65.6 99.2 99.2c3.2 1.6 4.8 3.2 6.4 6.4l182.4 180.8 65.6-65.6-286.4-286.4z" />
<glyph unicode="&#xe621;" glyph-name="book-iso-1-f" horiz-adv-x="576" d="M33.45 664c1.6-3.2 17.6-12.8 44.8-12.8 14.4 0 27.2 3.2 35.2 8l344 217.6c-19.2 9.6-35.2 24-46.4 36.8l-296-190.4-51.2-32c-28.8-16-30.4-27.2-30.4-27.2zM129.45 616c-48-27.2-129.6-9.6-128 30.4v-601.6c0-64 88-83.2 160-41.6l416 264v632l-448-283.2zM193.45 142.4c0-17.6-14.4-32-32-32s-32 14.4-32 32v368c0 17.6 14.4 32 32 32s32-14.4 32-32v-368z" />
<glyph unicode="&#xe622;" glyph-name="book-iso-1" horiz-adv-x="640" d="M111.835-64c-24 0-46.4 4.8-65.6 16-30.4 17.6-46.4 46.4-46.4 80v601.6c0 1.6 0 1.6 0 3.2 0 22.4 12.8 51.2 60.8 80l51.2 32 320 206.4c14.4 9.6 33.6 4.8 43.2-9.6s4.8-35.2-9.6-44.8l-321.6-208-51.2-32c-27.2-17.6-30.4-27.2-30.4-27.2s4.8-4.8 19.2-9.6c20.8-6.4 46.4-4.8 60.8 4.8l496 313.6v-707.2l-430.4-272c-30.4-17.6-64-27.2-96-27.2zM62.235 564.8v-532.8c0-6.4 1.6-16 14.4-24 20.8-11.2 60.8-11.2 97.6 9.6l400 254.4v555.2l-398.4-251.2c-33.6-19.2-78.4-22.4-113.6-11.2zM190.235 96c-17.6 0-32 14.4-32 32v369.6c0 17.6 14.4 32 32 32s32-14.4 32-32v-369.6c0-17.6-14.4-32-32-32z" />
<glyph unicode="&#xe623;" glyph-name="book-iso-2-f" horiz-adv-x="576" d="M-0.15 892.8c0 0 0-606.4 0-664 0-64 46.4-78.4 46.4-78.4l401.6-171.2v689.6c0 0-360 153.6-395.2 169.6 0 0-52.8 19.2-52.8 54.4zM137.45 899.2c-24 11.2-49.6 17.6-70.4 17.6-14.4 0-25.6-3.2-32-9.6-3.2-3.2-3.2-4.8-3.2-4.8 1.6-3.2 12.8-16 33.6-25.6 27.2-12.8 331.2-142.4 446.4-192v-609.6l64-32v668.8l-438.4 187.2z" />
<glyph unicode="&#xe624;" glyph-name="book-iso-2" horiz-adv-x="640" d="M503.836-64l-438.4 185.6c-25.6 8-65.6 40-65.6 107.2v652.8c0 0 0 0 0 0 0 17.6 8 35.2 22.4 49.6 44.8 41.6 116.8 28.8 171.2 3.2l436.8-182.4v-660.8c0-17.6-14.4-32-32-32s-32 14.4-32 32v619.2l-400 168c-35.2 17.6-81.6 25.6-100.8 8-1.6-1.6-3.2-3.2-3.2-3.2s0 0 0 0c1.6-3.2 12.8-16 33.6-25.6 33.6-16 385.6-164.8 388.8-166.4l19.2-8v-747.2zM63.836 803.2v-574.4c0-36.8 20.8-46.4 24-48h1.6l352-148.8v609.6c-75.2 32-339.2 145.6-371.2 158.4-1.6 1.6-4.8 1.6-6.4 3.2z" />
<glyph unicode="&#xe625;" glyph-name="book-iso-3-f" horiz-adv-x="992" d="M30.143 464c59.2-25.6 440-192 440-192l512 288-416 184c0 0-60.8 24-112-9.6-36.8-22.4-446.4-270.4-446.4-270.4 9.6 6.4 22.4 0 22.4 0zM924.543 462.4l-454.4-254.4-438.4 190.4c-17.6 6.4-32-3.2-32-20.8s14.4-36.8 32-43.2l438.4-190.4 518.4 286.4-64 32z" />
<glyph unicode="&#xe626;" glyph-name="book-iso-3" d="M464 123.2l-414.4 190.4c-44.8 22.4-62.4 105.6-41.6 150.4 6.4 12.8 14.4 22.4 25.6 28.8 32 20.8 363.2 238.4 396.8 259.2 62.4 38.4 132.8 12.8 136 11.2l457.6-201.6-560-315.2-14.4 6.4c-3.2 1.6-320 153.6-387.2 182.4-1.6-6.4-1.6-19.2 1.6-35.2 3.2-19.2 11.2-28.8 12.8-30.4l385.6-177.6 478.4 268.8c14.4 8 33.6 3.2 41.6-11.2s3.2-33.6-11.2-41.6l-507.2-284.8zM121.6 476.8c89.6-41.6 284.8-134.4 340.8-161.6l424 238.4-342.4 152c-4.8 1.6-46.4 14.4-80-6.4-27.2-16-240-155.2-342.4-222.4z" />
<glyph unicode="&#xe627;" glyph-name="book-open-1-f" horiz-adv-x="960" d="M895.751 748.8v-608c0-35.2-28.8-64-64-64h-161.6c-36.8 0-75.2-14.4-100.8-38.4 20.8 3.2 44.8 6.4 70.4 6.4 49.6 0 320 0 320 0v704c0 0-22.4 0-64 0zM447.751 720c-33.6 16-94.4 28.8-192 28.8-166.4 0-256 0-256 0v-704c0 0 270.4 0 320 0 56 0 100.8-11.2 128-25.6v700.8zM681.351 876.8c-81.6 0-137.6-48-169.6-99.2v-708.8c35.2 44.8 96 72 158.4 72 41.6 0 161.6 0 161.6 0v736c0 0-60.8 0-150.4 0z" />
<glyph unicode="&#xe628;" glyph-name="book-open-1" d="M480-1.6c-3.2 9.6-44.8 33.6-128 33.6h-352v768h288c211.2 0 256-52.8 256-96v-700.8h-64c0-3.2 0-3.2 0-4.8zM64 96h288c51.2 0 94.4-8 128-22.4v628.8c-8 9.6-56 33.6-192 33.6h-224v-640zM544-1.6c0 0 0 1.6 0 3.2h-64c0 54.4 81.6 92.8 192 92.8h288v641.6h-96v64h160v-768h-352c-83.2 0-124.8-24-128-33.6zM512-32c-17.6 0-32 14.4-32 32 0 105.6 99.2 192 222.4 192h129.6v672h-118.4c-116.8 0-169.6-115.2-169.6-160 0-17.6-14.4-32-32-32s-32 14.4-32 32c0 78.4 80 224 233.6 224h182.4v-800h-193.6c-76.8 0-158.4-51.2-158.4-128 0-17.6-14.4-32-32-32z" />
<glyph unicode="&#xe629;" glyph-name="book-open-2-f" horiz-adv-x="960" d="M447.751 777.6c-24 27.2-57.6 43.2-96 43.2h-352v-704h352c38.4 0 72-17.6 96-43.2v704zM607.751 822.4c-38.4 0-72-17.6-96-43.2v-704c24 27.2 57.6 43.2 96 43.2h352v704h-352z" />
<glyph unicode="&#xe62a;" glyph-name="book-open-2" d="M544 32h-64c0 52.8-43.2 96-96 96h-384v768h384c88 0 160-72 160-160v-704zM64 192h320c35.2 0 68.8-11.2 96-32v576c0 52.8-43.2 96-96 96h-320v-640zM512 0c-17.6 0-32 14.4-32 32 0 88 72 160 160 160h320v640h-320c-52.8 0-96-43.2-96-96 0-17.6-14.4-32-32-32s-32 14.4-32 32c0 88 72 160 160 160h384v-768h-384c-52.8 0-96-43.2-96-96 0-17.6-14.4-32-32-32z" />
<glyph unicode="&#xe62b;" glyph-name="book-open-3-f" horiz-adv-x="960" d="M351.751 822.4h-352v-704h352c38.4 0 72-17.6 96-43.2v704c-24 25.6-57.6 43.2-96 43.2zM351.751 246.4h-224c-17.6 0-32 14.4-32 32s14.4 32 32 32h224c17.6 0 32-14.4 32-32s-14.4-32-32-32zM351.751 374.4h-224c-17.6 0-32 14.4-32 32s14.4 32 32 32h224c17.6 0 32-14.4 32-32s-14.4-32-32-32zM351.751 502.4h-224c-17.6 0-32 14.4-32 32s14.4 32 32 32h224c17.6 0 32-14.4 32-32s-14.4-32-32-32zM351.751 630.4h-224c-17.6 0-32 14.4-32 32s14.4 32 32 32h224c17.6 0 32-14.4 32-32s-14.4-32-32-32zM607.751 822.4c-38.4 0-72-17.6-96-43.2v-704c24 27.2 57.6 43.2 96 43.2h352v704h-352zM831.751 246.4h-224c-17.6 0-32 14.4-32 32s14.4 32 32 32h224c17.6 0 32-14.4 32-32s-14.4-32-32-32zM831.751 374.4h-224c-17.6 0-32 14.4-32 32s14.4 32 32 32h224c17.6 0 32-14.4 32-32s-14.4-32-32-32zM831.751 502.4h-224c-17.6 0-32 14.4-32 32s14.4 32 32 32h224c17.6 0 32-14.4 32-32s-14.4-32-32-32zM831.751 630.4h-224c-17.6 0-32 14.4-32 32s14.4 32 32 32h224c17.6 0 32-14.4 32-32s-14.4-32-32-32z" />
<glyph unicode="&#xe62c;" glyph-name="book-open-3" d="M544 32h-64c0 52.8-43.2 96-96 96h-384v768h384c88 0 160-72 160-160v-704zM64 192h320c35.2 0 68.8-11.2 96-32v576c0 52.8-43.2 96-96 96h-320v-640zM512 0c-17.6 0-32 14.4-32 32 0 88 72 160 160 160h320v640h-320c-52.8 0-96-43.2-96-96 0-17.6-14.4-32-32-32s-32 14.4-32 32c0 88 72 160 160 160h384v-768h-384c-52.8 0-96-43.2-96-96 0-17.6-14.4-32-32-32zM384 672h-224c-17.6 0-32 14.4-32 32s14.4 32 32 32h224c17.6 0 32-14.4 32-32s-14.4-32-32-32zM384 544h-224c-17.6 0-32 14.4-32 32s14.4 32 32 32h224c17.6 0 32-14.4 32-32s-14.4-32-32-32zM384 416h-224c-17.6 0-32 14.4-32 32s14.4 32 32 32h224c17.6 0 32-14.4 32-32s-14.4-32-32-32zM384 288h-224c-17.6 0-32 14.4-32 32s14.4 32 32 32h224c17.6 0 32-14.4 32-32s-14.4-32-32-32zM864 672h-224c-17.6 0-32 14.4-32 32s14.4 32 32 32h224c17.6 0 32-14.4 32-32s-14.4-32-32-32zM864 544h-224c-17.6 0-32 14.4-32 32s14.4 32 32 32h224c17.6 0 32-14.4 32-32s-14.4-32-32-32zM864 416h-224c-17.6 0-32 14.4-32 32s14.4 32 32 32h224c17.6 0 32-14.4 32-32s-14.4-32-32-32zM864 288h-224c-17.6 0-32 14.4-32 32s14.4 32 32 32h224c17.6 0 32-14.4 32-32s-14.4-32-32-32z" />
<glyph unicode="&#xe62d;" glyph-name="book-open-4-f" horiz-adv-x="960" d="M447.751 755.2c-75.2 70.4-272 89.6-448 89.6v-704c176 0 372.8-19.2 448-91.2v705.6zM511.751 755.2v-704c75.2 70.4 272 91.2 448 91.2v704c-176-1.6-372.8-20.8-448-91.2z" />
<glyph unicode="&#xe62e;" glyph-name="book-open-4" d="M544 16h-64c0 78.4-171.2 128-448 128h-32v768h32c233.6 0 512-33.6 512-192v-704zM64 208c156.8-1.6 326.4-20.8 416-81.6v593.6c0 75.2-158.4 124.8-416 128v-640zM512-16c-17.6 0-32 14.4-32 32 0 84.8 84.8 187.2 480 192v640c-257.6-3.2-416-51.2-416-128 0-17.6-14.4-32-32-32s-32 14.4-32 32c0 88 89.6 192 512 192h32v-768h-32c-276.8 0-448-49.6-448-128 0-17.6-14.4-32-32-32z" />
<glyph unicode="&#xe62f;" glyph-name="book-open-5-f" horiz-adv-x="960" d="M-0.249 140.8c176 0 372.8-19.2 448-91.2v704c-75.2 72-272 91.2-448 91.2v-704zM129.351 713.6c94.4-6.4 172.8-19.2 232-38.4 17.6-4.8 25.6-24 20.8-40-4.8-12.8-17.6-22.4-30.4-22.4-3.2 0-6.4 0-9.6 1.6-54.4 17.6-128 28.8-217.6 35.2-17.6 1.6-30.4 16-30.4 33.6 1.6 17.6 17.6 32 35.2 30.4zM129.351 593.6c94.4-6.4 172.8-19.2 232-38.4 17.6-4.8 25.6-24 20.8-40-4.8-12.8-17.6-22.4-30.4-22.4-3.2 0-6.4 0-9.6 1.6-54.4 17.6-128 28.8-217.6 35.2-17.6 1.6-30.4 16-30.4 33.6 1.6 17.6 17.6 32 35.2 30.4zM129.351 465.6c94.4-6.4 172.8-19.2 232-38.4 17.6-4.8 25.6-24 20.8-40-4.8-12.8-17.6-22.4-30.4-22.4-3.2 0-6.4 0-9.6 1.6-54.4 17.6-128 28.8-217.6 35.2-17.6 1.6-30.4 16-30.4 33.6 1.6 19.2 17.6 32 35.2 30.4zM129.351 345.6c94.4-6.4 172.8-19.2 232-38.4 17.6-4.8 25.6-24 20.8-40-4.8-12.8-17.6-22.4-30.4-22.4-3.2 0-6.4 0-9.6 1.6-54.4 17.6-128 28.8-217.6 35.2-17.6 1.6-30.4 16-30.4 33.6 1.6 19.2 17.6 32 35.2 30.4zM511.751 755.2v-704c75.2 70.4 272 91.2 448 91.2v704c-176-1.6-372.8-20.8-448-91.2zM833.351 281.6c-89.6-6.4-161.6-17.6-217.6-35.2-3.2-1.6-6.4-1.6-9.6-1.6-12.8 0-25.6 8-30.4 22.4-4.8 17.6 3.2 35.2 20.8 40 59.2 19.2 137.6 32 232 38.4 17.6 1.6 33.6-12.8 33.6-30.4 3.2-16-11.2-32-28.8-33.6zM833.351 401.6c-88-4.8-161.6-16-216-33.6-3.2-1.6-6.4-1.6-9.6-1.6-12.8 0-25.6 8-30.4 22.4-4.8 17.6 3.2 35.2 20.8 40 59.2 19.2 137.6 32 232 38.4 17.6 1.6 33.6-12.8 33.6-30.4 1.6-17.6-12.8-33.6-30.4-35.2zM833.351 529.6c-88-4.8-161.6-17.6-216-35.2-3.2-1.6-6.4-1.6-9.6-1.6-12.8 0-25.6 8-30.4 22.4-4.8 17.6 3.2 35.2 20.8 40 59.2 19.2 137.6 32 232 38.4 17.6 1.6 33.6-12.8 33.6-30.4 1.6-17.6-12.8-32-30.4-33.6zM833.351 649.6c-89.6-6.4-161.6-17.6-217.6-35.2-3.2-1.6-6.4-1.6-9.6-1.6-12.8 0-25.6 8-30.4 22.4-4.8 17.6 3.2 35.2 20.8 40 59.2 19.2 137.6 32 232 38.4 17.6 1.6 33.6-12.8 33.6-30.4 3.2-17.6-11.2-32-28.8-33.6z" />
<glyph unicode="&#xe630;" glyph-name="book-open-5" d="M544 16h-64c0 78.4-171.2 128-448 128h-32v768h32c233.6 0 512-33.6 512-192v-704zM64 208c156.8-1.6 326.4-20.8 416-81.6v593.6c0 75.2-158.4 124.8-416 128v-640zM384 648c-3.2 0-6.4 0-9.6 1.6-54.4 17.6-128 28.8-217.6 35.2-17.6 1.6-30.4 16-30.4 33.6 1.6 17.6 16 30.4 33.6 30.4 94.4-6.4 172.8-19.2 232-38.4 17.6-4.8 25.6-24 20.8-40-3.2-14.4-16-22.4-28.8-22.4zM384 528c-3.2 0-6.4 0-9.6 1.6-54.4 17.6-128 28.8-217.6 35.2-17.6 1.6-30.4 16-30.4 33.6 1.6 17.6 16 30.4 33.6 30.4 94.4-6.4 172.8-19.2 232-38.4 17.6-4.8 25.6-24 20.8-40-3.2-14.4-16-22.4-28.8-22.4zM384 400c-3.2 0-6.4 0-9.6 1.6-54.4 17.6-128 28.8-217.6 35.2-17.6 1.6-30.4 16-30.4 33.6 1.6 17.6 16 30.4 33.6 30.4 94.4-6.4 172.8-19.2 232-38.4 17.6-4.8 25.6-24 20.8-40-3.2-12.8-16-22.4-28.8-22.4zM384 280c-3.2 0-6.4 0-9.6 1.6-54.4 17.6-128 28.8-217.6 35.2-17.6 1.6-30.4 16-30.4 33.6 1.6 17.6 16 30.4 33.6 30.4 94.4-6.4 172.8-19.2 232-38.4 17.6-4.8 25.6-24 20.8-40-3.2-12.8-16-22.4-28.8-22.4zM640 648c-12.8 0-25.6 8-30.4 22.4-4.8 17.6 3.2 35.2 20.8 40 59.2 19.2 137.6 32 232 38.4 17.6 1.6 33.6-12.8 33.6-30.4 1.6-17.6-12.8-33.6-30.4-33.6-89.6-6.4-161.6-17.6-217.6-35.2-1.6-1.6-4.8-1.6-8-1.6zM640 528c-12.8 0-25.6 8-30.4 22.4-4.8 17.6 3.2 35.2 20.8 40 59.2 19.2 137.6 32 232 38.4 17.6 1.6 33.6-12.8 33.6-30.4 1.6-17.6-12.8-33.6-30.4-33.6-89.6-6.4-161.6-17.6-217.6-35.2-1.6-1.6-4.8-1.6-8-1.6zM640 400c-12.8 0-25.6 8-30.4 22.4-4.8 17.6 3.2 35.2 20.8 40 59.2 19.2 137.6 32 232 38.4 17.6 1.6 33.6-12.8 33.6-30.4 1.6-17.6-12.8-33.6-30.4-33.6-89.6-6.4-161.6-17.6-217.6-35.2-1.6 0-4.8-1.6-8-1.6zM640 280c-12.8 0-25.6 8-30.4 22.4-4.8 17.6 3.2 35.2 20.8 40 59.2 19.2 137.6 32 232 38.4 17.6 1.6 33.6-12.8 33.6-30.4 1.6-17.6-12.8-33.6-30.4-33.6-89.6-6.4-161.6-17.6-217.6-35.2-1.6 0-4.8-1.6-8-1.6zM512-16c-17.6 0-32 14.4-32 32 0 84.8 84.8 187.2 480 192v640c-257.6-3.2-416-51.2-416-128 0-17.6-14.4-32-32-32s-32 14.4-32 32c0 88 89.6 192 512 192h32v-768h-32c-276.8 0-448-49.6-448-128 0-17.6-14.4-32-32-32z" />
<glyph unicode="&#xe631;" glyph-name="book-open-6-f" horiz-adv-x="832" d="M764.584 908.8c-8 16-27.2 20.8-43.2 12.8l-305.6-163.2-304 163.2c-16 8-35.2 3.2-43.2-12.8s-3.2-35.2 12.8-43.2l320-172.8c4.8-3.2 9.6-3.2 16-3.2 4.8 0 11.2 1.6 16 3.2l318.4 172.8c14.4 9.6 20.8 28.8 12.8 43.2zM-0.216 176l384-206.4v672l-384 206.4zM447.784 641.6v-672l384 206.4v672z" />
<glyph unicode="&#xe632;" glyph-name="book-open-6" horiz-adv-x="880" d="M866.991 880c-8 4.8-20.8 4.8-30.4 0l-395.2-214.4-395.2 212.8c-9.6 6.4-20.8 6.4-30.4 0s-16-16-16-27.2v-664c0-11.2 6.4-22.4 16-27.2l411.2-220.8c0 0 1.6 0 1.6 0 3.2-1.6 8-3.2 12.8-3.2s9.6 1.6 12.8 3.2c0 0 1.6 0 1.6 0l411.2 222.4c9.6 4.8 16 16 16 27.2v664c0 11.2-6.4 20.8-16 27.2zM62.191 798.4l347.2-188.8v-590.4l-347.2 188.8v590.4zM820.591 208l-347.2-187.2v590.4l347.2 188.8v-592zM110.191 900.8l316.8-171.2c4.8-1.6 9.6-3.2 14.4-3.2s9.6 1.6 14.4 3.2l316.8 171.2c16 8 20.8 27.2 12.8 43.2s-27.2 20.8-43.2 12.8l-300.8-163.2-300.8 163.2c-16 8-35.2 3.2-43.2-12.8s-1.6-35.2 12.8-43.2z" />
<glyph unicode="&#xe633;" glyph-name="book-open-7-f" d="M480 788.8l-352 142.4v-656l352-155.2zM896 934.4l-352-145.6v-668.8l352 158.4zM992 889.6c-17.6 0-32-14.4-32-32v-625.6l-448-203.2-448 204.8v624c0 17.6-14.4 32-32 32s-32-14.4-32-32v-646.4c0-12.8 8-24 19.2-28.8l480-217.6c4.8-1.6 8-3.2 12.8-3.2s9.6 1.6 12.8 3.2l480 217.6c11.2 4.8 19.2 16 19.2 28.8v646.4c0 17.6-14.4 32-32 32z" />
<glyph unicode="&#xe634;" glyph-name="book-open-7" d="M147.2 243.2l347.2-158.4c4.8-3.2 11.2-4.8 17.6-4.8s12.8 1.6 17.6 4.8l347.2 158.4c11.2 4.8 19.2 16 19.2 28.8v640c0 11.2-4.8 20.8-14.4 25.6-9.6 6.4-20.8 8-30.4 3.2l-339.2-140.8-339.2 142.4c-9.6 3.2-20.8 3.2-30.4-3.2s-14.4-16-14.4-27.2v-640c0-12.8 8-24 19.2-28.8zM832 292.8l-288-131.2v582.4l288 120v-571.2zM192 864l288-120v-582.4l-288 131.2v571.2zM992 880c-17.6 0-32-14.4-32-32v-625.6l-448-203.2-448 203.2v625.6c0 17.6-14.4 32-32 32s-32-14.4-32-32v-646.4c0-12.8 8-24 19.2-28.8l480-217.6c3.2-1.6 8-3.2 12.8-3.2s9.6 1.6 12.8 3.2l480 217.6c11.2 4.8 19.2 16 19.2 28.8v646.4c0 17.6-14.4 32-32 32z" />
<glyph unicode="&#xe635;" glyph-name="book-phones-f" horiz-adv-x="704" d="M63.817 832c0-35.2 28.8-64 64-64h512v128h-512c-35.2 0-64-28.8-64-64zM127.817 704c-70.4 0-128 57.6-128 128v-704c0-70.4 57.6-128 128-128h576v704h-576zM575.817 230.4c-1.6-14.4-32-68.8-94.4-68.8s-139.2 49.6-206.4 116.8c-67.2 67.2-116.8 144-116.8 206.4s54.4 91.2 68.8 94.4c19.2 3.2 27.2-11.2 33.6-20.8s41.6-64 48-72c4.8-8 11.2-28.8-9.6-44.8s-40-22.4 36.8-99.2c76.8-76.8 81.6-56 99.2-36.8 16 20.8 36.8 14.4 44.8 9.6s62.4-41.6 72-46.4c11.2-11.2 27.2-19.2 24-38.4z" />
<glyph unicode="&#xe636;" glyph-name="book-phones" horiz-adv-x="768" d="M671.801 768h-512c-17.6 0-32 14.4-32 32s14.4 32 32 32h512c17.6 0 32-14.4 32-32s-14.4-32-32-32zM735.801-64h-576c-88 0-160 72-160 160v704c0 88 72 160 160 160h576c17.6 0 32-14.4 32-32s-14.4-32-32-32h-576c-52.8 0-96-43.2-96-96s43.2-96 96-96h576c8 0 16-3.2 22.4-9.6s9.6-14.4 9.6-22.4v-704c0-17.6-14.4-32-32-32zM63.801 672v-576c0-52.8 43.2-96 96-96h544v640h-544c-35.2 0-68.8 11.2-96 32zM513.401 96c-89.6 0-180.8 78.4-228.8 124.8-46.4 46.4-124.8 139.2-124.8 228.8 0 80 68.8 121.6 97.6 124.8 38.4 4.8 57.6-22.4 64-33.6l1.6-1.6c4.8-6.4 22.4-33.6 35.2-52.8l12.8-19.2c16-24 16-62.4-16-88l-3.2-3.2c4.8-8 16-22.4 41.6-48 27.2-27.2 41.6-38.4 48-41.6l3.2 3.2c25.6 32 64 32 88 16l12.8-8c19.2-12.8 52.8-35.2 60.8-40l1.6-1.6c11.2-6.4 38.4-25.6 33.6-64-6.4-27.2-48-96-128-96zM263.801 512c-8-4.8-40-24-40-62.4 0-48 40-116.8 107.2-182.4 67.2-67.2 136-107.2 182.4-107.2 36.8 0 56 30.4 60.8 40-1.6 1.6-3.2 1.6-4.8 3.2l-1.6 1.6c-6.4 4.8-40 27.2-59.2 38.4l-12.8 8c0 0-1.6 0-3.2-1.6l-3.2-3.2c-8-9.6-19.2-25.6-43.2-27.2-25.6-1.6-52.8 14.4-100.8 64-48 48-65.6 75.2-64 100.8 1.6 22.4 17.6 35.2 27.2 43.2l3.2 3.2c1.6 1.6 1.6 1.6 1.6 1.6l-9.6 20.8c-12.8 19.2-30.4 46.4-33.6 52.8l-1.6 1.6c-1.6 0-3.2 3.2-4.8 4.8z" />
<glyph unicode="&#xe637;" glyph-name="book-star-1-f" horiz-adv-x="704" d="M63.817 832c0-35.2 28.8-64 64-64h512v128h-512c-35.2 0-64-28.8-64-64zM127.817 704c-70.4 0-128 57.6-128 128v-704c0-70.4 57.6-128 128-128h576v704h-576zM470.217 187.2l-118.4 88-118.4-86.4 46.4 139.2-120 88h147.2l44.8 137.6 44.8-137.6h147.2l-118.4-88 44.8-140.8z" />
<glyph unicode="&#xe638;" glyph-name="book-star-1" horiz-adv-x="768" d="M671.801 768h-512c-17.6 0-32 14.4-32 32s14.4 32 32 32h512c17.6 0 32-14.4 32-32s-14.4-32-32-32zM735.801-64h-576c-88 0-160 72-160 160v704c0 88 72 160 160 160h576c17.6 0 32-14.4 32-32s-14.4-32-32-32h-576c-52.8 0-96-43.2-96-96s43.2-96 96-96h576c8 0 16-3.2 22.4-9.6s9.6-14.4 9.6-22.4v-704c0-17.6-14.4-32-32-32zM63.801 672v-576c0-52.8 43.2-96 96-96h544v640h-544c-35.2 0-68.8 11.2-96 32zM502.201 123.2c-6.4 0-12.8 1.6-19.2 6.4l-99.2 73.6-99.2-73.6c-11.2-8-27.2-8-38.4 0s-16 22.4-11.2 35.2l38.4 118.4-100.8 75.2c-11.2 8-16 22.4-11.2 35.2s16 22.4 30.4 22.4h123.2l38.4 115.2c4.8 12.8 16 22.4 30.4 22.4s25.6-9.6 30.4-22.4l38.4-115.2h123.2c14.4 0 25.6-9.6 30.4-22.4s0-27.2-11.2-35.2l-100.8-75.2 38.4-118.4c4.8-12.8 0-27.2-11.2-35.2-6.4-3.2-12.8-6.4-19.2-6.4zM383.801 275.2c6.4 0 12.8-1.6 19.2-6.4l38.4-28.8-14.4 44.8c-4.8 12.8 0 27.2 11.2 35.2l41.6 32h-49.6c-14.4 0-25.6 9.6-30.4 22.4l-16 44.8-14.4-44.8c-4.8-12.8-16-22.4-30.4-22.4h-51.2l41.6-30.4c11.2-8 16-22.4 11.2-35.2l-14.4-46.4 38.4 28.8c6.4 3.2 12.8 6.4 19.2 6.4z" />
<glyph unicode="&#xe639;" glyph-name="book-star-2-f" horiz-adv-x="960" d="M703.751 113.6l-158.4-113.6 60.8 184-158.4 104h195.2l60.8 192 60.8-192h195.2l-158.4-104 60.8-184zM63.751 832c0-35.2 28.8-64 64-64h448v128h-448c-35.2 0-64-28.8-64-64zM529.351 156.8l-118.4 76.8c-24 16-33.6 44.8-25.6 72s33.6 46.4 60.8 46.4h148.8l43.2 139.2v212.8h-510.4c-70.4 0-128 57.6-128 128v-608c0-70.4 57.6-128 128-128h380.8l20.8 60.8z" />
<glyph unicode="&#xe63a;" glyph-name="book-star-2" d="M640 768h-480c-17.6 0-32 14.4-32 32s14.4 32 32 32h480c17.6 0 32-14.4 32-32s-14.4-32-32-32zM609.6 32h-449.6c-88 0-160 72-160 160v608c0 17.6 14.4 32 32 32s32-14.4 32-32v-608c0-52.8 43.2-96 96-96h449.6c17.6 0 32-14.4 32-32s-14.4-32-32-32zM672 224v0c-17.6 0-32 14.4-32 32v384h-480c-88 0-160 72-160 160s72 160 160 160h512c17.6 0 32-14.4 32-32s-14.4-32-32-32h-512c-52.8 0-96-43.2-96-96s43.2-96 96-96h512c8 0 16-3.2 22.4-9.6s9.6-14.4 9.6-22.4v-416c0-17.6-14.4-32-32-32zM894.4-64c-6.4 0-12.8 1.6-19.2 6.4l-139.2 100.8-139.2-100.8c-11.2-8-27.2-8-38.4 0s-16 22.4-11.2 35.2l52.8 160-137.6 91.2c-11.2 8-17.6 22.4-12.8 35.2s16 22.4 30.4 22.4h172.8l52.8 169.6c4.8 12.8 16 22.4 30.4 22.4s25.6-9.6 30.4-22.4l52.8-168h172.8c14.4 0 27.2-9.6 30.4-22.4 4.8-12.8-1.6-28.8-12.8-35.2l-137.6-91.2 52.8-160c4.8-12.8 0-27.2-11.2-35.2-6.4-6.4-12.8-8-19.2-8zM736 113.6c6.4 0 12.8-1.6 19.2-6.4l78.4-56-30.4 89.6c-4.8 14.4 0 28.8 12.8 36.8l68.8 46.4h-89.6c-14.4 0-25.6 9.6-30.4 22.4l-28.8 94.4-28.8-94.4c-4.8-12.8-16-22.4-30.4-22.4h-89.6l68.8-46.4c12.8-8 17.6-22.4 12.8-36.8l-28.8-89.6 78.4 56c4.8 4.8 11.2 6.4 17.6 6.4z" />
<glyph unicode="&#xe63b;" glyph-name="bookmark-open-1-f" horiz-adv-x="960" d="M831.751 486.4v352h-192v-352l96 64zM351.751 806.4h-352v-704h352c38.4 0 72-17.6 96-43.2v704c-24 25.6-57.6 43.2-96 43.2zM895.751 806.4v-440l-99.2 65.6-60.8 41.6-60.8-41.6-99.2-65.6v435.2c-25.6-6.4-48-20.8-64-40v-704c24 27.2 57.6 43.2 96 43.2h352v704h-64z" />
<glyph unicode="&#xe63c;" glyph-name="bookmark-open-1" d="M544 0h-64c0 52.8-43.2 96-96 96h-384v768h384c88 0 160-72 160-160v-704zM64 160h320c35.2 0 68.8-11.2 96-32v576c0 52.8-43.2 96-96 96h-320v-640zM512-32c-17.6 0-32 14.4-32 32 0 88 72 160 160 160h320v640h-96c-17.6 0-32 14.4-32 32s14.4 32 32 32h160v-768h-384c-52.8 0-96-43.2-96-96 0-17.6-14.4-32-32-32zM512 672c-17.6 0-32 14.4-32 32 0 88 72 160 160 160h32c17.6 0 32-14.4 32-32s-14.4-32-32-32h-32c-52.8 0-96-43.2-96-96 0-17.6-14.4-32-32-32zM896 484.8l-128 84.8-128-84.8v443.2h256v-443.2zM704 864v-260.8l64 43.2 64-43.2v260.8h-128z" />
<glyph unicode="&#xe63d;" glyph-name="bookmark-open-2-f" horiz-adv-x="960" d="M831.751 502.4v352h-192v-352l96 64zM351.751 790.4h-352v-704h352c38.4 0 72-17.6 96-43.2v704c-24 25.6-57.6 43.2-96 43.2zM351.751 214.4h-224c-17.6 0-32 14.4-32 32s14.4 32 32 32h224c17.6 0 32-14.4 32-32s-14.4-32-32-32zM351.751 342.4h-224c-17.6 0-32 14.4-32 32s14.4 32 32 32h224c17.6 0 32-14.4 32-32s-14.4-32-32-32zM351.751 470.4h-224c-17.6 0-32 14.4-32 32s14.4 32 32 32h224c17.6 0 32-14.4 32-32s-14.4-32-32-32zM351.751 598.4h-224c-17.6 0-32 14.4-32 32s14.4 32 32 32h224c17.6 0 32-14.4 32-32s-14.4-32-32-32zM895.751 790.4v-408l-99.2 65.6-60.8 41.6-59.2-41.6-64-43.2h219.2c17.6 0 32-14.4 32-32s-14.4-32-32-32h-224c-17.6 0-32 14.4-32 32 0 3.2 0 6.4 1.6 9.6h-1.6v403.2c-25.6-6.4-48-20.8-64-40v-704c24 27.2 57.6 43.2 96 43.2h352v704h-64zM831.751 214.4h-224c-17.6 0-32 14.4-32 32s14.4 32 32 32h224c17.6 0 32-14.4 32-32s-14.4-32-32-32z" />
<glyph unicode="&#xe63e;" glyph-name="bookmark-open-2" d="M544 0h-64c0 52.8-43.2 96-96 96h-384v768h384c88 0 160-72 160-160v-704zM64 160h320c35.2 0 68.8-11.2 96-32v576c0 52.8-43.2 96-96 96h-320v-640zM512-32c-17.6 0-32 14.4-32 32 0 88 72 160 160 160h320v640h-96c-17.6 0-32 14.4-32 32s14.4 32 32 32h160v-768h-384c-52.8 0-96-43.2-96-96 0-17.6-14.4-32-32-32zM512 672c-17.6 0-32 14.4-32 32 0 88 72 160 160 160h32c17.6 0 32-14.4 32-32s-14.4-32-32-32h-32c-52.8 0-96-43.2-96-96 0-17.6-14.4-32-32-32zM896 484.8l-128 84.8-128-84.8v443.2h256v-443.2zM704 864v-260.8l64 43.2 64-43.2v260.8h-128zM384 640h-224c-17.6 0-32 14.4-32 32s14.4 32 32 32h224c17.6 0 32-14.4 32-32s-14.4-32-32-32zM384 512h-224c-17.6 0-32 14.4-32 32s14.4 32 32 32h224c17.6 0 32-14.4 32-32s-14.4-32-32-32zM384 384h-224c-17.6 0-32 14.4-32 32s14.4 32 32 32h224c17.6 0 32-14.4 32-32s-14.4-32-32-32zM384 256h-224c-17.6 0-32 14.4-32 32s14.4 32 32 32h224c17.6 0 32-14.4 32-32s-14.4-32-32-32zM864 384h-224c-17.6 0-32 14.4-32 32s14.4 32 32 32h224c17.6 0 32-14.4 32-32s-14.4-32-32-32zM864 256h-224c-17.6 0-32 14.4-32 32s14.4 32 32 32h224c17.6 0 32-14.4 32-32s-14.4-32-32-32z" />
<glyph unicode="&#xe63f;" glyph-name="bookmark-open-3-f" horiz-adv-x="960" d="M639.751 523.2l96 64 96-64v352c-68.8-4.8-136-12.8-192-27.2v-324.8zM447.751 726.4c-75.2 70.4-272 89.6-448 89.6v-704c176 0 372.8-19.2 448-91.2v705.6zM895.751 816v-412.8l-99.2 65.6-60.8 41.6-60.8-40-99.2-67.2v361.6c-25.6-11.2-48-24-64-38.4v-704c75.2 70.4 272 91.2 448 91.2v702.4c-20.8 0-41.6 0-64 0z" />
<glyph unicode="&#xe640;" glyph-name="bookmark-open-3" d="M544-14.4h-64c0 78.4-171.2 128-448 128h-32v768h32c233.6 0 512-33.6 512-192v-704zM64 177.6c156.8-1.6 326.4-20.8 416-81.6v593.6c0 75.2-158.4 124.8-416 128v-640zM512-46.4c-17.6 0-32 14.4-32 32 0 84.8 84.8 187.2 480 192v640c-32 0-64-1.6-94.4-3.2-17.6-1.6-32 12.8-33.6 30.4s12.8 33.6 30.4 33.6c40 1.6 84.8 3.2 129.6 3.2h32v-768h-32c-276.8 0-448-49.6-448-128 0-17.6-14.4-32-32-32zM512 657.6c-17.6 0-32 14.4-32 32 0 75.2 62.4 129.6 184 160 17.6 4.8 35.2-6.4 38.4-22.4 4.8-17.6-6.4-35.2-22.4-38.4-62.4-16-136-44.8-136-97.6 0-19.2-14.4-33.6-32-33.6zM896 496l-128 84.8-128-84.8v409.6l24 6.4c54.4 14.4 121.6 24 198.4 28.8l33.6 1.6v-446.4zM704 856v-238.4l64 43.2 64-43.2v256c-48-4.8-91.2-9.6-128-17.6z" />
<glyph unicode="&#xe641;" glyph-name="bookmark-open-4-f" horiz-adv-x="960" d="M639.751 523.2l96 64 96-64v352c-68.8-4.8-136-12.8-192-27.2v-324.8zM-0.249 112c176 0 372.8-19.2 448-91.2v704c-75.2 72-272 91.2-448 91.2v-704zM129.351 684.8c94.4-6.4 172.8-19.2 232-38.4 17.6-4.8 25.6-24 20.8-40-4.8-12.8-17.6-22.4-30.4-22.4-3.2 0-6.4 0-9.6 1.6-54.4 17.6-128 28.8-217.6 35.2-17.6 1.6-30.4 16-30.4 33.6 3.2 17.6 17.6 32 35.2 30.4zM129.351 564.8c94.4-6.4 172.8-19.2 232-38.4 17.6-4.8 25.6-24 20.8-40-3.2-12.8-16-22.4-30.4-22.4-3.2 0-6.4 0-9.6 1.6-54.4 17.6-128 28.8-217.6 35.2-17.6 1.6-30.4 16-30.4 33.6 3.2 17.6 17.6 32 35.2 30.4zM129.351 436.8c94.4-6.4 172.8-19.2 232-38.4 17.6-4.8 25.6-24 20.8-40-4.8-12.8-17.6-22.4-30.4-22.4-3.2 0-6.4 0-9.6 1.6-54.4 17.6-128 28.8-217.6 35.2-17.6 1.6-30.4 16-30.4 33.6 3.2 19.2 17.6 32 35.2 30.4zM129.351 316.8c94.4-6.4 172.8-19.2 232-38.4 17.6-4.8 25.6-24 20.8-40-4.8-12.8-17.6-22.4-30.4-22.4-3.2 0-6.4 0-9.6 1.6-54.4 17.6-128 28.8-217.6 35.2-17.6 1.6-30.4 16-30.4 33.6 3.2 19.2 17.6 32 35.2 30.4zM895.751 816v-412.8l-99.2 65.6-60.8 41.6-60.8-40-99.2-67.2v361.6c-25.6-11.2-48-24-64-38.4v-704c75.2 70.4 272 91.2 448 91.2v702.4c-20.8 0-41.6 0-64 0zM834.951 252.8c-89.6-6.4-161.6-17.6-217.6-35.2-3.2-1.6-6.4-1.6-9.6-1.6-12.8 0-25.6 8-30.4 22.4-4.8 17.6 3.2 35.2 20.8 40 59.2 19.2 137.6 32 232 38.4 17.6 1.6 33.6-11.2 33.6-28.8 1.6-17.6-11.2-33.6-28.8-35.2zM834.951 372.8c-89.6-4.8-163.2-17.6-217.6-33.6-3.2-1.6-6.4-1.6-9.6-1.6-12.8 0-25.6 8-30.4 22.4-4.8 17.6 3.2 35.2 20.8 40 59.2 19.2 137.6 32 232 38.4 17.6 1.6 33.6-12.8 33.6-30.4 1.6-17.6-11.2-33.6-28.8-35.2z" />
<glyph unicode="&#xe642;" glyph-name="bookmark-open-4" d="M544-14.4h-64c0 78.4-171.2 128-448 128h-32v768h32c233.6 0 512-33.6 512-192v-704zM64 177.6c156.8-1.6 326.4-20.8 416-81.6v593.6c0 75.2-158.4 124.8-416 128v-640zM384 617.6c-3.2 0-6.4 0-9.6 1.6-54.4 17.6-128 28.8-217.6 35.2-17.6 1.6-30.4 16-28.8 33.6s16 30.4 33.6 30.4c94.4-6.4 172.8-19.2 232-38.4 17.6-4.8 25.6-24 20.8-40-4.8-12.8-17.6-22.4-30.4-22.4zM384 497.6c-3.2 0-6.4 0-9.6 1.6-54.4 17.6-128 28.8-217.6 35.2-17.6 1.6-30.4 16-30.4 33.6 1.6 17.6 16 30.4 33.6 30.4 96-6.4 174.4-19.2 233.6-38.4 17.6-4.8 25.6-24 20.8-40-4.8-12.8-17.6-22.4-30.4-22.4zM384 371.2c-3.2 0-6.4 0-9.6 1.6-54.4 17.6-128 28.8-217.6 35.2-17.6 1.6-30.4 16-30.4 33.6 1.6 17.6 16 30.4 33.6 30.4 94.4-6.4 172.8-19.2 232-38.4 17.6-4.8 25.6-24 20.8-40-3.2-14.4-16-22.4-28.8-22.4zM384 251.2c-3.2 0-6.4 0-9.6 1.6-54.4 17.6-128 28.8-217.6 35.2-17.6 0-30.4 16-28.8 33.6s16 30.4 33.6 30.4c94.4-6.4 172.8-19.2 232-38.4 17.6-4.8 25.6-24 20.8-40-4.8-14.4-17.6-22.4-30.4-22.4zM640 371.2c-12.8 0-25.6 8-30.4 22.4-4.8 17.6 3.2 35.2 20.8 40 59.2 19.2 137.6 32 232 38.4 17.6 1.6 33.6-12.8 33.6-30.4 1.6-17.6-12.8-33.6-30.4-33.6-89.6-6.4-161.6-17.6-217.6-35.2-1.6-1.6-4.8-1.6-8-1.6zM640 251.2c-12.8 0-25.6 8-30.4 22.4-4.8 17.6 3.2 35.2 20.8 40 59.2 19.2 137.6 32 232 38.4 17.6 1.6 33.6-12.8 33.6-30.4s-12.8-33.6-30.4-33.6c-89.6-6.4-161.6-17.6-217.6-35.2-1.6-1.6-4.8-1.6-8-1.6zM512-46.4c-17.6 0-32 14.4-32 32 0 84.8 84.8 187.2 480 192v640c-32 0-64-1.6-94.4-3.2-17.6-1.6-32 12.8-33.6 30.4s12.8 33.6 30.4 33.6c40 1.6 84.8 3.2 129.6 3.2h32v-768h-32c-276.8 0-448-49.6-448-128 0-17.6-14.4-32-32-32zM512 657.6c-17.6 0-32 14.4-32 32 0 75.2 62.4 129.6 184 160 17.6 4.8 35.2-6.4 38.4-22.4s-6.4-35.2-22.4-38.4c-62.4-16-136-44.8-136-97.6 0-19.2-14.4-33.6-32-33.6zM896 496l-128 84.8-128-84.8v409.6l24 6.4c54.4 14.4 121.6 24 198.4 28.8l33.6 1.6v-446.4zM768 659.2l64-43.2v257.6c-48-4.8-91.2-9.6-128-17.6v-238.4l64 41.6z" />
<glyph unicode="&#xe643;" glyph-name="books-1-f" horiz-adv-x="960" d="M63.751 251.2c0-8 0-32 56-32h488v64h-488c-56 0-56-22.4-56-32zM79.751 923.2c-44.8 0-80-35.2-80-80v-560c0 44.8 35.2 64 80 64h560v576h-560zM383.751 4.8c0-8 0-32 56-32h488v64h-488c-56 0-56-24-56-32zM703.751 676.8v-393.6h-32v-128h-352v-118.4c0 44.8 35.2 64 80 64h560v576h-256z" />
<glyph unicode="&#xe644;" glyph-name="books-1" d="M640 192h-528c-68.8 0-112 38.4-112 96s43.2 96 112 96h528v544c0 17.6 14.4 32 32 32s32-14.4 32-32v-576c0-17.6-14.4-32-32-32v-96c0-17.6-14.4-32-32-32zM112 320c-32 0-48-11.2-48-32s16-32 48-32h496v64h-496zM32 256c-17.6 0-32 14.4-32 32v560c0 62.4 49.6 112 112 112h560c17.6 0 32-14.4 32-32s-14.4-32-32-32h-560c-27.2 0-48-20.8-48-48v-560c0-17.6-14.4-32-32-32zM960-64h-528c-68.8 0-112 38.4-112 96s43.2 96 112 96h528v608c0 17.6 14.4 32 32 32s32-14.4 32-32v-640c0-17.6-14.4-32-32-32v-96c0-17.6-14.4-32-32-32zM432 64c-32 0-48-11.2-48-32s16-32 48-32h496v64h-496zM992 704h-320c-17.6 0-32 14.4-32 32s14.4 32 32 32h320c17.6 0 32-14.4 32-32s-14.4-32-32-32zM352 0c-17.6 0-32 14.4-32 32v192c0 17.6 14.4 32 32 32s32-14.4 32-32v-192c0-17.6-14.4-32-32-32z" />
<glyph unicode="&#xe645;" glyph-name="books-2-f" horiz-adv-x="864" d="M-0.224 672c0-35.2 28.8-64 64-64h608v-672h-608c-35.2 0-64 28.8-64 64v672zM63.776 704c0-17.6 14.4-32 32-32h512v64h-512c-17.6 0-32-14.4-32-32zM255.776 928c0-17.6 14.4-32 32-32h512v64h-512c-17.6 0-32-14.4-32-32zM799.776 832h-544c-35.2 0-64 28.8-64 64v0-96h480v-128h64v-512h128v672h-64z" />
<glyph unicode="&#xe646;" glyph-name="books-2" horiz-adv-x="880" d="M695.2-64h-601.6c-49.6 0-89.6 40-89.6 89.6v633.6c0 0 0 0 0 0 0 49.6 40 89.6 89.6 89.6h512c16 0 30.4-12.8 30.4-30.4s-12.8-30.4-30.4-30.4h-512c-16 0-30.4-12.8-30.4-30.4 0-16 12.8-30.4 30.4-30.4h601.6v-691.2zM63.2 572.8v-547.2c0-16 12.8-30.4 30.4-30.4h542.4v572.8h-542.4c-11.2 0-20.8 1.6-30.4 4.8zM213.6 689.6c-16 0-30.4 12.8-30.4 30.4v150.4c0 49.6 40 89.6 89.6 89.6h512c16 0 30.4-12.8 30.4-30.4s-12.8-30.4-30.4-30.4h-512c-16 0-30.4-12.8-30.4-30.4v-150.4c1.6-16-12.8-28.8-28.8-28.8zM876 147.2h-211.2c-16 0-30.4 12.8-30.4 30.4s12.8 30.4 30.4 30.4h150.4v571.2h-542.4c-49.6 0-89.6 40-89.6 89.6 0 16 12.8 30.4 30.4 30.4s30.4-12.8 30.4-30.4c0-16 12.8-30.4 30.4-30.4h601.6v-691.2z" />
<glyph unicode="&#xe647;" glyph-name="books-3" d="M992 544h-832c-88 0-160 72-160 160s72 160 160 160h832c17.6 0 32-14.4 32-32s-14.4-32-32-32h-832c-52.8 0-96-43.2-96-96s43.2-96 96-96h832c17.6 0 32-14.4 32-32s-14.4-32-32-32zM224 288h-64c-88 0-160 72-160 160s72 160 160 160c17.6 0 32-14.4 32-32s-14.4-32-32-32c-52.8 0-96-43.2-96-96s43.2-96 96-96h64c17.6 0 32-14.4 32-32s-14.4-32-32-32zM992 288h-544c-17.6 0-32 14.4-32 32s14.4 32 32 32h544c17.6 0 32-14.4 32-32s-14.4-32-32-32zM992 32h-832c-88 0-160 72-160 160s72 160 160 160c17.6 0 32-14.4 32-32s-14.4-32-32-32c-52.8 0-96-43.2-96-96s43.2-96 96-96h832c17.6 0 32-14.4 32-32s-14.4-32-32-32zM480 91.2l-144 123.2-144-123.2v388.8h288v-388.8zM336 297.6l80-68.8v187.2h-160v-185.6l80 67.2zM512 416h-64c-17.6 0-32 14.4-32 32s14.4 32 32 32h64c17.6 0 32-14.4 32-32s-14.4-32-32-32z" />
<glyph unicode="&#xe648;" glyph-name="books-4" horiz-adv-x="832" d="M143.784-64h-32c-62.4 0-112 49.6-112 112v880c0 17.6 14.4 32 32 32s32-14.4 32-32v-880c0-27.2 20.8-48 48-48h32c27.2 0 48 20.8 48 48v880c0 17.6 14.4 32 32 32s32-14.4 32-32v-880c0-62.4-49.6-112-112-112zM335.784-64h-32c-62.4 0-112 49.6-112 112 0 17.6 14.4 32 32 32s32-14.4 32-32c0-27.2 20.8-48 48-48h32c27.2 0 48 20.8 48 48v880c0 17.6 14.4 32 32 32s32-14.4 32-32v-880c0-62.4-49.6-112-112-112zM527.784-64h-32c-62.4 0-112 49.6-112 112 0 17.6 14.4 32 32 32s32-14.4 32-32c0-27.2 20.8-48 48-48h32c27.2 0 48 20.8 48 48v880c0 17.6 14.4 32 32 32s32-14.4 32-32v-880c0-62.4-49.6-112-112-112zM719.784-64h-32c-62.4 0-112 49.6-112 112 0 17.6 14.4 32 32 32s32-14.4 32-32c0-27.2 20.8-48 48-48h32c27.2 0 48 20.8 48 48v880c0 17.6 14.4 32 32 32s32-14.4 32-32v-880c0-62.4-49.6-112-112-112zM143.784 848h-32c-65.6 0-112 33.6-112 80 0 17.6 14.4 32 32 32s32-14.4 32-32c1.6-3.2 17.6-16 48-16h32c28.8 0 46.4 11.2 48 16 0 17.6 14.4 32 32 32s32-14.4 32-32c0-46.4-48-80-112-80zM335.784 848h-32c-65.6 0-112 33.6-112 80 0 17.6 14.4 32 32 32s32-14.4 32-32c1.6-3.2 17.6-16 48-16h32c28.8 0 46.4 11.2 48 16 0 17.6 14.4 32 32 32s32-14.4 32-32c0-46.4-48-80-112-80zM527.784 848h-32c-65.6 0-112 33.6-112 80 0 17.6 14.4 32 32 32s32-14.4 32-32c1.6-3.2 17.6-16 48-16h32c28.8 0 46.4 11.2 48 16 0 17.6 14.4 32 32 32s32-14.4 32-32c0-46.4-48-80-112-80zM719.784 848h-32c-65.6 0-112 33.6-112 80 0 17.6 14.4 32 32 32s32-14.4 32-32c1.6-3.2 17.6-16 48-16h32c28.8 0 46.4 11.2 48 16 0 17.6 14.4 32 32 32s32-14.4 32-32c0-46.4-48-80-112-80zM143.784 640h-32c-62.4 0-112 49.6-112 112 0 17.6 14.4 32 32 32s32-14.4 32-32c0-27.2 20.8-48 48-48h32c27.2 0 48 20.8 48 48 0 17.6 14.4 32 32 32s32-14.4 32-32c0-62.4-49.6-112-112-112zM335.784 640h-32c-62.4 0-112 49.6-112 112 0 17.6 14.4 32 32 32s32-14.4 32-32c0-27.2 20.8-48 48-48h32c27.2 0 48 20.8 48 48 0 17.6 14.4 32 32 32s32-14.4 32-32c0-62.4-49.6-112-112-112zM527.784 640h-32c-62.4 0-112 49.6-112 112 0 17.6 14.4 32 32 32s32-14.4 32-32c0-27.2 20.8-48 48-48h32c27.2 0 48 20.8 48 48 0 17.6 14.4 32 32 32s32-14.4 32-32c0-62.4-49.6-112-112-112zM719.784 640h-32c-62.4 0-112 49.6-112 112 0 17.6 14.4 32 32 32s32-14.4 32-32c0-27.2 20.8-48 48-48h32c27.2 0 48 20.8 48 48 0 17.6 14.4 32 32 32s32-14.4 32-32c0-62.4-49.6-112-112-112zM799.784 160h-768c-17.6 0-32 14.4-32 32s14.4 32 32 32h768c17.6 0 32-14.4 32-32s-14.4-32-32-32zM799.784 288h-768c-17.6 0-32 14.4-32 32s14.4 32 32 32h768c17.6 0 32-14.4 32-32s-14.4-32-32-32z" />
<glyph unicode="&#xe649;" glyph-name="books-5-f" horiz-adv-x="992" d="M703.742 299.2h288v-112h-288v112zM991.742 811.2c0-52.8-43.2-96-96-96h-96c-52.8 0-96 43.2-96 96v-448h288v448zM703.742 123.2v-48c0-52.8 43.2-96 96-96h96c52.8 0 96 43.2 96 96v48h-288zM894.142 907.2h-96c-24 0-46.4 3.2-64 9.6v-73.6c0 0 0 0 0 0v0c0-35.2 28.8-64 64-64h96c35.2 0 64 28.8 64 64v73.6c-16-8-38.4-9.6-64-9.6zM351.742 299.2h288v-112h-288v112zM639.742 811.2c0-52.8-43.2-96-96-96h-96c-52.8 0-96 43.2-96 96v-448h288v448zM351.742 123.2v-48c0-52.8 43.2-96 96-96h96c52.8 0 96 43.2 96 96v48h-288zM542.142 907.2h-96c-24 0-46.4 3.2-64 9.6v-73.6c0 0 0 0 0 0v0c0-35.2 28.8-64 64-64h96c35.2 0 64 28.8 64 64v73.6c-16-8-38.4-9.6-64-9.6zM-0.258 299.2h288v-112h-288v112zM287.742 811.2c0-52.8-43.2-96-96-96h-96c-52.8 0-96 43.2-96 96v-448h288v448zM-0.258 123.2v-48c0-52.8 43.2-96 96-96h96c52.8 0 96 43.2 96 96v48h-288zM191.742 907.2h-96c-24 0-46.4 3.2-64 9.6v-73.6c0 0 0 0 0 0v0c0-35.2 28.8-64 64-64h96c35.2 0 64 28.8 64 64v73.6c-16-8-38.4-9.6-64-9.6z" />
<glyph unicode="&#xe64a;" glyph-name="books-5" d="M256-64h-128c-70.4 0-128 57.6-128 128v864c0 17.6 14.4 32 32 32s32-14.4 32-32v-864c0-35.2 28.8-64 64-64h128c35.2 0 64 28.8 64 64v864c0 17.6 14.4 32 32 32s32-14.4 32-32v-864c0-70.4-57.6-128-128-128zM256 672h-128c-70.4 0-128 57.6-128 128 0 17.6 14.4 32 32 32s32-14.4 32-32c0-35.2 28.8-64 64-64h128c35.2 0 64 28.8 64 64 0 17.6 14.4 32 32 32s32-14.4 32-32c0-70.4-57.6-128-128-128zM576-64h-128c-70.4 0-128 57.6-128 128 0 17.6 14.4 32 32 32s32-14.4 32-32c0-35.2 28.8-64 64-64h128c35.2 0 64 28.8 64 64v864c0 17.6 14.4 32 32 32s32-14.4 32-32v-864c0-70.4-57.6-128-128-128zM576 672h-128c-70.4 0-128 57.6-128 128 0 17.6 14.4 32 32 32s32-14.4 32-32c0-35.2 28.8-64 64-64h128c35.2 0 64 28.8 64 64 0 17.6 14.4 32 32 32s32-14.4 32-32c0-70.4-57.6-128-128-128zM896-64h-128c-70.4 0-128 57.6-128 128 0 17.6 14.4 32 32 32s32-14.4 32-32c0-35.2 28.8-64 64-64h128c35.2 0 64 28.8 64 64v864c0 17.6 14.4 32 32 32s32-14.4 32-32v-864c0-70.4-57.6-128-128-128zM896 672h-128c-70.4 0-128 57.6-128 128 0 17.6 14.4 32 32 32s32-14.4 32-32c0-35.2 28.8-64 64-64h128c35.2 0 64 28.8 64 64 0 17.6 14.4 32 32 32s32-14.4 32-32c0-70.4-57.6-128-128-128zM256 832h-128c-84.8 0-128 32-128 96 0 17.6 14.4 32 32 32s32-14.4 32-32c0-16 0-32 64-32h128c64 0 64 17.6 64 32 0 17.6 14.4 32 32 32s32-14.4 32-32c0-64-43.2-96-128-96zM576 832h-128c-84.8 0-128 32-128 96 0 17.6 14.4 32 32 32s32-14.4 32-32c0-14.4 0-32 64-32h128c64 0 64 17.6 64 32 0 17.6 14.4 32 32 32s32-14.4 32-32c0-64-43.2-96-128-96zM896 832h-128c-84.8 0-128 32-128 96 0 17.6 14.4 32 32 32s32-14.4 32-32c0-14.4 0-32 64-32h128c64 0 64 17.6 64 32 0 17.6 14.4 32 32 32s32-14.4 32-32c0-64-43.2-96-128-96zM992 256h-960c-17.6 0-32 14.4-32 32s14.4 32 32 32h960c17.6 0 32-14.4 32-32s-14.4-32-32-32zM992 128h-960c-17.6 0-32 14.4-32 32s14.4 32 32 32h960c17.6 0 32-14.4 32-32s-14.4-32-32-32z" />
<glyph unicode="&#xe64b;" glyph-name="books-iso-1" horiz-adv-x="832" d="M447.2-71.2l-374.4 153.6c-25.6 8-65.6 40-65.6 107.2v550.4c0 0 0 0 0 0 0 17.6 8 35.2 22.4 49.6 44.8 41.6 116.8 28.8 171.2 3.2l372.8-152v-601.6c0-17.6-14.4-32-32-32s-32 14.4-32 32v560l-337.6 137.6c-35.2 17.6-81.6 25.6-100.8 8-1.6-1.6-3.2-3.2-3.2-3.2s0 0 0 0c1.6-3.2 12.8-16 33.6-25.6 33.6-16 323.2-132.8 324.8-134.4l19.2-8v-644.8zM68 660v-470.4c0-36.8 20.8-46.4 24-48h1.6l289.6-118.4v507.2c-67.2 27.2-278.4 113.6-307.2 128-1.6 0-4.8 0-8 1.6zM668 69.6c-17.6 0-32 14.4-32 32v564.8l-337.6 137.6c-35.2 17.6-81.6 25.6-100.8 8-3.2-3.2-3.2-4.8-3.2-4.8 0-3.2 9.6-16 32-25.6 16-6.4 22.4-25.6 16-41.6s-25.6-22.4-41.6-16c-14.4 6.4-60.8 30.4-67.2 72-3.2 22.4 4.8 43.2 22.4 60.8 44.8 41.6 116.8 28.8 171.2 3.2l372.8-152v-606.4c-1.6-17.6-16-32-32-32zM794.4 133.6c-17.6 0-32 14.4-32 32v568l-337.6 137.6c-35.2 17.6-81.6 25.6-100.8 8-3.2-3.2-3.2-4.8-3.2-4.8 0-3.2 9.6-16 32-25.6 14.4-6.4 22.4-24 14.4-40-6.4-16-25.6-22.4-41.6-16-14.4 6.4-60.8 30.4-67.2 72-3.2 22.4 4.8 43.2 22.4 60.8 44.8 41.6 116.8 28.8 171.2 3.2l372.8-152v-611.2c0-17.6-14.4-32-30.4-32z" />
<glyph unicode="&#xe64c;" glyph-name="books-iso-2" d="M464 246.4l-414.4 190.4c-44.8 22.4-62.4 105.6-41.6 150.4 6.4 12.8 14.4 22.4 25.6 28.8 32 20.8 363.2 238.4 396.8 259.2 62.4 38.4 132.8 12.8 136 11.2l457.6-203.2-560-313.6-14.4 6.4c-3.2 1.6-320 153.6-387.2 182.4-1.6-6.4-3.2-19.2 0-35.2 3.2-19.2 11.2-28.8 12.8-30.4l385.6-177.6 478.4 268.8c14.4 8 33.6 3.2 41.6-11.2s3.2-33.6-11.2-41.6l-505.6-284.8zM121.6 600c89.6-41.6 284.8-134.4 340.8-161.6l424 238.4-342.4 152c-4.8 1.6-46.4 14.4-80-6.4-27.2-16-240-155.2-342.4-222.4zM464 123.2l-414.4 190.4c-43.2 20.8-57.6 92.8-46.4 134.4 8 32 28.8 51.2 56 49.6 17.6 0 30.4-14.4 30.4-30.4 0-14.4-11.2-27.2-25.6-30.4-1.6-4.8-3.2-19.2 0-36.8 3.2-19.2 11.2-28.8 12.8-30.4l385.6-177.6 478.4 268.8c14.4 8 33.6 3.2 41.6-11.2s3.2-33.6-11.2-41.6l-507.2-284.8zM464 0l-414.4 192c-43.2 20.8-57.6 92.8-46.4 134.4 8 32 28.8 49.6 56 49.6 17.6 0 30.4-14.4 30.4-30.4 0-14.4-11.2-27.2-25.6-30.4-1.6-6.4-3.2-20.8 0-38.4 3.2-19.2 11.2-28.8 12.8-30.4l385.6-177.6 478.4 268.8c14.4 8 33.6 3.2 41.6-11.2s3.2-33.6-11.2-41.6l-507.2-284.8z" />
<glyph unicode="&#xe64d;" glyph-name="box-f" horiz-adv-x="960" d="M-0.249 832h960v-192h-960v192zM63.751 576v-512h832v512h-832zM591.751 384h-224c-52.8 0-96 43.2-96 96 0 17.6 14.4 32 32 32s32-14.4 32-32c0-17.6 14.4-32 32-32h224c17.6 0 32 14.4 32 32s14.4 32 32 32 32-14.4 32-32c0-52.8-43.2-96-96-96z" />
<glyph unicode="&#xe64e;" glyph-name="box" d="M1024 608h-1024v256h1024v-256zM64 672h896v128h-896v-128zM960 32h-896v640h896v-640zM128 96h768v512h-768v-512zM640 416h-256c-52.8 0-96 43.2-96 96 0 17.6 14.4 32 32 32s32-14.4 32-32c0-17.6 14.4-32 32-32h256c17.6 0 32 14.4 32 32s14.4 32 32 32 32-14.4 32-32c0-52.8-43.2-96-96-96z" />
<glyph unicode="&#xe64f;" glyph-name="boxes-f" d="M272 960v-480h480v480h-480zM560 800h-96c-17.6 0-32 14.4-32 32s14.4 32 32 32h96c17.6 0 32-14.4 32-32s-14.4-32-32-32zM0 416v-480h480v480h-480zM288 256h-96c-17.6 0-32 14.4-32 32s14.4 32 32 32h96c17.6 0 32-14.4 32-32s-14.4-32-32-32zM544 416v-480h480v480h-480zM832 256h-96c-17.6 0-32 14.4-32 32s14.4 32 32 32h96c17.6 0 32-14.4 32-32s-14.4-32-32-32z" />
<glyph unicode="&#xe650;" glyph-name="boxes" d="M544-64h-544v544h544v-544zM64 0h416v416h-416v-416zM1024-64h-512v64h448v416h-448v64h512zM768 448h-64v448h-416v-448h-64v512h544zM544 768h-96c-17.6 0-32 14.4-32 32s14.4 32 32 32h96c17.6 0 32-14.4 32-32s-14.4-32-32-32zM320 288h-96c-17.6 0-32 14.4-32 32s14.4 32 32 32h96c17.6 0 32-14.4 32-32s-14.4-32-32-32zM800 288h-96c-17.6 0-32 14.4-32 32s14.4 32 32 32h96c17.6 0 32-14.4 32-32s-14.4-32-32-32z" />
<glyph unicode="&#xe651;" glyph-name="bullets-1" d="M96 640c-52.8 0-96 43.2-96 96s43.2 96 96 96 96-43.2 96-96-43.2-96-96-96zM96 768c-17.6 0-32-14.4-32-32s14.4-32 32-32 32 14.4 32 32-14.4 32-32 32zM992 704h-640c-17.6 0-32 14.4-32 32s14.4 32 32 32h640c17.6 0 32-14.4 32-32s-14.4-32-32-32zM96 352c-52.8 0-96 43.2-96 96s43.2 96 96 96 96-43.2 96-96-43.2-96-96-96zM96 480c-17.6 0-32-14.4-32-32s14.4-32 32-32 32 14.4 32 32-14.4 32-32 32zM992 416h-640c-17.6 0-32 14.4-32 32s14.4 32 32 32h640c17.6 0 32-14.4 32-32s-14.4-32-32-32zM96 64c-52.8 0-96 43.2-96 96s43.2 96 96 96 96-43.2 96-96-43.2-96-96-96zM96 192c-17.6 0-32-14.4-32-32s14.4-32 32-32 32 14.4 32 32-14.4 32-32 32zM992 128h-640c-17.6 0-32 14.4-32 32s14.4 32 32 32h640c17.6 0 32-14.4 32-32s-14.4-32-32-32z" />
<glyph unicode="&#xe652;" glyph-name="bullets-2" d="M992 704h-640c-17.6 0-32 14.4-32 32s14.4 32 32 32h640c17.6 0 32-14.4 32-32s-14.4-32-32-32zM992 416h-640c-17.6 0-32 14.4-32 32s14.4 32 32 32h640c17.6 0 32-14.4 32-32s-14.4-32-32-32zM992 128h-640c-17.6 0-32 14.4-32 32s14.4 32 32 32h640c17.6 0 32-14.4 32-32s-14.4-32-32-32zM192 640h-192v192h192v-192zM64 704h64v64h-64v-64zM192 352h-192v192h192v-192zM64 416h64v64h-64v-64zM192 64h-192v192h192v-192zM64 128h64v64h-64v-64z" />
<glyph unicode="&#xe653;" glyph-name="bullets-3" d="M192 704h-160c-17.6 0-32 14.4-32 32s14.4 32 32 32h160c17.6 0 32-14.4 32-32s-14.4-32-32-32zM72 635.2c-4.8 0-11.2 1.6-16 4.8-16 9.6-20.8 28.8-11.2 43.2l80 139.2c9.6 16 28.8 20.8 43.2 11.2 16-9.6 20.8-28.8 11.2-43.2l-80-139.2c-4.8-11.2-16-16-27.2-16zM152 635.2c-11.2 0-22.4 6.4-27.2 16l-80 139.2c-9.6 16-3.2 35.2 11.2 43.2 16 9.6 35.2 3.2 43.2-11.2l80-139.2c9.6-16 3.2-35.2-11.2-43.2-4.8-3.2-11.2-4.8-16-4.8zM192 416h-160c-17.6 0-32 14.4-32 32s14.4 32 32 32h160c17.6 0 32-14.4 32-32s-14.4-32-32-32zM72 347.2c-4.8 0-11.2 1.6-16 4.8-16 9.6-20.8 28.8-11.2 43.2l80 139.2c9.6 16 28.8 20.8 43.2 11.2 16-9.6 20.8-28.8 11.2-43.2l-80-139.2c-4.8-11.2-16-16-27.2-16zM152 347.2c-11.2 0-22.4 6.4-27.2 16l-80 139.2c-9.6 16-3.2 35.2 11.2 43.2 16 9.6 35.2 3.2 43.2-11.2l80-139.2c9.6-16 3.2-35.2-11.2-43.2-4.8-3.2-11.2-4.8-16-4.8zM192 128h-160c-17.6 0-32 14.4-32 32s14.4 32 32 32h160c17.6 0 32-14.4 32-32s-14.4-32-32-32zM72 59.2c-4.8 0-11.2 1.6-16 4.8-16 9.6-20.8 28.8-11.2 43.2l80 139.2c9.6 16 28.8 20.8 43.2 11.2 16-9.6 20.8-28.8 11.2-43.2l-80-139.2c-4.8-11.2-16-16-27.2-16zM152 59.2c-11.2 0-22.4 6.4-27.2 16l-80 139.2c-9.6 16-3.2 35.2 11.2 43.2 16 9.6 35.2 3.2 43.2-11.2l80-139.2c9.6-16 3.2-35.2-11.2-43.2-4.8-3.2-11.2-4.8-16-4.8zM992 704h-640c-17.6 0-32 14.4-32 32s14.4 32 32 32h640c17.6 0 32-14.4 32-32s-14.4-32-32-32zM992 416h-640c-17.6 0-32 14.4-32 32s14.4 32 32 32h640c17.6 0 32-14.4 32-32s-14.4-32-32-32zM992 128h-640c-17.6 0-32 14.4-32 32s14.4 32 32 32h640c17.6 0 32-14.4 32-32s-14.4-32-32-32z" />
<glyph unicode="&#xe654;" glyph-name="bullets-4" d="M992 713.6h-640c-17.6 0-32 14.4-32 32s14.4 32 32 32h640c17.6 0 32-14.4 32-32s-14.4-32-32-32zM992 425.6h-640c-17.6 0-32 14.4-32 32s14.4 32 32 32h640c17.6 0 32-14.4 32-32s-14.4-32-32-32zM992 137.6h-640c-17.6 0-32 14.4-32 32s14.4 32 32 32h640c17.6 0 32-14.4 32-32s-14.4-32-32-32zM102.4 630.4l-92.8 92.8c-12.8 12.8-12.8 32 0 44.8s32 12.8 44.8 0l35.2-35.2 54.4 92.8c9.6 14.4 28.8 20.8 43.2 11.2s20.8-28.8 11.2-43.2l-96-163.2zM102.4 342.4l-92.8 92.8c-12.8 12.8-12.8 32 0 44.8s32 12.8 44.8 0l35.2-35.2 54.4 92.8c9.6 14.4 28.8 20.8 43.2 11.2s20.8-28.8 11.2-43.2l-96-163.2zM102.4 56l-92.8 92.8c-12.8 12.8-12.8 32 0 44.8s32 12.8 44.8 0l35.2-35.2 54.4 92.8c9.6 14.4 28.8 20.8 43.2 11.2s20.8-28.8 11.2-43.2l-96-163.2z" />
<glyph unicode="&#xe655;" glyph-name="calendar-f" horiz-adv-x="960" d="M479.751 928c-17.6 0-32-14.4-32-32v-224c0-17.6 14.4-32 32-32s32 14.4 32 32v224c0 17.6-14.4 32-32 32zM223.751 928c-17.6 0-32-14.4-32-32v-224c0-17.6 14.4-32 32-32s32 14.4 32 32v224c0 17.6-14.4 32-32 32zM735.751 928c-17.6 0-32-14.4-32-32v-224c0-17.6 14.4-32 32-32s32 14.4 32 32v224c0 17.6-14.4 32-32 32zM639.751 672c0-52.8 43.2-96 96-96 24 0 46.4 9.6 64 24v-472h-640v472c17.6-14.4 40-24 64-24 52.8 0 96 43.2 96 96h64c0-52.8 43.2-96 96-96s96 43.2 96 96h64zM319.751 832h64v-96h-64v96zM831.751 832v-96h32v-672h-768v672h32v96h-128v-864h960v864zM575.751 832h64v-96h-64v96z" />
<glyph unicode="&#xe656;" glyph-name="calendar" d="M1024-64h-1024v928h1024v-928zM64 0h896v800h-896v-800zM896 64h-768v672h768v-672zM192 128h640v544h-640v-544zM512 608c-17.6 0-32 14.4-32 32v288c0 17.6 14.4 32 32 32s32-14.4 32-32v-288c0-17.6-14.4-32-32-32zM288 608c-17.6 0-32 14.4-32 32v288c0 17.6 14.4 32 32 32s32-14.4 32-32v-288c0-17.6-14.4-32-32-32zM736 608c-17.6 0-32 14.4-32 32v288c0 17.6 14.4 32 32 32s32-14.4 32-32v-288c0-17.6-14.4-32-32-32z" />
<glyph unicode="&#xe657;" glyph-name="caps-f" horiz-adv-x="960" d="M834.951 928h-710.4c-68.8 0-124.8-56-124.8-124.8v-710.4c0-68.8 56-124.8 124.8-124.8h710.4c68.8 0 124.8 56 124.8 124.8v710.4c0 68.8-56 124.8-124.8 124.8zM735.751 192h-512v512h512v-512zM556.551 352l22.4-44.8c6.4-11.2 17.6-17.6 28.8-17.6 4.8 0 9.6 1.6 14.4 3.2 16 8 22.4 27.2 14.4 43.2l-128 254.4c-4.8 11.2-16 17.6-28.8 17.6s-22.4-6.4-28.8-17.6l-128-254.4c-8-16-1.6-35.2 14.4-43.2s35.2-1.6 43.2 14.4l22.4 44.8h153.6zM479.751 504l44.8-88h-89.6l44.8 88z" />
<glyph unicode="&#xe658;" glyph-name="caps" d="M867.2 960h-710.4c-86.4 0-156.8-70.4-156.8-156.8v-710.4c0-86.4 70.4-156.8 156.8-156.8h710.4c86.4 0 156.8 70.4 156.8 156.8v710.4c0 86.4-70.4 156.8-156.8 156.8zM960 92.8c0-51.2-41.6-92.8-92.8-92.8h-710.4c-51.2 0-92.8 41.6-92.8 92.8v710.4c0 51.2 41.6 92.8 92.8 92.8h710.4c51.2 0 92.8-41.6 92.8-92.8v-710.4zM224 160h576v576h-576v-576zM288 672h448v-448h-448v448zM540.8 588.8c-6.4 11.2-16 17.6-28.8 17.6s-24-6.4-28.8-17.6l-128-254.4c-8-16-1.6-35.2 14.4-43.2s35.2-1.6 43.2 14.4l24 46.4h152l22.4-44.8c6.4-11.2 17.6-17.6 28.8-17.6 4.8 0 9.6 0 14.4 1.6 16 8 22.4 27.2 14.4 43.2l-128 254.4zM467.2 416l44.8 88 44.8-88h-89.6z" />
<glyph unicode="&#xe659;" glyph-name="code" d="M384 64c-8 0-16 3.2-22.4 9.6l-360 374.4 360 374.4c12.8 12.8 32 12.8 44.8 1.6 12.8-12.8 12.8-32 1.6-44.8l-318.4-331.2 316.8-329.6c12.8-12.8 11.2-33.6-1.6-44.8-4.8-6.4-12.8-9.6-20.8-9.6zM640 64c-8 0-16 3.2-22.4 9.6-12.8 12.8-12.8 32-1.6 44.8l318.4 329.6-316.8 329.6c-12.8 12.8-11.2 33.6 1.6 44.8 12.8 12.8 33.6 11.2 44.8-1.6l358.4-372.8-360-374.4c-4.8-6.4-14.4-9.6-22.4-9.6z" />
<glyph unicode="&#xe65a;" glyph-name="contacts-f" horiz-adv-x="976" d="M127.747 928v-128h-96c-17.6 0-32-14.4-32-32s14.4-32 32-32h96v-96h-96c-17.6 0-32-14.4-32-32s14.4-32 32-32h96v-96h-96c-17.6 0-32-14.4-32-32s14.4-32 32-32h96v-96h-96c-17.6 0-32-14.4-32-32s14.4-32 32-32h96v-96h-96c-17.6 0-32-14.4-32-32s14.4-32 32-32h96v-128h672v960h-672zM639.747 544h-320v224h320v-224zM863.747 832h112v-176h-112v176zM863.747 592h112v-176h-112v176zM863.747 352h112v-176h-112v176z" />
<glyph unicode="&#xe65b;" glyph-name="contacts" horiz-adv-x="960" d="M831.751-64h-736v1024h736v-1024zM159.751 0h608v896h-608v-896zM959.751 128h-160v64h96v608h-96v64h160zM799.751 640h128v-64h-128v64zM799.751 416h128v-64h-128v64zM191.751 736h-160c-17.6 0-32 14.4-32 32s14.4 32 32 32h160c17.6 0 32-14.4 32-32s-14.4-32-32-32zM191.751 576h-160c-17.6 0-32 14.4-32 32s14.4 32 32 32h160c17.6 0 32-14.4 32-32s-14.4-32-32-32zM191.751 416h-160c-17.6 0-32 14.4-32 32s14.4 32 32 32h160c17.6 0 32-14.4 32-32s-14.4-32-32-32zM191.751 256h-160c-17.6 0-32 14.4-32 32s14.4 32 32 32h160c17.6 0 32-14.4 32-32s-14.4-32-32-32zM191.751 96h-160c-17.6 0-32 14.4-32 32s14.4 32 32 32h160c17.6 0 32-14.4 32-32s-14.4-32-32-32zM671.751 512h-384v288h384v-288zM351.751 576h256v160h-256v-160z" />
<glyph unicode="&#xe65c;" glyph-name="copyright-f" horiz-adv-x="960" d="M479.751 928c-265.6 0-480-214.4-480-480s214.4-480 480-480c265.6 0 480 214.4 480 480s-214.4 480-480 480zM362.951 334.4c62.4-62.4 163.2-62.4 225.6 0 12.8 12.8 32 12.8 44.8 0s12.8-32 0-44.8c-43.2-43.2-100.8-65.6-158.4-65.6s-115.2 22.4-158.4 65.6c-41.6 41.6-65.6 99.2-65.6 158.4s24 116.8 65.6 158.4c88 88 228.8 88 316.8 0 12.8-12.8 12.8-32 0-44.8s-32-12.8-44.8 0c-62.4 62.4-163.2 62.4-225.6 0-30.4-30.4-46.4-70.4-46.4-113.6s16-83.2 46.4-113.6z" />
<glyph unicode="&#xe65d;" glyph-name="copyright" d="M512-64c-281.6 0-512 230.4-512 512s230.4 512 512 512 512-230.4 512-512-230.4-512-512-512zM512 896c-246.4 0-448-201.6-448-448s201.6-448 448-448 448 201.6 448 448-201.6 448-448 448zM508.8 224c-57.6 0-115.2 22.4-158.4 65.6-41.6 41.6-65.6 99.2-65.6 158.4s24 116.8 65.6 158.4c88 88 228.8 88 316.8 0 12.8-12.8 12.8-32 0-44.8s-32-12.8-44.8 0c-62.4 62.4-163.2 62.4-225.6 0-30.4-30.4-46.4-70.4-46.4-113.6s16-83.2 46.4-113.6c62.4-62.4 163.2-62.4 225.6 0 12.8 12.8 32 12.8 44.8 0s12.8-32 0-44.8c-44.8-43.2-100.8-65.6-158.4-65.6z" />
<glyph unicode="&#xe65e;" glyph-name="creative-commons-f" horiz-adv-x="960" d="M479.751 928c-265.6 0-480-214.4-480-480s214.4-480 480-480c265.6 0 480 214.4 480 480s-214.4 480-480 480zM252.551 380.8c36.8-36.8 97.6-36.8 136 0 12.8 12.8 32 12.8 44.8 0s12.8-32 0-44.8c-30.4-32-70.4-48-112-48s-81.6 16-113.6 46.4c-62.4 62.4-62.4 163.2 0 225.6s163.2 62.4 225.6 0c12.8-12.8 12.8-32 0-44.8s-32-12.8-44.8 0c-36.8 36.8-97.6 36.8-136 0-36.8-36.8-36.8-97.6 0-134.4zM586.951 380.8c17.6-17.6 41.6-28.8 67.2-28.8v0c25.6 0 49.6 9.6 67.2 28.8 12.8 12.8 32 12.8 44.8 0s12.8-32 0-44.8c-28.8-32-68.8-48-112-48 0 0 0 0 0 0-43.2 0-83.2 16-113.6 46.4-62.4 62.4-62.4 163.2 0 225.6s163.2 62.4 225.6 0c12.8-12.8 12.8-32 0-44.8s-32-12.8-44.8 0c-36.8 36.8-97.6 36.8-136 0-36.8-36.8-36.8-97.6 1.6-134.4z" />
<glyph unicode="&#xe65f;" glyph-name="creative-commons" d="M512-64c-281.6 0-512 230.4-512 512s230.4 512 512 512 512-230.4 512-512-230.4-512-512-512zM512 896c-246.4 0-448-201.6-448-448s201.6-448 448-448 448 201.6 448 448-201.6 448-448 448zM353.6 288c-41.6 0-81.6 16-113.6 46.4-62.4 62.4-62.4 163.2 0 225.6s163.2 62.4 225.6 0c12.8-12.8 12.8-32 0-44.8s-32-12.8-44.8 0c-36.8 36.8-97.6 36.8-136 0-36.8-36.8-36.8-97.6 0-136 36.8-36.8 97.6-36.8 136 0 12.8 12.8 32 12.8 44.8 0s12.8-32 0-44.8c-30.4-30.4-72-46.4-112-46.4zM686.4 288c-43.2 0-83.2 16-113.6 46.4-62.4 62.4-62.4 163.2 0 225.6s163.2 62.4 225.6 0c12.8-12.8 12.8-32 0-44.8s-32-12.8-44.8 0c-36.8 36.8-97.6 36.8-136 0-36.8-36.8-36.8-97.6 0-136 17.6-17.6 41.6-28.8 67.2-28.8 0 0 0 0 0 0 25.6 0 49.6 9.6 67.2 28.8 12.8 12.8 32 12.8 44.8 0s12.8-32 0-44.8c-27.2-30.4-67.2-46.4-110.4-46.4 0 0 0 0 0 0z" />
<glyph unicode="&#xe660;" glyph-name="ctrl-f" horiz-adv-x="960" d="M834.951 928h-710.4c-68.8 0-124.8-56-124.8-124.8v-710.4c0-68.8 56-124.8 124.8-124.8h710.4c68.8 0 124.8 56 124.8 124.8v710.4c0 68.8-56 124.8-124.8 124.8zM287.751 192h-32c-88 0-160 72-160 160v64c0 88 72 160 160 160h32c17.6 0 32-14.4 32-32s-14.4-32-32-32h-32c-52.8 0-96-43.2-96-96v-64c0-52.8 43.2-96 96-96h32c17.6 0 32-14.4 32-32s-14.4-32-32-32zM447.751 448h-32v-192c17.6 0 32-14.4 32-32s-14.4-32-32-32c-35.2 0-64 28.8-64 64v192c-17.6 0-32 14.4-32 32s14.4 32 32 32v32c0 17.6 14.4 32 32 32s32-14.4 32-32v-32h32c17.6 0 32-14.4 32-32s-14.4-32-32-32zM575.751 384h-32v-160c0-17.6-14.4-32-32-32s-32 14.4-32 32v160c0 35.2 28.8 64 64 64h32c17.6 0 32-14.4 32-32s-14.4-32-32-32zM703.751 192c-35.2 0-64 28.8-64 64v288c0 17.6 14.4 32 32 32s32-14.4 32-32v-288c17.6 0 32-14.4 32-32s-14.4-32-32-32z" />
<glyph unicode="&#xe661;" glyph-name="ctrl" d="M867.2-64h-710.4c-86.4 0-156.8 70.4-156.8 156.8v710.4c0 86.4 70.4 156.8 156.8 156.8h710.4c86.4 0 156.8-70.4 156.8-156.8v-710.4c0-86.4-70.4-156.8-156.8-156.8zM156.8 896c-51.2 0-92.8-41.6-92.8-92.8v-710.4c0-51.2 41.6-92.8 92.8-92.8h710.4c51.2 0 92.8 41.6 92.8 92.8v710.4c0 51.2-41.6 92.8-92.8 92.8h-710.4zM320 192h-32c-88 0-160 72-160 160v64c0 88 72 160 160 160h32c17.6 0 32-14.4 32-32s-14.4-32-32-32h-32c-52.8 0-96-43.2-96-96v-64c0-52.8 43.2-96 96-96h32c17.6 0 32-14.4 32-32s-14.4-32-32-32zM448 192c-35.2 0-64 28.8-64 64v288c0 17.6 14.4 32 32 32s32-14.4 32-32v-288c17.6 0 32-14.4 32-32s-14.4-32-32-32zM736 192c-35.2 0-64 28.8-64 64v288c0 17.6 14.4 32 32 32s32-14.4 32-32v-288c17.6 0 32-14.4 32-32s-14.4-32-32-32zM544 192c-17.6 0-32 14.4-32 32v160c0 35.2 28.8 64 64 64h32c17.6 0 32-14.4 32-32s-14.4-32-32-32h-32v-160c0-17.6-14.4-32-32-32zM480 448h-96c-17.6 0-32 14.4-32 32s14.4 32 32 32h96c17.6 0 32-14.4 32-32s-14.4-32-32-32z" />
<glyph unicode="&#xe662;" glyph-name="cube-f" horiz-adv-x="960" d="M447.751 547.2l-448 150.4v-542.4l448-150.4zM479.751 604.8l428.8 142.4-428.8 144-428.8-144zM511.751 547.2v-542.4l448 150.4v542.4z" />
<glyph unicode="&#xe663;" glyph-name="cube" d="M512 929.6l-512-171.2v-620.8l512-171.2 512 169.6v622.4l-512 171.2zM891.2 736l-379.2-126.4-379.2 126.4 379.2 126.4 379.2-126.4zM64 691.2l416-139.2v-508.8l-416 137.6v510.4zM544 44.8v508.8l416 139.2v-508.8l-416-139.2z" />
<glyph unicode="&#xe664;" glyph-name="cubes-f" d="M752 356.8l220.8 73.6-220.8 73.6-220.8-73.6zM784 299.2v-291.2l240 80v291.2zM720 299.2l-240 80v-291.2l240-80zM208 406.4l156.8 52.8-156.8 51.2-156.8-51.2zM176 348.8l-176 59.2v-216l176-59.2zM240 348.8v-216l176 59.2v216zM496 784l158.4 52.8-158.4 51.2-156.8-51.2zM464 726.4l-176 59.2v-216l176-59.2zM528 726.4v-216l176 59.2v216z" />
<glyph unicode="&#xe665;" glyph-name="cubes" d="M720 524.8l-240-80v8l-240 80-240-80v-296l240-80 176 59.2v-84.8l304-100.8 304 100.8v372.8l-304 100.8zM889.6 401.6l-169.6-57.6-169.6 57.6 169.6 56 169.6-56zM347.2 428.8l-107.2-35.2-107.2 35.2 107.2 35.2 107.2-35.2zM64 384l144-48v-182.4l-144 48v182.4zM272 155.2v182.4l144 48v-180.8l-144-49.6zM480 156.8v200l208-68.8v-259.2l-208 68.8v59.2zM752 28.8v259.2l208 70.4v-259.2l-208-70.4zM704 600v272l-224 73.6-224-73.6v-272l224-73.6 224 73.6zM512 604.8v158.4l128 43.2v-158.4l-128-43.2zM568 849.6l-88-28.8-88 28.8 88 28.8 88-28.8zM320 804.8l128-43.2v-158.4l-128 41.6v160z" />
<glyph unicode="&#xe666;" glyph-name="diary-1-f" horiz-adv-x="736" d="M-0.191 880v-864c0-27.2 20.8-48 48-48h80v960h-80c-27.2 0-48-20.8-48-48zM191.809 928v-960h544v960h-544zM575.809 608h-256v128h256v-128z" />
<glyph unicode="&#xe667;" glyph-name="diary-1" horiz-adv-x="800" d="M80 960c-44.8 0-80-35.2-80-80v-864c0-44.8 35.2-80 80-80h720v1024h-720zM64 16v864c0 9.6 6.4 16 16 16h80v-896h-80c-9.6 0-16 6.4-16 16zM736 0h-512v896h512v-896zM640 576v192h-320v-192h320zM384 704h192v-64h-192v64z" />
<glyph unicode="&#xe668;" glyph-name="diary-2-f" horiz-adv-x="736" d="M607.809 544l-110.4 64-113.6-64v384h224zM-0.191 816v-800c0-27.2 20.8-48 48-48h80v896h-80c-27.2 0-48-20.8-48-48zM671.809 864v-430.4l-96 54.4-78.4 46.4-81.6-46.4-96-54.4v430.4h-128v-896h544v896z" />
<glyph unicode="&#xe669;" glyph-name="diary-2" horiz-adv-x="800" d="M672 896v64h-288v-64h-304c-44.8 0-80-35.2-80-80v-800c0-44.8 35.2-80 80-80h720v960h-128zM448 896h160v-296l-78.4 44.8-81.6-46.4v297.6zM64 16v800c0 9.6 6.4 16 16 16h80v-832h-80c-9.6 0-16 6.4-16 16zM736 0h-512v832h160v-342.4l145.6 81.6 142.4-83.2v344h64v-832z" />
<glyph unicode="&#xe66a;" glyph-name="drawers-1-f" horiz-adv-x="768" d="M767.801 576h-768v-256h768v256zM479.801 416c-17.6 0-32 14.4-32 32h-128c0-17.6-14.4-32-32-32s-32 14.4-32 32v64h256v-64c0-17.6-14.4-32-32-32zM767.801 640v192c0 52.8-43.2 96-96 96h-576c-52.8 0-96-43.2-96-96v-192h768zM255.801 832h256v-64c0-17.6-14.4-32-32-32s-32 14.4-32 32h-128c0-17.6-14.4-32-32-32s-32 14.4-32 32v64zM-0.199 256v-192c0-52.8 43.2-96 96-96h576c52.8 0 96 43.2 96 96v192h-768zM511.801 128c0-17.6-14.4-32-32-32s-32 14.4-32 32h-128c0-17.6-14.4-32-32-32s-32 14.4-32 32v64h256v-64z" />
<glyph unicode="&#xe66b;" glyph-name="drawers-1" horiz-adv-x="832" d="M703.875 960h-576c-70.4 0-128-57.6-128-128v-768c0-70.4 57.6-128 128-128h576c70.4 0 128 57.6 128 128v768c0 70.4-57.6 128-128 128zM127.875 896h576c35.2 0 64-28.8 64-64v-192h-704v192c0 35.2 28.8 64 64 64zM767.875 576v-256h-704v256h704zM703.875 0h-576c-35.2 0-64 28.8-64 64v192h704v-192c0-35.2-28.8-64-64-64zM319.875 736c17.6 0 32 14.4 32 32h128c0-17.6 14.4-32 32-32s32 14.4 32 32v64h-256v-64c0-17.6 14.4-32 32-32zM319.875 416c17.6 0 32 14.4 32 32h128c0-17.6 14.4-32 32-32s32 14.4 32 32v64h-256v-64c0-17.6 14.4-32 32-32zM287.875 128c0-17.6 14.4-32 32-32s32 14.4 32 32h128c0-17.6 14.4-32 32-32s32 14.4 32 32v64h-256v-64z" />
<glyph unicode="&#xe66c;" glyph-name="drawers-2-f" horiz-adv-x="768" d="M-0.266-32h768v288h-768v-288zM287.734 192h192c17.6 0 32-14.4 32-32s-14.4-32-32-32h-192c-17.6 0-32 14.4-32 32s14.4 32 32 32zM-0.266 320h768v256h-768v-256zM287.734 512h192c17.6 0 32-14.4 32-32s-14.4-32-32-32h-192c-17.6 0-32 14.4-32 32s14.4 32 32 32zM-0.266 928v-288h768v288h-768zM479.734 800h-192c-17.6 0-32 14.4-32 32s14.4 32 32 32h192c17.6 0 32-14.4 32-32s-14.4-32-32-32z" />
<glyph unicode="&#xe66d;" glyph-name="drawers-2" horiz-adv-x="832" d="M831.784 576h-832v384h832v-384zM63.784 640h704v256h-704v-256zM831.784 256h-832v352h64v-288h704v288h64zM831.784-64h-832v352h64v-288h704v288h64zM511.784 768h-192c-17.6 0-32 14.4-32 32s14.4 32 32 32h192c17.6 0 32-14.4 32-32s-14.4-32-32-32zM511.784 448h-192c-17.6 0-32 14.4-32 32s14.4 32 32 32h192c17.6 0 32-14.4 32-32s-14.4-32-32-32zM511.784 128h-192c-17.6 0-32 14.4-32 32s14.4 32 32 32h192c17.6 0 32-14.4 32-32s-14.4-32-32-32z" />
<glyph unicode="&#xe66e;" glyph-name="drawers-3-f" horiz-adv-x="992" d="M959.742 888h-928c-17.6 0-32-14.4-32-32s14.4-32 32-32h32v-688c0-35.2 28.8-64 64-64h48v-32c0-17.6 14.4-32 32-32s32 14.4 32 32v32h512v-32c0-17.6 14.4-32 32-32s32 14.4 32 32v32h48c35.2 0 64 28.8 64 64v688h32c17.6 0 32 14.4 32 32s-14.4 32-32 32zM815.742 472v-288h-640v576h640v-288zM751.742 440h-512v-192h512v192zM559.742 312h-128c-17.6 0-32 14.4-32 32s14.4 32 32 32h128c17.6 0 32-14.4 32-32s-14.4-32-32-32zM751.742 696h-512v-192h512v192zM559.742 568h-128c-17.6 0-32 14.4-32 32s14.4 32 32 32h128c17.6 0 32-14.4 32-32s-14.4-32-32-32z" />
<glyph unicode="&#xe66f;" glyph-name="drawers-3" d="M992 896h-960c-17.6 0-32-14.4-32-32s14.4-32 32-32h32v-672c0-52.8 43.2-96 96-96h32v-32c0-17.6 14.4-32 32-32s32 14.4 32 32v32h512v-32c0-17.6 14.4-32 32-32s32 14.4 32 32v32h32c52.8 0 96 43.2 96 96v672h32c17.6 0 32 14.4 32 32s-14.4 32-32 32zM896 160c0-17.6-14.4-32-32-32h-704c-17.6 0-32 14.4-32 32v672h768v-672zM832 448v320h-640v-576h640v256zM256 704h512v-192h-512v192zM256 256v192h512v-192h-512zM576 640h-128c-17.6 0-32-14.4-32-32s14.4-32 32-32h128c17.6 0 32 14.4 32 32s-14.4 32-32 32zM576 384h-128c-17.6 0-32-14.4-32-32s14.4-32 32-32h128c17.6 0 32 14.4 32 32s-14.4 32-32 32z" />
<glyph unicode="&#xe670;" glyph-name="envelope-f" horiz-adv-x="704" d="M127.817 160h192v576h-192c-9.6 0-19.2 4.8-24 11.2l-104 126.4v-848l104 123.2c4.8 6.4 14.4 11.2 24 11.2zM561.417 800l105.6 128h-628.8l104-128zM561.417 96h-419.2l-107.2-128h632zM599.817 747.2c-4.8-6.4-14.4-11.2-24-11.2h-192v-576h192c9.6 0 19.2-4.8 24-11.2l104-124.8v848l-104-124.8z" />
<glyph unicode="&#xe671;" glyph-name="envelope" horiz-adv-x="768" d="M767.91-20.8v980.8h-728c-4.8 1.6-9.6 1.6-14.4 0h-25.6v-28.8c0-3.2 0-4.8 0-8v-987.2h768v22.4c3.2 6.4 3.2 14.4 0 20.8zM63.91 836.8l70.4-88c6.4-8 16-12.8 25.6-12.8h192v-574.4h-190.4c-9.6 0-19.2-4.8-25.6-12.8l-72-89.6v777.6zM175.91 800l-76.8 96h569.6l-76.8-96h-416zM175.91 96h416l76.8-96h-569.6l76.8 96zM635.11 148.8c-6.4 8-16 12.8-25.6 12.8h-193.6v574.4h192c9.6 0 19.2 4.8 24 11.2l72 89.6v-774.4l-68.8 86.4z" />
<glyph unicode="&#xe672;" glyph-name="erase-f" d="M991.734 57.6h-960c-17.6 0-32-14.4-32-32s14.4-32 32-32h960c17.6 0 32 14.4 32 32s-14.4 32-32 32zM210.934 121.6h344l427.2 427.2c19.2 19.2 19.2 49.6 0 67.2l-272 272c-19.2 19.2-49.6 19.2-67.2 0l-564.8-564.8c-19.2-19.2-19.2-49.6 0-67.2l132.8-134.4z" />
<glyph unicode="&#xe673;" glyph-name="erase" d="M987.2-35.2h-955.2c-17.6 0-32 14.4-32 32s14.4 32 32 32h955.2c17.6 0 32-14.4 32-32s-14.4-32-32-32zM553.6 91.2h-344c-8 0-16 3.2-22.4 9.6l-132.8 132.8c-30.4 30.4-30.4 81.6 0 112l563.2 563.2c30.4 30.4 81.6 30.4 112 0l270.4-270.4c30.4-30.4 30.4-81.6 0-112l-424-425.6c-6.4-6.4-14.4-9.6-22.4-9.6zM224 155.2h316.8l416 416c6.4 6.4 6.4 16 0 22.4l-272 270.4c-6.4 6.4-16 6.4-22.4 0l-561.6-563.2c-6.4-6.4-6.4-16 0-22.4l123.2-123.2z" />
<glyph unicode="&#xe674;" glyph-name="file-f" horiz-adv-x="960" d="M287.751 256h-288l288-288zM-0.249 928v-608h352v-352h608v960z" />
<glyph unicode="&#xe675;" glyph-name="file-filter-f" horiz-adv-x="960" d="M255.751 928h704l-288-318.4v-225.6l-128-96v321.6zM287.751 352h128l-128 128zM223.751 288v192h-224v-512h416v320z" />
<glyph unicode="&#xe676;" glyph-name="file-filter" d="M208 940.8l315.2-348.8v-360l185.6 137.6v222.4l315.2 348.8h-816zM648 616v-214.4l-62.4-46.4v260.8l-238.4 262.4h537.6l-236.8-262.4zM320 508.8h-320v-553.6h460.8v412.8l-140.8 140.8zM307.2 435.2l80-80h-80v80zM60.8 17.6v430.4h185.6v-153.6h153.6v-276.8h-339.2z" />
<glyph unicode="&#xe677;" glyph-name="file" d="M0 960v-716.8l307.2-307.2h716.8v1024h-1024zM76.8 256h243.2v-243.2l-243.2 243.2zM960 0h-576v320h-320v576h896v-896z" />
<glyph unicode="&#xe678;" glyph-name="filter-1-f" horiz-adv-x="960" d="M-0.245 928h944l-400-512v-320l-128-128v448z" />
<glyph unicode="&#xe679;" glyph-name="filter-1" d="M428.8-60.8v489.6l-428.8 528h1024l-412.8-528v-305.6l-182.4-184zM128 896l361.6-444.8v-363.2l60.8 60.8v300.8l348.8 446.4h-771.2z" />
<glyph unicode="&#xe67a;" glyph-name="filter-2-f" horiz-adv-x="960" d="M479.751 752c268.8 0 432 51.2 448 80-16 28.8-177.6 80-448 80s-432-51.2-448-80c16-28.8 179.2-80 448-80zM479.751 688c-153.6 0-393.6 19.2-480 88 0-36.8 0-76.8 0-88 0-19.2 14.4-40 32-56 17.6-17.6 302.4-272 323.2-294.4s28.8-38.4 28.8-60.8 0-222.4 0-251.2c0-28.8 17.6-56 64-35.2s128 86.4 128 124.8c0 38.4 0 131.2 0 160s3.2 49.6 14.4 60.8c11.2 11.2 324.8 292.8 337.6 304 17.6 16 32 33.6 32 56 0 11.2 0 46.4 0 80-86.4-68.8-326.4-88-480-88z" />
<glyph unicode="&#xe67b;" glyph-name="filter-2" d="M451.2-64c-16 0-27.2 4.8-36.8 9.6-19.2 12.8-32 36.8-32 64v252.8c0 11.2-1.6 19.2-20.8 38.4-11.2 12.8-118.4 108.8-196.8 179.2-73.6 65.6-118.4 107.2-126.4 115.2-25.6 25.6-38.4 51.2-38.4 76.8v147.2h64v-147.2c0-1.6 1.6-11.2 22.4-33.6 6.4-6.4 65.6-60.8 123.2-112 108.8-99.2 187.2-169.6 200-182.4 22.4-24 38.4-46.4 38.4-81.6v-251.2c0-6.4 1.6-9.6 1.6-11.2 0 0 4.8 0 16 4.8 44.8 20.8 107.2 76.8 108.8 96v160c0 28.8 1.6 60.8 24 83.2 8 8 112 100.8 276.8 249.6 33.6 30.4 59.2 52.8 62.4 56 14.4 12.8 20.8 24 20.8 32v137.6h64v-139.2c0-36.8-22.4-62.4-43.2-80-3.2-3.2-27.2-25.6-62.4-56-86.4-76.8-264-236.8-275.2-248 0 0-4.8-6.4-4.8-38.4v-160c0-62.4-105.6-134.4-147.2-153.6-12.8-4.8-27.2-8-38.4-8zM512 672c-190.4 0-512 30.4-512 144s321.6 144 512 144 512-30.4 512-144-321.6-144-512-144zM64 816c16-28.8 177.6-80 448-80s432 51.2 448 80c-16 28.8-177.6 80-448 80s-432-51.2-448-80z" />
<glyph unicode="&#xe67c;" glyph-name="folders-f" d="M0 944v-96h208v-528h-208v-368h304v992h-304zM144 80c-35.2 0-64 28.8-64 64s28.8 64 64 64 64-28.8 64-64c0-35.2-28.8-64-64-64zM0 784h144v-400h-144v400zM368 944v-96h208v-528h-208v-368h304v992h-304zM512 80c-35.2 0-64 28.8-64 64s28.8 64 64 64 64-28.8 64-64c0-35.2-28.8-64-64-64zM368 784h144v-400h-144v400zM736 944v-96h208v-528h-208v-368h288v992h-288zM880 80c-35.2 0-64 28.8-64 64s28.8 64 64 64 64-28.8 64-64c0-35.2-28.8-64-64-64zM736 784h144v-400h-144v400z" />
<glyph unicode="&#xe67d;" glyph-name="folders" d="M96 160c0-52.8 43.2-96 96-96s96 43.2 96 96-43.2 96-96 96-96-43.2-96-96zM224 160c0-17.6-14.4-32-32-32s-32 14.4-32 32 14.4 32 32 32 32-14.4 32-32zM416 160c0-52.8 43.2-96 96-96s96 43.2 96 96-43.2 96-96 96-96-43.2-96-96zM544 160c0-17.6-14.4-32-32-32s-32 14.4-32 32 14.4 32 32 32 32-14.4 32-32zM704 960h-704v-1024h1024v1024h-320zM64 768h128v-384h-128v384zM320 0h-256v320h192v512h-192v64h256v-896zM384 768h128v-384h-128v384zM640 0h-256v320h192v512h-192v64h256v-896zM704 768h128v-384h-128v384zM960 0h-256v320h192v512h-192v64h256v-896zM736 160c0-52.8 43.2-96 96-96s96 43.2 96 96-43.2 96-96 96-96-43.2-96-96zM864 160c0-17.6-14.4-32-32-32s-32 14.4-32 32 14.4 32 32 32 32-14.4 32-32z" />
<glyph unicode="&#xe67e;" glyph-name="id-f" horiz-adv-x="960" d="M-0.249 832h960v-160h-960v160zM-0.249 64h960v544h-960v-544zM543.751 480h256v-256h-256v256zM159.751 512h256c17.6 0 32-14.4 32-32s-14.4-32-32-32h-256c-17.6 0-32 14.4-32 32s14.4 32 32 32zM159.751 384h256c17.6 0 32-14.4 32-32s-14.4-32-32-32h-256c-17.6 0-32 14.4-32 32s14.4 32 32 32zM159.751 256h256c17.6 0 32-14.4 32-32s-14.4-32-32-32h-256c-17.6 0-32 14.4-32 32s14.4 32 32 32z" />
<glyph unicode="&#xe67f;" glyph-name="id" d="M0 864v-832h1024v832h-1024zM960 800v-128h-896v128h896zM64 96v512h896v-512h-896zM448 512h-256c-17.6 0-32-14.4-32-32s14.4-32 32-32h256c17.6 0 32 14.4 32 32s-14.4 32-32 32zM448 384h-256c-17.6 0-32-14.4-32-32s14.4-32 32-32h256c17.6 0 32 14.4 32 32s-14.4 32-32 32zM448 256h-256c-17.6 0-32-14.4-32-32s14.4-32 32-32h256c17.6 0 32 14.4 32 32s-14.4 32-32 32zM544 192h320v320h-320v-320zM608 448h192v-192h-192v192z" />
<glyph unicode="&#xe680;" glyph-name="image-left-f" horiz-adv-x="944" d="M908.556 144h-785.6l73.6 73.6c12.8 12.8 12.8 32 0 44.8s-32 12.8-44.8 0l-152-150.4 22.4-22.4c0 0 0 0 0 0l128-128c6.4-6.4 14.4-9.6 22.4-9.6s16 3.2 22.4 9.6c12.8 12.8 12.8 32 0 44.8l-72 73.6h787.2c17.6 0 32 14.4 32 32s-16 32-33.6 32zM140.556 944v-512h768v512h-768zM332.556 816c35.2 0 64-28.8 64-64s-28.8-64-64-64c-35.2 0-64 28.8-64 64s28.8 64 64 64zM204.556 496c0 35.2 102.4 144 192 144 70.4 0 92.8-48 128-48 17.6 0 67.2 160 164.8 160 105.6 0 155.2-227.2 155.2-256h-640z" />
<glyph unicode="&#xe681;" glyph-name="image-left" horiz-adv-x="944" d="M908.556 64h-864c-17.6 0-32 14.4-32 32s14.4 32 32 32h864c17.6 0 32-14.4 32-32s-14.4-32-32-32zM940.556 384h-832v576h832v-576zM172.556 448h704v448h-704v-448zM172.556-64c-8 0-16 3.2-22.4 9.6l-150.4 150.4 150.4 150.4c12.8 12.8 32 12.8 44.8 0s12.8-32 0-44.8l-104-105.6 105.6-105.6c12.8-12.8 12.8-32 0-44.8-6.4-6.4-16-9.6-24-9.6zM332.556 640c-52.8 0-96 43.2-96 96s43.2 96 96 96 96-43.2 96-96-43.2-96-96-96zM332.556 768c-17.6 0-32-14.4-32-32s14.4-32 32-32 32 14.4 32 32-14.4 32-32 32zM268.556 416h-64c0 54.4 84.8 192 192 192 48 0 76.8-12.8 99.2-22.4 6.4-3.2 11.2-4.8 14.4-6.4 3.2 6.4 6.4 12.8 9.6 19.2 30.4 64 80 169.6 169.6 169.6 137.6 0 219.2-320 219.2-352h-64c-1.6 12.8-20.8 88-52.8 161.6-41.6 92.8-80 126.4-102.4 126.4-48 0-89.6-86.4-112-132.8-17.6-38.4-27.2-59.2-52.8-59.2-20.8 0-38.4 8-54.4 14.4-19.2 8-40 17.6-73.6 17.6-38.4 0-70.4-33.6-88-54.4-27.2-33.6-40-65.6-40-73.6z" />
<glyph unicode="&#xe682;" glyph-name="image-top-f" horiz-adv-x="992" d="M482.941 777.6v-768h512v768h-512zM674.941 649.6c35.2 0 64-28.8 64-64s-28.8-64-64-64c-35.2 0-64 28.8-64 64s28.8 64 64 64zM546.941 128c0 30.4 6.4 171.2 78.4 171.2 56 0 64-64 92.8-64 14.4 0 49.6 192 128 192 84.8 0 84.8-275.2 84.8-299.2h-384zM162.941 918.4l-150.4-150.4c-12.8-12.8-12.8-32 0-44.8s32-12.8 44.8 0l73.6 72v-787.2c0-17.6 14.4-32 32-32s32 14.4 32 32v787.2l73.6-73.6c6.4-6.4 14.4-9.6 22.4-9.6s16 3.2 22.4 9.6c12.8 12.8 12.8 32 0 44.8l-150.4 152z" />
<glyph unicode="&#xe683;" glyph-name="image-top" d="M160-22.4c-17.6 0-32 14.4-32 32v864c0 17.6 14.4 32 32 32s32-14.4 32-32v-864c0-17.6-14.4-32-32-32zM1024-22.4h-576v832h576v-832zM512 41.6h448v704h-448v-704zM288 713.6c-8 0-16 3.2-22.4 9.6l-105.6 104-105.6-105.6c-12.8-12.8-32-12.8-44.8 0s-12.8 32 0 44.8l150.4 152 150.4-150.4c12.8-12.8 12.8-32 0-44.8-6.4-6.4-14.4-9.6-22.4-9.6zM672 489.6c-52.8 0-96 43.2-96 96s43.2 96 96 96 96-43.2 96-96-43.2-96-96-96zM672 617.6c-17.6 0-32-14.4-32-32s14.4-32 32-32 32 14.4 32 32-14.4 32-32 32zM512 126.4h-64c0 40 78.4 203.2 174.4 203.2 41.6 0 65.6-24 81.6-43.2 22.4 64 62.4 171.2 139.2 171.2 120 0 180.8-312 180.8-329.6h-64c-3.2 51.2-72 267.2-116.8 267.2-32 0-67.2-94.4-78.4-129.6-14.4-40-22.4-62.4-49.6-62.4s-43.2 20.8-54.4 36.8c-14.4 19.2-22.4 27.2-36.8 27.2-46.4-1.6-108.8-112-112-140.8z" />
<glyph unicode="&#xe684;" glyph-name="justify" d="M992 864h-960c-17.6 0-32 14.4-32 32s14.4 32 32 32h960c17.6 0 32-14.4 32-32s-14.4-32-32-32zM992 736h-960c-17.6 0-32 14.4-32 32s14.4 32 32 32h960c17.6 0 32-14.4 32-32s-14.4-32-32-32zM992 224h-960c-17.6 0-32 14.4-32 32s14.4 32 32 32h960c17.6 0 32-14.4 32-32s-14.4-32-32-32zM992 608h-960c-17.6 0-32 14.4-32 32s14.4 32 32 32h960c17.6 0 32-14.4 32-32s-14.4-32-32-32zM992 96h-960c-17.6 0-32 14.4-32 32s14.4 32 32 32h960c17.6 0 32-14.4 32-32s-14.4-32-32-32zM992 352h-960c-17.6 0-32 14.4-32 32s14.4 32 32 32h960c17.6 0 32-14.4 32-32s-14.4-32-32-32zM992 480h-960c-17.6 0-32 14.4-32 32s14.4 32 32 32h960c17.6 0 32-14.4 32-32s-14.4-32-32-32zM512-32h-480c-17.6 0-32 14.4-32 32s14.4 32 32 32h480c17.6 0 32-14.4 32-32s-14.4-32-32-32z" />
<glyph unicode="&#xe685;" glyph-name="layout-2-cols-f" horiz-adv-x="960" d="M-0.249 928h448v-960h-448v960zM511.751 928h448v-960h-448v960z" />
<glyph unicode="&#xe686;" glyph-name="layout-2-cols" d="M0 960v-1024h1024v1024h-1024zM64 896h416v-896h-416v896zM960 0h-416v896h416v-896z" />
<glyph unicode="&#xe687;" glyph-name="layout-3-cols-f" horiz-adv-x="960" d="M351.751 928h256v-960h-256v960zM671.751 928h288v-960h-288v960zM-0.249 928h288v-960h-288v960z" />
<glyph unicode="&#xe688;" glyph-name="layout-3-cols" d="M0 960v-1024h1024v1024h-1024zM640 896v-896h-256v896h256zM64 896h256v-896h-256v896zM960 0h-256v896h256v-896z" />
<glyph unicode="&#xe689;" glyph-name="layout-complete-f" horiz-adv-x="960" d="M319.751 640h640v-288h-640v288zM-0.249 928h960v-224h-960v224zM-0.249 640h256v-672h-256v672zM319.751 288h640v-320h-640v320z" />
<glyph unicode="&#xe68a;" glyph-name="layout-complete" d="M0 960v-1024h1024v1024h-1024zM960 896v-192h-896v192h896zM352 640h608v-288h-608v288zM64 640h224v-640h-224v640zM352 0v288h608v-288h-608z" />
<glyph unicode="&#xe68b;" glyph-name="layout-content-f" horiz-adv-x="960" d="M351.751 928h608v-448h-608v448zM351.751 416h608v-448h-608v448zM-0.249 928h288v-960h-288v960z" />
<glyph unicode="&#xe68c;" glyph-name="layout-content" d="M0 960v-1024h1024v1024h-1024zM960 480h-576v416h576v-416zM64 896h256v-896h-256v896zM384 0v416h576v-416h-576z" />
<glyph unicode="&#xe68d;" glyph-name="layout-empty-f" horiz-adv-x="960" d="M-0.249 928h960v-960h-960v960z" />
<glyph unicode="&#xe68e;" glyph-name="layout-empty" d="M1024-64h-1024v1024h1024v-1024zM64 0h896v896h-896v-896z" />
<glyph unicode="&#xe68f;" glyph-name="layout-grid-f" horiz-adv-x="960" d="M511.751 928h448v-448h-448v448zM511.751 416h448v-448h-448v448zM-0.249 928h448v-448h-448v448zM-0.249 416h448v-448h-448v448z" />
<glyph unicode="&#xe690;" glyph-name="layout-grid" d="M0 960v-1024h1024v1024h-1024zM960 480h-416v416h416v-416zM480 896v-416h-416v416h416zM64 416h416v-416h-416v416zM544 0v416h416v-416h-416z" />
<glyph unicode="&#xe691;" glyph-name="layout-header-2-cols-f" horiz-adv-x="960" d="M-0.249 928h960v-224h-960v224zM511.751 640h448v-672h-448v672zM-0.249 640h448v-672h-448v672z" />
<glyph unicode="&#xe692;" glyph-name="layout-header-2-cols" d="M0 960v-1024h1024v1024h-1024zM960 896v-192h-896v192h896zM64 640h416v-640h-416v640zM544 0v640h416v-640h-416z" />
<glyph unicode="&#xe693;" glyph-name="layout-header-3-cols-f" horiz-adv-x="960" d="M351.751 640h256v-672h-256v672zM-0.249 928h960v-224h-960v224zM-0.249 640h288v-672h-288v672zM671.751 640h288v-672h-288v672z" />
<glyph unicode="&#xe694;" glyph-name="layout-header-3-cols" d="M0 960v-1024h1024v1024h-1024zM960 896v-192h-896v192h896zM640 640v-640h-256v640h256zM64 640h256v-640h-256v640zM704 0v640h256v-640h-256z" />
<glyph unicode="&#xe695;" glyph-name="layout-header-f" horiz-adv-x="960" d="M-0.233 928h960v-224h-960v224zM-0.233 640h960v-672h-960v672z" />
<glyph unicode="&#xe696;" glyph-name="layout-header-grid-f" horiz-adv-x="960" d="M-0.249 928h960v-224h-960v224zM511.751 640h448v-288h-448v288zM-0.249 288h448v-320h-448v320zM-0.249 640h448v-288h-448v288zM511.751 288h448v-320h-448v320z" />
<glyph unicode="&#xe697;" glyph-name="layout-header-grid" d="M0 960v-1024h1024v1024h-1024zM960 896v-192h-896v192h896zM544 640h416v-288h-416v288zM480 352h-416v288h416v-288zM64 288h416v-288h-416v288zM544 0v288h416v-288h-416z" />
<glyph unicode="&#xe698;" glyph-name="layout-header-sidebar-left-f" horiz-adv-x="960" d="M-0.249 928h960v-224h-960v224zM319.751 640h640v-672h-640v672zM-0.249 640h256v-672h-256v672z" />
<glyph unicode="&#xe699;" glyph-name="layout-header-sidebar-left" d="M0 960v-1024h1024v1024h-1024zM960 896v-192h-896v192h896zM64 640h224v-640h-224v640zM352 0v640h608v-640h-608z" />
<glyph unicode="&#xe69a;" glyph-name="layout-header-sidebar-right-f" horiz-adv-x="960" d="M-0.249 928h960v-224h-960v224zM703.751 640h256v-672h-256v672zM-0.249 640h640v-672h-640v672z" />
<glyph unicode="&#xe69b;" glyph-name="layout-header-sidebar-right" d="M0 960v-1024h1024v1024h-1024zM960 896v-192h-896v192h896zM64 640h608v-640h-608v640zM736 0v640h224v-640h-224z" />
<glyph unicode="&#xe69c;" glyph-name="layout-header" d="M0 960v-1024h1024v1024h-1024zM960 896v-192h-896v192h896zM64 0v640h896v-640h-896z" />
<glyph unicode="&#xe69d;" glyph-name="layout-media-f" horiz-adv-x="960" d="M-0.249 928v-960h960v960h-960zM511.751 768h192c17.6 0 32-14.4 32-32s-14.4-32-32-32h-192c-17.6 0-32 14.4-32 32s14.4 32 32 32zM383.751 128h-256v256h256v-256zM383.751 512h-256v256h256v-256zM511.751 384h192c17.6 0 32-14.4 32-32s-14.4-32-32-32h-192c-17.6 0-32 14.4-32 32s14.4 32 32 32zM831.751 192h-320c-17.6 0-32 14.4-32 32s14.4 32 32 32h320c17.6 0 32-14.4 32-32s-14.4-32-32-32zM831.751 448h-320c-17.6 0-32 14.4-32 32s14.4 32 32 32h320c17.6 0 32-14.4 32-32s-14.4-32-32-32zM831.751 576h-320c-17.6 0-32 14.4-32 32s14.4 32 32 32h320c17.6 0 32-14.4 32-32s-14.4-32-32-32z" />
<glyph unicode="&#xe69e;" glyph-name="layout-media" d="M1024-64h-1024v1024h1024v-1024zM64 0h896v896h-896v-896zM736 736h-192c-17.6 0-32 14.4-32 32s14.4 32 32 32h192c17.6 0 32-14.4 32-32s-14.4-32-32-32zM864 608h-320c-17.6 0-32 14.4-32 32s14.4 32 32 32h320c17.6 0 32-14.4 32-32s-14.4-32-32-32zM864 480h-320c-17.6 0-32 14.4-32 32s14.4 32 32 32h320c17.6 0 32-14.4 32-32s-14.4-32-32-32zM736 352h-192c-17.6 0-32 14.4-32 32s14.4 32 32 32h192c17.6 0 32-14.4 32-32s-14.4-32-32-32zM864 224h-320c-17.6 0-32 14.4-32 32s14.4 32 32 32h320c17.6 0 32-14.4 32-32s-14.4-32-32-32zM448 480h-320v320h320v-320zM192 544h192v192h-192v-192zM448 96h-320v320h320v-320zM192 160h192v192h-192v-192z" />
<glyph unicode="&#xe69f;" glyph-name="layout-sidebar-left-f" horiz-adv-x="960" d="M351.751 928h608v-960h-608v960zM-0.249 928h288v-960h-288v960z" />
<glyph unicode="&#xe6a0;" glyph-name="layout-sidebar-left" d="M0 960v-1024h1024v1024h-1024zM64 896h256v-896h-256v896zM960 0h-576v896h576v-896z" />
<glyph unicode="&#xe6a1;" glyph-name="layout-sidebar-right-f" horiz-adv-x="960" d="M-0.249 928h608v-960h-608v960zM671.751 928h288v-960h-288v960z" />
<glyph unicode="&#xe6a2;" glyph-name="layout-sidebar-right" d="M0 960v-1024h1024v1024h-1024zM64 896h576v-896h-576v896zM960 0h-256v896h256v-896z" />
<glyph unicode="&#xe6a3;" glyph-name="layout-text-cols-f" horiz-adv-x="960" d="M-0.249 928v-960h960v960h-960zM415.751 160h-256c-17.6 0-32 14.4-32 32s14.4 32 32 32h256c17.6 0 32-14.4 32-32s-14.4-32-32-32zM415.751 288h-256c-17.6 0-32 14.4-32 32s14.4 32 32 32h256c17.6 0 32-14.4 32-32s-14.4-32-32-32zM415.751 416h-256c-17.6 0-32 14.4-32 32s14.4 32 32 32h256c17.6 0 32-14.4 32-32s-14.4-32-32-32zM415.751 544h-256c-17.6 0-32 14.4-32 32s14.4 32 32 32h256c17.6 0 32-14.4 32-32s-14.4-32-32-32zM415.751 672h-192c-17.6 0-32 14.4-32 32s14.4 32 32 32h192c17.6 0 32-14.4 32-32s-14.4-32-32-32zM703.751 160h-160c-17.6 0-32 14.4-32 32s14.4 32 32 32h160c17.6 0 32-14.4 32-32s-14.4-32-32-32zM799.751 288h-256c-17.6 0-32 14.4-32 32s14.4 32 32 32h256c17.6 0 32-14.4 32-32s-14.4-32-32-32zM799.751 416h-256c-17.6 0-32 14.4-32 32s14.4 32 32 32h256c17.6 0 32-14.4 32-32s-14.4-32-32-32zM799.751 544h-256c-17.6 0-32 14.4-32 32s14.4 32 32 32h256c17.6 0 32-14.4 32-32s-14.4-32-32-32zM799.751 672h-256c-17.6 0-32 14.4-32 32s14.4 32 32 32h256c17.6 0 32-14.4 32-32s-14.4-32-32-32z" />
<glyph unicode="&#xe6a4;" glyph-name="layout-text-cols" d="M1024-64h-1024v1024h1024v-1024zM64 0h896v896h-896v-896zM832 672h-256c-17.6 0-32 14.4-32 32s14.4 32 32 32h256c17.6 0 32-14.4 32-32s-14.4-32-32-32zM832 544h-256c-17.6 0-32 14.4-32 32s14.4 32 32 32h256c17.6 0 32-14.4 32-32s-14.4-32-32-32zM832 416h-256c-17.6 0-32 14.4-32 32s14.4 32 32 32h256c17.6 0 32-14.4 32-32s-14.4-32-32-32zM832 288h-256c-17.6 0-32 14.4-32 32s14.4 32 32 32h256c17.6 0 32-14.4 32-32s-14.4-32-32-32zM736 160h-160c-17.6 0-32 14.4-32 32s14.4 32 32 32h160c17.6 0 32-14.4 32-32s-14.4-32-32-32zM448 672h-192c-17.6 0-32 14.4-32 32s14.4 32 32 32h192c17.6 0 32-14.4 32-32s-14.4-32-32-32zM448 544h-256c-17.6 0-32 14.4-32 32s14.4 32 32 32h256c17.6 0 32-14.4 32-32s-14.4-32-32-32zM448 416h-256c-17.6 0-32 14.4-32 32s14.4 32 32 32h256c17.6 0 32-14.4 32-32s-14.4-32-32-32zM448 288h-256c-17.6 0-32 14.4-32 32s14.4 32 32 32h256c17.6 0 32-14.4 32-32s-14.4-32-32-32zM448 160h-256c-17.6 0-32 14.4-32 32s14.4 32 32 32h256c17.6 0 32-14.4 32-32s-14.4-32-32-32z" />
<glyph unicode="&#xe6a5;" glyph-name="layout-text-f" horiz-adv-x="960" d="M-0.249 928v-960h960v960h-960zM159.751 768h512c17.6 0 32-14.4 32-32s-14.4-32-32-32h-512c-17.6 0-32 14.4-32 32s14.4 32 32 32zM447.751 128h-288c-17.6 0-32 14.4-32 32s14.4 32 32 32h288c17.6 0 32-14.4 32-32s-14.4-32-32-32zM799.751 256h-640c-17.6 0-32 14.4-32 32s14.4 32 32 32h640c17.6 0 32-14.4 32-32s-14.4-32-32-32zM799.751 384h-640c-17.6 0-32 14.4-32 32s14.4 32 32 32h640c17.6 0 32-14.4 32-32s-14.4-32-32-32zM799.751 512h-640c-17.6 0-32 14.4-32 32s14.4 32 32 32h640c17.6 0 32-14.4 32-32s-14.4-32-32-32z" />
<glyph unicode="&#xe6a6;" glyph-name="layout-text-wrap-f" horiz-adv-x="960" d="M-0.26 928v-960h960v960h-960zM639.74 672h128c17.6 0 32-14.4 32-32s-14.4-32-32-32h-128c-17.6 0-32 14.4-32 32s14.4 32 32 32zM127.74 768h384v-384h-384v384zM735.74 96h-608c-17.6 0-32 14.4-32 32s14.4 32 32 32h608c17.6 0 32-14.4 32-32s-14.4-32-32-32zM831.74 224h-704c-17.6 0-32 14.4-32 32s14.4 32 32 32h704c17.6 0 32-14.4 32-32s-14.4-32-32-32zM831.74 352h-192c-17.6 0-32 14.4-32 32s14.4 32 32 32h192c17.6 0 32-14.4 32-32s-14.4-32-32-32zM831.74 480h-192c-17.6 0-32 14.4-32 32s14.4 32 32 32h192c17.6 0 32-14.4 32-32s-14.4-32-32-32z" />
<glyph unicode="&#xe6a7;" glyph-name="layout-text-wrap" d="M1024-64h-1024v1024h1024v-1024zM64 0h896v896h-896v-896zM800 608h-128c-17.6 0-32 14.4-32 32s14.4 32 32 32h128c17.6 0 32-14.4 32-32s-14.4-32-32-32zM864 480h-192c-17.6 0-32 14.4-32 32s14.4 32 32 32h192c17.6 0 32-14.4 32-32s-14.4-32-32-32zM864 352h-192c-17.6 0-32 14.4-32 32s14.4 32 32 32h192c17.6 0 32-14.4 32-32s-14.4-32-32-32zM864 224h-704c-17.6 0-32 14.4-32 32s14.4 32 32 32h704c17.6 0 32-14.4 32-32s-14.4-32-32-32zM768 96h-608c-17.6 0-32 14.4-32 32s14.4 32 32 32h608c17.6 0 32-14.4 32-32s-14.4-32-32-32zM576 352h-448v448h448v-448zM192 416h320v320h-320v-320z" />
<glyph unicode="&#xe6a8;" glyph-name="layout-text" d="M1024-64h-1024v1024h1024v-1024zM64 0h896v896h-896v-896zM704 704h-512c-17.6 0-32 14.4-32 32s14.4 32 32 32h512c17.6 0 32-14.4 32-32s-14.4-32-32-32zM832 512h-640c-17.6 0-32 14.4-32 32s14.4 32 32 32h640c17.6 0 32-14.4 32-32s-14.4-32-32-32zM832 384h-640c-17.6 0-32 14.4-32 32s14.4 32 32 32h640c17.6 0 32-14.4 32-32s-14.4-32-32-32zM832 256h-640c-17.6 0-32 14.4-32 32s14.4 32 32 32h640c17.6 0 32-14.4 32-32s-14.4-32-32-32zM480 128h-288c-17.6 0-32 14.4-32 32s14.4 32 32 32h288c17.6 0 32-14.4 32-32s-14.4-32-32-32z" />
<glyph unicode="&#xe6a9;" glyph-name="left-indent-1" d="M979.2 416h-473.6c-17.6 0-32 14.4-32 32s14.4 32 32 32h473.6c17.6 0 32-14.4 32-32s-14.4-32-32-32zM664 859.2h-632c-17.6 0-32 14.4-32 32s14.4 32 32 32h632c17.6 0 32-14.4 32-32s-14.4-32-32-32zM664 732.8h-632c-17.6 0-32 14.4-32 32s14.4 32 32 32h632c17.6 0 32-14.4 32-32s-14.4-32-32-32zM662.4 100.8h-630.4c-17.6 0-32 14.4-32 32s14.4 32 32 32h632c17.6 0 32-14.4 32-32-1.6-17.6-16-32-33.6-32zM662.4-25.6h-630.4c-17.6 0-32 14.4-32 32s14.4 32 32 32h632c17.6 0 32-14.4 32-32-1.6-17.6-16-32-33.6-32zM379.2 606.4h-347.2c-17.6 0-32 14.4-32 32s14.4 32 32 32h347.2c17.6 0 32-14.4 32-32s-14.4-32-32-32zM379.2 480h-347.2c-17.6 0-32 14.4-32 32s14.4 32 32 32h347.2c17.6 0 32-14.4 32-32s-14.4-32-32-32zM379.2 353.6h-347.2c-17.6 0-32 14.4-32 32s14.4 32 32 32h347.2c17.6 0 32-14.4 32-32s-14.4-32-32-32zM379.2 227.2h-347.2c-17.6 0-32 14.4-32 32s14.4 32 32 32h347.2c17.6 0 32-14.4 32-32s-14.4-32-32-32zM790.4 227.2c-8 0-16 3.2-22.4 9.6-12.8 12.8-12.8 32 0 44.8l166.4 166.4-166.4 168c-12.8 12.8-12.8 32 0 44.8s32 12.8 44.8 0l211.2-212.8-211.2-211.2c-6.4-6.4-14.4-9.6-22.4-9.6z" />
<glyph unicode="&#xe6aa;" glyph-name="left-indent-2" d="M790.4 859.2h-758.4c-17.6 0-32 14.4-32 32s14.4 32 32 32h758.4c17.6 0 32-14.4 32-32s-14.4-32-32-32zM600 732.8h-568c-17.6 0-32 14.4-32 32s14.4 32 32 32h568c17.6 0 32-14.4 32-32s-14.4-32-32-32zM600 100.8h-568c-17.6 0-32 14.4-32 32s14.4 32 32 32h568c17.6 0 32-14.4 32-32s-14.4-32-32-32zM788.8-25.6h-756.8c-17.6 0-32 14.4-32 32s14.4 32 32 32h758.4c17.6 0 32-14.4 32-32-1.6-17.6-16-32-33.6-32zM600 606.4h-568c-17.6 0-32 14.4-32 32s14.4 32 32 32h568c17.6 0 32-14.4 32-32s-14.4-32-32-32zM600 480h-568c-17.6 0-32 14.4-32 32s14.4 32 32 32h568c17.6 0 32-14.4 32-32s-14.4-32-32-32zM600 353.6h-568c-17.6 0-32 14.4-32 32s14.4 32 32 32h568c17.6 0 32-14.4 32-32s-14.4-32-32-32zM600 227.2h-568c-17.6 0-32 14.4-32 32s14.4 32 32 32h568c17.6 0 32-14.4 32-32s-14.4-32-32-32zM758.4 195.2c-8 0-16 3.2-22.4 9.6-12.8 12.8-12.8 32 0 44.8l198.4 198.4-198.4 198.4c-12.8 12.8-12.8 32 0 44.8s32 12.8 44.8 0l243.2-243.2-243.2-243.2c-6.4-6.4-14.4-9.6-22.4-9.6z" />
</font>
</defs>
</svg>
