<?xml version="1.0" encoding="iso-8859-1"?>
<!-- Generator: Adobe Illustrator 19.0.0, SVG Export Plug-In . SVG Version: 6.00 Build 0)  -->
<svg version="1.1" id="Capa_1" xmlns="http://www.w3.org/2000/svg" xmlns:xlink="http://www.w3.org/1999/xlink" x="0px" y="0px"
	 viewBox="0 0 512 512" style="enable-background:new 0 0 512 512;" xml:space="preserve">
 <style type="text/css">
  <![CDATA[
  svg * { fill: #7f90b5 !important; }
  ]]>
</style>
<g>
	<g>
		<path d="M383.171,80.832c-0.067-0.037-0.131-0.077-0.198-0.113l-120-63c-4.365-2.292-9.58-2.292-13.945,0l-120,63
			C124.008,83.365,121,88.566,121,94v132c0,5.172,2.664,9.979,7.05,12.72l120,75c4.83,3.027,11.059,3.026,15.9,0l120-75
			c4.386-2.741,7.05-7.548,7.05-12.72V94C391,88.683,388.111,83.518,383.171,80.832z M241,273.936l-90-56.25v-97.193l90,54V273.936z
			 M256,148.507l-89.392-53.635L256,47.941l89.392,46.931L256,148.507z M361,217.686l-90,56.25v-99.443l90-54V217.686z"/>
	</g>
</g>
<g>
	<g>
		<path d="M497,76c-8.284,0-15,6.716-15,15v30c0,8.284,6.716,15,15,15s15-6.716,15-15V91C512,82.716,505.284,76,497,76z"/>
	</g>
</g>
<g>
	<g>
		<path d="M497,166c-8.284,0-15,6.716-15,15v30c0,8.284,6.716,15,15,15s15-6.716,15-15v-30C512,172.716,505.284,166,497,166z"/>
	</g>
</g>
<g>
	<g>
		<path d="M497,256c-8.284,0-15,6.716-15,15v30c0,8.284,6.716,15,15,15s15-6.716,15-15v-30C512,262.716,505.284,256,497,256z"/>
	</g>
</g>
<g>
	<g>
		<path d="M497,346c-8.284,0-15,6.716-15,15v40.808l-222.376-55.363c-2.381-0.593-4.867-0.593-7.248,0L30,401.808V361
			c0-8.284-6.716-15-15-15s-15,6.716-15,15v60c0,6.984,4.881,12.949,11.376,14.556l241,60c1.19,0.296,2.407,0.444,3.624,0.444
			s2.434-0.148,3.624-0.444l241-60C507.208,433.927,512,427.907,512,421v-60C512,352.716,505.284,346,497,346z M256,465.542
			L77.089,421L256,376.458L434.911,421L256,465.542z"/>
	</g>
</g>
<g>
	<g>
		<path d="M15,76C6.716,76,0,82.716,0,91v30c0,8.284,6.716,15,15,15s15-6.716,15-15V91C30,82.716,23.284,76,15,76z"/>
	</g>
</g>
<g>
	<g>
		<path d="M15,166c-8.284,0-15,6.716-15,15v30c0,8.284,6.716,15,15,15s15-6.716,15-15v-30C30,172.716,23.284,166,15,166z"/>
	</g>
</g>
<g>
	<g>
		<path d="M15,256c-8.284,0-15,6.716-15,15v30c0,8.284,6.716,15,15,15s15-6.716,15-15v-30C30,262.716,23.284,256,15,256z"/>
	</g>
</g>
<g>
	<g>
		<path d="M75,16c-8.284,0-15,6.716-15,15v30c0,8.284,6.716,15,15,15s15-6.716,15-15V31C90,22.716,83.284,16,75,16z"/>
	</g>
</g>
<g>
	<g>
		<path d="M75,106c-8.284,0-15,6.716-15,15v30c0,8.284,6.716,15,15,15s15-6.716,15-15v-30C90,112.716,83.284,106,75,106z"/>
	</g>
</g>
<g>
	<g>
		<path d="M75,196c-8.284,0-15,6.716-15,15v30c0,8.284,6.716,15,15,15s15-6.716,15-15v-30C90,202.716,83.284,196,75,196z"/>
	</g>
</g>
<g>
	<g>
		<path d="M75,286c-8.284,0-15,6.716-15,15v30c0,8.284,6.716,15,15,15s15-6.716,15-15v-30C90,292.716,83.284,286,75,286z"/>
	</g>
</g>
<g>
	<g>
		<path d="M437,16c-8.284,0-15,6.716-15,15v30c0,8.284,6.716,15,15,15s15-6.716,15-15V31C452,22.716,445.284,16,437,16z"/>
	</g>
</g>
<g>
	<g>
		<path d="M437,106c-8.284,0-15,6.716-15,15v30c0,8.284,6.716,15,15,15s15-6.716,15-15v-30C452,112.716,445.284,106,437,106z"/>
	</g>
</g>
<g>
	<g>
		<path d="M437,196c-8.284,0-15,6.716-15,15v30c0,8.284,6.716,15,15,15s15-6.716,15-15v-30C452,202.716,445.284,196,437,196z"/>
	</g>
</g>
<g>
	<g>
		<path d="M437,286c-8.284,0-15,6.716-15,15v30c0,8.284,6.716,15,15,15s15-6.716,15-15v-30C452,292.716,445.284,286,437,286z"/>
	</g>
</g>
<g>
</g>
<g>
</g>
<g>
</g>
<g>
</g>
<g>
</g>
<g>
</g>
<g>
</g>
<g>
</g>
<g>
</g>
<g>
</g>
<g>
</g>
<g>
</g>
<g>
</g>
<g>
</g>
<g>
</g>
</svg>
