<?xml version="1.0" encoding="iso-8859-1"?>
<!-- Generator: Adobe Illustrator 19.0.0, SVG Export Plug-In . SVG Version: 6.00 Build 0)  -->
<svg version="1.1" id="Capa_1" xmlns="http://www.w3.org/2000/svg" xmlns:xlink="http://www.w3.org/1999/xlink" x="0px" y="0px"
	 viewBox="0 0 512 512" style="enable-background:new 0 0 512 512;" xml:space="preserve">
 <style type="text/css">
  <![CDATA[
  svg * { fill: #7f90b5 !important; }
  ]]>
</style>
<g>
	<g>
		<g>
			<path d="M243.655,133.36c-12.215-7.087-26.812-7.111-39.051-0.064C192.328,140.365,185,153.055,185,167.242v99.638
				c0,14.186,7.328,26.877,19.603,33.945c6.101,3.513,12.785,5.269,19.471,5.269c6.726,0,13.454-1.778,19.58-5.333l85.853-49.819
				C341.713,243.86,349,231.195,349,217.061c0-14.134-7.287-26.8-19.492-33.881L243.655,133.36z M225,265.339v-96.557l83.198,48.279
				L225,265.339z"/>
			<path d="M492,236.061c11.046,0,20-8.954,20-20v-100c0-44.112-35.888-80-80-80H80c-44.112,0-80,35.888-80,80v200
				c0,44.112,35.888,80,80,80h156v39.878h-70c-11.046,0-20,8.954-20,20c0,11.046,8.954,20,20,20h180c11.046,0,20-8.954,20-20
				c0-11.046-8.954-20-20-20h-70v-39.878h156c44.112,0,80-35.888,80-80c0-11.046-8.954-20-20-20c-11.046,0-20,8.954-20,20
				c0,22.056-17.944,40-40,40H80c-22.056,0-40-17.944-40-40v-200c0-22.056,17.944-40,40-40h352c22.056,0,40,17.944,40,40v100
				C472,227.107,480.954,236.061,492,236.061z"/>
		</g>
	</g>
</g>
<g>
</g>
<g>
</g>
<g>
</g>
<g>
</g>
<g>
</g>
<g>
</g>
<g>
</g>
<g>
</g>
<g>
</g>
<g>
</g>
<g>
</g>
<g>
</g>
<g>
</g>
<g>
</g>
<g>
</g>
</svg>
