<?xml version="1.0" encoding="iso-8859-1"?>
<svg id="Capa_1" enable-background="new 0 0 512 512" height="512" viewBox="0 0 512 512" width="512" xmlns="http://www.w3.org/2000/svg">
 <style type="text/css">
  <![CDATA[
  svg * { fill: #7f90b5 !important; }
  ]]>
</style>
<g><path d="m463.611 118.235h-78.377v-56.311c0-19.527-15.864-35.414-35.364-35.414h-187.739c-19.5 0-35.364 15.886-35.364 35.414v56.311h-78.378c-26.682 0-48.389 21.708-48.389 48.389v270.438c0 26.703 21.691 48.427 48.353 48.427h415.295c26.662 0 48.353-21.724 48.353-48.427v-270.438c-.001-26.681-21.708-48.389-48.39-48.389zm-316.844-56.311c0-8.499 6.893-15.414 15.364-15.414h187.738c8.472 0 15.364 6.915 15.364 15.414v56.311h-25.951v-35.684c0-5.523-4.477-10-10-10h-146.564c-5.523 0-10 4.477-10 10v35.684h-25.951zm45.951 56.311v-25.684h126.564v25.684zm-172.718 48.389c0-15.654 12.735-28.389 28.389-28.389h415.222c15.654 0 28.389 12.735 28.389 28.389v92.741c0 30.855-25.103 55.958-55.958 55.958h-10.749v-42.412c0-5.523-4.477-10-10-10h-60.879c-5.523 0-10 4.477-10 10v42.412h-176.827v-42.412c0-5.523-4.477-10-10-10h-60.88c-5.523 0-10 4.477-10 10v42.412h-10.749c-30.855.001-55.958-25.102-55.958-55.957zm385.293 116.288v74.824h-40.879v-74.824zm-257.706 0v74.824h-40.879v-74.824zm344.413 154.151c0 15.675-12.719 28.427-28.353 28.427h-415.294c-15.634-.001-28.353-12.753-28.353-28.427v-126.385c13.895 15.14 33.837 24.646 55.958 24.646h10.749v32.412c0 5.523 4.477 10 10 10h60.879c5.523 0 10-4.477 10-10v-32.412h176.826v32.412c0 5.523 4.477 10 10 10h60.879c5.523 0 10-4.477 10-10v-32.412h10.749c22.121 0 42.063-9.505 55.958-24.646v126.385z"/><path d="m137.385 191.724h237.229c5.523 0 10-4.477 10-10s-4.477-10-10-10h-237.229c-5.523 0-10 4.477-10 10s4.477 10 10 10z"/></g></svg>