<?xml version="1.0" encoding="iso-8859-1"?>
<svg id="Capa_1" enable-background="new 0 0 512 512" height="512" viewBox="0 0 512 512" width="512" xmlns="http://www.w3.org/2000/svg">
 <style type="text/css">
  <![CDATA[
  svg * { fill: #7f90b5 !important; }
  ]]>
</style>
<g><path d="m444.999 134.408 21.89-28.145-61.152-61.152-28.145 21.889c-22.518-14.498-47.707-24.946-73.891-30.647l-4.411-36.353h-86.58l-4.411 36.354c-26.184 5.702-51.373 16.15-73.891 30.647l-28.145-21.889-61.152 61.152 21.891 28.144c-14.498 22.518-24.946 47.707-30.648 73.891l-36.354 4.411v86.58l36.354 4.412c5.702 26.184 16.15 51.372 30.647 73.89l-21.891 28.142 61.153 61.155 28.145-21.89c22.518 14.498 47.707 24.946 73.891 30.647l4.411 36.354h86.58l4.411-36.354c26.184-5.702 51.373-16.15 73.891-30.647l28.145 21.89 61.152-61.155-21.89-28.142c14.498-22.518 24.945-47.707 30.647-73.89l36.354-4.412v-86.58l-36.354-4.411c-5.702-26.184-16.15-51.373-30.647-73.891zm37.001 138.302-32.001 3.883-1.826 11.1c-8.937 54.303-36.949 84.838-40.444 90.844l19.221 24.71-23.699 23.7-24.712-19.22c-5.985 3.483-36.531 31.507-90.845 40.444l-11.101 1.826-3.883 32.003h-33.42l-3.883-32.001-11.101-1.826c-54.304-8.935-84.851-36.956-90.845-40.444l-24.712 19.22-23.698-23.7 19.221-24.71c-3.491-5.998-31.507-36.531-40.445-90.844l-1.826-11.1-32.001-3.885v-33.42l32.001-3.883 1.826-11.1c8.937-54.304 36.953-84.844 40.445-90.844l-19.221-24.713 23.699-23.699 24.712 19.22c5.987-3.484 36.531-31.507 90.845-40.444l11.101-1.826 3.882-32.001h33.42l3.883 32.001 11.101 1.826c54.304 8.935 84.851 36.956 90.845 40.444l24.712-19.22 23.699 23.699-19.221 24.712c3.48 5.98 31.506 36.531 40.444 90.844l1.826 11.1 32.001 3.884z"/><path d="m256 91c-90.981 0-165 74.019-165 165s74.019 165 165 165 165-74.019 165-165-74.019-165-165-165zm0 300c-74.439 0-135-60.561-135-135s60.561-135 135-135 135 60.561 135 135-60.561 135-135 135z"/><path d="m241 264.787-34.394-34.394-21.212 21.214 55.606 55.606 85.606-85.606-21.212-21.214z"/></g></svg>