<?xml version="1.0" encoding="iso-8859-1"?>
<svg height="480pt" viewBox="-8 0 480 480" width="480pt" xmlns="http://www.w3.org/2000/svg">
 <style type="text/css">
  <![CDATA[
  svg * { fill: #6f8d92 !important; }
  ]]>
</style>
<path d="m360 223.199219-104 34.402343v65.597657c0 60 32 115.199219 83.199219 144.800781l20.800781 12 20.800781-12c51.199219-28.800781 83.199219-84 83.199219-144v-65.601562zm88 100.800781c0 54.398438-28.800781 104-75.199219 131.199219l-12.800781 7.199219-12.800781-7.199219c-46.398438-27.199219-75.199219-77.597657-75.199219-131.199219v-54.398438l88-29.601562 88 29.601562zm0 0"/><path d="m144 480c59.199219 0 111.199219-8.800781 132-22.398438l-8.800781-13.601562c-14.398438 9.601562-59.199219 20-123.199219 20-80 0-126.398438-16-128-24v-84c28 15.199219 88 20 128 20 30.398438 0 60-2.398438 89.601562-8l-3.203124-16c-28.796876 4.800781-57.597657 8-86.398438 7.199219-80 0-126.398438-16-128-24v-91.199219c28 15.199219 88 20 128 20 32.800781.800781 65.601562-2.398438 97.601562-9.601562l-4-15.199219c-30.402343 6.402343-61.601562 9.601562-93.601562 8.800781-80 0-126.398438-16-128-24v-84c28 15.199219 88 20 128 20s100-4.800781 128-20v92h16v-66.398438c13.601562 1.597657 26.398438 2.398438 40 2.398438 40 0 81.601562-5.601562 104-18.398438v82.398438h16v-192c0-27.199219-62.398438-40-120-40s-120 12.800781-120 40v44c-21.601562-2.398438-42.398438-4-64-4-53.601562 0-144 8.800781-144 40v320c0 31.199219 90.398438 40 144 40zm184-464c68.800781 0 104 16.800781 104 24s-35.199219 24-104 24-104-16.800781-104-24 35.199219-24 104-24zm-104 45.601562c22.398438 12.796876 64 18.398438 104 18.398438s81.601562-5.601562 104-18.398438v66.398438c0 7.199219-35.199219 24-104 24-13.601562 0-26.398438-.800781-40-2.398438v-29.601562c0-17.601562-28.800781-28-64-34.398438zm-80 34.398438c80 0 126.398438 16 128 24-1.601562 8-48 24-128 24s-126.398438-16-128-24c1.601562-8 48-24 128-24zm0 0"/><path d="m356 447.199219c50.398438-28.800781 76-75.199219 76-136.800781v-14.398438h-16v13.601562c0 56-23.199219 96.796876-68 123.199219zm0 0"/></svg>