<?xml version="1.0" encoding="iso-8859-1"?>
<!-- Generator: Adobe Illustrator 19.0.0, SVG Export Plug-In . SVG Version: 6.00 Build 0)  -->
<svg version="1.1" id="Capa_1" xmlns="http://www.w3.org/2000/svg" xmlns:xlink="http://www.w3.org/1999/xlink" x="0px" y="0px"
	 viewBox="0 0 512 512" style="enable-background:new 0 0 512 512;" xml:space="preserve">

 <style type="text/css">
  <![CDATA[
  svg * { fill: #6f8d92 !important; }
  ]]>
</style>

<g>
	<g>
		<g>
			<path d="M53.763,351.799h-0.969c-4.142,0-7.5,3.358-7.5,7.5c0,4.142,3.358,7.5,7.5,7.5h0.969c4.142,0,7.5-3.358,7.5-7.5
				C61.263,355.157,57.905,351.799,53.763,351.799z"/>
			<path d="M102.187,351.799h-0.968c-4.142,0-7.5,3.358-7.5,7.5c0,4.142,3.358,7.5,7.5,7.5h0.968c4.142,0,7.5-3.358,7.5-7.5
				C109.687,355.157,106.329,351.799,102.187,351.799z"/>
			<path d="M77.491,351.799h-0.968c-4.142,0-7.5,3.358-7.5,7.5c0,4.142,3.358,7.5,7.5,7.5h0.968c4.142,0,7.5-3.358,7.5-7.5
				C84.991,355.157,81.633,351.799,77.491,351.799z"/>
			<path d="M89.112,157.333H65.869c-4.142,0-7.5,3.358-7.5,7.5c0,4.142,3.358,7.5,7.5,7.5h23.243c4.142,0,7.5-3.358,7.5-7.5
				C96.612,160.691,93.254,157.333,89.112,157.333z"/>
			<path d="M232.272,51.609h-0.968c-4.142,0-7.5,3.358-7.5,7.5c0,4.142,3.358,7.5,7.5,7.5h0.968c4.142,0,7.5-3.358,7.5-7.5
				C239.772,54.967,236.414,51.609,232.272,51.609z"/>
			<path d="M279.728,66.609h0.969c4.142,0,7.5-3.358,7.5-7.5c0-4.142-3.358-7.5-7.5-7.5h-0.969c-4.142,0-7.5,3.358-7.5,7.5
				C272.228,63.251,275.585,66.609,279.728,66.609z"/>
			<path d="M263.5,59.109c0-4.142-3.358-7.5-7.5-7.5h-0.969c-4.142,0-7.5,3.358-7.5,7.5c0,4.142,3.358,7.5,7.5,7.5H256
				C260.142,66.609,263.5,63.251,263.5,59.109z"/>
			<path d="M96.86,133.069H58.121c-4.142,0-7.5,3.358-7.5,7.5c0,4.142,3.358,7.5,7.5,7.5H96.86c4.142,0,7.5-3.358,7.5-7.5
				C104.36,136.427,101.002,133.069,96.86,133.069z"/>
			<path d="M459.206,351.799h-0.969c-4.142,0-7.5,3.358-7.5,7.5c0,4.142,3.358,7.5,7.5,7.5h0.969c4.142,0,7.5-3.358,7.5-7.5
				C466.706,355.157,463.348,351.799,459.206,351.799z"/>
			<path d="M203.124,337.684c2.522-3.286,1.902-7.995-1.384-10.516c-22.298-17.113-35.088-43.053-35.088-71.168
				c0-49.389,40.081-89.57,89.348-89.57c12.236,0,24.09,2.432,35.231,7.23c3.802,1.636,8.216-0.117,9.855-3.922
				c1.639-3.804-0.118-8.216-3.922-9.855c-10.734-4.621-22.027-7.361-33.664-8.184v-33.975
				c28.997-3.706,51.491-28.569,51.491-58.615C314.991,26.516,288.528,0,256,0s-58.991,26.516-58.99,59.11
				c0,30.046,22.494,54.909,51.491,58.615v33.978c-32.762,2.343-61.388,19.907-78.856,45.66l-37.741-21.84
				c2.946-7.025,4.578-14.735,4.578-22.821c0-32.593-26.463-59.109-58.991-59.109c-32.528,0-58.991,26.516-58.991,59.109
				c0,32.593,26.463,59.109,58.991,59.109c19.105,0,36.108-9.154,46.896-23.307l37.748,21.844
				c-6.712,13.802-10.483,29.293-10.483,45.652c0,16.157,3.626,31.696,10.407,45.696l-37.672,21.801
				c-10.788-14.153-27.791-23.307-46.896-23.307c-32.528,0-58.991,26.516-58.991,59.109c0,32.593,26.462,59.109,58.99,59.109
				c32.528,0,58.991-26.516,58.991-59.109c0-8.086-1.632-15.796-4.578-22.822l37.657-21.791
				c6.221,9.163,13.954,17.403,23.048,24.382c1.362,1.046,2.967,1.551,4.561,1.551C199.42,340.618,201.647,339.608,203.124,337.684z
				 M212.009,59.109C212.009,34.787,231.744,15,256,15c24.256,0,43.991,19.788,43.991,44.109S280.256,103.218,256,103.218
				C231.744,103.218,212.009,83.431,212.009,59.109z M77.491,196.81c-24.257,0-43.991-19.787-43.991-44.109
				s19.733-44.109,43.99-44.109c24.257,0,43.991,19.787,43.991,44.109S101.748,196.81,77.491,196.81z M77.491,403.408
				c-24.257,0-43.991-19.787-43.991-44.109s19.733-44.109,43.99-44.109c24.257,0,43.991,19.787,43.991,44.109
				C121.481,383.621,101.748,403.408,77.491,403.408z"/>
			<path d="M229.13,440.759c0,4.142,3.358,7.5,7.5,7.5h38.739c4.142,0,7.5-3.358,7.5-7.5c0-4.142-3.358-7.5-7.5-7.5H236.63
				C232.488,433.259,229.13,436.617,229.13,440.759z"/>
			<path d="M434.509,351.799h-0.969c-4.142,0-7.5,3.358-7.5,7.5c0,4.142,3.358,7.5,7.5,7.5h0.969c4.142,0,7.5-3.358,7.5-7.5
				C442.009,355.157,438.651,351.799,434.509,351.799z"/>
			<path d="M434.509,300.191c-19.105,0-36.108,9.154-46.896,23.307l-37.748-21.844c6.712-13.803,10.483-29.294,10.483-45.653
				c0-16.052-3.654-31.615-10.461-45.665l37.726-21.831c10.788,14.152,27.792,23.306,46.896,23.306
				c32.528,0,58.991-26.516,58.991-59.109s-26.463-59.109-58.991-59.109c-32.528,0-58.991,26.516-58.991,59.109
				c0,8.086,1.632,15.796,4.578,22.822l-37.701,21.816c-5.408-7.988-11.952-15.278-19.529-21.622
				c-3.176-2.658-7.905-2.239-10.565,0.936c-2.659,3.176-2.24,7.906,0.936,10.565c20.407,17.086,32.111,42.156,32.111,68.781
				c0,49.386-40.077,89.566-89.34,89.57c-0.003,0-0.005,0-0.008,0s-0.005,0-0.007,0c-11.43-0.001-22.557-2.133-33.073-6.337
				c-3.848-1.539-8.21,0.333-9.748,4.18c-1.538,3.846,0.334,8.21,4.18,9.748c9.981,3.991,20.429,6.384,31.148,7.144v33.971
				c-28.997,3.706-51.491,28.569-51.491,58.615C197.009,485.484,223.472,512,256,512s58.991-26.516,58.99-59.109
				c0-30.046-22.494-54.909-51.491-58.615v-33.978c32.761-2.344,61.388-19.908,78.856-45.661l37.741,21.84
				c-2.946,7.026-4.578,14.736-4.578,22.822c0,32.593,26.463,59.109,58.991,59.109c32.528,0,58.991-26.516,58.991-59.109
				C493.5,326.706,467.037,300.19,434.509,300.191z M434.51,108.592c24.257,0,43.991,19.787,43.991,44.109
				s-19.734,44.109-43.991,44.109c-24.257,0-43.991-19.787-43.991-44.109S410.253,108.592,434.51,108.592z M299.991,452.891
				C299.991,477.213,280.256,497,256,497s-43.991-19.788-43.991-44.109c0-24.321,19.735-44.109,43.991-44.109
				C280.256,408.782,299.991,428.569,299.991,452.891z M434.509,403.408c-24.257,0-43.991-19.787-43.991-44.109
				s19.734-44.109,43.991-44.109c24.257,0,43.991,19.787,43.991,44.109C478.5,383.621,458.766,403.408,434.509,403.408z"/>
			<path d="M267.622,457.523h-23.243c-4.142,0-7.5,3.358-7.5,7.5c0,4.142,3.358,7.5,7.5,7.5h23.243c4.142,0,7.5-3.358,7.5-7.5
				C275.122,460.881,271.764,457.523,267.622,457.523z"/>
			<path d="M410.781,351.799h-0.968c-4.142,0-7.5,3.358-7.5,7.5c0,4.142,3.358,7.5,7.5,7.5h0.968c4.142,0,7.5-3.358,7.5-7.5
				C418.281,355.157,414.923,351.799,410.781,351.799z"/>
			<path d="M311.924,256c0-4.142-3.358-7.5-7.5-7.5h-96.848c-4.142,0-7.5,3.358-7.5,7.5c0,4.142,3.358,7.5,7.5,7.5h96.848
				C308.566,263.5,311.924,260.142,311.924,256z"/>
			<path d="M226.946,277.621c-4.142,0-7.5,3.358-7.5,7.5c0,4.142,3.358,7.5,7.5,7.5h58.108c4.142,0,7.5-3.358,7.5-7.5
				c0-4.142-3.358-7.5-7.5-7.5H226.946z"/>
			<path d="M415.14,148.069h38.739c4.142,0,7.5-3.358,7.5-7.5c0-4.142-3.358-7.5-7.5-7.5H415.14c-4.142,0-7.5,3.358-7.5,7.5
				C407.64,144.711,410.998,148.069,415.14,148.069z"/>
			<path d="M304.424,219.379h-96.848c-4.142,0-7.5,3.358-7.5,7.5c0,4.142,3.358,7.5,7.5,7.5h96.848c4.142,0,7.5-3.358,7.5-7.5
				C311.924,222.737,308.566,219.379,304.424,219.379z"/>
			<path d="M446.131,157.333h-23.244c-4.142,0-7.5,3.358-7.5,7.5c0,4.142,3.358,7.5,7.5,7.5h23.244c4.142,0,7.5-3.358,7.5-7.5
				C453.631,160.691,450.273,157.333,446.131,157.333z"/>
		</g>
	</g>
</g>
<g>
</g>
<g>
</g>
<g>
</g>
<g>
</g>
<g>
</g>
<g>
</g>
<g>
</g>
<g>
</g>
<g>
</g>
<g>
</g>
<g>
</g>
<g>
</g>
<g>
</g>
<g>
</g>
<g>
</g>
</svg>
