<?xml version="1.0" encoding="iso-8859-1"?>
<svg height="512" viewBox="0 0 64 64" width="512" xmlns="http://www.w3.org/2000/svg">
 <style type="text/css">
  <![CDATA[
  svg * { fill: #6f8d92 !important; }
  ]]>
</style>

<g id="multi_server" data-name="multi server"><path d="m32 19a4 4 0 1 0 4 4 4 4 0 0 0 -4-4zm0 6a2 2 0 1 1 2-2 2 2 0 0 1 -2 2z"/><path d="m32 36c-5.468 0-9 1.57-9 4v18c0 2.43 3.532 4 9 4s9-1.57 9-4v-18c0-2.43-3.532-4-9-4zm0 24c-4.887 0-7-1.324-7-2v-3.312a15.515 15.515 0 0 0 7 1.312 15.515 15.515 0 0 0 7-1.312v3.312c0 .676-2.113 2-7 2zm0-6c-4.887 0-7-1.324-7-2v-3.312a15.515 15.515 0 0 0 7 1.312 15.515 15.515 0 0 0 7-1.312v3.312c0 .676-2.113 2-7 2zm0-6c-4.887 0-7-1.324-7-2v-3.312a15.515 15.515 0 0 0 7 1.312 15.515 15.515 0 0 0 7-1.312v3.312c0 .676-2.113 2-7 2zm0-6c-4.887 0-7-1.324-7-2s2.113-2 7-2 7 1.324 7 2-2.113 2-7 2z"/><path d="m52 36c-5.468 0-9 1.57-9 4v18c0 2.43 3.532 4 9 4s9-1.57 9-4v-18c0-2.43-3.532-4-9-4zm0 2c4.887 0 7 1.324 7 2s-2.113 2-7 2-7-1.324-7-2 2.113-2 7-2zm0 22c-4.887 0-7-1.324-7-2v-3.312a15.515 15.515 0 0 0 7 1.312 15.515 15.515 0 0 0 7-1.312v3.312c0 .676-2.113 2-7 2zm0-6c-4.887 0-7-1.324-7-2v-3.312a15.515 15.515 0 0 0 7 1.312 15.515 15.515 0 0 0 7-1.312v3.312c0 .676-2.113 2-7 2zm0-6c-4.887 0-7-1.324-7-2v-3.312a15.515 15.515 0 0 0 7 1.312 15.515 15.515 0 0 0 7-1.312v3.312c0 .676-2.113 2-7 2z"/><path d="m12 36c-5.468 0-9 1.57-9 4v18c0 2.43 3.532 4 9 4s9-1.57 9-4v-18c0-2.43-3.532-4-9-4zm0 24c-4.887 0-7-1.324-7-2v-3.312a15.515 15.515 0 0 0 7 1.312 15.515 15.515 0 0 0 7-1.312v3.312c0 .676-2.113 2-7 2zm0-6c-4.887 0-7-1.324-7-2v-3.312a15.515 15.515 0 0 0 7 1.312 15.515 15.515 0 0 0 7-1.312v3.312c0 .676-2.113 2-7 2zm0-6c-4.887 0-7-1.324-7-2v-3.312a15.515 15.515 0 0 0 7 1.312 15.515 15.515 0 0 0 7-1.312v3.312c0 .676-2.113 2-7 2zm0-6c-4.887 0-7-1.324-7-2s2.113-2 7-2 7 1.324 7 2-2.113 2-7 2z"/><path d="m11 31v4h2v-4a3 3 0 0 1 3-3h6v-2h-6a5.006 5.006 0 0 0 -5 5z"/><path d="m51 31v4h2v-4a5.006 5.006 0 0 0 -5-5h-6v2h6a3 3 0 0 1 3 3z"/><path d="m48 12h-1.08a6.74 6.74 0 0 0 .08-1 7.008 7.008 0 0 0 -7-7 6.9 6.9 0 0 0 -4.11 1.34 11 11 0 0 0 -18.85 6.66h-1.04a6 6 0 0 0 0 12h7v1a1 1 0 0 0 .76.97l.67.17-.36.59a1 1 0 0 0 .15 1.22l2.83 2.83a1.014 1.014 0 0 0 1.22.15l.59-.36.17.67a1 1 0 0 0 .97.76h4a1 1 0 0 0 .97-.76l.17-.67.59.36a1.014 1.014 0 0 0 1.22-.15l2.83-2.83a1 1 0 0 0 .15-1.22l-.36-.59.67-.17a1 1 0 0 0 .76-.97v-1h7a6 6 0 0 0 0-12zm-9 12.22-1.22.3a1.007 1.007 0 0 0 -.68.59.989.989 0 0 0 .07.9l.64 1.08-1.72 1.72-1.08-.65a1.019 1.019 0 0 0 -.9-.06 1.007 1.007 0 0 0 -.59.68l-.3 1.22h-2.44l-.3-1.22a1.007 1.007 0 0 0 -.59-.68 1.019 1.019 0 0 0 -.9.06l-1.08.65-1.72-1.72.64-1.08a.989.989 0 0 0 .07-.9 1.007 1.007 0 0 0 -.68-.59l-1.22-.3v-2.44l1.22-.3a1.007 1.007 0 0 0 .68-.59.989.989 0 0 0 -.07-.9l-.64-1.08 1.72-1.72 1.08.64a.989.989 0 0 0 .9.07 1.007 1.007 0 0 0 .59-.68l.3-1.22h2.44l.3 1.22a1.007 1.007 0 0 0 .59.68.989.989 0 0 0 .9-.07l1.08-.64 1.72 1.72-.64 1.08a.989.989 0 0 0 -.07.9 1.007 1.007 0 0 0 .68.59l1.22.3zm9-2.22h-7v-1a1 1 0 0 0 -.76-.97l-.67-.17.36-.59a1 1 0 0 0 -.15-1.22l-2.83-2.83a1 1 0 0 0 -1.22-.15l-.59.36-.17-.67a1 1 0 0 0 -.97-.76h-4a1 1 0 0 0 -.97.76l-.17.67-.59-.36a1.014 1.014 0 0 0 -1.22.15l-2.83 2.83a1 1 0 0 0 -.15 1.22l.36.59-.67.17a1 1 0 0 0 -.76.97v1h-7a4 4 0 0 1 0-8h2a1 1 0 0 0 1-1 9 9 0 0 1 16.01-5.64 1 1 0 0 0 1.48.08 5 5 0 0 1 8.51 3.56 5.2 5.2 0 0 1 -.29 1.67 1.014 1.014 0 0 0 .12.91 1.028 1.028 0 0 0 .82.42h2.35a4 4 0 0 1 0 8z"/></g></svg>