<?xml version="1.0" encoding="iso-8859-1"?>
<svg height="439pt" viewBox="0 0 439 439.91588" width="439pt" xmlns="http://www.w3.org/2000/svg">

 <style type="text/css">
  <![CDATA[
  svg * { fill: #ffffff !important; }
  ]]>
</style>

<path d="m220.414062 76.902344c-78.878906 0-143.054687 64.171875-143.054687 143.054687 0 78.878907 64.175781 143.054688 143.054687 143.054688 78.882813 0 143.054688-64.175781 143.054688-143.054688 0-78.882812-64.171875-143.054687-143.054688-143.054687zm-72 247.738281v-50.144531c.039063-15.429688 11.558594-28.421875 26.871094-30.308594 20.238282 23.585938 55.230469 27.597656 80.277344 9.203125 3.664062-2.679687 7.007812-5.765625 9.96875-9.203125 15.320312 1.886719 26.839844 14.875 26.882812 30.308594v50.144531c-21 14.101563-45.324218 22.371094-72 22.371094-26.675781 0-51-8.269531-72-22.371094zm160-13.042969v-37.101562c-.066406-25.699219-20.898437-46.507813-46.601562-46.539063-2.542969 0-4.9375 1.214844-6.445312 3.265625-8.171876 11.125-21.148438 17.699219-34.953126 17.699219-13.804687 0-26.785156-6.574219-34.957031-17.699219-1.503906-2.050781-3.898437-3.265625-6.441406-3.265625-25.699219.03125-46.535156 20.839844-46.601563 46.539063v37.101562c-24.960937-23.953125-39.082031-57.046875-39.101562-91.640625 0-70.058593 57.019531-127.054687 127.078125-127.054687s127.109375 57 127.109375 127.054687c-.011719 34.59375-14.128906 67.6875-39.085938 91.640625zm0 0"/><path d="m414.585938 242.398438c1.933593-17.835938 1.464843-35.851563-1.386719-53.566407l22.140625-21.234375c2.421875-2.320312 3.136718-5.90625 1.792968-8.980468l-25.207031-57.621094c-1.359375-3.109375-4.53125-5.023438-7.917969-4.769532l-30.648437 2.253907c-11.03125-14.195313-24.121094-26.664063-38.835937-36.992188l.898437-30.617187c.101563-3.390625-1.949219-6.476563-5.113281-7.699219l-58.648438-22.636719c-3.152344-1.214844-6.730468-.320312-8.9375 2.238282l-19.859375 23.015624c-17.839843-1.929687-35.859375-1.464843-53.574219 1.386719l-21.234374-22.140625c-2.320313-2.421875-5.90625-3.136718-8.980469-1.792968l-57.617188 25.214843c-3.109375 1.359375-5.023437 4.53125-4.773437 7.914063l2.253906 30.652344c-14.195312 11.03125-26.664062 24.121093-36.992188 38.832031l-30.617187-.898438c-3.394531-.113281-6.484375 1.941407-7.699219 5.117188l-22.632812 58.644531c-1.21875 3.152344-.324219 6.726562 2.234375 8.9375l23.019531 19.859375c-1.933594 17.835937-1.46875 35.851563 1.386719 53.566406l-22.144531 21.234375c-2.421876 2.320313-3.136719 5.90625-1.789063 8.980469l25.210937 57.617187c1.359376 3.109376 4.53125 5.023438 7.917969 4.773438l30.648438-2.253906c11.03125 14.195312 24.121093 26.664062 38.832031 36.992187l-.898438 30.617188c-.101562 3.390625 1.949219 6.476562 5.117188 7.699219l58.648438 22.636718c3.152343 1.21875 6.730468.324219 8.9375-2.238281l19.855468-23.019531c17.835938 1.933594 35.851563 1.46875 53.566406-1.382813l21.234376 22.140625c2.324218 2.421875 5.90625 3.136719 8.980468 1.792969l57.621094-25.210937c3.105469-1.359376 5.019531-4.53125 4.769531-7.914063l-2.253906-30.648437c14.195313-11.035157 26.664063-24.125 36.992187-38.839844l30.617188.898437c3.390625.097657 6.476562-1.953125 7.699219-5.117187l22.636719-58.648438c1.214843-3.152344.320312-6.726562-2.238282-8.9375zm-10.277344 76.398437-29.320313-.863281c-2.761719-.085938-5.367187 1.261718-6.894531 3.5625-10.59375 15.910156-23.878906 29.859375-39.253906 41.21875-2.207032 1.632812-3.425782 4.28125-3.222656 7.019531l2.15625 29.335937-47.316407 20.699219-20.3125-21.179687c-1.859375-1.9375-4.566406-2.8125-7.210937-2.328125-18.878906 3.453125-38.175782 3.953125-57.207032 1.476562-2.667968-.347656-5.332031.667969-7.089843 2.707031l-18.953125 21.972657-48.109375-18.5625.859375-29.324219c.082031-2.753906-1.261719-5.359375-3.554688-6.890625-15.914062-10.597656-29.863281-23.878906-41.222656-39.253906-1.632812-2.207031-4.28125-3.421875-7.019531-3.222657l-29.335938 2.15625-20.699219-47.316406 21.175782-20.3125c1.941406-1.859375 2.816406-4.566406 2.332031-7.210937-3.457031-18.878907-3.953125-38.175781-1.476563-57.207031.347657-2.667969-.671874-5.332032-2.707031-7.089844l-21.976562-18.960938 18.566406-48.109375 29.324219.863281c2.753906.078126 5.359375-1.265624 6.890625-3.5625 10.597656-15.910156 23.878906-29.855468 39.257812-41.21875 2.207031-1.628906 3.421875-4.28125 3.21875-7.015624l-2.15625-29.339844 47.316407-20.699219 20.3125 21.179687c1.859374 1.9375 4.570312 2.8125 7.210937 2.332032 18.882813-3.460938 38.1875-3.960938 57.222656-1.480469 2.667969.347656 5.332031-.671875 7.089844-2.707031l18.957031-21.972656 48.105469 18.566406-.863281 29.320312c-.082032 2.757813 1.261718 5.363282 3.558594 6.894532 15.910156 10.59375 29.859374 23.878906 41.21875 39.253906 1.632812 2.207031 4.28125 3.421875 7.019531 3.222656l29.335937-2.15625 20.703125 47.316406-21.179687 20.3125c-1.9375 1.859375-2.816406 4.566406-2.332032 7.210938 3.457032 18.878906 3.957032 38.175781 1.480469 57.207031-.347656 2.667969.667969 5.328125 2.707031 7.085937l21.964844 18.960938zm0 0"/><path d="m220.414062 125.058594c-28.0625 0-50.8125 22.746094-50.8125 50.808594 0 28.066406 22.75 50.8125 50.8125 50.8125s50.8125-22.75 50.8125-50.8125c-.03125-28.046876-22.761718-50.777344-50.8125-50.808594zm0 85.621094c-19.226562 0-34.8125-15.585938-34.8125-34.8125 0-19.226563 15.585938-34.8125 34.8125-34.8125 19.226563 0 34.8125 15.585937 34.8125 34.8125-.023437 19.21875-15.59375 34.789062-34.8125 34.8125zm0 0"/></svg>