<?xml version="1.0" standalone="no"?><!DOCTYPE svg PUBLIC "-//W3C//DTD SVG 1.1//EN" "http://www.w3.org/Graphics/SVG/1.1/DTD/svg11.dtd" ><svg version="1.1" xmlns="http://www.w3.org/2000/svg"><defs><font horiz-adv-x="0" id="font"><font-face ascent="715" bbox="-70 -283 1333 1076" cap-height="730" descent="-285" font-family="Samsung Sharp Sans Regular" font-stretch="normal" font-style="normal" font-weight="600" units-per-em="1000" x-height="585" /><missing-glyph d="M100 730H826V0H100ZM236 130H690V600H236ZM260 240 383 367 259 496 339 574 461 448 585 575 665 497 539 367 664 239 584 161 461 287 340 162Z" horiz-adv-x="926" /><glyph glyph-name=".null" horiz-adv-x="0" /><glyph d="M318 730H380L661 0H600L521 204H176L98 0H37ZM197 259H500L349 653Z" glyph-name="A" horiz-adv-x="698" unicode="A" /><glyph d="M401 730H962V675H477L540 393H962V339H552L615 55H962V0H569L524 199H197L97 0H31ZM224 252H512L424 647Z" glyph-name="AE" horiz-adv-x="1037" unicode="&#198;" /><glyph d="M401 730H962V675H477L540 393H962V339H552L615 55H962V0H569L524 199H197L97 0H31ZM224 252H512L424 647ZM691 950H766L626 795H572Z" glyph-name="AEacute" horiz-adv-x="1037" unicode="&#508;" /><glyph d="M318 730H380L661 0H600L521 204H176L98 0H37ZM197 259H500L349 653ZM434 950H509L369 795H315Z" glyph-name="Aacute" horiz-adv-x="698" unicode="&#193;" /><glyph d="M318 730H380L661 0H600L521 204H176L98 0H37ZM197 259H500L349 653ZM344 791Q303 791 272.5 804Q242 817 222 838.5Q202 860 192.5 888.5Q183 917 183 948H232Q232 901 260 868Q288 835 344 835Q398 835 426.5 868Q455 901 455 948H506Q506 917 495 888.5Q484 860 463 838.5Q442 817 412 804Q382 791 344 791Z" glyph-name="Abreve" horiz-adv-x="698" unicode="&#258;" /><glyph d="M318 730H380L661 0H600L521 204H176L98 0H37ZM197 259H500L349 653ZM319 950H368L487 795H426L343 905L260 795H200Z" glyph-name="Acircumflex" horiz-adv-x="698" unicode="&#194;" /><glyph d="M318 730H380L661 0H600L521 204H176L98 0H37ZM197 259H500L349 653ZM219 880Q219 899 231.5 911Q244 923 263 923Q283 923 294.5 911Q306 899 306 880Q306 861 294.5 848.5Q283 836 263 836Q243 836 231 848.5Q219 861 219 880ZM387 880Q387 899 399.5 911Q412 923 431 923Q451 923 462.5 911Q474 899 474 880Q474 861 462.5 848.5Q451 836 431 836Q411 836 399 848.5Q387 861 387 880Z" glyph-name="Adieresis" horiz-adv-x="698" unicode="&#196;" /><glyph d="M318 730H380L661 0H600L521 204H176L98 0H37ZM197 259H500L349 653ZM178 950H252L372 795H318Z" glyph-name="Agrave" horiz-adv-x="698" unicode="&#192;" /><glyph d="M318 730H380L661 0H600L521 204H176L98 0H37ZM197 259H500L349 653ZM214 845H478V795H214Z" glyph-name="Amacron" horiz-adv-x="698" unicode="&#256;" /><glyph d="M318 730H380L661 0H600L349 653L98 0H37Z" glyph-name="Anocross" horiz-adv-x="698" unicode="&#59185;" /><glyph d="M610 -208Q552 -208 516.5 -181Q481 -154 481 -113Q481 -79 506 -48Q531 -17 594 15L521 204H176L98 0H37L318 730H380L661 0Q625 -20 601.5 -35Q578 -50 564 -62.5Q550 -75 544.5 -86.5Q539 -98 539 -110Q539 -134 559 -147.5Q579 -161 610 -161Q638 -161 658 -149.5Q678 -138 696 -122L741 -153Q717 -175 682.5 -191.5Q648 -208 610 -208ZM197 259H500L349 653Z" glyph-name="Aogonek" horiz-adv-x="698" unicode="&#260;" /><glyph d="M305 697Q279 708 262.5 732.5Q246 757 246 788Q246 830 274.5 859Q303 888 344 888Q387 888 416 859Q445 830 445 788Q445 759 430 736Q415 713 391 700L661 0H600L521 204H176L98 0H37ZM197 259H500L349 653ZM344 734Q367 734 383.5 749.5Q400 765 400 788Q400 811 383.5 827Q367 843 344 843Q322 843 306 827Q290 811 290 788Q290 765 306 749.5Q322 734 344 734Z" glyph-name="Aring" horiz-adv-x="698" unicode="&#197;" /><glyph d="M305 697Q279 708 262.5 733Q246 758 246 789Q246 831 274.5 860Q303 889 344 889Q387 889 416 860Q445 831 445 789Q445 760 430 736.5Q415 713 391 701L661 0H600L521 204H176L98 0H37ZM197 259H500L349 653ZM434 1076H509L369 921H315ZM344 735Q367 735 383.5 750.5Q400 766 400 789Q400 812 383.5 828Q367 844 344 844Q322 844 306 828Q290 812 290 789Q290 766 306 750.5Q322 735 344 735Z" glyph-name="Aringacute" horiz-adv-x="698" unicode="&#506;" /><glyph d="M318 730H380L661 0H600L521 204H176L98 0H37ZM197 259H500L349 653ZM170 795Q170 845 196 874Q222 903 263 903Q288 903 308.5 894Q329 885 349 873Q368 862 385.5 852Q403 842 421 842Q444 842 457.5 856Q471 870 471 900H517Q517 849 492.5 820Q468 791 422 791Q393 791 370.5 802.5Q348 814 328 826Q311 836 296 844.5Q281 853 263 853Q243 853 230 838.5Q217 824 217 795Z" glyph-name="Atilde" horiz-adv-x="698" unicode="&#195;" /><glyph d="M318 730H380L661 0H600L521 204H176L98 0H37ZM197 259H500L349 653ZM502 730H559V591H502ZM142 730H198V591H142Z" glyph-name="Aumlaut" horiz-adv-x="698" unicode="&#61814;" /><glyph d="M75 730H354Q401 730 440 716Q479 702 507.5 677Q536 652 551.5 617.5Q567 583 567 541Q567 486 540.5 443Q514 400 464 379Q521 358 553 311.5Q585 265 585 201Q585 156 569 119Q553 82 524 55.5Q495 29 455.5 14.5Q416 0 368 0H75ZM133 350V53H367Q402 53 431.5 64.5Q461 76 482 95.5Q503 115 515 142.5Q527 170 527 201Q527 233 516 260.5Q505 288 484 308Q463 328 433 339Q403 350 366 350ZM133 677V403H363Q397 403 424 413.5Q451 424 470 442.5Q489 461 499 486.5Q509 512 509 541Q509 570 497.5 595Q486 620 465 638Q444 656 415.5 666.5Q387 677 353 677Z" glyph-name="B" horiz-adv-x="639" unicode="B" /><glyph d="M428 -10Q350 -10 282 19.5Q214 49 163 100Q112 151 82.5 219Q53 287 53 365Q53 443 82.5 511Q112 579 163 630Q214 681 282 710.5Q350 740 428 740Q479 740 526.5 726.5Q574 713 615.5 689Q657 665 691 631Q725 597 750 556L700 527Q659 598 588 642Q517 686 428 686Q361 686 303.5 660.5Q246 635 203.5 591.5Q161 548 136.5 489.5Q112 431 112 365Q112 299 136.5 241Q161 183 203.5 139.5Q246 96 303.5 70.5Q361 45 428 45Q525 45 597.5 91.5Q670 138 709 213L760 187Q736 143 702 106.5Q668 70 625.5 44Q583 18 533 4Q483 -10 428 -10Z" glyph-name="C" horiz-adv-x="796" unicode="C" /><glyph d="M513 950H588L448 795H394ZM428 -10Q350 -10 282 19.5Q214 49 163 100Q112 151 82.5 219Q53 287 53 365Q53 443 82.5 511Q112 579 163 630Q214 681 282 710.5Q350 740 428 740Q479 740 526.5 726.5Q574 713 615.5 689Q657 665 691 631Q725 597 750 556L700 527Q659 598 588 642Q517 686 428 686Q361 686 303.5 660.5Q246 635 203.5 591.5Q161 548 136.5 489.5Q112 431 112 365Q112 299 136.5 241Q161 183 203.5 139.5Q246 96 303.5 70.5Q361 45 428 45Q525 45 597.5 91.5Q670 138 709 213L760 187Q736 143 702 106.5Q668 70 625.5 44Q583 18 533 4Q483 -10 428 -10Z" glyph-name="Cacute" horiz-adv-x="796" unicode="&#262;" /><glyph d="M428 -10Q350 -10 282 19.5Q214 49 163 100Q112 151 82.5 219Q53 287 53 365Q53 443 82.5 511Q112 579 163 630Q214 681 282 710.5Q350 740 428 740Q479 740 526.5 726.5Q574 713 615.5 689Q657 665 691 631Q725 597 750 556L700 527Q659 598 588 642Q517 686 428 686Q361 686 303.5 660.5Q246 635 203.5 591.5Q161 548 136.5 489.5Q112 431 112 365Q112 299 136.5 241Q161 183 203.5 139.5Q246 96 303.5 70.5Q361 45 428 45Q525 45 597.5 91.5Q670 138 709 213L760 187Q736 143 702 106.5Q668 70 625.5 44Q583 18 533 4Q483 -10 428 -10ZM280 950H339L420 836L504 950H563L445 795H397Z" glyph-name="Ccaron" horiz-adv-x="796" unicode="&#268;" /><glyph d="M430 -227Q383 -227 349.5 -212Q316 -197 291 -174L337 -146Q357 -163 377 -173.5Q397 -184 430 -184Q465 -184 487.5 -170Q510 -156 510 -134Q510 -114 488.5 -102Q467 -90 427 -90H394V-8Q322 -2 260 29.5Q198 61 152 111Q106 161 79.5 226.5Q53 292 53 365Q53 443 82.5 511Q112 579 163 630Q214 681 282 710.5Q350 740 428 740Q479 740 526.5 726.5Q574 713 615.5 689Q657 665 691 631Q725 597 750 556L700 527Q659 598 588 642Q517 686 428 686Q361 686 303.5 660.5Q246 635 203.5 591.5Q161 548 136.5 489.5Q112 431 112 365Q112 299 136.5 241Q161 183 203.5 139.5Q246 96 303.5 70.5Q361 45 428 45Q525 45 597.5 91.5Q670 138 709 213L760 187Q713 101 631 47.5Q549 -6 443 -10V-53Q497 -54 530.5 -75.5Q564 -97 564 -132Q564 -153 553.5 -170.5Q543 -188 525 -200.5Q507 -213 482.5 -220Q458 -227 430 -227Z" glyph-name="Ccedilla" horiz-adv-x="796" unicode="&#199;" /><glyph d="M428 -10Q350 -10 282 19.5Q214 49 163 100Q112 151 82.5 219Q53 287 53 365Q53 443 82.5 511Q112 579 163 630Q214 681 282 710.5Q350 740 428 740Q479 740 526.5 726.5Q574 713 615.5 689Q657 665 691 631Q725 597 750 556L700 527Q659 598 588 642Q517 686 428 686Q361 686 303.5 660.5Q246 635 203.5 591.5Q161 548 136.5 489.5Q112 431 112 365Q112 299 136.5 241Q161 183 203.5 139.5Q246 96 303.5 70.5Q361 45 428 45Q525 45 597.5 91.5Q670 138 709 213L760 187Q736 143 702 106.5Q668 70 625.5 44Q583 18 533 4Q483 -10 428 -10ZM402 950H451L570 795H509L426 905L343 795H283Z" glyph-name="Ccircumflex" horiz-adv-x="796" unicode="&#264;" /><glyph d="M428 -10Q350 -10 282 19.5Q214 49 163 100Q112 151 82.5 219Q53 287 53 365Q53 443 82.5 511Q112 579 163 630Q214 681 282 710.5Q350 740 428 740Q479 740 526.5 726.5Q574 713 615.5 689Q657 665 691 631Q725 597 750 556L700 527Q659 598 588 642Q517 686 428 686Q361 686 303.5 660.5Q246 635 203.5 591.5Q161 548 136.5 489.5Q112 431 112 365Q112 299 136.5 241Q161 183 203.5 139.5Q246 96 303.5 70.5Q361 45 428 45Q525 45 597.5 91.5Q670 138 709 213L760 187Q736 143 702 106.5Q668 70 625.5 44Q583 18 533 4Q483 -10 428 -10ZM385 880Q385 901 399 914.5Q413 928 434 928Q457 928 470 914.5Q483 901 483 880Q483 859 470 845Q457 831 434 831Q411 831 398 845Q385 859 385 880Z" glyph-name="Cdotaccent" horiz-adv-x="796" unicode="&#266;" /><glyph d="M75 730H280Q363 730 432 702Q501 674 551.5 625Q602 576 630 509.5Q658 443 658 365Q658 287 629 220Q600 153 549.5 104.5Q499 56 430.5 28Q362 0 282 0H75ZM133 677V54H278Q347 54 405.5 77.5Q464 101 507 143Q550 185 574.5 242Q599 299 599 365Q599 431 575.5 488Q552 545 509 587Q466 629 407 653Q348 677 276 677Z" glyph-name="D" horiz-adv-x="711" unicode="D" /><glyph d="M75 730H280Q363 730 432 702Q501 674 551.5 625Q602 576 630 509.5Q658 443 658 365Q658 287 629 220Q600 153 549.5 104.5Q499 56 430.5 28Q362 0 282 0H75ZM133 677V54H278Q347 54 405.5 77.5Q464 101 507 143Q550 185 574.5 242Q599 299 599 365Q599 431 575.5 488Q552 545 509 587Q466 629 407 653Q348 677 276 677ZM158 950H217L298 836L382 950H441L323 795H275Z" glyph-name="Dcaron" horiz-adv-x="711" unicode="&#270;" /><glyph d="M22 397H97V730H300Q383 730 452.5 702Q522 674 572.5 625Q623 576 651 509.5Q679 443 679 365Q679 287 650 220Q621 153 570.5 104.5Q520 56 451 28Q382 0 302 0H97V341H22ZM155 677V397H386V341H155V54H297Q366 54 425.5 77.5Q485 101 528.5 143Q572 185 596.5 242Q621 299 621 365Q621 431 597 488Q573 545 529.5 587Q486 629 426.5 653Q367 677 295 677Z" glyph-name="Dcroat" horiz-adv-x="731" unicode="&#272;" /><glyph d="M20 0 449 742 877 0ZM118 55H779L449 630Z" glyph-name="Delta" horiz-adv-x="897" unicode="&#8710;" /><glyph d="M75 730H522V675H133V393H522V339H133V55H522V0H75Z" glyph-name="E" horiz-adv-x="583" unicode="E" /><glyph d="M75 730H522V675H133V393H522V339H133V55H522V0H75ZM372 950H447L307 795H253Z" glyph-name="Eacute" horiz-adv-x="587" unicode="&#201;" /><glyph d="M75 730H522V675H133V393H522V339H133V55H522V0H75ZM298 791Q257 791 226.5 804Q196 817 176 838.5Q156 860 146.5 888.5Q137 917 137 948H186Q186 901 214 868Q242 835 298 835Q352 835 380.5 868Q409 901 409 948H460Q460 917 449 888.5Q438 860 417 838.5Q396 817 366 804Q336 791 298 791Z" glyph-name="Ebreve" horiz-adv-x="587" unicode="&#276;" /><glyph d="M75 730H522V675H133V393H522V339H133V55H522V0H75ZM153 950H212L293 836L377 950H436L318 795H270Z" glyph-name="Ecaron" horiz-adv-x="587" unicode="&#282;" /><glyph d="M75 730H522V675H133V393H522V339H133V55H522V0H75ZM270 950H319L438 795H377L294 905L211 795H151Z" glyph-name="Ecircumflex" horiz-adv-x="587" unicode="&#202;" /><glyph d="M75 730H522V675H133V393H522V339H133V55H522V0H75ZM338 880Q338 899 350.5 911Q363 923 382 923Q402 923 413.5 911Q425 899 425 880Q425 861 413.5 848.5Q402 836 382 836Q362 836 350 848.5Q338 861 338 880ZM170 880Q170 899 182.5 911Q195 923 214 923Q234 923 245.5 911Q257 899 257 880Q257 861 245.5 848.5Q234 836 214 836Q194 836 182 848.5Q170 861 170 880Z" glyph-name="Edieresis" horiz-adv-x="587" unicode="&#203;" /><glyph d="M75 730H522V675H133V393H522V339H133V55H522V0H75ZM257 880Q257 901 271 914.5Q285 928 306 928Q329 928 342 914.5Q355 901 355 880Q355 859 342 845Q329 831 306 831Q283 831 270 845Q257 859 257 880Z" glyph-name="Edotaccent" horiz-adv-x="587" unicode="&#278;" /><glyph d="M75 730H522V675H133V393H522V339H133V55H522V0H75ZM140 950H214L334 795H280Z" glyph-name="Egrave" horiz-adv-x="587" unicode="&#200;" /><glyph d="M75 730H522V675H133V393H522V339H133V55H522V0H75ZM163 845H427V795H163Z" glyph-name="Emacron" horiz-adv-x="587" unicode="&#274;" /><glyph d="M453 -157H502Q560 -157 584.5 -128.5Q609 -100 609 -39V0L133 643V0H75V730H139L609 95V730H667V-41Q667 -123 630 -168Q593 -213 507 -213H453Z" glyph-name="Eng" horiz-adv-x="742" unicode="&#330;" /><glyph d="M75 730H522V675H133V393H522V339H133V55H522V0Q486 -20 462.5 -35Q439 -50 425 -62.5Q411 -75 405.5 -86.5Q400 -98 400 -110Q400 -134 420 -147.5Q440 -161 471 -161Q499 -161 519 -149.5Q539 -138 557 -122L602 -153Q578 -175 543.5 -191.5Q509 -208 471 -208Q413 -208 377.5 -181Q342 -154 342 -113Q342 -84 360.5 -56Q379 -28 427 0H75Z" glyph-name="Eogonek" horiz-adv-x="587" unicode="&#280;" /><glyph d="M22 397H97V730H300Q383 730 452.5 702Q522 674 572.5 625Q623 576 651 509.5Q679 443 679 365Q679 287 650 220Q621 153 570.5 104.5Q520 56 451 28Q382 0 302 0H97V341H22ZM155 677V397H386V341H155V54H297Q366 54 425.5 77.5Q485 101 528.5 143Q572 185 596.5 242Q621 299 621 365Q621 431 597 488Q573 545 529.5 587Q486 629 426.5 653Q367 677 295 677Z" glyph-name="Eth" horiz-adv-x="731" unicode="&#208;" /><glyph d="M31 504H98Q98 556 115 599.5Q132 643 162 674Q192 705 234 722.5Q276 740 326 740Q382 740 425.5 720Q469 700 498 666L458 630Q413 687 327 687Q246 687 201.5 637.5Q157 588 156 504H439L431 457H156V273H401L393 226H156V223Q156 138 200 90.5Q244 43 325 43Q421 43 464 106L509 69Q480 31 433.5 10.5Q387 -10 326 -10Q217 -10 157.5 52.5Q98 115 98 223V226H31V273H98V457H31Z" glyph-name="Euro" horiz-adv-x="588" unicode="&#8364;" /><glyph d="M30 504H135Q156 556 191 599Q226 642 271 673.5Q316 705 370 722.5Q424 740 483 740Q567 740 637.5 707Q708 674 759 617L719 580Q677 628 616.5 657Q556 686 483 686Q435 686 391.5 672.5Q348 659 311.5 635Q275 611 246.5 577.5Q218 544 199 504H613L601 456H180Q167 414 167 365Q167 318 179 274H551L539 226H198Q217 186 246 152.5Q275 119 311.5 95Q348 71 392 58Q436 45 485 45Q562 45 624 76Q686 107 728 160L773 126Q722 63 648 26.5Q574 -10 485 -10Q425 -10 370.5 7.5Q316 25 270.5 56Q225 87 190.5 130.5Q156 174 135 226H30V274H119Q109 315 109 365Q109 410 120 456H30Z" glyph-name="Euro.LP" horiz-adv-x="859" unicode="&#58657;" /><glyph d="M31 504H98Q98 556 115 599.5Q132 643 162 674Q192 705 234 722.5Q276 740 326 740Q382 740 425.5 720Q469 700 498 666L458 630Q413 687 327 687Q246 687 201.5 637.5Q157 588 156 504H439L431 457H156V273H401L393 226H156V223Q156 138 200 90.5Q244 43 325 43Q421 43 464 106L509 69Q480 31 433.5 10.5Q387 -10 326 -10Q217 -10 157.5 52.5Q98 115 98 223V226H31V273H98V457H31Z" glyph-name="Euro.LT" horiz-adv-x="588" unicode="&#62567;" /><glyph d="M75 730H488V675H133V393H488V338H133V0H75Z" glyph-name="F" horiz-adv-x="547" unicode="F" /><glyph d="M430 -10Q350 -10 281 19.5Q212 49 161.5 100Q111 151 82 219Q53 287 53 365Q53 443 82 511Q111 579 162 630Q213 681 282.5 710.5Q352 740 434 740Q540 740 623.5 690.5Q707 641 756 556L706 527Q666 600 595.5 643Q525 686 434 686Q363 686 304 660.5Q245 635 202 591.5Q159 548 135.5 489.5Q112 431 112 365Q112 299 135.5 241Q159 183 201.5 139.5Q244 96 302.5 70.5Q361 45 430 45Q499 45 553.5 66.5Q608 88 648 126Q688 164 711.5 215.5Q735 267 741 327H425V381H799V366Q799 290 774 221.5Q749 153 701.5 101.5Q654 50 585.5 20Q517 -10 430 -10Z" glyph-name="G" horiz-adv-x="850" unicode="G" /><glyph d="M430 -10Q350 -10 281 19.5Q212 49 161.5 100Q111 151 82 219Q53 287 53 365Q53 443 82 511Q111 579 162 630Q213 681 282.5 710.5Q352 740 434 740Q540 740 623.5 690.5Q707 641 756 556L706 527Q666 600 595.5 643Q525 686 434 686Q363 686 304 660.5Q245 635 202 591.5Q159 548 135.5 489.5Q112 431 112 365Q112 299 135.5 241Q159 183 201.5 139.5Q244 96 302.5 70.5Q361 45 430 45Q499 45 553.5 66.5Q608 88 648 126Q688 164 711.5 215.5Q735 267 741 327H425V381H799V366Q799 290 774 221.5Q749 153 701.5 101.5Q654 50 585.5 20Q517 -10 430 -10ZM423 791Q382 791 351.5 804Q321 817 301 838.5Q281 860 271.5 888.5Q262 917 262 948H311Q311 901 339 868Q367 835 423 835Q477 835 505.5 868Q534 901 534 948H585Q585 917 574 888.5Q563 860 542 838.5Q521 817 491 804Q461 791 423 791Z" glyph-name="Gbreve" horiz-adv-x="850" unicode="&#286;" /><glyph d="M430 -10Q350 -10 281 19.5Q212 49 161.5 100Q111 151 82 219Q53 287 53 365Q53 443 82 511Q111 579 162 630Q213 681 282.5 710.5Q352 740 434 740Q540 740 623.5 690.5Q707 641 756 556L706 527Q666 600 595.5 643Q525 686 434 686Q363 686 304 660.5Q245 635 202 591.5Q159 548 135.5 489.5Q112 431 112 365Q112 299 135.5 241Q159 183 201.5 139.5Q244 96 302.5 70.5Q361 45 430 45Q499 45 553.5 66.5Q608 88 648 126Q688 164 711.5 215.5Q735 267 741 327H425V381H799V366Q799 290 774 221.5Q749 153 701.5 101.5Q654 50 585.5 20Q517 -10 430 -10ZM400 950H449L568 795H507L424 905L341 795H281Z" glyph-name="Gcircumflex" horiz-adv-x="850" unicode="&#284;" /><glyph d="M430 -10Q350 -10 281 19.5Q212 49 161.5 100Q111 151 82 219Q53 287 53 365Q53 443 82 511Q111 579 162 630Q213 681 282.5 710.5Q352 740 434 740Q540 740 623.5 690.5Q707 641 756 556L706 527Q666 600 595.5 643Q525 686 434 686Q363 686 304 660.5Q245 635 202 591.5Q159 548 135.5 489.5Q112 431 112 365Q112 299 135.5 241Q159 183 201.5 139.5Q244 96 302.5 70.5Q361 45 430 45Q499 45 553.5 66.5Q608 88 648 126Q688 164 711.5 215.5Q735 267 741 327H425V381H799V366Q799 290 774 221.5Q749 153 701.5 101.5Q654 50 585.5 20Q517 -10 430 -10ZM363 -269 406 -65H461L403 -269Z" glyph-name="Gcommaaccent" horiz-adv-x="850" unicode="&#290;" /><glyph d="M430 -10Q350 -10 281 19.5Q212 49 161.5 100Q111 151 82 219Q53 287 53 365Q53 443 82 511Q111 579 162 630Q213 681 282.5 710.5Q352 740 434 740Q540 740 623.5 690.5Q707 641 756 556L706 527Q666 600 595.5 643Q525 686 434 686Q363 686 304 660.5Q245 635 202 591.5Q159 548 135.5 489.5Q112 431 112 365Q112 299 135.5 241Q159 183 201.5 139.5Q244 96 302.5 70.5Q361 45 430 45Q499 45 553.5 66.5Q608 88 648 126Q688 164 711.5 215.5Q735 267 741 327H425V381H799V366Q799 290 774 221.5Q749 153 701.5 101.5Q654 50 585.5 20Q517 -10 430 -10ZM376 880Q376 901 390 914.5Q404 928 425 928Q448 928 461 914.5Q474 901 474 880Q474 859 461 845Q448 831 425 831Q402 831 389 845Q376 859 376 880Z" glyph-name="Gdotaccent" horiz-adv-x="850" unicode="&#288;" /><glyph d="M555 339H133V0H75V730H133V394H555V730H613V0H555Z" glyph-name="H" horiz-adv-x="688" unicode="H" /><glyph d="M20 585H90V730H148V585H570V730H628V585H693V540H628V0H570V339H148V0H90V540H20ZM148 394H570V540H148Z" glyph-name="Hbar" horiz-adv-x="721" unicode="&#294;" /><glyph d="M554 339H132V0H74V730H132V394H554V730H612V0H554ZM318 950H367L486 795H425L342 905L259 795H199Z" glyph-name="Hcircumflex" horiz-adv-x="688" unicode="&#292;" /><glyph d="M85 730H142V0H85Z" glyph-name="I" horiz-adv-x="227" unicode="I" /><glyph d="M224 54H303Q364 54 396 90Q428 126 428 192V730H486V192Q486 101 441 50.5Q396 0 305 0H224ZM66 730H124V0H66Z" glyph-name="IJ" horiz-adv-x="552" unicode="&#306;" /><glyph d="M85 730H142V0H85ZM202 950H277L137 795H83Z" glyph-name="Iacute" horiz-adv-x="227" unicode="&#205;" /><glyph d="M85 730H142V0H85ZM111 791Q70 791 39.5 804Q9 817 -11 838.5Q-31 860 -40.5 888.5Q-50 917 -50 948H-1Q-1 901 27 868Q55 835 111 835Q165 835 193.5 868Q222 901 222 948H273Q273 917 262 888.5Q251 860 230 838.5Q209 817 179 804Q149 791 111 791Z" glyph-name="Ibreve" horiz-adv-x="227" unicode="&#300;" /><glyph d="M85 730H142V0H85ZM88 950H137L256 795H195L112 905L29 795H-31Z" glyph-name="Icircumflex" horiz-adv-x="227" unicode="&#206;" /><glyph d="M185 939H241V800H185ZM-15 939H41V800H-15ZM85 730H142V0H85Z" glyph-name="Idieresis" horiz-adv-x="227" unicode="&#207;" /><glyph d="M85 730H142V0H85ZM64 880Q64 901 78 914.5Q92 928 113 928Q136 928 149 914.5Q162 901 162 880Q162 859 149 845Q136 831 113 831Q90 831 77 845Q64 859 64 880Z" glyph-name="Idotaccent" horiz-adv-x="227" unicode="&#304;" /><glyph d="M85 730H142V0H85ZM-53 950H21L141 795H87Z" glyph-name="Igrave" horiz-adv-x="227" unicode="&#204;" /><glyph d="M85 730H142V0H85ZM-19 845H245V795H-19Z" glyph-name="Imacron" horiz-adv-x="227" unicode="&#298;" /><glyph d="M120 -218Q62 -218 34.5 -188Q7 -158 7 -117Q7 -82 28.5 -50Q50 -18 85 11V730H142V0H143Q103 -32 82 -60.5Q61 -89 61 -115Q61 -139 77 -154Q93 -169 120 -169Q144 -169 160.5 -160Q177 -151 193 -137L226 -177Q205 -194 177.5 -206Q150 -218 120 -218Z" glyph-name="Iogonek" horiz-adv-x="227" unicode="&#302;" /><glyph d="M84 730H141V0H84ZM-54 795Q-54 845 -28 874Q-2 903 39 903Q64 903 84.5 894Q105 885 125 873Q144 862 161.5 852Q179 842 197 842Q220 842 233.5 856Q247 870 247 900H293Q293 849 268.5 820Q244 791 198 791Q169 791 146.5 802.5Q124 814 104 826Q87 836 72 844.5Q57 853 39 853Q19 853 6 838.5Q-7 824 -7 795Z" glyph-name="Itilde" horiz-adv-x="224" unicode="&#296;" /><glyph d="M219 -10Q153 -10 106.5 18Q60 46 37 93L89 126Q106 89 138 66Q170 43 218 43Q278 43 312 82Q346 121 346 188V730H404V189Q404 97 355 43.5Q306 -10 219 -10Z" glyph-name="J" horiz-adv-x="476" unicode="J" /><glyph d="M219 -10Q153 -10 106.5 18Q60 46 37 93L89 126Q106 89 138 66Q170 43 218 43Q278 43 312 82Q346 121 346 188V730H404V189Q404 97 355 43.5Q306 -10 219 -10ZM350 950H399L518 795H457L374 905L291 795H231Z" glyph-name="Jcircumflex" horiz-adv-x="476" unicode="&#308;" /><glyph d="M291 397 133 216V0H76V730H133V293L515 730H586L332 437L622 0H555Z" glyph-name="K" horiz-adv-x="649" unicode="K" /><glyph d="M291 397 133 216V0H76V730H133V293L515 730H586L332 437L622 0H555ZM263 -269 306 -65H361L303 -269Z" glyph-name="Kcommaaccent" horiz-adv-x="649" unicode="&#310;" /><glyph d="M75 730H133V55H480V0H75Z" glyph-name="L" horiz-adv-x="533" unicode="L" /><glyph d="M75 730H133V55H480V0H75ZM191 950H266L126 795H72Z" glyph-name="Lacute" horiz-adv-x="533" unicode="&#313;" /><glyph d="M75 730H133V55H480V0H75ZM330 729H385L322 557H281Z" glyph-name="Lcaron" horiz-adv-x="533" unicode="&#317;" /><glyph d="M75 730H133V55H480V0H75ZM203 -269 246 -65H301L243 -269Z" glyph-name="Lcommaaccent" horiz-adv-x="533" unicode="&#315;" /><glyph d="M75 730H133V55H480V0H75ZM401 369Q401 390 415 403.5Q429 417 450 417Q473 417 486 403.5Q499 390 499 369Q499 348 486 334Q473 320 450 320Q427 320 414 334Q401 348 401 369Z" glyph-name="Ldot" horiz-adv-x="542" unicode="&#319;" /><glyph d="M12 386 103 412V730H161V429L304 471V429L161 387V55H508V0H103V370L12 343Z" glyph-name="Lslash" horiz-adv-x="561" unicode="&#321;" /><glyph d="M75 730H132L428 320L735 730H790V0H733V638L427 225L133 629V0H75Z" glyph-name="M" horiz-adv-x="866" unicode="M" /><glyph d="M75 730H139L609 90V730H667V0H605L133 643V0H75Z" glyph-name="N" horiz-adv-x="742" unicode="N" /><glyph d="M75 730H139L609 90V730H667V0H605L133 643V0H75ZM466 950H541L401 795H347Z" glyph-name="Nacute" horiz-adv-x="742" unicode="&#323;" /><glyph d="M75 730H139L609 90V730H667V0H605L133 643V0H75ZM231 950H290L371 836L455 950H514L396 795H348Z" glyph-name="Ncaron" horiz-adv-x="742" unicode="&#327;" /><glyph d="M75 730H139L609 90V730H667V0H605L133 643V0H75ZM296 -269 339 -65H394L336 -269Z" glyph-name="Ncommaaccent" horiz-adv-x="742" unicode="&#325;" /><glyph d="M75 730H139L609 90V730H667V0H605L133 643V0H75ZM197 795Q197 845 223 874Q249 903 290 903Q315 903 335.5 894Q356 885 376 873Q395 862 412.5 852Q430 842 448 842Q471 842 484.5 856Q498 870 498 900H544Q544 849 519.5 820Q495 791 449 791Q420 791 397.5 802.5Q375 814 355 826Q338 836 323 844.5Q308 853 290 853Q270 853 257 838.5Q244 824 244 795Z" glyph-name="Ntilde" horiz-adv-x="742" unicode="&#209;" /><glyph d="M428 -10Q350 -10 282 19.5Q214 49 163 100Q112 151 82.5 219Q53 287 53 365Q53 443 82.5 511Q112 579 163 630Q214 681 282 710.5Q350 740 428 740Q506 740 574 710.5Q642 681 693 630Q744 579 773.5 511Q803 443 803 365Q803 287 773.5 219Q744 151 693 100Q642 49 574 19.5Q506 -10 428 -10ZM428 45Q495 45 552.5 70.5Q610 96 652.5 139.5Q695 183 719 241Q743 299 743 365Q743 431 719 489.5Q695 548 652.5 591.5Q610 635 552.5 660Q495 685 428 685Q361 685 303.5 660Q246 635 203.5 591.5Q161 548 136.5 489.5Q112 431 112 365Q112 299 136.5 241Q161 183 203.5 139.5Q246 96 303.5 70.5Q361 45 428 45Z" glyph-name="O" horiz-adv-x="855" unicode="O" /><glyph d="M744 174Q697 91 615 40.5Q533 -10 427 -10Q349 -10 281 19.5Q213 49 162.5 100Q112 151 82.5 219Q53 287 53 365Q53 443 82.5 511Q112 579 162.5 630Q213 681 281 710.5Q349 740 427 740Q533 740 615 689.5Q697 639 744 556V730H1190V675H802V393H1190V339H802V55H1190V0H744ZM427 47Q493 47 551 72Q609 97 651.5 140.5Q694 184 719 241.5Q744 299 744 365Q744 431 719 489Q694 547 651.5 590.5Q609 634 551 659Q493 684 427 684Q361 684 303.5 659Q246 634 203.5 590.5Q161 547 136 489Q111 431 111 365Q111 299 136 241.5Q161 184 203.5 140.5Q246 97 303.5 72Q361 47 427 47Z" glyph-name="OE" horiz-adv-x="1255" unicode="&#338;" /><glyph d="M510 950H585L445 795H391ZM428 -10Q350 -10 282 19.5Q214 49 163 100Q112 151 82.5 219Q53 287 53 365Q53 443 82.5 511Q112 579 163 630Q214 681 282 710.5Q350 740 428 740Q506 740 574 710.5Q642 681 693 630Q744 579 773.5 511Q803 443 803 365Q803 287 773.5 219Q744 151 693 100Q642 49 574 19.5Q506 -10 428 -10ZM428 45Q495 45 552.5 70.5Q610 96 652.5 139.5Q695 183 719 241Q743 299 743 365Q743 431 719 489.5Q695 548 652.5 591.5Q610 635 552.5 660Q495 685 428 685Q361 685 303.5 660Q246 635 203.5 591.5Q161 548 136.5 489.5Q112 431 112 365Q112 299 136.5 241Q161 183 203.5 139.5Q246 96 303.5 70.5Q361 45 428 45Z" glyph-name="Oacute" horiz-adv-x="855" unicode="&#211;" /><glyph d="M428 -10Q350 -10 282 19.5Q214 49 163 100Q112 151 82.5 219Q53 287 53 365Q53 443 82.5 511Q112 579 163 630Q214 681 282 710.5Q350 740 428 740Q506 740 574 710.5Q642 681 693 630Q744 579 773.5 511Q803 443 803 365Q803 287 773.5 219Q744 151 693 100Q642 49 574 19.5Q506 -10 428 -10ZM428 45Q495 45 552.5 70.5Q610 96 652.5 139.5Q695 183 719 241Q743 299 743 365Q743 431 719 489.5Q695 548 652.5 591.5Q610 635 552.5 660Q495 685 428 685Q361 685 303.5 660Q246 635 203.5 591.5Q161 548 136.5 489.5Q112 431 112 365Q112 299 136.5 241Q161 183 203.5 139.5Q246 96 303.5 70.5Q361 45 428 45ZM423 792Q382 792 351.5 805Q321 818 301 839.5Q281 861 271.5 889.5Q262 918 262 949H311Q311 902 339 869Q367 836 423 836Q477 836 505.5 869Q534 902 534 949H585Q585 918 574 889.5Q563 861 542 839.5Q521 818 491 805Q461 792 423 792Z" glyph-name="Obreve" horiz-adv-x="855" unicode="&#334;" /><glyph d="M428 -10Q350 -10 282 19.5Q214 49 163 100Q112 151 82.5 219Q53 287 53 365Q53 443 82.5 511Q112 579 163 630Q214 681 282 710.5Q350 740 428 740Q506 740 574 710.5Q642 681 693 630Q744 579 773.5 511Q803 443 803 365Q803 287 773.5 219Q744 151 693 100Q642 49 574 19.5Q506 -10 428 -10ZM428 45Q495 45 552.5 70.5Q610 96 652.5 139.5Q695 183 719 241Q743 299 743 365Q743 431 719 489.5Q695 548 652.5 591.5Q610 635 552.5 660Q495 685 428 685Q361 685 303.5 660Q246 635 203.5 591.5Q161 548 136.5 489.5Q112 431 112 365Q112 299 136.5 241Q161 183 203.5 139.5Q246 96 303.5 70.5Q361 45 428 45ZM399 950H448L567 795H506L423 905L340 795H280Z" glyph-name="Ocircumflex" horiz-adv-x="855" unicode="&#212;" /><glyph d="M298 880Q298 899 310.5 911Q323 923 342 923Q362 923 373.5 911Q385 899 385 880Q385 861 373.5 848.5Q362 836 342 836Q322 836 310 848.5Q298 861 298 880ZM466 880Q466 899 478.5 911Q491 923 510 923Q530 923 541.5 911Q553 899 553 880Q553 861 541.5 848.5Q530 836 510 836Q490 836 478 848.5Q466 861 466 880ZM428 -10Q350 -10 282 19.5Q214 49 163 100Q112 151 82.5 219Q53 287 53 365Q53 443 82.5 511Q112 579 163 630Q214 681 282 710.5Q350 740 428 740Q506 740 574 710.5Q642 681 693 630Q744 579 773.5 511Q803 443 803 365Q803 287 773.5 219Q744 151 693 100Q642 49 574 19.5Q506 -10 428 -10ZM428 45Q495 45 552.5 70.5Q610 96 652.5 139.5Q695 183 719 241Q743 299 743 365Q743 431 719 489.5Q695 548 652.5 591.5Q610 635 552.5 660Q495 685 428 685Q361 685 303.5 660Q246 635 203.5 591.5Q161 548 136.5 489.5Q112 431 112 365Q112 299 136.5 241Q161 183 203.5 139.5Q246 96 303.5 70.5Q361 45 428 45Z" glyph-name="Odieresis" horiz-adv-x="855" unicode="&#214;" /><glyph d="M428 -10Q350 -10 282 19.5Q214 49 163 100Q112 151 82.5 219Q53 287 53 365Q53 443 82.5 511Q112 579 163 630Q214 681 282 710.5Q350 740 428 740Q506 740 574 710.5Q642 681 693 630Q744 579 773.5 511Q803 443 803 365Q803 287 773.5 219Q744 151 693 100Q642 49 574 19.5Q506 -10 428 -10ZM428 45Q495 45 552.5 70.5Q610 96 652.5 139.5Q695 183 719 241Q743 299 743 365Q743 431 719 489.5Q695 548 652.5 591.5Q610 635 552.5 660Q495 685 428 685Q361 685 303.5 660Q246 635 203.5 591.5Q161 548 136.5 489.5Q112 431 112 365Q112 299 136.5 241Q161 183 203.5 139.5Q246 96 303.5 70.5Q361 45 428 45ZM258 950H332L452 795H398Z" glyph-name="Ograve" horiz-adv-x="855" unicode="&#210;" /><glyph d="M447 950H518L378 795H328ZM569 950H640L500 795H449ZM428 -10Q350 -10 282 19.5Q214 49 163 100Q112 151 82.5 219Q53 287 53 365Q53 443 82.5 511Q112 579 163 630Q214 681 282 710.5Q350 740 428 740Q506 740 574 710.5Q642 681 693 630Q744 579 773.5 511Q803 443 803 365Q803 287 773.5 219Q744 151 693 100Q642 49 574 19.5Q506 -10 428 -10ZM428 45Q495 45 552.5 70.5Q610 96 652.5 139.5Q695 183 719 241Q743 299 743 365Q743 431 719 489.5Q695 548 652.5 591.5Q610 635 552.5 660Q495 685 428 685Q361 685 303.5 660Q246 635 203.5 591.5Q161 548 136.5 489.5Q112 431 112 365Q112 299 136.5 241Q161 183 203.5 139.5Q246 96 303.5 70.5Q361 45 428 45Z" glyph-name="Ohungarumlaut" horiz-adv-x="855" unicode="&#336;" /><glyph d="M292 845H556V795H292ZM428 -10Q350 -10 282 19.5Q214 49 163 100Q112 151 82.5 219Q53 287 53 365Q53 443 82.5 511Q112 579 163 630Q214 681 282 710.5Q350 740 428 740Q506 740 574 710.5Q642 681 693 630Q744 579 773.5 511Q803 443 803 365Q803 287 773.5 219Q744 151 693 100Q642 49 574 19.5Q506 -10 428 -10ZM428 45Q495 45 552.5 70.5Q610 96 652.5 139.5Q695 183 719 241Q743 299 743 365Q743 431 719 489.5Q695 548 652.5 591.5Q610 635 552.5 660Q495 685 428 685Q361 685 303.5 660Q246 635 203.5 591.5Q161 548 136.5 489.5Q112 431 112 365Q112 299 136.5 241Q161 183 203.5 139.5Q246 96 303.5 70.5Q361 45 428 45Z" glyph-name="Omacron" horiz-adv-x="855" unicode="&#332;" /><glyph d="M182 82Q122 134 87.5 207Q53 280 53 365Q53 443 82.5 511Q112 579 163 630Q214 681 282 710.5Q350 740 428 740Q485 740 536 724.5Q587 709 631 680L669 730H737L674 647Q734 595 768.5 522.5Q803 450 803 365Q803 287 773.5 219Q744 151 693 100Q642 49 574 19.5Q506 -10 428 -10Q371 -10 320 5Q269 20 225 49L188 0H120ZM112 365Q112 294 139.5 232.5Q167 171 215 127L598 635Q561 659 518.5 672Q476 685 428 685Q361 685 303.5 660Q246 635 203.5 591.5Q161 548 136.5 489.5Q112 431 112 365ZM428 45Q495 45 552.5 70.5Q610 96 652.5 139.5Q695 183 719 241Q743 299 743 365Q743 436 715.5 496.5Q688 557 640 602L258 94Q295 71 337.5 58Q380 45 428 45Z" glyph-name="Oslash" horiz-adv-x="855" unicode="&#216;" /><glyph d="M182 82Q122 134 87.5 207Q53 280 53 365Q53 443 82.5 511Q112 579 163 630Q214 681 282 710.5Q350 740 428 740Q485 740 536 724.5Q587 709 631 680L669 730H737L674 647Q734 595 768.5 522.5Q803 450 803 365Q803 287 773.5 219Q744 151 693 100Q642 49 574 19.5Q506 -10 428 -10Q371 -10 320 5Q269 20 225 49L188 0H120ZM112 365Q112 294 139.5 232.5Q167 171 215 127L598 635Q561 659 518.5 672Q476 685 428 685Q361 685 303.5 660Q246 635 203.5 591.5Q161 548 136.5 489.5Q112 431 112 365ZM428 45Q495 45 552.5 70.5Q610 96 652.5 139.5Q695 183 719 241Q743 299 743 365Q743 436 715.5 496.5Q688 557 640 602L258 94Q295 71 337.5 58Q380 45 428 45ZM511 950H586L446 795H392Z" glyph-name="Oslashacute" horiz-adv-x="855" unicode="&#510;" /><glyph d="M428 -10Q350 -10 282 19.5Q214 49 163 100Q112 151 82.5 219Q53 287 53 365Q53 443 82.5 511Q112 579 163 630Q214 681 282 710.5Q350 740 428 740Q506 740 574 710.5Q642 681 693 630Q744 579 773.5 511Q803 443 803 365Q803 287 773.5 219Q744 151 693 100Q642 49 574 19.5Q506 -10 428 -10ZM428 45Q495 45 552.5 70.5Q610 96 652.5 139.5Q695 183 719 241Q743 299 743 365Q743 431 719 489.5Q695 548 652.5 591.5Q610 635 552.5 660Q495 685 428 685Q361 685 303.5 660Q246 635 203.5 591.5Q161 548 136.5 489.5Q112 431 112 365Q112 299 136.5 241Q161 183 203.5 139.5Q246 96 303.5 70.5Q361 45 428 45ZM248 795Q248 845 274 874Q300 903 341 903Q366 903 386.5 894Q407 885 427 873Q446 862 463.5 852Q481 842 499 842Q522 842 535.5 856Q549 870 549 900H595Q595 849 570.5 820Q546 791 500 791Q471 791 448.5 802.5Q426 814 406 826Q389 836 374 844.5Q359 853 341 853Q321 853 308 838.5Q295 824 295 795Z" glyph-name="Otilde" horiz-adv-x="855" unicode="&#213;" /><glyph d="M69 730H126V662Q115 652 104 638Q93 624 84 610H69ZM763 610Q755 624 744 638Q733 652 722 662V730H779V610ZM428 -10Q350 -10 282 19.5Q214 49 163 100Q112 151 82.5 219Q53 287 53 365Q53 443 82.5 511Q112 579 163 630Q214 681 282 710.5Q350 740 428 740Q506 740 574 710.5Q642 681 693 630Q744 579 773.5 511Q803 443 803 365Q803 287 773.5 219Q744 151 693 100Q642 49 574 19.5Q506 -10 428 -10ZM428 45Q495 45 552.5 70.5Q610 96 652.5 139.5Q695 183 719 241Q743 299 743 365Q743 431 719 489.5Q695 548 652.5 591.5Q610 635 552.5 660Q495 685 428 685Q361 685 303.5 660Q246 635 203.5 591.5Q161 548 136.5 489.5Q112 431 112 365Q112 299 136.5 241Q161 183 203.5 139.5Q246 96 303.5 70.5Q361 45 428 45Z" glyph-name="Oumlaut" horiz-adv-x="855" unicode="&#61815;" /><glyph d="M75 730H296Q356 730 405.5 711Q455 692 490 659Q525 626 544 580.5Q563 535 563 482Q563 429 544 383.5Q525 338 490 304.5Q455 271 405.5 252Q356 233 296 233H133V0H75ZM133 677V287H293Q342 287 381 302Q420 317 447.5 343.5Q475 370 489.5 405.5Q504 441 504 482Q504 524 489.5 559.5Q475 595 447.5 621.5Q420 648 381 662.5Q342 677 293 677Z" glyph-name="P" horiz-adv-x="617" unicode="P" /><glyph d="M451 301H523L655 146Q696 189 720 244.5Q744 300 744 365Q744 431 719.5 489.5Q695 548 652.5 591.5Q610 635 552.5 660Q495 685 428 685Q361 685 303.5 660Q246 635 203.5 591.5Q161 548 136.5 489.5Q112 431 112 365Q112 299 136.5 241Q161 183 203.5 139.5Q246 96 303.5 70.5Q361 45 428 45Q470 45 506 55Q542 65 575 83L611 40Q570 16 524.5 3Q479 -10 428 -10Q350 -10 282 19.5Q214 49 163 100Q112 151 82.5 219Q53 287 53 365Q53 443 82.5 511Q112 579 163 630Q214 681 282 710.5Q350 740 428 740Q506 740 574 710.5Q642 681 693 630Q744 579 773.5 511Q803 443 803 365Q803 287 773 220.5Q743 154 692 102L780 0H706Z" glyph-name="Q" horiz-adv-x="856" unicode="Q" /><glyph d="M330 272H133V0H75V730H303Q354 730 398 712Q442 694 474.5 663Q507 632 525 590.5Q543 549 543 502Q543 466 531.5 432Q520 398 499 370Q478 342 448.5 320.5Q419 299 383 288L547 0H482ZM133 677V325H298Q340 325 374 339.5Q408 354 433 379Q458 404 471.5 436Q485 468 485 502Q485 539 471.5 571Q458 603 433.5 626.5Q409 650 374.5 663.5Q340 677 299 677Z" glyph-name="R" horiz-adv-x="596" unicode="R" /><glyph d="M330 272H133V0H75V730H303Q354 730 398 712Q442 694 474.5 663Q507 632 525 590.5Q543 549 543 502Q543 466 531.5 432Q520 398 499 370Q478 342 448.5 320.5Q419 299 383 288L547 0H482ZM133 677V325H298Q340 325 374 339.5Q408 354 433 379Q458 404 471.5 436Q485 468 485 502Q485 539 471.5 571Q458 603 433.5 626.5Q409 650 374.5 663.5Q340 677 299 677Z" glyph-name="R.alt" horiz-adv-x="596" unicode="&#57665;" /><glyph d="M330 272H133V0H75V730H303Q354 730 398 712Q442 694 474.5 663Q507 632 525 590.5Q543 549 543 502Q543 466 531.5 432Q520 398 499 370Q478 342 448.5 320.5Q419 299 383 288L547 0H482ZM133 677V325H298Q340 325 374 339.5Q408 354 433 379Q458 404 471.5 436Q485 468 485 502Q485 539 471.5 571Q458 603 433.5 626.5Q409 650 374.5 663.5Q340 677 299 677ZM357 950H432L292 795H238Z" glyph-name="Racute" horiz-adv-x="596" unicode="&#340;" /><glyph d="M330 272H133V0H75V730H303Q354 730 398 712Q442 694 474.5 663Q507 632 525 590.5Q543 549 543 502Q543 466 531.5 432Q520 398 499 370Q478 342 448.5 320.5Q419 299 383 288L547 0H482ZM133 677V325H298Q340 325 374 339.5Q408 354 433 379Q458 404 471.5 436Q485 468 485 502Q485 539 471.5 571Q458 603 433.5 626.5Q409 650 374.5 663.5Q340 677 299 677ZM357 950H432L292 795H238Z" glyph-name="Racute.alt" horiz-adv-x="596" unicode="&#57666;" /><glyph d="M330 272H133V0H75V730H303Q354 730 398 712Q442 694 474.5 663Q507 632 525 590.5Q543 549 543 502Q543 466 531.5 432Q520 398 499 370Q478 342 448.5 320.5Q419 299 383 288L547 0H482ZM133 677V325H298Q340 325 374 339.5Q408 354 433 379Q458 404 471.5 436Q485 468 485 502Q485 539 471.5 571Q458 603 433.5 626.5Q409 650 374.5 663.5Q340 677 299 677ZM167 950H226L307 836L391 950H450L332 795H284Z" glyph-name="Rcaron" horiz-adv-x="596" unicode="&#344;" /><glyph d="M330 272H133V0H75V730H303Q354 730 398 712Q442 694 474.5 663Q507 632 525 590.5Q543 549 543 502Q543 466 531.5 432Q520 398 499 370Q478 342 448.5 320.5Q419 299 383 288L547 0H482ZM133 677V325H298Q340 325 374 339.5Q408 354 433 379Q458 404 471.5 436Q485 468 485 502Q485 539 471.5 571Q458 603 433.5 626.5Q409 650 374.5 663.5Q340 677 299 677ZM167 950H226L307 836L391 950H450L332 795H284Z" glyph-name="Rcaron.alt" horiz-adv-x="596" unicode="&#57667;" /><glyph d="M330 272H133V0H75V730H303Q354 730 398 712Q442 694 474.5 663Q507 632 525 590.5Q543 549 543 502Q543 466 531.5 432Q520 398 499 370Q478 342 448.5 320.5Q419 299 383 288L547 0H482ZM133 677V325H298Q340 325 374 339.5Q408 354 433 379Q458 404 471.5 436Q485 468 485 502Q485 539 471.5 571Q458 603 433.5 626.5Q409 650 374.5 663.5Q340 677 299 677ZM246 -281 289 -77H344L286 -281Z" glyph-name="Rcommaaccent" horiz-adv-x="596" unicode="&#342;" /><glyph d="M330 272H133V0H75V730H303Q354 730 398 712Q442 694 474.5 663Q507 632 525 590.5Q543 549 543 502Q543 466 531.5 432Q520 398 499 370Q478 342 448.5 320.5Q419 299 383 288L547 0H482ZM133 677V325H298Q340 325 374 339.5Q408 354 433 379Q458 404 471.5 436Q485 468 485 502Q485 539 471.5 571Q458 603 433.5 626.5Q409 650 374.5 663.5Q340 677 299 677ZM246 -281 289 -77H344L286 -281Z" glyph-name="Rcommaaccent.alt" horiz-adv-x="596" unicode="&#57670;" /><glyph d="M273 -10Q192 -10 131.5 22.5Q71 55 30 110L78 147Q113 96 162 69.5Q211 43 273 43Q310 43 342 54Q374 65 397.5 85Q421 105 434.5 133.5Q448 162 448 197Q448 234 432.5 259.5Q417 285 391 303Q365 321 331.5 333.5Q298 346 262 358Q224 370 187.5 385Q151 400 122 422Q93 444 75 476Q57 508 57 555Q57 595 74 629Q91 663 120 687.5Q149 712 188.5 726Q228 740 274 740Q348 740 400.5 713Q453 686 489 640L444 605Q415 646 373.5 667.5Q332 689 274 689Q241 689 212 679Q183 669 161.5 651.5Q140 634 128 609.5Q116 585 116 555Q116 520 131 496Q146 472 171.5 455.5Q197 439 230 427Q263 415 298 403Q336 390 373.5 375Q411 360 440.5 336.5Q470 313 488 279.5Q506 246 506 197Q506 154 489 116.5Q472 79 441 51Q410 23 367 6.5Q324 -10 273 -10Z" glyph-name="S" horiz-adv-x="557" unicode="S" /><glyph d="M366 949H441L301 794H247ZM273 -10Q192 -10 131.5 22.5Q71 55 30 110L78 147Q113 96 162 69.5Q211 43 273 43Q310 43 342 54Q374 65 397.5 85Q421 105 434.5 133.5Q448 162 448 197Q448 234 432.5 259.5Q417 285 391 303Q365 321 331.5 333.5Q298 346 262 358Q224 370 187.5 385Q151 400 122 422Q93 444 75 476Q57 508 57 555Q57 595 74 629Q91 663 120 687.5Q149 712 188.5 726Q228 740 274 740Q348 740 400.5 713Q453 686 489 640L444 605Q415 646 373.5 667.5Q332 689 274 689Q241 689 212 679Q183 669 161.5 651.5Q140 634 128 609.5Q116 585 116 555Q116 520 131 496Q146 472 171.5 455.5Q197 439 230 427Q263 415 298 403Q336 390 373.5 375Q411 360 440.5 336.5Q470 313 488 279.5Q506 246 506 197Q506 154 489 116.5Q472 79 441 51Q410 23 367 6.5Q324 -10 273 -10Z" glyph-name="Sacute" horiz-adv-x="557" unicode="&#346;" /><glyph d="M273 -10Q192 -10 131.5 22.5Q71 55 30 110L78 147Q113 96 162 69.5Q211 43 273 43Q310 43 342 54Q374 65 397.5 85Q421 105 434.5 133.5Q448 162 448 197Q448 234 432.5 259.5Q417 285 391 303Q365 321 331.5 333.5Q298 346 262 358Q224 370 187.5 385Q151 400 122 422Q93 444 75 476Q57 508 57 555Q57 595 74 629Q91 663 120 687.5Q149 712 188.5 726Q228 740 274 740Q348 740 400.5 713Q453 686 489 640L444 605Q415 646 373.5 667.5Q332 689 274 689Q241 689 212 679Q183 669 161.5 651.5Q140 634 128 609.5Q116 585 116 555Q116 520 131 496Q146 472 171.5 455.5Q197 439 230 427Q263 415 298 403Q336 390 373.5 375Q411 360 440.5 336.5Q470 313 488 279.5Q506 246 506 197Q506 154 489 116.5Q472 79 441 51Q410 23 367 6.5Q324 -10 273 -10ZM138 950H197L278 836L362 950H421L303 795H255Z" glyph-name="Scaron" horiz-adv-x="557" unicode="&#352;" /><glyph d="M281 -227Q234 -227 200.5 -212Q167 -197 142 -174L188 -146Q208 -163 228 -173.5Q248 -184 281 -184Q316 -184 338.5 -170Q361 -156 361 -134Q361 -114 339.5 -102Q318 -90 278 -90H245V-8Q174 -3 120.5 28Q67 59 30 110L78 147Q113 96 162 69.5Q211 43 273 43Q310 43 342 54Q374 65 397.5 85Q421 105 434.5 133.5Q448 162 448 197Q448 234 432.5 259.5Q417 285 391 303Q365 321 331.5 333.5Q298 346 262 358Q224 370 187.5 385Q151 400 122 422Q93 444 75 476Q57 508 57 555Q57 595 74 629Q91 663 120 687.5Q149 712 188.5 726Q228 740 274 740Q348 740 400.5 713Q453 686 489 640L444 605Q415 646 373.5 667.5Q332 689 274 689Q241 689 212 679Q183 669 161.5 651.5Q140 634 128 609.5Q116 585 116 555Q116 520 131 496Q146 472 171.5 455.5Q197 439 230 427Q263 415 298 403Q336 390 373.5 375Q411 360 440.5 336.5Q470 313 488 279.5Q506 246 506 197Q506 157 490.5 121Q475 85 447 57Q419 29 380 11.5Q341 -6 294 -9V-53Q348 -54 381.5 -75.5Q415 -97 415 -132Q415 -153 404.5 -170.5Q394 -188 376 -200.5Q358 -213 333.5 -220Q309 -227 281 -227Z" glyph-name="Scedilla" horiz-adv-x="557" unicode="&#350;" /><glyph d="M273 -10Q192 -10 131.5 22.5Q71 55 30 110L78 147Q113 96 162 69.5Q211 43 273 43Q310 43 342 54Q374 65 397.5 85Q421 105 434.5 133.5Q448 162 448 197Q448 234 432.5 259.5Q417 285 391 303Q365 321 331.5 333.5Q298 346 262 358Q224 370 187.5 385Q151 400 122 422Q93 444 75 476Q57 508 57 555Q57 595 74 629Q91 663 120 687.5Q149 712 188.5 726Q228 740 274 740Q348 740 400.5 713Q453 686 489 640L444 605Q415 646 373.5 667.5Q332 689 274 689Q241 689 212 679Q183 669 161.5 651.5Q140 634 128 609.5Q116 585 116 555Q116 520 131 496Q146 472 171.5 455.5Q197 439 230 427Q263 415 298 403Q336 390 373.5 375Q411 360 440.5 336.5Q470 313 488 279.5Q506 246 506 197Q506 154 489 116.5Q472 79 441 51Q410 23 367 6.5Q324 -10 273 -10ZM253 950H302L421 795H360L277 905L194 795H134Z" glyph-name="Scircumflex" horiz-adv-x="557" unicode="&#348;" /><glyph d="M213 -256 256 -52H311L253 -256ZM273 -10Q192 -10 131.5 22.5Q71 55 30 110L78 147Q113 96 162 69.5Q211 43 273 43Q310 43 342 54Q374 65 397.5 85Q421 105 434.5 133.5Q448 162 448 197Q448 234 432.5 259.5Q417 285 391 303Q365 321 331.5 333.5Q298 346 262 358Q224 370 187.5 385Q151 400 122 422Q93 444 75 476Q57 508 57 555Q57 595 74 629Q91 663 120 687.5Q149 712 188.5 726Q228 740 274 740Q348 740 400.5 713Q453 686 489 640L444 605Q415 646 373.5 667.5Q332 689 274 689Q241 689 212 679Q183 669 161.5 651.5Q140 634 128 609.5Q116 585 116 555Q116 520 131 496Q146 472 171.5 455.5Q197 439 230 427Q263 415 298 403Q336 390 373.5 375Q411 360 440.5 336.5Q470 313 488 279.5Q506 246 506 197Q506 154 489 116.5Q472 79 441 51Q410 23 367 6.5Q324 -10 273 -10Z" glyph-name="Scommaaccent" horiz-adv-x="557" unicode="&#536;" /><glyph d="M276 677H48V730H562V677H334V0H276Z" glyph-name="T" horiz-adv-x="610" unicode="T" /><glyph d="M166 425H276V677H48V730H562V677H334V425H450V372H334V0H276V372H166Z" glyph-name="Tbar" horiz-adv-x="610" unicode="&#358;" /><glyph d="M276 677H48V730H562V677H334V0H276ZM160 950H219L300 836L384 950H443L325 795H277Z" glyph-name="Tcaron" horiz-adv-x="610" unicode="&#356;" /><glyph d="M238 -269 281 -65H336L278 -269ZM276 677H48V730H562V677H334V0H276Z" glyph-name="Tcommaaccent" horiz-adv-x="610" unicode="&#354;" /><glyph d="M73 730H131V577H288Q339 577 381 562Q423 547 452.5 520Q482 493 498 455.5Q514 418 514 373Q514 328 498 290.5Q482 253 452.5 226Q423 199 381.5 183.5Q340 168 288 168H131V0H73ZM131 523V221H284Q364 221 409.5 263.5Q455 306 455 373Q455 439 409.5 481Q364 523 284 523Z" glyph-name="Thorn" horiz-adv-x="571" unicode="&#222;" /><glyph d="M320 -10Q267 -10 221.5 9Q176 28 143 61.5Q110 95 91 140.5Q72 186 72 238V730H130V235Q130 196 144.5 161Q159 126 184.5 100.5Q210 75 245 60Q280 45 320 45Q360 45 395 60Q430 75 455.5 101Q481 127 496 161.5Q511 196 511 236V730H569V238Q569 186 550 140.5Q531 95 497.5 61.5Q464 28 418.5 9Q373 -10 320 -10Z" glyph-name="U" horiz-adv-x="641" unicode="U" /><glyph d="M399 950H474L334 795H280ZM320 -10Q267 -10 221.5 9Q176 28 143 61.5Q110 95 91 140.5Q72 186 72 238V730H130V235Q130 196 144.5 161Q159 126 184.5 100.5Q210 75 245 60Q280 45 320 45Q360 45 395 60Q430 75 455.5 101Q481 127 496 161.5Q511 196 511 236V730H569V238Q569 186 550 140.5Q531 95 497.5 61.5Q464 28 418.5 9Q373 -10 320 -10Z" glyph-name="Uacute" horiz-adv-x="641" unicode="&#218;" /><glyph d="M320 -10Q267 -10 221.5 9Q176 28 143 61.5Q110 95 91 140.5Q72 186 72 238V730H130V235Q130 196 144.5 161Q159 126 184.5 100.5Q210 75 245 60Q280 45 320 45Q360 45 395 60Q430 75 455.5 101Q481 127 496 161.5Q511 196 511 236V730H569V238Q569 186 550 140.5Q531 95 497.5 61.5Q464 28 418.5 9Q373 -10 320 -10ZM317 791Q276 791 245.5 804Q215 817 195 838.5Q175 860 165.5 888.5Q156 917 156 948H205Q205 901 233 868Q261 835 317 835Q371 835 399.5 868Q428 901 428 948H479Q479 917 468 888.5Q457 860 436 838.5Q415 817 385 804Q355 791 317 791Z" glyph-name="Ubreve" horiz-adv-x="641" unicode="&#364;" /><glyph d="M320 -10Q267 -10 221.5 9Q176 28 143 61.5Q110 95 91 140.5Q72 186 72 238V730H130V235Q130 196 144.5 161Q159 126 184.5 100.5Q210 75 245 60Q280 45 320 45Q360 45 395 60Q430 75 455.5 101Q481 127 496 161.5Q511 196 511 236V730H569V238Q569 186 550 140.5Q531 95 497.5 61.5Q464 28 418.5 9Q373 -10 320 -10ZM293 950H342L461 795H400L317 905L234 795H174Z" glyph-name="Ucircumflex" horiz-adv-x="641" unicode="&#219;" /><glyph d="M192 880Q192 899 204.5 911Q217 923 236 923Q256 923 267.5 911Q279 899 279 880Q279 861 267.5 848.5Q256 836 236 836Q216 836 204 848.5Q192 861 192 880ZM360 880Q360 899 372.5 911Q385 923 404 923Q424 923 435.5 911Q447 899 447 880Q447 861 435.5 848.5Q424 836 404 836Q384 836 372 848.5Q360 861 360 880ZM320 -10Q267 -10 221.5 9Q176 28 143 61.5Q110 95 91 140.5Q72 186 72 238V730H130V235Q130 196 144.5 161Q159 126 184.5 100.5Q210 75 245 60Q280 45 320 45Q360 45 395 60Q430 75 455.5 101Q481 127 496 161.5Q511 196 511 236V730H569V238Q569 186 550 140.5Q531 95 497.5 61.5Q464 28 418.5 9Q373 -10 320 -10Z" glyph-name="Udieresis" horiz-adv-x="641" unicode="&#220;" /><glyph d="M320 -10Q267 -10 221.5 9Q176 28 143 61.5Q110 95 91 140.5Q72 186 72 238V730H130V235Q130 196 144.5 161Q159 126 184.5 100.5Q210 75 245 60Q280 45 320 45Q360 45 395 60Q430 75 455.5 101Q481 127 496 161.5Q511 196 511 236V730H569V238Q569 186 550 140.5Q531 95 497.5 61.5Q464 28 418.5 9Q373 -10 320 -10ZM157 950H231L351 795H297Z" glyph-name="Ugrave" horiz-adv-x="641" unicode="&#217;" /><glyph d="M320 -10Q267 -10 221.5 9Q176 28 143 61.5Q110 95 91 140.5Q72 186 72 238V730H130V235Q130 196 144.5 161Q159 126 184.5 100.5Q210 75 245 60Q280 45 320 45Q360 45 395 60Q430 75 455.5 101Q481 127 496 161.5Q511 196 511 236V730H569V238Q569 186 550 140.5Q531 95 497.5 61.5Q464 28 418.5 9Q373 -10 320 -10ZM336 950H407L267 795H217ZM458 950H529L389 795H338Z" glyph-name="Uhungarumlaut" horiz-adv-x="641" unicode="&#368;" /><glyph d="M320 -10Q267 -10 221.5 9Q176 28 143 61.5Q110 95 91 140.5Q72 186 72 238V730H130V235Q130 196 144.5 161Q159 126 184.5 100.5Q210 75 245 60Q280 45 320 45Q360 45 395 60Q430 75 455.5 101Q481 127 496 161.5Q511 196 511 236V730H569V238Q569 186 550 140.5Q531 95 497.5 61.5Q464 28 418.5 9Q373 -10 320 -10ZM187 845H451V795H187Z" glyph-name="Umacron" horiz-adv-x="641" unicode="&#362;" /><glyph d="M322 -210Q264 -210 228.5 -183Q193 -156 193 -115Q193 -86 210.5 -59.5Q228 -33 272 -5Q228 3 191.5 24.5Q155 46 128.5 78Q102 110 87 151Q72 192 72 238V730H130V235Q130 196 144.5 161Q159 126 184.5 100.5Q210 75 245 60Q280 45 320 45Q360 45 395 60Q430 75 455.5 101Q481 127 496 161.5Q511 196 511 236V730H569V238Q569 192 554 150.5Q539 109 512 77Q485 45 447.5 23.5Q410 2 365 -6Q332 -24 310 -38.5Q288 -53 275 -65.5Q262 -78 256.5 -89Q251 -100 251 -112Q251 -136 271 -149.5Q291 -163 322 -163Q350 -163 370 -151.5Q390 -140 408 -124L453 -155Q429 -177 394.5 -193.5Q360 -210 322 -210Z" glyph-name="Uogonek" horiz-adv-x="641" unicode="&#370;" /><glyph d="M315 791Q274 791 245.5 819.5Q217 848 217 890Q217 932 245.5 961Q274 990 315 990Q358 990 387 961Q416 932 416 890Q416 848 387 819.5Q358 791 315 791ZM315 836Q338 836 354.5 851.5Q371 867 371 890Q371 913 354.5 929Q338 945 315 945Q293 945 277 929Q261 913 261 890Q261 867 277 851.5Q293 836 315 836ZM320 -10Q267 -10 221.5 9Q176 28 143 61.5Q110 95 91 140.5Q72 186 72 238V730H130V235Q130 196 144.5 161Q159 126 184.5 100.5Q210 75 245 60Q280 45 320 45Q360 45 395 60Q430 75 455.5 101Q481 127 496 161.5Q511 196 511 236V730H569V238Q569 186 550 140.5Q531 95 497.5 61.5Q464 28 418.5 9Q373 -10 320 -10Z" glyph-name="Uring" horiz-adv-x="641" unicode="&#366;" /><glyph d="M320 -10Q267 -10 221.5 9Q176 28 143 61.5Q110 95 91 140.5Q72 186 72 238V730H130V235Q130 196 144.5 161Q159 126 184.5 100.5Q210 75 245 60Q280 45 320 45Q360 45 395 60Q430 75 455.5 101Q481 127 496 161.5Q511 196 511 236V730H569V238Q569 186 550 140.5Q531 95 497.5 61.5Q464 28 418.5 9Q373 -10 320 -10ZM149 795Q149 845 175 874Q201 903 242 903Q267 903 287.5 894Q308 885 328 873Q347 862 364.5 852Q382 842 400 842Q423 842 436.5 856Q450 870 450 900H496Q496 849 471.5 820Q447 791 401 791Q372 791 349.5 802.5Q327 814 307 826Q290 836 275 844.5Q260 853 242 853Q222 853 209 838.5Q196 824 196 795Z" glyph-name="Utilde" horiz-adv-x="641" unicode="&#360;" /><glyph d="M379 730H432V591H379ZM219 730H272V591H219ZM325 -9Q271 -9 224.5 9Q178 27 144.5 60Q111 93 92 139.5Q73 186 73 242V730H130V241Q130 198 144.5 161.5Q159 125 185 99.5Q211 74 247 59.5Q283 45 326 45Q368 45 404 59.5Q440 74 466 99.5Q492 125 506.5 161.5Q521 198 521 241V730H578V243Q578 186 559 139.5Q540 93 506 60Q472 27 425.5 9Q379 -9 325 -9Z" glyph-name="Uumlaut" horiz-adv-x="651" unicode="&#61816;" /><glyph d="M37 730H97L340 81L583 730H644L369 0H311Z" glyph-name="V" horiz-adv-x="681" unicode="V" /><glyph d="M42 730H103L289 89L507 730H562L778 89L971 730H1031L808 0H749L533 640L316 0H257Z" glyph-name="W" horiz-adv-x="1072" unicode="W" /><glyph d="M42 730H103L289 89L507 730H562L778 89L971 730H1031L808 0H749L533 640L316 0H257ZM621 950H696L556 795H502Z" glyph-name="Wacute" horiz-adv-x="1072" unicode="&#7810;" /><glyph d="M42 730H103L289 89L507 730H562L778 89L971 730H1031L808 0H749L533 640L316 0H257ZM508 950H557L676 795H615L532 905L449 795H389Z" glyph-name="Wcircumflex" horiz-adv-x="1072" unicode="&#372;" /><glyph d="M42 730H103L289 89L507 730H562L778 89L971 730H1031L808 0H749L533 640L316 0H257ZM575 880Q575 899 587.5 911Q600 923 619 923Q639 923 650.5 911Q662 899 662 880Q662 861 650.5 848.5Q639 836 619 836Q599 836 587 848.5Q575 861 575 880ZM407 880Q407 899 419.5 911Q432 923 451 923Q471 923 482.5 911Q494 899 494 880Q494 861 482.5 848.5Q471 836 451 836Q431 836 419 848.5Q407 861 407 880Z" glyph-name="Wdieresis" horiz-adv-x="1072" unicode="&#7812;" /><glyph d="M42 730H103L289 89L507 730H562L778 89L971 730H1031L808 0H749L533 640L316 0H257ZM365 950H439L559 795H505Z" glyph-name="Wgrave" horiz-adv-x="1072" unicode="&#7808;" /><glyph d="M326 331 101 0H36L293 377L55 730H121L327 425L533 730H598L361 380L616 0H551Z" glyph-name="X" horiz-adv-x="652" unicode="X" /><glyph d="M278 347 33 730H98L306 402L514 730H579L336 349V0H278Z" glyph-name="Y" horiz-adv-x="612" unicode="Y" /><glyph d="M278 347 33 730H98L306 402L514 730H579L336 349V0H278ZM391 950H466L326 795H272Z" glyph-name="Yacute" horiz-adv-x="612" unicode="&#221;" /><glyph d="M278 347 33 730H98L306 402L514 730H579L336 349V0H278ZM280 950H329L448 795H387L304 905L221 795H161Z" glyph-name="Ycircumflex" horiz-adv-x="612" unicode="&#374;" /><glyph d="M278 347 33 730H98L306 402L514 730H579L336 349V0H278ZM346 880Q346 899 358.5 911Q371 923 390 923Q410 923 421.5 911Q433 899 433 880Q433 861 421.5 848.5Q410 836 390 836Q370 836 358 848.5Q346 861 346 880ZM178 880Q178 899 190.5 911Q203 923 222 923Q242 923 253.5 911Q265 899 265 880Q265 861 253.5 848.5Q242 836 222 836Q202 836 190 848.5Q178 861 178 880Z" glyph-name="Ydieresis" horiz-adv-x="612" unicode="&#376;" /><glyph d="M278 347 33 730H98L306 402L514 730H579L336 349V0H278ZM139 950H213L333 795H279Z" glyph-name="Ygrave" horiz-adv-x="612" unicode="&#7922;" /><glyph d="M58 53 473 675H74V730H541V677L126 55H543V0H58Z" glyph-name="Z" horiz-adv-x="600" unicode="Z" /><glyph d="M58 53 473 675H74V730H541V677L126 55H543V0H58ZM386 950H461L321 795H267Z" glyph-name="Zacute" horiz-adv-x="600" unicode="&#377;" /><glyph d="M58 53 473 675H74V730H541V677L126 55H543V0H58ZM162 950H221L302 836L386 950H445L327 795H279Z" glyph-name="Zcaron" horiz-adv-x="600" unicode="&#381;" /><glyph d="M58 53 473 675H74V730H541V677L126 55H543V0H58ZM256 880Q256 901 270 914.5Q284 928 305 928Q328 928 341 914.5Q354 901 354 880Q354 859 341 845Q328 831 305 831Q282 831 269 845Q256 859 256 880Z" glyph-name="Zdotaccent" horiz-adv-x="600" unicode="&#379;" /><glyph d="M361 -12Q297 -12 241.5 12Q186 36 145.5 77.5Q105 119 82 174Q59 229 59 292Q59 355 82 410.5Q105 466 145.5 507.5Q186 549 241.5 573Q297 597 361 597Q397 597 433.5 587.5Q470 578 502.5 559Q535 540 562 512.5Q589 485 606 450V585H662V0H606V134Q589 99 562 71.5Q535 44 502.5 25.5Q470 7 433.5 -2.5Q397 -12 361 -12ZM363 41Q416 41 461 60.5Q506 80 540 114Q574 148 593 194Q612 240 612 292Q612 344 593 390Q574 436 540 470Q506 504 461 524Q416 544 363 544Q312 544 267 524.5Q222 505 188.5 470.5Q155 436 136 390.5Q117 345 117 292Q117 240 136 194Q155 148 188.5 114Q222 80 267 60.5Q312 41 363 41Z" glyph-name="a" horiz-adv-x="747" unicode="a" /><glyph d="M217 -10Q130 -10 90 28Q50 66 50 121Q49 192 102 227.5Q155 263 255 282Q286 288 315 294.5Q344 301 366.5 310.5Q389 320 403 334Q417 348 417 370Q417 411 385 437Q353 463 275 463Q199 463 161.5 431.5Q124 400 124 345V342H67V344Q67 422 122 466Q177 510 274 510Q327 510 365.5 498Q404 486 428.5 465Q453 444 464.5 415Q476 386 476 352V0H421V85Q387 45 337.5 17.5Q288 -10 217 -10ZM217 38Q286 38 337 72Q388 106 422 160V290Q414 280 397.5 271.5Q381 263 358.5 256Q336 249 310 243.5Q284 238 256 232Q187 219 147 197Q107 175 107 125Q107 87 133.5 62.5Q160 38 217 38Z" glyph-name="a.alt" horiz-adv-x="545" unicode="&#58560;" /><glyph d="M258 596H318L544 0H486L428 153H149L91 0H32ZM170 208H407L288 521Z" glyph-name="a.smcp" horiz-adv-x="576" unicode="&#57857;" /><glyph d="M361 -12Q297 -12 241.5 12Q186 36 145.5 77.5Q105 119 82 174Q59 229 59 292Q59 355 82 410.5Q105 466 145.5 507.5Q186 549 241.5 573Q297 597 361 597Q397 597 433.5 587.5Q470 578 502.5 559Q535 540 562 512.5Q589 485 606 450V585H662V0H606V134Q589 99 562 71.5Q535 44 502.5 25.5Q470 7 433.5 -2.5Q397 -12 361 -12ZM363 41Q416 41 461 60.5Q506 80 540 114Q574 148 593 194Q612 240 612 292Q612 344 593 390Q574 436 540 470Q506 504 461 524Q416 544 363 544Q312 544 267 524.5Q222 505 188.5 470.5Q155 436 136 390.5Q117 345 117 292Q117 240 136 194Q155 148 188.5 114Q222 80 267 60.5Q312 41 363 41ZM443 815H518L378 660H324Z" glyph-name="aacute" horiz-adv-x="747" unicode="&#225;" /><glyph d="M217 -10Q130 -10 90 28Q50 66 50 121Q49 192 102 227.5Q155 263 255 282Q286 288 315 294.5Q344 301 366.5 310.5Q389 320 403 334Q417 348 417 370Q417 411 385 437Q353 463 275 463Q199 463 161.5 431.5Q124 400 124 345V342H67V344Q67 422 122 466Q177 510 274 510Q327 510 365.5 498Q404 486 428.5 465Q453 444 464.5 415Q476 386 476 352V0H421V85Q387 45 337.5 17.5Q288 -10 217 -10ZM217 38Q286 38 337 72Q388 106 422 160V290Q414 280 397.5 271.5Q381 263 358.5 256Q336 249 310 243.5Q284 238 256 232Q187 219 147 197Q107 175 107 125Q107 87 133.5 62.5Q160 38 217 38ZM354 720H429L289 565H235Z" glyph-name="aacute.alt" horiz-adv-x="545" unicode="&#59537;" /><glyph d="M258 596H318L544 0H486L428 153H149L91 0H32ZM170 208H407L288 521ZM378 816H453L313 661H259Z" glyph-name="aacute.smcp" horiz-adv-x="576" unicode="&#57889;" /><glyph d="M361 -12Q297 -12 241.5 12Q186 36 145.5 77.5Q105 119 82 174Q59 229 59 292Q59 355 82 410.5Q105 466 145.5 507.5Q186 549 241.5 573Q297 597 361 597Q397 597 433.5 587.5Q470 578 502.5 559Q535 540 562 512.5Q589 485 606 450V585H662V0H606V134Q589 99 562 71.5Q535 44 502.5 25.5Q470 7 433.5 -2.5Q397 -12 361 -12ZM363 41Q416 41 461 60.5Q506 80 540 114Q574 148 593 194Q612 240 612 292Q612 344 593 390Q574 436 540 470Q506 504 461 524Q416 544 363 544Q312 544 267 524.5Q222 505 188.5 470.5Q155 436 136 390.5Q117 345 117 292Q117 240 136 194Q155 148 188.5 114Q222 80 267 60.5Q312 41 363 41ZM364 657Q323 657 292.5 670Q262 683 242 704.5Q222 726 212.5 754.5Q203 783 203 814H252Q252 767 280 734Q308 701 364 701Q418 701 446.5 734Q475 767 475 814H526Q526 783 515 754.5Q504 726 483 704.5Q462 683 432 670Q402 657 364 657Z" glyph-name="abreve" horiz-adv-x="747" unicode="&#259;" /><glyph d="M217 -10Q130 -10 90 28Q50 66 50 121Q49 192 102 227.5Q155 263 255 282Q286 288 315 294.5Q344 301 366.5 310.5Q389 320 403 334Q417 348 417 370Q417 411 385 437Q353 463 275 463Q199 463 161.5 431.5Q124 400 124 345V342H67V344Q67 422 122 466Q177 510 274 510Q327 510 365.5 498Q404 486 428.5 465Q453 444 464.5 415Q476 386 476 352V0H421V85Q387 45 337.5 17.5Q288 -10 217 -10ZM217 38Q286 38 337 72Q388 106 422 160V290Q414 280 397.5 271.5Q381 263 358.5 256Q336 249 310 243.5Q284 238 256 232Q187 219 147 197Q107 175 107 125Q107 87 133.5 62.5Q160 38 217 38ZM271 558Q230 558 199.5 571Q169 584 149 605.5Q129 627 119.5 655.5Q110 684 110 715H159Q159 668 187 635Q215 602 271 602Q325 602 353.5 635Q382 668 382 715H433Q433 684 422 655.5Q411 627 390 605.5Q369 584 339 571Q309 558 271 558Z" glyph-name="abreve.alt" horiz-adv-x="545" unicode="&#59542;" /><glyph d="M258 596H318L544 0H486L428 153H149L91 0H32ZM170 208H407L288 521ZM286 654Q245 654 214.5 667Q184 680 164 701.5Q144 723 134.5 751.5Q125 780 125 811H174Q174 764 202 731Q230 698 286 698Q340 698 368.5 731Q397 764 397 811H448Q448 780 437 751.5Q426 723 405 701.5Q384 680 354 667Q324 654 286 654Z" glyph-name="abreve.smcp" horiz-adv-x="576" unicode="&#57897;" /><glyph d="M361 -12Q297 -12 241.5 12Q186 36 145.5 77.5Q105 119 82 174Q59 229 59 292Q59 355 82 410.5Q105 466 145.5 507.5Q186 549 241.5 573Q297 597 361 597Q397 597 433.5 587.5Q470 578 502.5 559Q535 540 562 512.5Q589 485 606 450V585H662V0H606V134Q589 99 562 71.5Q535 44 502.5 25.5Q470 7 433.5 -2.5Q397 -12 361 -12ZM363 41Q416 41 461 60.5Q506 80 540 114Q574 148 593 194Q612 240 612 292Q612 344 593 390Q574 436 540 470Q506 504 461 524Q416 544 363 544Q312 544 267 524.5Q222 505 188.5 470.5Q155 436 136 390.5Q117 345 117 292Q117 240 136 194Q155 148 188.5 114Q222 80 267 60.5Q312 41 363 41ZM335 809H384L503 654H442L359 764L276 654H216Z" glyph-name="acircumflex" horiz-adv-x="747" unicode="&#226;" /><glyph d="M217 -10Q130 -10 90 28Q50 66 50 121Q49 192 102 227.5Q155 263 255 282Q286 288 315 294.5Q344 301 366.5 310.5Q389 320 403 334Q417 348 417 370Q417 411 385 437Q353 463 275 463Q199 463 161.5 431.5Q124 400 124 345V342H67V344Q67 422 122 466Q177 510 274 510Q327 510 365.5 498Q404 486 428.5 465Q453 444 464.5 415Q476 386 476 352V0H421V85Q387 45 337.5 17.5Q288 -10 217 -10ZM217 38Q286 38 337 72Q388 106 422 160V290Q414 280 397.5 271.5Q381 263 358.5 256Q336 249 310 243.5Q284 238 256 232Q187 219 147 197Q107 175 107 125Q107 87 133.5 62.5Q160 38 217 38ZM245 720H294L413 565H352L269 675L186 565H126Z" glyph-name="acircumflex.alt" horiz-adv-x="545" unicode="&#59539;" /><glyph d="M258 596H318L544 0H486L428 153H149L91 0H32ZM170 208H407L288 521ZM262 808H311L430 653H369L286 763L203 653H143Z" glyph-name="acircumflex.smcp" horiz-adv-x="576" unicode="&#57891;" /><glyph d="M266 720H341L201 565H147Z" glyph-name="acute" horiz-adv-x="502" unicode="&#180;" /><glyph d="M361 -12Q297 -12 241.5 12Q186 36 145.5 77.5Q105 119 82 174Q59 229 59 292Q59 355 82 410.5Q105 466 145.5 507.5Q186 549 241.5 573Q297 597 361 597Q397 597 433.5 587.5Q470 578 502.5 559Q535 540 562 512.5Q589 485 606 450V585H662V0H606V134Q589 99 562 71.5Q535 44 502.5 25.5Q470 7 433.5 -2.5Q397 -12 361 -12ZM363 41Q416 41 461 60.5Q506 80 540 114Q574 148 593 194Q612 240 612 292Q612 344 593 390Q574 436 540 470Q506 504 461 524Q416 544 363 544Q312 544 267 524.5Q222 505 188.5 470.5Q155 436 136 390.5Q117 345 117 292Q117 240 136 194Q155 148 188.5 114Q222 80 267 60.5Q312 41 363 41ZM232 700Q232 719 244.5 731Q257 743 276 743Q296 743 307.5 731Q319 719 319 700Q319 681 307.5 668.5Q296 656 276 656Q256 656 244 668.5Q232 681 232 700ZM400 700Q400 719 412.5 731Q425 743 444 743Q464 743 475.5 731Q487 719 487 700Q487 681 475.5 668.5Q464 656 444 656Q424 656 412 668.5Q400 681 400 700Z" glyph-name="adieresis" horiz-adv-x="747" unicode="&#228;" /><glyph d="M217 -10Q130 -10 90 28Q50 66 50 121Q49 192 102 227.5Q155 263 255 282Q286 288 315 294.5Q344 301 366.5 310.5Q389 320 403 334Q417 348 417 370Q417 411 385 437Q353 463 275 463Q199 463 161.5 431.5Q124 400 124 345V342H67V344Q67 422 122 466Q177 510 274 510Q327 510 365.5 498Q404 486 428.5 465Q453 444 464.5 415Q476 386 476 352V0H421V85Q387 45 337.5 17.5Q288 -10 217 -10ZM217 38Q286 38 337 72Q388 106 422 160V290Q414 280 397.5 271.5Q381 263 358.5 256Q336 249 310 243.5Q284 238 256 232Q187 219 147 197Q107 175 107 125Q107 87 133.5 62.5Q160 38 217 38ZM307 650Q307 669 319.5 681Q332 693 351 693Q371 693 382.5 681Q394 669 394 650Q394 631 382.5 618.5Q371 606 351 606Q331 606 319 618.5Q307 631 307 650ZM139 650Q139 669 151.5 681Q164 693 183 693Q203 693 214.5 681Q226 669 226 650Q226 631 214.5 618.5Q203 606 183 606Q163 606 151 618.5Q139 631 139 650Z" glyph-name="adieresis.alt" horiz-adv-x="545" unicode="&#59540;" /><glyph d="M258 596H318L544 0H486L428 153H149L91 0H32ZM170 208H407L288 521ZM328 746Q328 765 340.5 777Q353 789 372 789Q392 789 403.5 777Q415 765 415 746Q415 727 403.5 714.5Q392 702 372 702Q352 702 340 714.5Q328 727 328 746ZM160 746Q160 765 172.5 777Q185 789 204 789Q224 789 235.5 777Q247 765 247 746Q247 727 235.5 714.5Q224 702 204 702Q184 702 172 714.5Q160 727 160 746Z" glyph-name="adieresis.smcp" horiz-adv-x="576" unicode="&#57892;" /><glyph d="M789 -12Q698 -12 628.5 28Q559 68 521 135Q507 109 483 82.5Q459 56 426.5 35Q394 14 352.5 1Q311 -12 262 -12Q207 -12 169 0.5Q131 13 107 34.5Q83 56 71.5 84.5Q60 113 60 145Q59 188 76.5 218Q94 248 124 268.5Q154 289 194.5 302Q235 315 280 324Q320 333 358.5 340.5Q397 348 427 359.5Q457 371 475 388.5Q493 406 493 433Q493 484 449.5 517Q406 550 317 550Q226 550 175.5 506Q125 462 125 392V388H71V390Q71 437 88.5 475Q106 513 138 540Q170 567 215 582Q260 597 316 597Q410 597 466 564Q522 531 539 474Q580 531 643.5 564Q707 597 785 597Q849 597 904 575Q959 553 999.5 513Q1040 473 1063 418Q1086 363 1086 298V278H537Q539 227 559 183.5Q579 140 612.5 108Q646 76 691.5 58Q737 40 789 40Q877 40 938.5 87Q1000 134 1023 209L1075 186Q1060 141 1033 104.5Q1006 68 969 42Q932 16 887 2Q842 -12 789 -12ZM785 545Q737 545 695 528.5Q653 512 621 483Q589 454 568 415Q547 376 540 330H1026Q1021 378 1001.5 417.5Q982 457 950.5 485.5Q919 514 877 529.5Q835 545 785 545ZM264 37Q311 37 349 51.5Q387 66 416 88.5Q445 111 465 138Q485 165 496 190Q481 237 481 290Q481 304 482 317Q483 330 485 343Q465 318 419.5 306Q374 294 302 280Q262 273 228.5 263.5Q195 254 170.5 239Q146 224 132 201.5Q118 179 118 146Q118 124 126 104Q134 84 151.5 69Q169 54 197 45.5Q225 37 264 37Z" glyph-name="ae" horiz-adv-x="1147" unicode="&#230;" /><glyph d="M336 596H816V542H411L455 326H816V272H466L511 55H816V0H464L432 153H174L97 0H34ZM201 206H421L357 516Z" glyph-name="ae.smcp" horiz-adv-x="873" unicode="&#57905;" /><glyph d="M789 -12Q698 -12 628.5 28Q559 68 521 135Q507 109 483 82.5Q459 56 426.5 35Q394 14 352.5 1Q311 -12 262 -12Q207 -12 169 0.5Q131 13 107 34.5Q83 56 71.5 84.5Q60 113 60 145Q59 188 76.5 218Q94 248 124 268.5Q154 289 194.5 302Q235 315 280 324Q320 333 358.5 340.5Q397 348 427 359.5Q457 371 475 388.5Q493 406 493 433Q493 484 449.5 517Q406 550 317 550Q226 550 175.5 506Q125 462 125 392V388H71V390Q71 437 88.5 475Q106 513 138 540Q170 567 215 582Q260 597 316 597Q410 597 466 564Q522 531 539 474Q580 531 643.5 564Q707 597 785 597Q849 597 904 575Q959 553 999.5 513Q1040 473 1063 418Q1086 363 1086 298V278H537Q539 227 559 183.5Q579 140 612.5 108Q646 76 691.5 58Q737 40 789 40Q877 40 938.5 87Q1000 134 1023 209L1075 186Q1060 141 1033 104.5Q1006 68 969 42Q932 16 887 2Q842 -12 789 -12ZM785 545Q737 545 695 528.5Q653 512 621 483Q589 454 568 415Q547 376 540 330H1026Q1021 378 1001.5 417.5Q982 457 950.5 485.5Q919 514 877 529.5Q835 545 785 545ZM264 37Q311 37 349 51.5Q387 66 416 88.5Q445 111 465 138Q485 165 496 190Q481 237 481 290Q481 304 482 317Q483 330 485 343Q465 318 419.5 306Q374 294 302 280Q262 273 228.5 263.5Q195 254 170.5 239Q146 224 132 201.5Q118 179 118 146Q118 124 126 104Q134 84 151.5 69Q169 54 197 45.5Q225 37 264 37ZM645 798H720L580 643H526Z" glyph-name="aeacute" horiz-adv-x="1147" unicode="&#509;" /><glyph d="M336 596H816V542H411L455 326H816V272H466L511 55H816V0H464L432 153H174L97 0H34ZM201 206H421L357 516ZM608 816H683L543 661H489Z" glyph-name="aeacute.smcp" horiz-adv-x="877" unicode="&#57906;" /><glyph d="M361 -12Q297 -12 241.5 12Q186 36 145.5 77.5Q105 119 82 174Q59 229 59 292Q59 355 82 410.5Q105 466 145.5 507.5Q186 549 241.5 573Q297 597 361 597Q397 597 433.5 587.5Q470 578 502.5 559Q535 540 562 512.5Q589 485 606 450V585H662V0H606V134Q589 99 562 71.5Q535 44 502.5 25.5Q470 7 433.5 -2.5Q397 -12 361 -12ZM363 41Q416 41 461 60.5Q506 80 540 114Q574 148 593 194Q612 240 612 292Q612 344 593 390Q574 436 540 470Q506 504 461 524Q416 544 363 544Q312 544 267 524.5Q222 505 188.5 470.5Q155 436 136 390.5Q117 345 117 292Q117 240 136 194Q155 148 188.5 114Q222 80 267 60.5Q312 41 363 41ZM204 815H278L398 660H344Z" glyph-name="agrave" horiz-adv-x="747" unicode="&#224;" /><glyph d="M217 -10Q130 -10 90 28Q50 66 50 121Q49 192 102 227.5Q155 263 255 282Q286 288 315 294.5Q344 301 366.5 310.5Q389 320 403 334Q417 348 417 370Q417 411 385 437Q353 463 275 463Q199 463 161.5 431.5Q124 400 124 345V342H67V344Q67 422 122 466Q177 510 274 510Q327 510 365.5 498Q404 486 428.5 465Q453 444 464.5 415Q476 386 476 352V0H421V85Q387 45 337.5 17.5Q288 -10 217 -10ZM217 38Q286 38 337 72Q388 106 422 160V290Q414 280 397.5 271.5Q381 263 358.5 256Q336 249 310 243.5Q284 238 256 232Q187 219 147 197Q107 175 107 125Q107 87 133.5 62.5Q160 38 217 38ZM112 720H186L306 565H252Z" glyph-name="agrave.alt" horiz-adv-x="545" unicode="&#59538;" /><glyph d="M258 596H318L544 0H486L428 153H149L91 0H32ZM170 208H407L288 521ZM119 816H193L313 661H259Z" glyph-name="agrave.smcp" horiz-adv-x="576" unicode="&#57890;" /><glyph d="M248 -227Q201 -227 169 -213.5Q137 -200 111 -174L157 -145Q176 -162 195.5 -173Q215 -184 248 -184Q283 -184 305.5 -170Q328 -156 328 -134Q328 -90 247 -90H231V-53H250Q312 -52 347 -74Q382 -96 382 -132Q382 -174 345 -200.5Q308 -227 248 -227Z" glyph-name="altcedilla" horiz-adv-x="502" unicode="&#58390;" /><glyph d="M361 -12Q297 -12 241.5 12Q186 36 145.5 77.5Q105 119 82 174Q59 229 59 292Q59 355 82 410.5Q105 466 145.5 507.5Q186 549 241.5 573Q297 597 361 597Q397 597 433.5 587.5Q470 578 502.5 559Q535 540 562 512.5Q589 485 606 450V585H662V0H606V134Q589 99 562 71.5Q535 44 502.5 25.5Q470 7 433.5 -2.5Q397 -12 361 -12ZM363 41Q416 41 461 60.5Q506 80 540 114Q574 148 593 194Q612 240 612 292Q612 344 593 390Q574 436 540 470Q506 504 461 524Q416 544 363 544Q312 544 267 524.5Q222 505 188.5 470.5Q155 436 136 390.5Q117 345 117 292Q117 240 136 194Q155 148 188.5 114Q222 80 267 60.5Q312 41 363 41ZM230 716H494V666H230Z" glyph-name="amacron" horiz-adv-x="747" unicode="&#257;" /><glyph d="M217 -10Q130 -10 90 28Q50 66 50 121Q49 192 102 227.5Q155 263 255 282Q286 288 315 294.5Q344 301 366.5 310.5Q389 320 403 334Q417 348 417 370Q417 411 385 437Q353 463 275 463Q199 463 161.5 431.5Q124 400 124 345V342H67V344Q67 422 122 466Q177 510 274 510Q327 510 365.5 498Q404 486 428.5 465Q453 444 464.5 415Q476 386 476 352V0H421V85Q387 45 337.5 17.5Q288 -10 217 -10ZM217 38Q286 38 337 72Q388 106 422 160V290Q414 280 397.5 271.5Q381 263 358.5 256Q336 249 310 243.5Q284 238 256 232Q187 219 147 197Q107 175 107 125Q107 87 133.5 62.5Q160 38 217 38ZM143 615H407V565H143Z" glyph-name="amacron.alt" horiz-adv-x="545" unicode="&#59541;" /><glyph d="M258 596H318L544 0H486L428 153H149L91 0H32ZM170 208H407L288 521ZM154 711H418V661H154Z" glyph-name="amacron.smcp" horiz-adv-x="576" unicode="&#57896;" /><glyph d="M557 78Q511 37 455 13Q399 -11 333 -11Q257 -11 203.5 11Q150 33 116 67Q82 101 66 143.5Q50 186 50 226Q50 302 89 359Q128 416 192 449Q169 479 157 509Q145 539 145 576Q145 609 157 638.5Q169 668 192.5 690.5Q216 713 250 726.5Q284 740 327 740Q387 740 430.5 714Q474 688 497 652L450 621Q432 649 401 669.5Q370 690 327 690Q298 690 275 681Q252 672 236 656Q220 640 211.5 619.5Q203 599 203 576Q203 553 210.5 532.5Q218 512 233 490.5Q248 469 271 445Q294 421 325 389L561 153Q603 202 628 261.5Q653 321 658 379H515V433H714V410Q714 338 683.5 259.5Q653 181 596 117L714 0H636ZM333 40Q388 40 435.5 60Q483 80 521 113L279 355Q249 384 225 409Q169 380 138.5 334.5Q108 289 108 226Q108 195 121 162Q134 129 161.5 102Q189 75 231.5 57.5Q274 40 333 40Z" glyph-name="ampersand" horiz-adv-x="762" unicode="&amp;" /><glyph d="M464 61Q426 29 380.5 10Q335 -9 283 -9Q223 -9 179.5 8Q136 25 108 53Q80 81 66.5 115.5Q53 150 53 185Q53 246 85 292Q117 338 167 364Q149 388 139.5 412.5Q130 437 130 467Q130 495 140.5 520Q151 545 171 563.5Q191 582 219 593Q247 604 283 604Q337 604 373 581Q409 558 427 526L377 499Q364 521 340.5 537.5Q317 554 283 554Q238 554 213.5 528Q189 502 189 467Q189 448 194.5 432Q200 416 212 399Q224 382 243 362Q262 342 289 316L467 137Q499 175 518.5 219.5Q538 264 543 309H419V364H600V340Q600 281 574.5 217.5Q549 154 504 101L604 0H526ZM283 45Q325 45 361 59Q397 73 427 98L243 282Q219 304 200 325Q158 302 135 268.5Q112 235 112 187Q112 161 122 135.5Q132 110 153 90Q174 70 206 57.5Q238 45 283 45Z" glyph-name="ampersand.smcp" horiz-adv-x="660" unicode="&#58369;" /><glyph d="M37 250 265 730H327L99 250L327 -230H265Z" glyph-name="anglebracketleft" horiz-adv-x="360" unicode="&#12296;" /><glyph d="M37 360 265 840H327L99 360L327 -120H265Z" glyph-name="anglebracketleft.cap" horiz-adv-x="360" unicode="&#58519;" /><glyph d="M224 -98 37 294 223 686H285L99 294L285 -98Z" glyph-name="anglebracketleft.smcp" horiz-adv-x="339" unicode="&#58527;" /><glyph d="M34 -230 262 250 34 730H96L324 250L96 -230Z" glyph-name="anglebracketright" horiz-adv-x="360" unicode="&#12297;" /><glyph d="M34 -120 262 360 34 840H96L324 360L96 -120Z" glyph-name="anglebracketright.cap" horiz-adv-x="360" unicode="&#58520;" /><glyph d="M55 -98 242 294 56 686H117L303 294L117 -98Z" glyph-name="anglebracketright.smcp" horiz-adv-x="339" unicode="&#58512;" /><glyph d="M258 596H318L544 0H486L288 521L91 0H32Z" glyph-name="anocross.smcp" horiz-adv-x="576" unicode="&#57888;" /><glyph d="M361 -12Q297 -12 241.5 12Q186 36 145.5 77.5Q105 119 82 174Q59 229 59 292Q59 355 82 410.5Q105 466 145.5 507.5Q186 549 241.5 573Q297 597 361 597Q397 597 433.5 587.5Q470 578 502.5 559Q535 540 562 512.5Q589 485 606 450V585H662V0Q622 -32 601 -60.5Q580 -89 580 -115Q580 -139 596 -154Q612 -169 639 -169Q663 -169 679.5 -160Q696 -151 712 -137L745 -177Q724 -194 696.5 -206Q669 -218 639 -218Q581 -218 553.5 -188Q526 -158 526 -117Q526 -82 548.5 -49Q571 -16 606 13V134Q589 99 562 71.5Q535 44 502.5 25.5Q470 7 433.5 -2.5Q397 -12 361 -12ZM363 41Q416 41 461 60.5Q506 80 540 114Q574 148 593 194Q612 240 612 292Q612 344 593 390Q574 436 540 470Q506 504 461 524Q416 544 363 544Q312 544 267 524.5Q222 505 188.5 470.5Q155 436 136 390.5Q117 345 117 292Q117 240 136 194Q155 148 188.5 114Q222 80 267 60.5Q312 41 363 41Z" glyph-name="aogonek" horiz-adv-x="747" unicode="&#261;" /><glyph d="M453 -218Q395 -218 367.5 -188Q340 -158 340 -117Q340 -82 363 -48.5Q386 -15 421 14V85Q387 45 337.5 17.5Q288 -10 217 -10Q130 -10 90 28Q50 66 50 121Q49 192 102 227.5Q155 263 255 282Q286 288 315 294.5Q344 301 366.5 310.5Q389 320 403 334Q417 348 417 370Q417 411 385 437Q353 463 275 463Q199 463 161.5 431.5Q124 400 124 345V342H67V344Q67 422 122 466Q177 510 274 510Q327 510 365.5 498Q404 486 428.5 465Q453 444 464.5 415Q476 386 476 352V0Q436 -32 415 -60.5Q394 -89 394 -115Q394 -139 410 -154Q426 -169 453 -169Q477 -169 493.5 -160Q510 -151 526 -137L559 -177Q538 -194 510.5 -206Q483 -218 453 -218ZM217 38Q286 38 337 72Q388 106 422 160V290Q414 280 397.5 271.5Q381 263 358.5 256Q336 249 310 243.5Q284 238 256 232Q187 219 147 197Q107 175 107 125Q107 87 133.5 62.5Q160 38 217 38Z" glyph-name="aogonek.alt" horiz-adv-x="545" unicode="&#59545;" /><glyph d="M258 596H318L544 0Q508 -20 484.5 -35Q461 -50 447 -62.5Q433 -75 427.5 -86.5Q422 -98 422 -110Q422 -134 442 -147.5Q462 -161 493 -161Q521 -161 541 -149.5Q561 -138 579 -122L624 -153Q600 -175 565.5 -191.5Q531 -208 493 -208Q435 -208 399.5 -181Q364 -154 364 -113Q364 -79 389 -47Q414 -15 479 17L428 153H149L91 0H32ZM170 208H407L288 521Z" glyph-name="aogonek.smcp" horiz-adv-x="576" unicode="&#57903;" /><glyph d="M48 463Q70 474 92 481.5Q114 489 145 489Q168 489 191 483Q214 477 236.5 470Q259 463 281 457Q303 451 322 451Q351 451 371.5 457.5Q392 464 418 476V424Q397 412 376 405.5Q355 399 322 399Q301 399 278 405Q255 411 231.5 418Q208 425 186 431Q164 437 145 437Q115 437 93 429.5Q71 422 48 411ZM48 299Q70 310 91 317.5Q112 325 143 325Q166 325 189.5 319Q213 313 236.5 306.5Q260 300 282.5 294Q305 288 324 288Q353 288 372.5 294Q392 300 418 312V260Q397 248 377 242.5Q357 237 324 237Q303 237 279.5 243Q256 249 232 255.5Q208 262 185 268Q162 274 143 274Q113 274 92 266Q71 258 48 247Z" glyph-name="approxequal" horiz-adv-x="467" unicode="&#8776;" /><glyph d="M361 -12Q297 -12 241.5 12Q186 36 145.5 77.5Q105 119 82 174Q59 229 59 292Q59 355 82 410.5Q105 466 145.5 507.5Q186 549 241.5 573Q297 597 361 597Q397 597 433.5 587.5Q470 578 502.5 559Q535 540 562 512.5Q589 485 606 450V585H662V0H606V134Q589 99 562 71.5Q535 44 502.5 25.5Q470 7 433.5 -2.5Q397 -12 361 -12ZM363 41Q416 41 461 60.5Q506 80 540 114Q574 148 593 194Q612 240 612 292Q612 344 593 390Q574 436 540 470Q506 504 461 524Q416 544 363 544Q312 544 267 524.5Q222 505 188.5 470.5Q155 436 136 390.5Q117 345 117 292Q117 240 136 194Q155 148 188.5 114Q222 80 267 60.5Q312 41 363 41ZM365 655Q324 655 295.5 683.5Q267 712 267 754Q267 796 295.5 825Q324 854 365 854Q408 854 437 825Q466 796 466 754Q466 712 437 683.5Q408 655 365 655ZM365 700Q388 700 404.5 715.5Q421 731 421 754Q421 777 404.5 793Q388 809 365 809Q343 809 327 793Q311 777 311 754Q311 731 327 715.5Q343 700 365 700Z" glyph-name="aring" horiz-adv-x="747" unicode="&#229;" /><glyph d="M217 -10Q130 -10 90 28Q50 66 50 121Q49 192 102 227.5Q155 263 255 282Q286 288 315 294.5Q344 301 366.5 310.5Q389 320 403 334Q417 348 417 370Q417 411 385 437Q353 463 275 463Q199 463 161.5 431.5Q124 400 124 345V342H67V344Q67 422 122 466Q177 510 274 510Q327 510 365.5 498Q404 486 428.5 465Q453 444 464.5 415Q476 386 476 352V0H421V85Q387 45 337.5 17.5Q288 -10 217 -10ZM217 38Q286 38 337 72Q388 106 422 160V290Q414 280 397.5 271.5Q381 263 358.5 256Q336 249 310 243.5Q284 238 256 232Q187 219 147 197Q107 175 107 125Q107 87 133.5 62.5Q160 38 217 38ZM265 558Q224 558 195.5 586.5Q167 615 167 657Q167 699 195.5 728Q224 757 265 757Q308 757 337 728Q366 699 366 657Q366 615 337 586.5Q308 558 265 558ZM265 603Q288 603 304.5 618.5Q321 634 321 657Q321 680 304.5 696Q288 712 265 712Q243 712 227 696Q211 680 211 657Q211 634 227 618.5Q243 603 265 603Z" glyph-name="aring.alt" horiz-adv-x="545" unicode="&#59543;" /><glyph d="M246 564Q220 575 203.5 599.5Q187 624 187 655Q187 697 215.5 726Q244 755 285 755Q328 755 357 726Q386 697 386 655Q386 625 370.5 601Q355 577 329 565L544 0H486L428 153H149L91 0H32ZM170 208H407L288 521ZM285 601Q308 601 324.5 616.5Q341 632 341 655Q341 678 324.5 694Q308 710 285 710Q263 710 247 694Q231 678 231 655Q231 632 247 616.5Q263 601 285 601Z" glyph-name="aring.smcp" horiz-adv-x="576" unicode="&#57894;" /><glyph d="M361 -12Q297 -12 241.5 12Q186 36 145.5 77.5Q105 119 82 174Q59 229 59 292Q59 345 75.5 393Q92 441 121.5 480Q151 519 192.5 546.5Q234 574 283 587Q260 613 260 651Q260 693 288.5 722Q317 751 358 751Q401 751 430 722Q459 693 459 651Q459 615 435 586Q489 572 534.5 537.5Q580 503 606 450V585H662V0H606V134Q589 99 562 71.5Q535 44 502.5 25.5Q470 7 433.5 -2.5Q397 -12 361 -12ZM363 41Q416 41 461 60.5Q506 80 540 114Q574 148 593 194Q612 240 612 292Q612 344 593 390Q574 436 540 470Q506 504 461 524Q416 544 363 544Q312 544 267 524.5Q222 505 188.5 470.5Q155 436 136 390.5Q117 345 117 292Q117 240 136 194Q155 148 188.5 114Q222 80 267 60.5Q312 41 363 41ZM446 941H521L381 786H327ZM362 597Q384 599 399 614Q414 629 414 651Q414 674 397.5 690Q381 706 358 706Q336 706 320 690Q304 674 304 651Q304 628 320 612.5Q336 597 358 597Z" glyph-name="aringacute" horiz-adv-x="747" unicode="&#507;" /><glyph d="M217 -10Q130 -10 90 28Q50 66 50 121Q49 192 102 227.5Q155 263 255 282Q286 288 315 294.5Q344 301 366.5 310.5Q389 320 403 334Q417 348 417 370Q417 411 385 437Q353 463 275 463Q199 463 161.5 431.5Q124 400 124 345V342H67V344Q67 422 122 466Q177 510 274 510Q327 510 365.5 498Q404 486 428.5 465Q453 444 464.5 415Q476 386 476 352V0H421V85Q387 45 337.5 17.5Q288 -10 217 -10ZM217 38Q286 38 337 72Q388 106 422 160V290Q414 280 397.5 271.5Q381 263 358.5 256Q336 249 310 243.5Q284 238 256 232Q187 219 147 197Q107 175 107 125Q107 87 133.5 62.5Q160 38 217 38ZM271 561Q230 561 201.5 589.5Q173 618 173 660Q173 702 201.5 731Q230 760 271 760Q314 760 343 731Q372 702 372 660Q372 618 343 589.5Q314 561 271 561ZM363 949H438L298 794H244ZM271 606Q294 606 310.5 621.5Q327 637 327 660Q327 683 310.5 699Q294 715 271 715Q249 715 233 699Q217 683 217 660Q217 637 233 621.5Q249 606 271 606Z" glyph-name="aringacute.alt" horiz-adv-x="545" unicode="&#62552;" /><glyph d="M246 564Q220 575 203.5 599.5Q187 624 187 655Q187 697 215.5 726Q244 755 285 755Q328 755 357 726Q386 697 386 655Q386 625 370.5 601Q355 577 329 565L544 0H486L428 153H149L91 0H32ZM170 208H407L288 521ZM376 950H451L311 795H257ZM285 601Q308 601 324.5 616.5Q341 632 341 655Q341 678 324.5 694Q308 710 285 710Q263 710 247 694Q231 678 231 655Q231 632 247 616.5Q263 601 285 601Z" glyph-name="aringacute.smcp" horiz-adv-x="576" unicode="&#57901;" /><glyph d="M423 -33Q408 -4 383.5 26.5Q359 57 330 85Q301 113 267.5 136.5Q234 160 201 175L231 223Q257 210 283 191Q309 172 333 150Q357 128 377 104.5Q397 81 411 60V730H468V56Q482 77 501.5 101Q521 125 545 147.5Q569 170 595.5 190Q622 210 649 223L680 175Q647 160 613.5 136.5Q580 113 551 85Q522 57 497.5 26.5Q473 -4 458 -33Z" glyph-name="arrowdown" horiz-adv-x="896" unicode="&#8595;" /><glyph d="M778 175Q745 160 711.5 136.5Q678 113 649 85Q620 57 595.5 26.5Q571 -4 556 -33H521Q506 -4 481.5 26.5Q457 57 428 85Q399 113 365.5 136.5Q332 160 299 175L329 223Q356 210 382.5 190.5Q409 171 433 148.5Q457 126 477 102Q497 78 511 57V730H566V56Q580 77 599.5 101Q619 125 643 147.5Q667 170 693.5 190Q720 210 747 223ZM619 702V730L758 821V779ZM619 511V539L758 630V589ZM619 607V634L758 726V684ZM324 587V629L460 540V512ZM324 778V820L460 730V703ZM324 683V724L460 635V607Z" glyph-name="arrowdown.alt" horiz-adv-x="1068" unicode="&#62553;" /><glyph d="M258 127Q243 160 219 193.5Q195 227 167 256Q139 285 108.5 309.5Q78 334 49 349V384Q78 399 108.5 423.5Q139 448 167 477Q195 506 219 539.5Q243 573 258 606L306 576Q293 549 273 522.5Q253 496 230.5 472Q208 448 184.5 428Q161 408 140 394H826V339H138Q159 325 183 305Q207 285 230 261.5Q253 238 273 211.5Q293 185 306 158Z" glyph-name="arrowleft" horiz-adv-x="896" unicode="&#8592;" /><glyph d="M260 127Q245 160 221 193Q197 226 169 255Q141 284 110.5 308.5Q80 333 51 348V383Q80 399 110.5 423Q141 447 169 476.5Q197 506 221 539Q245 572 260 605L308 575Q295 548 275 521.5Q255 495 232 471Q209 447 185 427Q161 407 140 393H936V338H142Q163 324 186.5 304Q210 284 232.5 260Q255 236 275 210Q295 184 308 157ZM908 285H936L1027 146H985ZM717 285H745L836 146H795ZM813 285H840L932 146H890ZM793 580H835L746 445H718ZM984 580H1026L936 445H909ZM889 580H930L841 445H813Z" glyph-name="arrowleft.alt" horiz-adv-x="1068" unicode="&#62560;" /><glyph d="M573 157Q585 184 604.5 210.5Q624 237 647 261Q670 285 694 305Q718 325 739 339H53V394H739Q718 408 694 428Q670 448 647.5 471.5Q625 495 605.5 521.5Q586 548 573 575L622 606Q637 573 660 539.5Q683 506 711 476.5Q739 447 770 422.5Q801 398 830 383V349Q801 334 770 309.5Q739 285 711 256Q683 227 659 193.5Q635 160 620 127Z" glyph-name="arrowright" horiz-adv-x="896" unicode="&#8594;" /><glyph d="M818 605Q833 572 856.5 538.5Q880 505 908 476Q936 447 966.5 422.5Q997 398 1026 383V348Q997 333 966.5 308.5Q936 284 908 255Q880 226 856.5 192.5Q833 159 818 126L770 156Q783 183 802 209.5Q821 236 843.5 260Q866 284 890 304Q914 324 935 338H141V393H937Q916 407 892 426.5Q868 446 845 470Q822 494 802.5 520.5Q783 547 770 574ZM360 446H332L241 585H283ZM169 446H142L50 585H92ZM265 446H237L146 585H187ZM189 151H147L236 287H264ZM284 151H242L332 287H359ZM93 151H52L141 287H169Z" glyph-name="arrowright.alt" horiz-adv-x="1068" unicode="&#62561;" /><glyph d="M412 670Q398 649 378 625.5Q358 602 334.5 580Q311 558 285 539Q259 520 232 507L202 555Q235 570 268 593.5Q301 617 330 645Q359 673 383.5 703.5Q408 734 423 763H458Q474 734 498 703.5Q522 673 551.5 645Q581 617 614 593.5Q647 570 680 555L650 507Q623 520 596.5 539.5Q570 559 546.5 581.5Q523 604 503 627.5Q483 651 469 672V0H412Z" glyph-name="arrowup" horiz-adv-x="896" unicode="&#8593;" /><glyph d="M300 555Q333 570 366 593.5Q399 617 428 645Q457 673 481.5 703.5Q506 734 521 763H556Q572 734 596 703.5Q620 673 649.5 645Q679 617 712 593.5Q745 570 778 555L748 507Q721 520 694.5 539.5Q668 559 644 582Q620 605 600 629Q580 653 566 674V0H511V672Q497 651 477 627Q457 603 433 580.5Q409 558 383 539Q357 520 330 507ZM458 28V0L319 -91V-49ZM458 219V191L319 100V141ZM458 123V96L319 4V46ZM753 143V101L618 190V218ZM753 -48V-90L618 0V27ZM753 47V6L618 95V123Z" glyph-name="arrowup.alt" horiz-adv-x="1068" unicode="&#62562;" /><glyph d="M228 683H272L398 516H338L250 633L165 516H105Z" glyph-name="asciicircum" horiz-adv-x="502" unicode="^" /><glyph d="M67 558Q69 604 94 631.5Q119 659 158 659Q184 659 201.5 651Q219 643 236 632Q252 623 267.5 613.5Q283 604 301 604Q341 604 347 654H393Q391 608 367.5 580.5Q344 553 302 553Q273 553 252.5 564Q232 575 214 586Q200 594 187 600.5Q174 607 158 607Q121 607 115 558Z" glyph-name="asciitilde" horiz-adv-x="455" unicode="~" /><glyph d="M232 532 246 376H192L206 532L78 442L52 488L193 554L52 621L78 666L206 575L192 730H246L232 577L358 665L384 619L242 554L384 489L357 443Z" glyph-name="asterisk" horiz-adv-x="438" unicode="*" /><glyph d="M427 -125Q349 -125 281 -95.5Q213 -66 162.5 -15.5Q112 35 83 103.5Q54 172 54 250Q54 328 84.5 396Q115 464 167.5 515Q220 566 289 595.5Q358 625 436 625Q516 625 583 597Q650 569 698.5 522.5Q747 476 774 415Q801 354 801 288Q801 247 791.5 209Q782 171 762.5 142Q743 113 714.5 96Q686 79 648 79Q603 79 575.5 98.5Q548 118 537 148Q520 119 486 97.5Q452 76 403 76Q373 76 343.5 88Q314 100 291.5 123Q269 146 257 180Q245 214 249 258Q255 303 272 336.5Q289 370 314 392Q339 414 368.5 425Q398 436 429 436Q471 436 500.5 418Q530 400 545 373Q547 392 548.5 403.5Q550 415 550 421Q551 428 551 430H606L586 249Q579 185 596.5 158.5Q614 132 652 132Q697 132 722.5 176Q748 220 748 287Q748 343 725.5 394.5Q703 446 661.5 486Q620 526 562.5 549.5Q505 573 435 573Q368 573 309 547.5Q250 522 206 478Q162 434 136.5 375.5Q111 317 111 250Q111 183 135.5 124.5Q160 66 202.5 22Q245 -22 302.5 -47.5Q360 -73 427 -73Q497 -73 555.5 -47Q614 -21 659 25L699 -10Q651 -60 580.5 -92.5Q510 -125 427 -125ZM414 128Q441 128 461.5 138.5Q482 149 497 167Q512 185 521 208.5Q530 232 532 258Q535 284 530.5 307Q526 330 514 347.5Q502 365 483 375.5Q464 386 438 386Q390 386 352.5 352Q315 318 309 258Q305 231 311.5 207.5Q318 184 332 166.5Q346 149 367 138.5Q388 128 414 128Z" glyph-name="at" horiz-adv-x="856" unicode="@" /><glyph d="M427 -11Q349 -11 281 18.5Q213 48 162.5 98.5Q112 149 83 217.5Q54 286 54 364Q54 442 84.5 510Q115 578 167.5 629Q220 680 289 709.5Q358 739 436 739Q516 739 583 711Q650 683 698.5 636.5Q747 590 774 529Q801 468 801 402Q801 362 791.5 324.5Q782 287 762.5 257.5Q743 228 714.5 210.5Q686 193 648 193Q603 193 575.5 213Q548 233 537 262Q520 233 486 212Q452 191 403 191Q373 191 343.5 202.5Q314 214 291.5 237Q269 260 257 294Q245 328 249 372Q255 417 272 451Q289 485 314 507Q339 529 368.5 540Q398 551 429 551Q471 551 500.5 533Q530 515 545 488Q547 507 548.5 518Q550 529 550 535Q551 542 551 545H606L586 364Q579 300 596.5 273Q614 246 652 246Q675 246 692.5 258Q710 270 722.5 290.5Q735 311 741.5 339.5Q748 368 748 401Q748 457 725.5 509Q703 561 661.5 601Q620 641 562.5 664.5Q505 688 435 688Q368 688 309 662.5Q250 637 206 593Q162 549 136.5 490Q111 431 111 364Q111 297 135.5 238.5Q160 180 202.5 136Q245 92 302.5 66.5Q360 41 427 41Q496 41 554.5 67.5Q613 94 657 140L699 105Q650 53 580 21Q510 -11 427 -11ZM414 242Q441 242 461.5 253Q482 264 497 282Q512 300 521 323.5Q530 347 532 373Q535 398 530.5 421Q526 444 514 462Q502 480 483 490.5Q464 501 438 501Q390 501 352.5 467Q315 433 309 373Q305 346 311.5 322.5Q318 299 332 281Q346 263 367 252.5Q388 242 414 242Z" glyph-name="at.cap" horiz-adv-x="856" unicode="&#58643;" /><glyph d="M427 -76Q349 -76 281 -46.5Q213 -17 162.5 33.5Q112 84 83 152.5Q54 221 54 299Q54 377 84.5 445Q115 513 167.5 564Q220 615 289 644.5Q358 674 436 674Q516 674 583 646Q650 618 698.5 571.5Q747 525 774 464Q801 403 801 337Q801 297 791.5 259Q782 221 762.5 191.5Q743 162 714.5 144.5Q686 127 648 127Q603 127 575.5 147Q548 167 537 196Q520 167 486 146Q452 125 403 125Q373 125 343.5 136.5Q314 148 291.5 171Q269 194 257 228Q245 262 249 306Q255 351 272 385Q289 419 314 441Q339 463 368.5 474Q398 485 429 485Q471 485 500.5 467Q530 449 545 422Q547 441 548.5 452Q550 463 550 469Q551 476 551 479H606L586 298Q579 234 596.5 207.5Q614 181 652 181Q675 181 692.5 192.5Q710 204 722.5 225Q735 246 741.5 274Q748 302 748 335Q748 391 725.5 443Q703 495 661.5 535Q620 575 562.5 598.5Q505 622 435 622Q368 622 309 596.5Q250 571 206 527Q162 483 136.5 424.5Q111 366 111 299Q111 232 135.5 173Q160 114 202.5 70Q245 26 302.5 0.5Q360 -25 427 -25Q496 -25 554.5 1.5Q613 28 657 74L699 39Q650 -12 580 -44Q510 -76 427 -76ZM414 176Q441 176 461.5 187Q482 198 497 216Q512 234 521 257.5Q530 281 532 307Q535 333 530.5 356Q526 379 514 396.5Q502 414 483 424.5Q464 435 438 435Q390 435 352.5 401Q315 367 309 307Q305 280 311.5 256.5Q318 233 332 215Q346 197 367 186.5Q388 176 414 176Z" glyph-name="at.smcp" horiz-adv-x="856" unicode="&#62987;" /><glyph d="M361 -12Q297 -12 241.5 12Q186 36 145.5 77.5Q105 119 82 174Q59 229 59 292Q59 355 82 410.5Q105 466 145.5 507.5Q186 549 241.5 573Q297 597 361 597Q397 597 433.5 587.5Q470 578 502.5 559Q535 540 562 512.5Q589 485 606 450V585H662V0H606V134Q589 99 562 71.5Q535 44 502.5 25.5Q470 7 433.5 -2.5Q397 -12 361 -12ZM363 41Q416 41 461 60.5Q506 80 540 114Q574 148 593 194Q612 240 612 292Q612 344 593 390Q574 436 540 470Q506 504 461 524Q416 544 363 544Q312 544 267 524.5Q222 505 188.5 470.5Q155 436 136 390.5Q117 345 117 292Q117 240 136 194Q155 148 188.5 114Q222 80 267 60.5Q312 41 363 41ZM195 660Q195 710 221 739Q247 768 288 768Q313 768 333.5 759Q354 750 374 738Q393 727 410.5 717Q428 707 446 707Q469 707 482.5 721Q496 735 496 765H542Q542 714 517.5 685Q493 656 447 656Q418 656 395.5 667.5Q373 679 353 691Q336 701 321 709.5Q306 718 288 718Q268 718 255 703.5Q242 689 242 660Z" glyph-name="atilde" horiz-adv-x="747" unicode="&#227;" /><glyph d="M217 -10Q130 -10 90 28Q50 66 50 121Q49 192 102 227.5Q155 263 255 282Q286 288 315 294.5Q344 301 366.5 310.5Q389 320 403 334Q417 348 417 370Q417 411 385 437Q353 463 275 463Q199 463 161.5 431.5Q124 400 124 345V342H67V344Q67 422 122 466Q177 510 274 510Q327 510 365.5 498Q404 486 428.5 465Q453 444 464.5 415Q476 386 476 352V0H421V85Q387 45 337.5 17.5Q288 -10 217 -10ZM217 38Q286 38 337 72Q388 106 422 160V290Q414 280 397.5 271.5Q381 263 358.5 256Q336 249 310 243.5Q284 238 256 232Q187 219 147 197Q107 175 107 125Q107 87 133.5 62.5Q160 38 217 38ZM105 565Q105 615 131 644Q157 673 198 673Q223 673 243.5 664Q264 655 284 643Q303 632 320.5 622Q338 612 356 612Q379 612 392.5 626Q406 640 406 670H452Q452 619 427.5 590Q403 561 357 561Q328 561 305.5 572.5Q283 584 263 596Q246 606 231 614.5Q216 623 198 623Q178 623 165 608.5Q152 594 152 565Z" glyph-name="atilde.alt" horiz-adv-x="545" unicode="&#59544;" /><glyph d="M258 596H318L544 0H486L428 153H149L91 0H32ZM170 208H407L288 521ZM115 661Q115 711 141 740Q167 769 208 769Q233 769 253.5 760Q274 751 294 739Q313 728 330.5 718Q348 708 366 708Q389 708 402.5 722Q416 736 416 766H462Q462 715 437.5 686Q413 657 367 657Q338 657 315.5 668.5Q293 680 273 692Q256 702 241 710.5Q226 719 208 719Q188 719 175 704.5Q162 690 162 661Z" glyph-name="atilde.smcp" horiz-adv-x="576" unicode="&#57893;" /><glyph d="M258 596H318L544 0H486L428 153H149L91 0H32ZM170 208H407L288 521ZM433 596H490V457H433ZM85 596H141V457H85Z" glyph-name="aumlaut.smcp" horiz-adv-x="576" unicode="&#61817;" /><glyph d="M386 -12Q350 -12 313.5 -2.5Q277 7 244.5 25.5Q212 44 185 71Q158 98 141 132V0H86V740H142V454Q159 488 186 514.5Q213 541 245.5 559.5Q278 578 314 587.5Q350 597 386 597Q450 597 505.5 573Q561 549 601.5 507.5Q642 466 665 410.5Q688 355 688 292Q688 229 664.5 174Q641 119 600.5 77.5Q560 36 505 12Q450 -12 386 -12ZM384 41Q435 41 480 60.5Q525 80 558 114Q591 148 610 194Q629 240 629 292Q629 345 610 390.5Q591 436 558 470.5Q525 505 480 524.5Q435 544 384 544Q331 544 285.5 524Q240 504 206.5 470Q173 436 154 390Q135 344 135 292Q135 240 154 194Q173 148 206.5 114Q240 80 285.5 60.5Q331 41 384 41Z" glyph-name="b" horiz-adv-x="746" unicode="b" /><glyph d="M72 596H294Q334 596 367 584.5Q400 573 423.5 552.5Q447 532 460 503.5Q473 475 473 440Q473 396 452 362Q431 328 392 310Q438 293 463.5 255.5Q489 218 489 166Q489 128 475.5 97.5Q462 67 438 45Q414 23 380.5 11.5Q347 0 306 0H72ZM129 280V52H307Q364 52 398 84.5Q432 117 432 167Q432 217 399.5 248.5Q367 280 305 280ZM129 544V334H301Q356 334 386.5 364Q417 394 417 440Q417 486 383 515Q349 544 294 544Z" glyph-name="b.smcp" horiz-adv-x="538" unicode="&#57858;" /><glyph d="M28 730H90L436 0H374Z" glyph-name="backslash" horiz-adv-x="463" unicode="\" /><glyph d="M28 730H90L436 0H374Z" glyph-name="backslash.cap" horiz-adv-x="463" unicode="&#58466;" /><glyph d="M37 596H98L381 0H320Z" glyph-name="backslash.smcp" horiz-adv-x="417" unicode="&#58472;" /><glyph d="M100 500H600V0H100ZM158 55H542V445H158ZM348 282 452 389 486 355 383 249 489 145 455 110 349 214 246 108 212 142 315 248 209 352 243 386Z" glyph-name="ballotboxwithx" horiz-adv-x="700" unicode="&#9746;" /><glyph d="M66 730H124V-230H66Z" glyph-name="bar" horiz-adv-x="190" unicode="|" /><glyph d="M66 840H124V-120H66Z" glyph-name="bar.cap" horiz-adv-x="190" unicode="&#58467;" /><glyph d="M66 686H124V-98H66Z" glyph-name="bar.smcp" horiz-adv-x="190" unicode="&#58473;" /><glyph d="M464 -10Q386 -10 318 19.5Q250 49 199 100Q148 151 118.5 219Q89 287 89 365Q89 443 118.5 511Q148 579 199 630Q250 681 318 710.5Q386 740 464 740Q542 740 610 710.5Q678 681 729 630Q780 579 809.5 511Q839 443 839 365Q839 287 809.5 219Q780 151 729 100Q678 49 610 19.5Q542 -10 464 -10Z" glyph-name="blackcircle" horiz-adv-x="927" unicode="&#9679;" /><glyph d="M100 500H600V0H100Z" glyph-name="blacksmallsquare" horiz-adv-x="700" unicode="&#9642;" /><glyph d="M100 730H826V0H100Z" glyph-name="blacksquare" horiz-adv-x="926" unicode="&#9632;" /><glyph d="M352 -230Q289 -230 247 -219Q205 -208 179.5 -182.5Q154 -157 143 -115.5Q132 -74 132 -13V115Q132 144 129 164.5Q126 185 116.5 197.5Q107 210 88.5 215.5Q70 221 38 221V276Q70 276 88.5 282Q107 288 116.5 300.5Q126 313 129 333.5Q132 354 132 383V513Q132 574 143 615.5Q154 657 179.5 682.5Q205 708 247 719Q289 730 352 730H363V678Q310 678 276 670.5Q242 663 222.5 644Q203 625 196 593Q189 561 189 512V382Q189 328 175.5 295.5Q162 263 125 249Q163 235 176 202.5Q189 170 189 116V-12Q189 -61 196 -93Q203 -125 222.5 -144Q242 -163 276 -170.5Q310 -178 363 -178V-230Z" glyph-name="braceleft" horiz-adv-x="405" unicode="{" /><glyph d="M352 -120Q289 -120 247 -109Q205 -98 179.5 -72.5Q154 -47 143 -5.5Q132 36 132 97V225Q132 254 129 274.5Q126 295 116.5 307.5Q107 320 88.5 325.5Q70 331 38 331V386Q70 386 88.5 392Q107 398 116.5 410.5Q126 423 129 443.5Q132 464 132 493V623Q132 684 143 725.5Q154 767 179.5 792.5Q205 818 247 829Q289 840 352 840H363V788Q310 788 276 780.5Q242 773 222.5 754Q203 735 196 703Q189 671 189 622V492Q189 438 175.5 405.5Q162 373 125 359Q163 345 176 312.5Q189 280 189 226V98Q189 49 196 17Q203 -15 222.5 -34Q242 -53 276 -60.5Q310 -68 363 -68V-120Z" glyph-name="braceleft.cap" horiz-adv-x="405" unicode="&#58517;" /><glyph d="M312 -98Q261 -98 226.5 -89Q192 -80 171 -59.5Q150 -39 141 -5Q132 29 132 79V179Q132 203 129.5 219.5Q127 236 119 246.5Q111 257 96 261.5Q81 266 55 266V319Q81 319 96 323.5Q111 328 119 338.5Q127 349 129.5 365.5Q132 382 132 406V509Q132 559 141 593Q150 627 171 647.5Q192 668 226.5 677Q261 686 312 686H321V634Q280 634 254 628Q228 622 213.5 608Q199 594 193.5 569.5Q188 545 188 508V405Q188 360 176 332.5Q164 305 133 293Q165 281 176.5 253Q188 225 188 180V80Q188 43 193.5 18.5Q199 -6 213.5 -20.5Q228 -35 254 -40.5Q280 -46 321 -46V-98Z" glyph-name="braceleft.smcp" horiz-adv-x="375" unicode="&#58525;" /><glyph d="M43 -177Q96 -177 130 -169.5Q164 -162 183.5 -143.5Q203 -125 210 -93Q217 -61 217 -12V116Q217 170 229.5 202.5Q242 235 280 249Q244 263 230.5 295.5Q217 328 217 382V512Q217 561 210 593Q203 625 183.5 643.5Q164 662 130 669.5Q96 677 43 677V730H54Q117 730 159 719Q201 708 226.5 682.5Q252 657 263 615.5Q274 574 274 513V383Q274 354 277 333.5Q280 313 289.5 300.5Q299 288 318 282Q337 276 368 276V221Q337 221 318 215.5Q299 210 289.5 197.5Q280 185 277 164.5Q274 144 274 115V-13Q274 -74 263 -115.5Q252 -157 226.5 -182.5Q201 -208 159 -219Q117 -230 54 -230H43Z" glyph-name="braceright" horiz-adv-x="405" unicode="}" /><glyph d="M43 -67Q96 -67 130 -59.5Q164 -52 183.5 -33.5Q203 -15 210 17Q217 49 217 98V226Q217 280 229.5 312.5Q242 345 280 359Q244 373 230.5 405.5Q217 438 217 492V622Q217 671 210 703Q203 735 183.5 753.5Q164 772 130 779.5Q96 787 43 787V840H54Q117 840 159 829Q201 818 226.5 792.5Q252 767 263 725.5Q274 684 274 623V493Q274 464 277 443.5Q280 423 289.5 410.5Q299 398 318 392Q337 386 368 386V331Q337 331 318 325.5Q299 320 289.5 307.5Q280 295 277 274.5Q274 254 274 225V97Q274 36 263 -5.5Q252 -47 226.5 -72.5Q201 -98 159 -109Q117 -120 54 -120H43Z" glyph-name="braceright.cap" horiz-adv-x="405" unicode="&#58518;" /><glyph d="M55 -45Q96 -45 121.5 -39.5Q147 -34 161.5 -20Q176 -6 181.5 18.5Q187 43 187 80V180Q187 226 198 253.5Q209 281 241 293Q210 305 198.5 332.5Q187 360 187 405V508Q187 545 181.5 569Q176 593 161.5 607.5Q147 622 121.5 627.5Q96 633 55 633V686H64Q115 686 149.5 677Q184 668 205 647.5Q226 627 235 593Q244 559 244 509V406Q244 382 246.5 365.5Q249 349 257 338.5Q265 328 280 323.5Q295 319 321 319V266Q295 266 280 261.5Q265 257 257 246.5Q249 236 246.5 219.5Q244 203 244 179V79Q244 29 235 -5Q226 -39 205 -59.5Q184 -80 149.5 -89Q115 -98 64 -98H55Z" glyph-name="braceright.smcp" horiz-adv-x="375" unicode="&#58526;" /><glyph d="M53 730H326V676H111V-176H326V-230H53Z" glyph-name="bracketleft" horiz-adv-x="378" unicode="[" /><glyph d="M53 840H326V786H111V-66H326V-120H53Z" glyph-name="bracketleft.cap" horiz-adv-x="378" unicode="&#58515;" /><glyph d="M66 686H289V631H123V-44H289V-98H66Z" glyph-name="bracketleft.smcp" horiz-adv-x="343" unicode="&#58523;" /><glyph d="M53 -177H268V676H53V730H326V-230H53Z" glyph-name="bracketright" horiz-adv-x="378" unicode="]" /><glyph d="M53 -67H268V786H53V840H326V-120H53Z" glyph-name="bracketright.cap" horiz-adv-x="378" unicode="&#58516;" /><glyph d="M55 -44H219V631H55V686H277V-98H55Z" glyph-name="bracketright.smcp" horiz-adv-x="343" unicode="&#58524;" /><glyph d="M250 558Q209 558 178.5 571Q148 584 128 605.5Q108 627 98.5 655.5Q89 684 89 715H138Q138 668 166 635Q194 602 250 602Q304 602 332.5 635Q361 668 361 715H412Q412 684 401 655.5Q390 627 369 605.5Q348 584 318 571Q288 558 250 558Z" glyph-name="breve" horiz-adv-x="502" unicode="&#728;" /><glyph d="M66 730H124V310H66ZM66 190H124V-230H66Z" glyph-name="brokenbar" horiz-adv-x="217" unicode="&#166;" /><glyph d="M66 840H124V420H66ZM66 300H124V-120H66Z" glyph-name="brokenbar.cap" horiz-adv-x="216" unicode="&#58469;" /><glyph d="M153 191Q128 191 110.5 208.5Q93 226 93 251Q93 276 110.5 293.5Q128 311 153 311Q178 311 195.5 293.5Q213 276 213 251Q213 226 195.5 208.5Q178 191 153 191Z" glyph-name="bullet" horiz-adv-x="305" unicode="&#8226;" /><glyph d="M153 303Q128 303 110.5 320.5Q93 338 93 363Q93 388 110.5 405.5Q128 423 153 423Q178 423 195.5 405.5Q213 388 213 363Q213 338 195.5 320.5Q178 303 153 303Z" glyph-name="bullet.cap" horiz-adv-x="305" unicode="&#58470;" /><glyph d="M464 -10Q386 -10 318 19.5Q250 49 199 100Q148 151 118.5 219Q89 287 89 365Q89 443 118.5 511Q148 579 199 630Q250 681 318 710.5Q386 740 464 740Q542 740 610 710.5Q678 681 729 630Q780 579 809.5 511Q839 443 839 365Q839 287 809.5 219Q780 151 729 100Q678 49 610 19.5Q542 -10 464 -10ZM464 45Q531 45 588.5 70.5Q646 96 688.5 139.5Q731 183 755.5 241Q780 299 780 365Q780 431 755.5 489.5Q731 548 688.5 591.5Q646 635 588.5 660Q531 685 464 685Q397 685 339.5 660Q282 635 239.5 591.5Q197 548 172.5 489.5Q148 431 148 365Q148 299 172.5 241Q197 183 239.5 139.5Q282 96 339.5 70.5Q397 45 464 45ZM464 150Q420 150 381 166.5Q342 183 313 212Q284 241 267.5 280Q251 319 251 364Q251 409 267.5 448Q284 487 313 516Q342 545 381 561.5Q420 578 464 578Q509 578 548 561.5Q587 545 616 516Q645 487 661.5 448Q678 409 678 364Q678 319 661.5 280Q645 241 616 212Q587 183 548 166.5Q509 150 464 150ZM464 204Q497 204 526 216.5Q555 229 576 250.5Q597 272 609.5 301Q622 330 622 364Q622 398 609.5 427Q597 456 576 477.5Q555 499 526 511.5Q497 524 464 524Q431 524 402.5 511.5Q374 499 353 477.5Q332 456 320 427Q308 398 308 364Q308 330 320 301Q332 272 353 250.5Q374 229 402.5 216.5Q431 204 464 204ZM411 365Q411 388 426 403.5Q441 419 464 419Q487 419 502.5 403.5Q518 388 518 365Q518 342 502.5 327Q487 312 464 312Q441 312 426 327Q411 342 411 365Z" glyph-name="bullseye" horiz-adv-x="927" unicode="&#9678;" /><glyph d="M365 -12Q300 -12 244 12Q188 36 147 77Q106 118 82.5 173.5Q59 229 59 292Q59 357 83 412.5Q107 468 148 509Q189 550 244.5 573.5Q300 597 364 597Q412 597 455 584Q498 571 534 547Q570 523 597.5 490Q625 457 641 417L588 395Q559 464 500.5 504Q442 544 364 544Q312 544 266.5 524.5Q221 505 188 470.5Q155 436 136 390.5Q117 345 117 292Q117 240 136 194Q155 148 188.5 114Q222 80 267.5 60.5Q313 41 366 41Q447 41 504.5 84Q562 127 590 195L644 172Q627 132 600 98Q573 64 537.5 39.5Q502 15 458.5 1.5Q415 -12 365 -12Z" glyph-name="c" horiz-adv-x="697" unicode="c" /><glyph d="M357 -9Q291 -9 235 15.5Q179 40 138 81.5Q97 123 73.5 179Q50 235 50 298Q50 362 74 418Q98 474 139.5 515Q181 556 236.5 580Q292 604 355 604Q398 604 438 592.5Q478 581 512.5 560.5Q547 540 575.5 511Q604 482 623 447L572 421Q541 478 484.5 514.5Q428 551 356 551Q303 551 257.5 531Q212 511 179 476.5Q146 442 127 396Q108 350 108 298Q108 246 127.5 199.5Q147 153 180.5 119Q214 85 259 65Q304 45 355 45Q433 45 489.5 84Q546 123 577 185L630 161Q590 84 519 37.5Q448 -9 357 -9Z" glyph-name="c.smcp" horiz-adv-x="661" unicode="&#57859;" /><glyph d="M449 815H524L384 660H330ZM365 -12Q300 -12 244 12Q188 36 147 77Q106 118 82.5 173.5Q59 229 59 292Q59 357 83 412.5Q107 468 148 509Q189 550 244.5 573.5Q300 597 364 597Q412 597 455 584Q498 571 534 547Q570 523 597.5 490Q625 457 641 417L588 395Q559 464 500.5 504Q442 544 364 544Q312 544 266.5 524.5Q221 505 188 470.5Q155 436 136 390.5Q117 345 117 292Q117 240 136 194Q155 148 188.5 114Q222 80 267.5 60.5Q313 41 366 41Q447 41 504.5 84Q562 127 590 195L644 172Q627 132 600 98Q573 64 537.5 39.5Q502 15 458.5 1.5Q415 -12 365 -12Z" glyph-name="cacute" horiz-adv-x="697" unicode="&#263;" /><glyph d="M445 816H520L380 661H326ZM357 -9Q291 -9 235 15.5Q179 40 138 81.5Q97 123 73.5 179Q50 235 50 298Q50 362 74 418Q98 474 139.5 515Q181 556 236.5 580Q292 604 355 604Q398 604 438 592.5Q478 581 512.5 560.5Q547 540 575.5 511Q604 482 623 447L572 421Q541 478 484.5 514.5Q428 551 356 551Q303 551 257.5 531Q212 511 179 476.5Q146 442 127 396Q108 350 108 298Q108 246 127.5 199.5Q147 153 180.5 119Q214 85 259 65Q304 45 355 45Q433 45 489.5 84Q546 123 577 185L630 161Q590 84 519 37.5Q448 -9 357 -9Z" glyph-name="cacute.smcp" horiz-adv-x="661" unicode="&#57908;" /><glyph d="M110 720H169L250 606L334 720H393L275 565H227Z" glyph-name="caron" horiz-adv-x="502" unicode="&#711;" /><glyph d="M257 723H312L249 551H208Z" glyph-name="caronSlovak" horiz-adv-x="502" unicode="&#58387;" /><glyph d="M365 -12Q300 -12 244 12Q188 36 147 77Q106 118 82.5 173.5Q59 229 59 292Q59 357 83 412.5Q107 468 148 509Q189 550 244.5 573.5Q300 597 364 597Q412 597 455 584Q498 571 534 547Q570 523 597.5 490Q625 457 641 417L588 395Q559 464 500.5 504Q442 544 364 544Q312 544 266.5 524.5Q221 505 188 470.5Q155 436 136 390.5Q117 345 117 292Q117 240 136 194Q155 148 188.5 114Q222 80 267.5 60.5Q313 41 366 41Q447 41 504.5 84Q562 127 590 195L644 172Q627 132 600 98Q573 64 537.5 39.5Q502 15 458.5 1.5Q415 -12 365 -12ZM225 815H284L365 701L449 815H508L390 660H342Z" glyph-name="ccaron" horiz-adv-x="697" unicode="&#269;" /><glyph d="M357 -9Q291 -9 235 15.5Q179 40 138 81.5Q97 123 73.5 179Q50 235 50 298Q50 362 74 418Q98 474 139.5 515Q181 556 236.5 580Q292 604 355 604Q398 604 438 592.5Q478 581 512.5 560.5Q547 540 575.5 511Q604 482 623 447L572 421Q541 478 484.5 514.5Q428 551 356 551Q303 551 257.5 531Q212 511 179 476.5Q146 442 127 396Q108 350 108 298Q108 246 127.5 199.5Q147 153 180.5 119Q214 85 259 65Q304 45 355 45Q433 45 489.5 84Q546 123 577 185L630 161Q590 84 519 37.5Q448 -9 357 -9ZM218 816H277L358 702L442 816H501L383 661H335Z" glyph-name="ccaron.smcp" horiz-adv-x="661" unicode="&#57910;" /><glyph d="M359 -233Q312 -233 278.5 -218Q245 -203 220 -180L266 -152Q286 -169 306 -179.5Q326 -190 359 -190Q394 -190 416.5 -176Q439 -162 439 -140Q439 -120 417.5 -108Q396 -96 356 -96H323V-9Q266 -2 217.5 24.5Q169 51 133.5 91Q98 131 78.5 182.5Q59 234 59 292Q59 357 83 412.5Q107 468 148 509Q189 550 244.5 573.5Q300 597 364 597Q412 597 455 584Q498 571 534 547Q570 523 597.5 490Q625 457 641 417L588 395Q559 464 500.5 504Q442 544 364 544Q312 544 266.5 524.5Q221 505 188 470.5Q155 436 136 390.5Q117 345 117 292Q117 240 136 194Q155 148 188.5 114Q222 80 267.5 60.5Q313 41 366 41Q447 41 504.5 84Q562 127 590 195L644 172Q627 132 600.5 99Q574 66 539.5 41.5Q505 17 462.5 3Q420 -11 372 -12V-59Q426 -60 459.5 -81.5Q493 -103 493 -138Q493 -159 482.5 -176.5Q472 -194 454 -206.5Q436 -219 411.5 -226Q387 -233 359 -233Z" glyph-name="ccedilla" horiz-adv-x="697" unicode="&#231;" /><glyph d="M353 -229Q306 -229 272.5 -214Q239 -199 214 -176L260 -148Q280 -165 300 -175.5Q320 -186 353 -186Q388 -186 410.5 -172Q433 -158 433 -136Q433 -116 411.5 -104Q390 -92 350 -92H317V-6Q259 1 210 27.5Q161 54 125.5 95Q90 136 70 188Q50 240 50 298Q50 362 74 418Q98 474 139.5 515Q181 556 236.5 580Q292 604 355 604Q398 604 438 592.5Q478 581 512.5 560.5Q547 540 575.5 511Q604 482 623 447L572 421Q541 478 484.5 514.5Q428 551 356 551Q303 551 257.5 531Q212 511 179 476.5Q146 442 127 396Q108 350 108 298Q108 246 127.5 199.5Q147 153 180.5 119Q214 85 259 65Q304 45 355 45Q433 45 489.5 84Q546 123 577 185L630 161Q591 86 522.5 40Q454 -6 366 -9V-55Q420 -56 453.5 -77.5Q487 -99 487 -134Q487 -155 476.5 -172.5Q466 -190 448 -202.5Q430 -215 405.5 -222Q381 -229 353 -229Z" glyph-name="ccedilla.smcp" horiz-adv-x="661" unicode="&#57912;" /><glyph d="M365 -12Q300 -12 244 12Q188 36 147 77Q106 118 82.5 173.5Q59 229 59 292Q59 357 83 412.5Q107 468 148 509Q189 550 244.5 573.5Q300 597 364 597Q412 597 455 584Q498 571 534 547Q570 523 597.5 490Q625 457 641 417L588 395Q559 464 500.5 504Q442 544 364 544Q312 544 266.5 524.5Q221 505 188 470.5Q155 436 136 390.5Q117 345 117 292Q117 240 136 194Q155 148 188.5 114Q222 80 267.5 60.5Q313 41 366 41Q447 41 504.5 84Q562 127 590 195L644 172Q627 132 600 98Q573 64 537.5 39.5Q502 15 458.5 1.5Q415 -12 365 -12ZM340 811H389L508 656H447L364 766L281 656H221Z" glyph-name="ccircumflex" horiz-adv-x="697" unicode="&#265;" /><glyph d="M357 -9Q291 -9 235 15.5Q179 40 138 81.5Q97 123 73.5 179Q50 235 50 298Q50 362 74 418Q98 474 139.5 515Q181 556 236.5 580Q292 604 355 604Q398 604 438 592.5Q478 581 512.5 560.5Q547 540 575.5 511Q604 482 623 447L572 421Q541 478 484.5 514.5Q428 551 356 551Q303 551 257.5 531Q212 511 179 476.5Q146 442 127 396Q108 350 108 298Q108 246 127.5 199.5Q147 153 180.5 119Q214 85 259 65Q304 45 355 45Q433 45 489.5 84Q546 123 577 185L630 161Q590 84 519 37.5Q448 -9 357 -9ZM335 813H384L503 658H442L359 768L276 658H216Z" glyph-name="ccircumflex.smcp" horiz-adv-x="661" unicode="&#57909;" /><glyph d="M365 -12Q300 -12 244 12Q188 36 147 77Q106 118 82.5 173.5Q59 229 59 292Q59 357 83 412.5Q107 468 148 509Q189 550 244.5 573.5Q300 597 364 597Q412 597 455 584Q498 571 534 547Q570 523 597.5 490Q625 457 641 417L588 395Q559 464 500.5 504Q442 544 364 544Q312 544 266.5 524.5Q221 505 188 470.5Q155 436 136 390.5Q117 345 117 292Q117 240 136 194Q155 148 188.5 114Q222 80 267.5 60.5Q313 41 366 41Q447 41 504.5 84Q562 127 590 195L644 172Q627 132 600 98Q573 64 537.5 39.5Q502 15 458.5 1.5Q415 -12 365 -12ZM315 706Q315 727 329 740.5Q343 754 364 754Q387 754 400 740.5Q413 727 413 706Q413 685 400 671Q387 657 364 657Q341 657 328 671Q315 685 315 706Z" glyph-name="cdotaccent" horiz-adv-x="697" unicode="&#267;" /><glyph d="M357 -9Q291 -9 235 15.5Q179 40 138 81.5Q97 123 73.5 179Q50 235 50 298Q50 362 74 418Q98 474 139.5 515Q181 556 236.5 580Q292 604 355 604Q398 604 438 592.5Q478 581 512.5 560.5Q547 540 575.5 511Q604 482 623 447L572 421Q541 478 484.5 514.5Q428 551 356 551Q303 551 257.5 531Q212 511 179 476.5Q146 442 127 396Q108 350 108 298Q108 246 127.5 199.5Q147 153 180.5 119Q214 85 259 65Q304 45 355 45Q433 45 489.5 84Q546 123 577 185L630 161Q590 84 519 37.5Q448 -9 357 -9ZM311 746Q311 767 325 780.5Q339 794 360 794Q383 794 396 780.5Q409 767 409 746Q409 725 396 711Q383 697 360 697Q337 697 324 711Q311 725 311 746Z" glyph-name="cdotaccent.smcp" horiz-adv-x="661" unicode="&#57911;" /><glyph d="M248 -227Q201 -227 167.5 -212Q134 -197 109 -174L155 -146Q175 -163 195 -173.5Q215 -184 248 -184Q283 -184 305.5 -170Q328 -156 328 -134Q328 -114 306.5 -102Q285 -90 245 -90H212V0H261V-53Q315 -54 348.5 -75.5Q382 -97 382 -132Q382 -153 371.5 -170.5Q361 -188 343 -200.5Q325 -213 300.5 -220Q276 -227 248 -227Z" glyph-name="cedilla" horiz-adv-x="502" unicode="&#184;" /><glyph d="M277 -8Q228 -3 187 17.5Q146 38 116.5 71.5Q87 105 70.5 150Q54 195 54 250Q54 306 71 351Q88 396 118 429.5Q148 463 189 483Q230 503 277 508V630H335V508Q406 501 461 461Q516 421 539 355L487 333Q465 395 417.5 426.5Q370 458 307 458Q266 458 230.5 443.5Q195 429 168.5 402Q142 375 127 336.5Q112 298 112 250Q112 202 127 163.5Q142 125 168.5 98Q195 71 231 56.5Q267 42 309 42Q375 42 422.5 76.5Q470 111 490 171L543 149Q518 80 464 39Q410 -2 335 -9V-130H277Z" glyph-name="cent" horiz-adv-x="588" unicode="&#162;" /><glyph d="M280 -8Q230 -3 188 19Q146 41 115.5 75.5Q85 110 68 154.5Q51 199 51 250Q51 301 68.5 345.5Q86 390 117 424Q148 458 189.5 480Q231 502 280 508V630H339V508Q412 501 467.5 460.5Q523 420 549 357L496 335Q471 392 424 424.5Q377 457 312 457Q270 457 233 441Q196 425 168.5 397Q141 369 125.5 331Q110 293 110 250Q110 206 125.5 168Q141 130 168.5 102.5Q196 75 233 59Q270 43 313 43Q380 43 427 78.5Q474 114 497 169L550 147Q522 83 468 41Q414 -1 339 -8V-130H280Z" glyph-name="cent.LP" horiz-adv-x="602" unicode="&#58659;" /><glyph d="M277 -8Q228 -3 187 17.5Q146 38 116.5 71.5Q87 105 70.5 150Q54 195 54 250Q54 306 71 351Q88 396 118 429.5Q148 463 189 483Q230 503 277 508V630H335V508Q406 501 461 461Q516 421 539 355L487 333Q465 395 417.5 426.5Q370 458 307 458Q266 458 230.5 443.5Q195 429 168.5 402Q142 375 127 336.5Q112 298 112 250Q112 202 127 163.5Q142 125 168.5 98Q195 71 231 56.5Q267 42 309 42Q375 42 422.5 76.5Q470 111 490 171L543 149Q518 80 464 39Q410 -2 335 -9V-130H277Z" glyph-name="cent.LT" horiz-adv-x="588" unicode="&#62564;" /><glyph d="M227 720H276L395 565H334L251 675L168 565H108Z" glyph-name="circumflex" horiz-adv-x="502" unicode="&#710;" /><glyph d="M336 0Q345 17 358.5 43Q372 69 386 101Q400 133 411.5 170.5Q423 208 427 248Q406 196 362 163Q318 130 260 130Q223 130 191 144Q159 158 135 182Q111 206 97 238Q83 270 83 307Q83 344 97 376Q111 408 135 432Q159 456 191 470Q223 484 260 484Q271 484 281.5 482Q292 480 302 477Q283 518 283 564Q283 600 296.5 632Q310 664 334 688Q358 712 390 726Q422 740 458 740Q494 740 526 726Q558 712 582 688Q606 664 620 632Q634 600 634 564Q634 519 615 476Q637 484 661 484Q698 484 730 470Q762 456 786 432Q810 408 823.5 376Q837 344 837 307Q837 270 823 238Q809 206 785 182Q761 158 729 144Q697 130 660 130Q602 130 559.5 163Q517 196 497 247Q502 208 514.5 170.5Q527 133 542 101Q557 69 571.5 43Q586 17 595 0Z" glyph-name="club" horiz-adv-x="920" unicode="&#9827;" /><glyph d="M47 39Q47 60 61 73.5Q75 87 96 87Q119 87 132 73.5Q145 60 145 39Q145 18 132 4Q119 -10 96 -10Q73 -10 60 4Q47 18 47 39ZM47 457Q47 478 61 491.5Q75 505 96 505Q119 505 132 491.5Q145 478 145 457Q145 436 132 422Q119 408 96 408Q73 408 60 422Q47 436 47 457Z" glyph-name="colon" horiz-adv-x="190" unicode=":" /><glyph d="M118 137H175V0H118ZM118 500H175V363H118Z" glyph-name="colon.T" horiz-adv-x="294" unicode="&#61828;" /><glyph d="M75 87H138L78 -117H32Z" glyph-name="comma" horiz-adv-x="191" unicode="," /><glyph d="M130 87H193L133 -117H87Z" glyph-name="comma.T" horiz-adv-x="294" unicode="&#61827;" /><glyph d="M194 -249 237 -45H292L234 -249Z" glyph-name="commaaccent" horiz-adv-x="506" unicode="&#58388;" /><glyph d="M429 -10Q351 -10 283 19.5Q215 49 164 100Q113 151 83.5 219Q54 287 54 365Q54 443 83.5 511Q113 579 164 630Q215 681 283 710.5Q351 740 429 740Q507 740 575 710.5Q643 681 694 630Q745 579 774.5 511Q804 443 804 365Q804 287 774.5 219Q745 151 694 100Q643 49 575 19.5Q507 -10 429 -10ZM429 41Q497 41 555 66.5Q613 92 656 136Q699 180 723.5 239Q748 298 748 365Q748 432 723.5 491Q699 550 656 594Q613 638 555 663.5Q497 689 429 689Q362 689 303.5 663.5Q245 638 202 594Q159 550 134.5 491Q110 432 110 365Q110 298 134.5 239Q159 180 202 136Q245 92 303.5 66.5Q362 41 429 41ZM433 167Q391 167 354.5 182.5Q318 198 291.5 225Q265 252 249.5 288Q234 324 234 365Q234 406 249.5 442Q265 478 292 505Q319 532 355 547.5Q391 563 433 563Q488 563 533.5 536Q579 509 604 467L555 436Q538 468 506 488.5Q474 509 432 509Q403 509 377 497.5Q351 486 331.5 466.5Q312 447 300.5 421Q289 395 289 365Q289 335 300.5 308.5Q312 282 331.5 262.5Q351 243 377 231.5Q403 220 432 220Q476 220 509 242Q542 264 558 299L608 271Q584 225 537 196Q490 167 433 167Z" glyph-name="copyright" horiz-adv-x="858" unicode="&#169;" /><glyph d="M294 -10Q185 -10 125.5 52.5Q66 115 66 223V501Q66 554 82.5 598Q99 642 129 673.5Q159 705 201 722.5Q243 740 294 740Q346 740 388 722Q430 704 460 672.5Q490 641 506 597Q522 553 522 501V219Q522 110 461 50Q400 -10 294 -10ZM293 43Q374 43 419 89.5Q464 136 464 219V501Q464 589 419.5 638Q375 687 295 687Q214 687 169 636.5Q124 586 124 501V223Q124 138 168 90.5Q212 43 293 43ZM296 114Q248 114 219.5 141.5Q191 169 191 217V513Q191 561 220.5 589.5Q250 618 296 618Q343 618 371 589Q399 560 399 513V421H341V510Q341 531 328.5 543.5Q316 556 296 556Q276 556 263 543.5Q250 531 250 510V215Q250 193 263 181.5Q276 170 296 170Q316 170 328.5 181.5Q341 193 341 215V317H399V217Q399 169 370 141.5Q341 114 296 114Z" glyph-name="copyright.LT" horiz-adv-x="588" unicode="&#62565;" /><glyph d="M210 435Q179 435 151.5 447Q124 459 104 479Q84 499 72 526.5Q60 554 60 585Q60 617 72 644.5Q84 672 104 692Q124 712 151.5 724Q179 736 210 736Q255 736 290 713.5Q325 691 344 656L305 634Q292 660 267 676.5Q242 693 210 693Q188 693 168.5 684.5Q149 676 134.5 661.5Q120 647 112 627.5Q104 608 104 585Q104 563 112 543.5Q120 524 134.5 509.5Q149 495 168.5 486.5Q188 478 210 478Q245 478 269.5 495Q294 512 307 540L347 520Q328 482 292.5 458.5Q257 435 210 435Z" glyph-name="cordinal" horiz-adv-x="405" unicode="&#57729;" /><glyph d="M210 435Q179 435 151.5 447Q124 459 104 479Q84 499 72 526.5Q60 554 60 585Q60 617 72 644.5Q84 672 104 692Q124 712 151.5 724Q179 736 210 736Q255 736 290 713.5Q325 691 344 656L305 634Q292 660 267 676.5Q242 693 210 693Q188 693 168.5 684.5Q149 676 134.5 661.5Q120 647 112 627.5Q104 608 104 585Q104 563 112 543.5Q120 524 134.5 509.5Q149 495 168.5 486.5Q188 478 210 478Q245 478 269.5 495Q294 512 307 540L347 520Q328 482 292.5 458.5Q257 435 210 435Z" glyph-name="cordinal.smcp" horiz-adv-x="405" unicode="&#58195;" /><glyph d="M391 102Q344 102 302.5 117Q261 132 227 159L134 62L99 97L192 194Q163 228 147.5 270.5Q132 313 132 362Q132 410 147.5 453Q163 496 192 530L99 627L133 662L227 564Q260 591 301.5 606.5Q343 622 391 622Q437 622 478.5 607Q520 592 553 565L641 657L675 622L588 532Q617 497 634 454Q651 411 651 362Q651 312 634 268.5Q617 225 587 191L674 102L639 67L551 157Q518 131 477.5 116.5Q437 102 391 102ZM391 154Q433 154 470 170.5Q507 187 534.5 215Q562 243 577.5 281Q593 319 593 362Q593 405 577.5 443Q562 481 534.5 509Q507 537 470 553.5Q433 570 391 570Q349 570 312 553.5Q275 537 248 509Q221 481 205.5 443Q190 405 190 362Q190 319 205.5 281Q221 243 248 215Q275 187 312 170.5Q349 154 391 154Z" glyph-name="currency" horiz-adv-x="773" unicode="&#164;" /><glyph d="M361 -12Q297 -12 241.5 12Q186 36 145.5 77.5Q105 119 82 174Q59 229 59 292Q59 355 82 410.5Q105 466 145.5 507.5Q186 549 241.5 573Q297 597 361 597Q397 597 433 587.5Q469 578 501 559.5Q533 541 560 514.5Q587 488 605 453V740H661V0H606V134Q589 99 562 71.5Q535 44 502.5 25.5Q470 7 433.5 -2.5Q397 -12 361 -12ZM363 41Q416 41 461 60.5Q506 80 540 114Q574 148 593 194Q612 240 612 292Q612 344 593 390Q574 436 540 470Q506 504 461 524Q416 544 363 544Q312 544 267 524.5Q222 505 188.5 470.5Q155 436 136 390.5Q117 345 117 292Q117 240 136 194Q155 148 188.5 114Q222 80 267 60.5Q312 41 363 41Z" glyph-name="d" horiz-adv-x="747" unicode="d" /><glyph d="M72 596H239Q307 596 364 573Q421 550 462 510Q503 470 525.5 415.5Q548 361 548 298Q548 234 524.5 179.5Q501 125 460 85Q419 45 362.5 22.5Q306 0 241 0H72ZM129 543V54H236Q291 54 337.5 72.5Q384 91 417.5 124Q451 157 470 201.5Q489 246 489 298Q489 351 471 395.5Q453 440 419.5 473Q386 506 339 524.5Q292 543 234 543Z" glyph-name="d.smcp" horiz-adv-x="598" unicode="&#57860;" /><glyph d="M66 500H262V730H320V500H519V449H320V0H262V449H66Z" glyph-name="dagger" horiz-adv-x="585" unicode="&#8224;" /><glyph d="M66 519H262V730H320V519H519V468H320V269H519V219H320V0H262V219H66V269H262V468H66Z" glyph-name="daggerdbl" horiz-adv-x="585" unicode="&#8225;" /><glyph d="M361 -12Q297 -12 241.5 12Q186 36 145.5 77.5Q105 119 82 174Q59 229 59 292Q59 355 82 410.5Q105 466 145.5 507.5Q186 549 241.5 573Q297 597 361 597Q397 597 433 587.5Q469 578 501 559.5Q533 541 560 514.5Q587 488 605 453V740H661V0H606V134Q589 99 562 71.5Q535 44 502.5 25.5Q470 7 433.5 -2.5Q397 -12 361 -12ZM363 41Q416 41 461 60.5Q506 80 540 114Q574 148 593 194Q612 240 612 292Q612 344 593 390Q574 436 540 470Q506 504 461 524Q416 544 363 544Q312 544 267 524.5Q222 505 188.5 470.5Q155 436 136 390.5Q117 345 117 292Q117 240 136 194Q155 148 188.5 114Q222 80 267 60.5Q312 41 363 41ZM759 740H814L751 568H710Z" glyph-name="dcaron" horiz-adv-x="754" unicode="&#271;" /><glyph d="M72 596H239Q307 596 364 573Q421 550 462 510Q503 470 525.5 415.5Q548 361 548 298Q548 234 524.5 179.5Q501 125 460 85Q419 45 362.5 22.5Q306 0 241 0H72ZM129 543V54H236Q291 54 337.5 72.5Q384 91 417.5 124Q451 157 470 201.5Q489 246 489 298Q489 351 471 395.5Q453 440 419.5 473Q386 506 339 524.5Q292 543 234 543ZM127 816H186L267 702L351 816H410L292 661H244Z" glyph-name="dcaron.smcp" horiz-adv-x="598" unicode="&#57913;" /><glyph d="M497 674H605V740H661V674H728V625H661V0H606V134Q589 99 562 71.5Q535 44 502.5 25.5Q470 7 433.5 -2.5Q397 -12 361 -12Q297 -12 241.5 12Q186 36 145.5 77.5Q105 119 82 174Q59 229 59 292Q59 355 82 410.5Q105 466 145.5 507.5Q186 549 241.5 573Q297 597 361 597Q397 597 433 587.5Q469 578 501 559.5Q533 541 560 514.5Q587 488 605 453V625H497ZM363 41Q416 41 461 60.5Q506 80 540 114Q574 148 593 194Q612 240 612 292Q612 344 593 390Q574 436 540 470Q506 504 461 524Q416 544 363 544Q312 544 267 524.5Q222 505 188.5 470.5Q155 436 136 390.5Q117 345 117 292Q117 240 136 194Q155 148 188.5 114Q222 80 267 60.5Q312 41 363 41Z" glyph-name="dcroat" horiz-adv-x="760" unicode="&#273;" /><glyph d="M27 324H94V596H260Q329 596 385.5 573Q442 550 483 510Q524 470 546.5 415.5Q569 361 569 298Q569 234 545.5 179.5Q522 125 481 85Q440 45 384 22.5Q328 0 262 0H94V273H27ZM150 273V54H258Q313 54 359.5 72.5Q406 91 439.5 124Q473 157 492 201.5Q511 246 511 298Q511 351 493 395.5Q475 440 441.5 473Q408 506 361 524.5Q314 543 256 543H150V324H304V273Z" glyph-name="dcroat.smcp" horiz-adv-x="619" unicode="&#57916;" /><glyph d="M217 517Q194 517 173.5 526Q153 535 138 550Q123 565 114 585.5Q105 606 105 629Q105 652 114 672Q123 692 138 707Q153 722 173.5 731Q194 740 217 740Q240 740 260.5 731Q281 722 296 707Q311 692 319.5 672Q328 652 328 629Q328 606 319.5 585.5Q311 565 296 550Q281 535 260.5 526Q240 517 217 517ZM217 565Q243 565 261.5 583.5Q280 602 280 628Q280 654 261.5 672.5Q243 691 217 691Q191 691 172.5 672.5Q154 654 154 628Q154 602 172.5 583.5Q191 565 217 565Z" glyph-name="degree" horiz-adv-x="433" unicode="&#176;" /><glyph d="M460 791 787 390 460 -10 133 390Z" glyph-name="diamond" horiz-adv-x="920" unicode="&#9830;" /><glyph d="M119 650Q119 669 131.5 681Q144 693 163 693Q183 693 194.5 681Q206 669 206 650Q206 631 194.5 618.5Q183 606 163 606Q143 606 131 618.5Q119 631 119 650ZM287 650Q287 669 299.5 681Q312 693 331 693Q351 693 362.5 681Q374 669 374 650Q374 631 362.5 618.5Q351 606 331 606Q311 606 299 618.5Q287 631 287 650Z" glyph-name="dieresis" horiz-adv-x="506" unicode="&#168;" /><glyph d="M53 390H423V340H53ZM213 566H263V444H213ZM213 284H263V163H213Z" glyph-name="divide" horiz-adv-x="475" unicode="&#247;" /><glyph d="M540 196Q540 157 524.5 121.5Q509 86 481 58.5Q453 31 413.5 13Q374 -5 326 -9V-120H269V-9Q191 -4 135 26.5Q79 57 40 104L84 145Q116 103 161 76Q206 49 269 44V365Q232 377 195 391Q158 405 129 427Q100 449 81.5 480Q63 511 63 556Q63 595 78 627.5Q93 660 120 684Q147 708 185 722Q223 736 269 739V840H326V738Q399 732 447 703Q495 674 527 632L481 597Q457 632 420 656.5Q383 681 326 688V402Q364 390 402.5 375Q441 360 471.5 336.5Q502 313 521 279.5Q540 246 540 196ZM481 195Q481 228 468 252Q455 276 433.5 293.5Q412 311 384 323.5Q356 336 326 346V44Q395 52 438 92.5Q481 133 481 195ZM122 556Q122 527 134 506Q146 485 166.5 469Q187 453 213.5 441.5Q240 430 269 420V689Q204 684 163 648.5Q122 613 122 556Z" glyph-name="dollar" horiz-adv-x="588" unicode="$" /><glyph d="M508 196Q508 157 494 122Q480 87 454.5 59.5Q429 32 392 14Q355 -4 308 -8V-120H253V-9Q185 -4 129.5 28Q74 60 38 109L86 146Q114 103 158.5 76Q203 49 254 44V364Q218 376 183.5 389.5Q149 403 122.5 424.5Q96 446 79.5 477.5Q63 509 63 556Q63 594 77.5 626Q92 658 117.5 682Q143 706 178 720.5Q213 735 253 739V840H308V739Q371 734 415 708Q459 682 492 640L446 605Q421 640 387.5 661.5Q354 683 308 688V403Q345 391 380.5 376Q416 361 444.5 338Q473 315 490.5 280.5Q508 246 508 196ZM449 195Q449 228 437.5 252Q426 276 407 293.5Q388 311 362.5 323.5Q337 336 308 346V45Q371 54 410 94Q449 134 449 195ZM122 556Q122 527 132.5 506Q143 485 161 469.5Q179 454 203 442.5Q227 431 254 421V688Q197 681 159.5 646Q122 611 122 556Z" glyph-name="dollar.LP" horiz-adv-x="556" unicode="&#58658;" /><glyph d="M540 196Q540 157 524.5 121.5Q509 86 481 58.5Q453 31 413.5 13Q374 -5 326 -9V-120H269V-9Q191 -4 135 26.5Q79 57 40 104L84 145Q116 103 161 76Q206 49 269 44V365Q232 377 195 391Q158 405 129 427Q100 449 81.5 480Q63 511 63 556Q63 595 78 627.5Q93 660 120 684Q147 708 185 722Q223 736 269 739V840H326V738Q399 732 447 703Q495 674 527 632L481 597Q457 632 420 656.5Q383 681 326 688V402Q364 390 402.5 375Q441 360 471.5 336.5Q502 313 521 279.5Q540 246 540 196ZM481 195Q481 228 468 252Q455 276 433.5 293.5Q412 311 384 323.5Q356 336 326 346V44Q395 52 438 92.5Q481 133 481 195ZM122 556Q122 527 134 506Q146 485 166.5 469Q187 453 213.5 441.5Q240 430 269 420V689Q204 684 163 648.5Q122 613 122 556Z" glyph-name="dollar.LT" horiz-adv-x="588" unicode="&#62566;" /><glyph d="M194 650Q194 671 208 684.5Q222 698 243 698Q266 698 279 684.5Q292 671 292 650Q292 629 279 615Q266 601 243 601Q220 601 207 615Q194 629 194 650Z" glyph-name="dotaccent" horiz-adv-x="506" unicode="&#729;" /><glyph d="M196 -124Q196 -103 210 -89.5Q224 -76 245 -76Q268 -76 281 -89.5Q294 -103 294 -124Q294 -145 281 -159Q268 -173 245 -173Q222 -173 209 -159Q196 -145 196 -124Z" glyph-name="dotbelow" horiz-adv-x="506" unicode="&#58389;" /><glyph d="M85 585H142V0H85Z" glyph-name="dotlessi" horiz-adv-x="226" unicode="&#305;" /><glyph d="M-70 -212Q-23 -212 7.5 -207Q38 -202 55 -185.5Q72 -169 78.5 -138.5Q85 -108 85 -58V585H142V-59Q142 -121 132.5 -161.5Q123 -202 100 -225.5Q77 -249 37.5 -258.5Q-2 -268 -61 -268H-70Z" glyph-name="dotlessj" horiz-adv-x="226" unicode="&#567;" /><glyph d="M66 730H124V-230H66ZM226 730H284V-230H226Z" glyph-name="doublebar" horiz-adv-x="350" unicode="&#8214;" /><glyph d="M66 840H124V-120H66ZM226 840H284V-120H226Z" glyph-name="doublebar.cap" horiz-adv-x="350" unicode="&#58468;" /><glyph d="M66 686H125V-98H66ZM226 686H285V-98H226Z" glyph-name="doublebar.smcp" horiz-adv-x="350" unicode="&#58474;" /><glyph d="M90 720H160L277 565H227ZM222 720H291L402 565H352Z" glyph-name="doublegrave" horiz-adv-x="502" unicode="&#58386;" /><glyph d="M366 -12Q295 -12 238 11.5Q181 35 141.5 75.5Q102 116 80.5 171Q59 226 59 290Q59 355 82 411Q105 467 145.5 508Q186 549 242 573Q298 597 363 597Q427 597 481.5 575Q536 553 576 513Q616 473 638.5 418.5Q661 364 661 299V273H114Q117 223 136 180Q155 137 188 106Q221 75 266 57.5Q311 40 366 40Q451 40 509 81.5Q567 123 596 196L647 172Q608 84 539 36Q470 -12 366 -12ZM363 545Q314 545 272 528Q230 511 197.5 482Q165 453 143.5 413Q122 373 116 326H603Q599 374 579.5 414.5Q560 455 529 484Q498 513 456 529Q414 545 363 545Z" glyph-name="e" horiz-adv-x="722" unicode="e" /><glyph d="M73 596H435V543H129V325H435V272H129V54H435V0H73Z" glyph-name="e.smcp" horiz-adv-x="492" unicode="&#57861;" /><glyph d="M366 -12Q295 -12 238 11.5Q181 35 141.5 75.5Q102 116 80.5 171Q59 226 59 290Q59 355 82 411Q105 467 145.5 508Q186 549 242 573Q298 597 363 597Q427 597 481.5 575Q536 553 576 513Q616 473 638.5 418.5Q661 364 661 299V273H114Q117 223 136 180Q155 137 188 106Q221 75 266 57.5Q311 40 366 40Q451 40 509 81.5Q567 123 596 196L647 172Q608 84 539 36Q470 -12 366 -12ZM363 545Q314 545 272 528Q230 511 197.5 482Q165 453 143.5 413Q122 373 116 326H603Q599 374 579.5 414.5Q560 455 529 484Q498 513 456 529Q414 545 363 545ZM455 815H530L390 660H336Z" glyph-name="eacute" horiz-adv-x="722" unicode="&#233;" /><glyph d="M73 596H435V543H129V325H435V272H129V54H435V0H73ZM331 816H406L266 661H212Z" glyph-name="eacute.smcp" horiz-adv-x="492" unicode="&#57917;" /><glyph d="M366 -12Q295 -12 238 11.5Q181 35 141.5 75.5Q102 116 80.5 171Q59 226 59 290Q59 355 82 411Q105 467 145.5 508Q186 549 242 573Q298 597 363 597Q427 597 481.5 575Q536 553 576 513Q616 473 638.5 418.5Q661 364 661 299V273H114Q117 223 136 180Q155 137 188 106Q221 75 266 57.5Q311 40 366 40Q451 40 509 81.5Q567 123 596 196L647 172Q608 84 539 36Q470 -12 366 -12ZM363 545Q314 545 272 528Q230 511 197.5 482Q165 453 143.5 413Q122 373 116 326H603Q599 374 579.5 414.5Q560 455 529 484Q498 513 456 529Q414 545 363 545ZM365 656Q324 656 293.5 669Q263 682 243 703.5Q223 725 213.5 753.5Q204 782 204 813H253Q253 766 281 733Q309 700 365 700Q419 700 447.5 733Q476 766 476 813H527Q527 782 516 753.5Q505 725 484 703.5Q463 682 433 669Q403 656 365 656Z" glyph-name="ebreve" horiz-adv-x="722" unicode="&#277;" /><glyph d="M73 596H435V543H129V325H435V272H129V54H435V0H73ZM255 656Q214 656 183.5 669Q153 682 133 703.5Q113 725 103.5 753.5Q94 782 94 813H143Q143 766 171 733Q199 700 255 700Q309 700 337.5 733Q366 766 366 813H417Q417 782 406 753.5Q395 725 374 703.5Q353 682 323 669Q293 656 255 656Z" glyph-name="ebreve.smcp" horiz-adv-x="492" unicode="&#57923;" /><glyph d="M366 -12Q295 -12 238 11.5Q181 35 141.5 75.5Q102 116 80.5 171Q59 226 59 290Q59 355 82 411Q105 467 145.5 508Q186 549 242 573Q298 597 363 597Q427 597 481.5 575Q536 553 576 513Q616 473 638.5 418.5Q661 364 661 299V273H114Q117 223 136 180Q155 137 188 106Q221 75 266 57.5Q311 40 366 40Q451 40 509 81.5Q567 123 596 196L647 172Q608 84 539 36Q470 -12 366 -12ZM363 545Q314 545 272 528Q230 511 197.5 482Q165 453 143.5 413Q122 373 116 326H603Q599 374 579.5 414.5Q560 455 529 484Q498 513 456 529Q414 545 363 545ZM228 815H287L368 701L452 815H511L393 660H345Z" glyph-name="ecaron" horiz-adv-x="722" unicode="&#283;" /><glyph d="M73 596H435V543H129V325H435V272H129V54H435V0H73ZM116 816H175L256 702L340 816H399L281 661H233Z" glyph-name="ecaron.smcp" horiz-adv-x="492" unicode="&#57921;" /><glyph d="M366 -12Q295 -12 238 11.5Q181 35 141.5 75.5Q102 116 80.5 171Q59 226 59 290Q59 355 82 411Q105 467 145.5 508Q186 549 242 573Q298 597 363 597Q427 597 481.5 575Q536 553 576 513Q616 473 638.5 418.5Q661 364 661 299V273H114Q117 223 136 180Q155 137 188 106Q221 75 266 57.5Q311 40 366 40Q451 40 509 81.5Q567 123 596 196L647 172Q608 84 539 36Q470 -12 366 -12ZM363 545Q314 545 272 528Q230 511 197.5 482Q165 453 143.5 413Q122 373 116 326H603Q599 374 579.5 414.5Q560 455 529 484Q498 513 456 529Q414 545 363 545ZM344 811H393L512 656H451L368 766L285 656H225Z" glyph-name="ecircumflex" horiz-adv-x="722" unicode="&#234;" /><glyph d="M73 596H435V543H129V325H435V272H129V54H435V0H73ZM234 816H283L402 661H341L258 771L175 661H115Z" glyph-name="ecircumflex.smcp" horiz-adv-x="492" unicode="&#57919;" /><glyph d="M366 -12Q295 -12 238 11.5Q181 35 141.5 75.5Q102 116 80.5 171Q59 226 59 290Q59 355 82 411Q105 467 145.5 508Q186 549 242 573Q298 597 363 597Q427 597 481.5 575Q536 553 576 513Q616 473 638.5 418.5Q661 364 661 299V273H114Q117 223 136 180Q155 137 188 106Q221 75 266 57.5Q311 40 366 40Q451 40 509 81.5Q567 123 596 196L647 172Q608 84 539 36Q470 -12 366 -12ZM363 545Q314 545 272 528Q230 511 197.5 482Q165 453 143.5 413Q122 373 116 326H603Q599 374 579.5 414.5Q560 455 529 484Q498 513 456 529Q414 545 363 545ZM406 699Q406 718 418.5 730Q431 742 450 742Q470 742 481.5 730Q493 718 493 699Q493 680 481.5 667.5Q470 655 450 655Q430 655 418 667.5Q406 680 406 699ZM238 699Q238 718 250.5 730Q263 742 282 742Q302 742 313.5 730Q325 718 325 699Q325 680 313.5 667.5Q302 655 282 655Q262 655 250 667.5Q238 680 238 699Z" glyph-name="edieresis" horiz-adv-x="722" unicode="&#235;" /><glyph d="M73 596H435V543H129V325H435V272H129V54H435V0H73ZM301 746Q301 765 313.5 777Q326 789 345 789Q365 789 376.5 777Q388 765 388 746Q388 727 376.5 714.5Q365 702 345 702Q325 702 313 714.5Q301 727 301 746ZM133 746Q133 765 145.5 777Q158 789 177 789Q197 789 208.5 777Q220 765 220 746Q220 727 208.5 714.5Q197 702 177 702Q157 702 145 714.5Q133 727 133 746Z" glyph-name="edieresis.smcp" horiz-adv-x="492" unicode="&#57904;" /><glyph d="M366 -12Q295 -12 238 11.5Q181 35 141.5 75.5Q102 116 80.5 171Q59 226 59 290Q59 355 82 411Q105 467 145.5 508Q186 549 242 573Q298 597 363 597Q427 597 481.5 575Q536 553 576 513Q616 473 638.5 418.5Q661 364 661 299V273H114Q117 223 136 180Q155 137 188 106Q221 75 266 57.5Q311 40 366 40Q451 40 509 81.5Q567 123 596 196L647 172Q608 84 539 36Q470 -12 366 -12ZM363 545Q314 545 272 528Q230 511 197.5 482Q165 453 143.5 413Q122 373 116 326H603Q599 374 579.5 414.5Q560 455 529 484Q498 513 456 529Q414 545 363 545ZM316 708Q316 729 330 742.5Q344 756 365 756Q388 756 401 742.5Q414 729 414 708Q414 687 401 673Q388 659 365 659Q342 659 329 673Q316 687 316 708Z" glyph-name="edotaccent" horiz-adv-x="722" unicode="&#279;" /><glyph d="M73 596H435V543H129V325H435V272H129V54H435V0H73ZM213 746Q213 767 227 780.5Q241 794 262 794Q285 794 298 780.5Q311 767 311 746Q311 725 298 711Q285 697 262 697Q239 697 226 711Q213 725 213 746Z" glyph-name="edotaccent.smcp" horiz-adv-x="492" unicode="&#57926;" /><glyph d="M366 -12Q295 -12 238 11.5Q181 35 141.5 75.5Q102 116 80.5 171Q59 226 59 290Q59 355 82 411Q105 467 145.5 508Q186 549 242 573Q298 597 363 597Q427 597 481.5 575Q536 553 576 513Q616 473 638.5 418.5Q661 364 661 299V273H114Q117 223 136 180Q155 137 188 106Q221 75 266 57.5Q311 40 366 40Q451 40 509 81.5Q567 123 596 196L647 172Q608 84 539 36Q470 -12 366 -12ZM363 545Q314 545 272 528Q230 511 197.5 482Q165 453 143.5 413Q122 373 116 326H603Q599 374 579.5 414.5Q560 455 529 484Q498 513 456 529Q414 545 363 545ZM212 815H286L406 660H352Z" glyph-name="egrave" horiz-adv-x="722" unicode="&#232;" /><glyph d="M73 596H435V543H129V325H435V272H129V54H435V0H73ZM111 816H185L305 661H251Z" glyph-name="egrave.smcp" horiz-adv-x="492" unicode="&#57918;" /><glyph d="M285 -10Q231 -10 188 6.5Q145 23 115 52Q85 81 69.5 119.5Q54 158 54 202Q54 265 89 314.5Q124 364 181 389Q136 412 108.5 454.5Q81 497 81 551Q81 591 96 625.5Q111 660 138 685.5Q165 711 202.5 725.5Q240 740 285 740Q329 740 367 725.5Q405 711 432.5 685.5Q460 660 475.5 625.5Q491 591 491 551Q491 497 462.5 455Q434 413 389 390Q446 366 481.5 315.5Q517 265 517 202Q517 158 501.5 119.5Q486 81 456 52Q426 23 383 6.5Q340 -10 285 -10ZM285 43Q326 43 358 55.5Q390 68 413 89.5Q436 111 448 140Q460 169 460 202Q460 234 448 263Q436 292 413.5 314Q391 336 358.5 349Q326 362 285 362Q245 362 212.5 349Q180 336 157.5 314Q135 292 123 263Q111 234 111 202Q111 169 123 140Q135 111 157.5 89.5Q180 68 212.5 55.5Q245 43 285 43ZM285 413Q319 413 347 424Q375 435 394.5 453.5Q414 472 425 497.5Q436 523 436 551Q436 580 425.5 605Q415 630 395.5 649Q376 668 348 678.5Q320 689 285 689Q251 689 223.5 678.5Q196 668 176.5 649Q157 630 146.5 605Q136 580 136 551Q136 523 146.5 497.5Q157 472 176.5 453.5Q196 435 223.5 424Q251 413 285 413Z" glyph-name="eight" horiz-adv-x="571" unicode="8" /><glyph d="M285 -10Q231 -10 188 6.5Q145 23 115 52Q85 81 69.5 119.5Q54 158 54 202Q54 265 89 314.5Q124 364 181 389Q136 412 108.5 454.5Q81 497 81 551Q81 591 96 625.5Q111 660 138 685.5Q165 711 202.5 725.5Q240 740 285 740Q329 740 367 725.5Q405 711 432.5 685.5Q460 660 475.5 625.5Q491 591 491 551Q491 497 462.5 455Q434 413 389 390Q446 366 481.5 315.5Q517 265 517 202Q517 158 501.5 119.5Q486 81 456 52Q426 23 383 6.5Q340 -10 285 -10ZM285 43Q326 43 358 55.5Q390 68 413 89.5Q436 111 448 140Q460 169 460 202Q460 234 448 263Q436 292 413.5 314Q391 336 358.5 349Q326 362 285 362Q245 362 212.5 349Q180 336 157.5 314Q135 292 123 263Q111 234 111 202Q111 169 123 140Q135 111 157.5 89.5Q180 68 212.5 55.5Q245 43 285 43ZM285 413Q319 413 347 424Q375 435 394.5 453.5Q414 472 425 497.5Q436 523 436 551Q436 580 425.5 605Q415 630 395.5 649Q376 668 348 678.5Q320 689 285 689Q251 689 223.5 678.5Q196 668 176.5 649Q157 630 146.5 605Q136 580 136 551Q136 523 146.5 497.5Q157 472 176.5 453.5Q196 435 223.5 424Q251 413 285 413Z" glyph-name="eight.LP" horiz-adv-x="571" unicode="&#58685;" /><glyph d="M295 -10Q236 -10 191 6.5Q146 23 115 51.5Q84 80 68.5 118.5Q53 157 53 202Q53 265 87.5 314Q122 363 183 389Q134 413 107 455Q80 497 80 551Q80 591 95 625.5Q110 660 138 685.5Q166 711 205.5 725.5Q245 740 294 740Q342 740 381.5 725.5Q421 711 449.5 685.5Q478 660 493.5 625.5Q509 591 509 551Q509 497 481 455Q453 413 405 389Q466 363 500.5 314Q535 265 535 202Q535 157 518.5 118.5Q502 80 471.5 51.5Q441 23 396.5 6.5Q352 -10 295 -10ZM295 43Q339 43 373 55.5Q407 68 431 90Q455 112 467.5 140.5Q480 169 480 202Q480 234 468 263Q456 292 432.5 314Q409 336 374 349Q339 362 294 362Q249 362 214.5 349Q180 336 156.5 314Q133 292 121 263Q109 234 109 202Q109 169 121.5 140Q134 111 158 89.5Q182 68 216.5 55.5Q251 43 295 43ZM294 413Q333 413 363 424Q393 435 413.5 453.5Q434 472 444.5 497.5Q455 523 455 551Q455 580 444 605Q433 630 412.5 649Q392 668 362 678.5Q332 689 294 689Q257 689 227 678.5Q197 668 176 649Q155 630 144 605Q133 580 133 551Q133 523 143.5 497.5Q154 472 174.5 453.5Q195 435 225 424Q255 413 294 413Z" glyph-name="eight.LT" horiz-adv-x="588" unicode="&#58696;" /><glyph d="M171 -6Q140 -6 115 4Q90 14 72.5 31.5Q55 49 46 72Q37 95 37 120Q37 155 55 182.5Q73 210 102 225Q79 239 66 261Q53 283 53 314Q53 337 61.5 358Q70 379 85.5 394.5Q101 410 122.5 419Q144 428 171 428Q197 428 219 419Q241 410 257 394.5Q273 379 281.5 358Q290 337 290 314Q290 283 276 261.5Q262 240 239 226Q269 212 287 184.5Q305 157 305 120Q305 95 296 72Q287 49 270 31.5Q253 14 228 4Q203 -6 171 -6ZM171 42Q209 42 231 65Q253 88 253 120Q253 152 231.5 176Q210 200 171 200Q133 200 111 176Q89 152 89 120Q89 88 111 65Q133 42 171 42ZM171 249Q201 249 219.5 267.5Q238 286 238 314Q238 341 220 360.5Q202 380 171 380Q141 380 123.5 360.5Q106 341 106 314Q106 286 123.5 267.5Q141 249 171 249Z" glyph-name="eight.inf" horiz-adv-x="343" unicode="&#58745;" /><glyph d="M1143 -6Q1111 -6 1084 5.5Q1057 17 1037 36.5Q1017 56 1005.5 82.5Q994 109 994 139Q994 168 1003 195Q1012 222 1027 243L1147 422H1208L1110 277Q1131 285 1152 285Q1181 285 1206.5 274Q1232 263 1251 243.5Q1270 224 1281 197.5Q1292 171 1292 140Q1292 109 1280.5 82Q1269 55 1249 35.5Q1229 16 1202 5Q1175 -6 1143 -6ZM885 730H952L425 0H358ZM37 357H121V642Q112 627 91.5 616.5Q71 606 51 606H45V661H48Q69 661 83 667.5Q97 674 105.5 684Q114 694 118 706.5Q122 719 122 730H173V357H254V308H37ZM747 49H831V334Q822 319 801.5 308.5Q781 298 761 298H755V353H758Q779 353 793 359.5Q807 366 815.5 376Q824 386 828 398.5Q832 411 832 422H883V49H964V0H747ZM289 357H373V642Q365 627 344.5 616.5Q324 606 304 606H297V661H300Q321 661 335.5 667.5Q350 674 358.5 684Q367 694 371 706.5Q375 719 375 730H425V357H506V308H289ZM1142 42Q1183 42 1211.5 70.5Q1240 99 1240 141Q1240 161 1232.5 179Q1225 197 1211.5 210.5Q1198 224 1180 231.5Q1162 239 1142 239Q1101 239 1073 210.5Q1045 182 1045 140Q1045 98 1073 70Q1101 42 1142 42Z" glyph-name="elevensixteenths" horiz-adv-x="1327" unicode="&#61984;" /><glyph d="M39 35Q39 54 51 65.5Q63 77 82 77Q102 77 113.5 65.5Q125 54 125 35Q125 16 113.5 4Q102 -8 82 -8Q62 -8 50.5 4Q39 16 39 35ZM186 35Q186 54 198 65.5Q210 77 229 77Q249 77 260.5 65.5Q272 54 272 35Q272 16 260.5 4Q249 -8 229 -8Q209 -8 197.5 4Q186 16 186 35ZM335 35Q335 54 347 65.5Q359 77 378 77Q398 77 409.5 65.5Q421 54 421 35Q421 16 409.5 4Q398 -8 378 -8Q358 -8 346.5 4Q335 16 335 35Z" glyph-name="ellipsis" horiz-adv-x="459" unicode="&#8230;" /><glyph d="M366 -12Q295 -12 238 11.5Q181 35 141.5 75.5Q102 116 80.5 171Q59 226 59 290Q59 355 82 411Q105 467 145.5 508Q186 549 242 573Q298 597 363 597Q427 597 481.5 575Q536 553 576 513Q616 473 638.5 418.5Q661 364 661 299V273H114Q117 223 136 180Q155 137 188 106Q221 75 266 57.5Q311 40 366 40Q451 40 509 81.5Q567 123 596 196L647 172Q608 84 539 36Q470 -12 366 -12ZM363 545Q314 545 272 528Q230 511 197.5 482Q165 453 143.5 413Q122 373 116 326H603Q599 374 579.5 414.5Q560 455 529 484Q498 513 456 529Q414 545 363 545ZM237 719H501V669H237Z" glyph-name="emacron" horiz-adv-x="722" unicode="&#275;" /><glyph d="M73 596H435V543H129V325H435V272H129V54H435V0H73ZM123 713H387V663H123Z" glyph-name="emacron.smcp" horiz-adv-x="492" unicode="&#57922;" /><glyph d="M53 277H673V226H53Z" glyph-name="emdash" horiz-adv-x="726" unicode="&#8212;" /><glyph d="M53 315H673V264H53Z" glyph-name="emdash.cap" horiz-adv-x="726" unicode="&#58502;" /><glyph d="M53 277H473V226H53Z" glyph-name="endash" horiz-adv-x="526" unicode="&#8211;" /><glyph d="M53 315H473V264H53Z" glyph-name="endash.cap" horiz-adv-x="526" unicode="&#58500;" /><glyph d="M412 -212Q459 -212 489.5 -207Q520 -202 537.5 -185.5Q555 -169 561.5 -138.5Q568 -108 568 -58V329Q568 378 553.5 417.5Q539 457 512 485Q485 513 446 528.5Q407 544 358 544Q312 544 272.5 527.5Q233 511 204 482Q175 453 158.5 413.5Q142 374 142 328V0H85V585H140V466Q169 524 228 560.5Q287 597 365 597Q424 597 471.5 578.5Q519 560 553.5 525Q588 490 606.5 440.5Q625 391 625 328V-59Q625 -121 615.5 -161.5Q606 -202 582.5 -225.5Q559 -249 519.5 -258.5Q480 -268 420 -268H412Z" glyph-name="eng" horiz-adv-x="707" unicode="&#331;" /><glyph d="M371 -174Q410 -174 435.5 -170Q461 -166 475 -152.5Q489 -139 494.5 -113.5Q500 -88 500 -46V-4L129 509V0H72V596H135L501 89V596H558V-47Q558 -101 549.5 -136Q541 -171 520.5 -192Q500 -213 465.5 -221Q431 -229 379 -229H371Z" glyph-name="eng.smcp" horiz-adv-x="630" unicode="&#58155;" /><glyph d="M374 -215Q316 -215 280.5 -188Q245 -161 245 -120Q245 -91 262.5 -64Q280 -37 325 -10Q263 -4 213.5 21.5Q164 47 129.5 87Q95 127 77 179Q59 231 59 290Q59 355 82 411Q105 467 145.5 508Q186 549 242 573Q298 597 363 597Q427 597 481.5 575Q536 553 576 513Q616 473 638.5 418.5Q661 364 661 299V273H114Q117 223 136 180Q155 137 188 106Q221 75 266 57.5Q311 40 366 40Q451 40 509 81.5Q567 123 596 196L647 172Q613 97 558 51Q503 5 423 -7Q388 -27 364.5 -42Q341 -57 327.5 -69.5Q314 -82 308.5 -93.5Q303 -105 303 -117Q303 -141 323 -154.5Q343 -168 374 -168Q402 -168 422 -156.5Q442 -145 460 -129L505 -160Q481 -182 446.5 -198.5Q412 -215 374 -215ZM363 545Q314 545 272 528Q230 511 197.5 482Q165 453 143.5 413Q122 373 116 326H603Q599 374 579.5 414.5Q560 455 529 484Q498 513 456 529Q414 545 363 545Z" glyph-name="eogonek" horiz-adv-x="722" unicode="&#281;" /><glyph d="M73 596H435V543H129V325H435V272H129V54H435V0Q399 -20 375.5 -35Q352 -50 338 -62.5Q324 -75 318.5 -86.5Q313 -98 313 -110Q313 -134 333 -147.5Q353 -161 384 -161Q412 -161 432 -149.5Q452 -138 470 -122L515 -153Q491 -175 456.5 -191.5Q422 -208 384 -208Q326 -208 290.5 -181Q255 -154 255 -113Q255 -84 273.5 -56Q292 -28 340 0H73Z" glyph-name="eogonek.smcp" horiz-adv-x="492" unicode="&#57929;" /><glyph d="M53 469H423V419H53ZM53 307H423V258H53Z" glyph-name="equal" horiz-adv-x="475" unicode="=" /><glyph d="M35 279H248V235H35ZM35 184H248V140H35Z" glyph-name="equal.inf" horiz-adv-x="284" unicode="&#58749;" /><glyph d="M53 387H423V338H53ZM53 227H423V178H53ZM53 549H423V499H53Z" glyph-name="equivalence" horiz-adv-x="475" unicode="&#8801;" /><glyph d="M327 753Q298 778 265.5 803Q233 828 198 854H286Q309 836 331 818.5Q353 801 373 784L479 854H564L409 751Q536 634 596.5 519.5Q657 405 657 286Q657 225 634 171Q611 117 570.5 77.5Q530 38 476 15Q422 -8 359 -8Q297 -8 243 14.5Q189 37 148.5 76.5Q108 116 84.5 170Q61 224 61 286Q61 348 84 402Q107 456 147 495.5Q187 535 240 558Q293 581 353 581Q421 581 471 556Q521 531 553 489Q498 600 364 721L248 645H162ZM360 45Q410 45 453.5 64Q497 83 529.5 115.5Q562 148 580.5 192Q599 236 599 286Q599 335 580.5 379Q562 423 529.5 456Q497 489 453.5 508Q410 527 360 527Q311 527 267 508Q223 489 190.5 456.5Q158 424 139 380Q120 336 120 286Q120 236 139 192Q158 148 190.5 115.5Q223 83 267 64Q311 45 360 45Z" glyph-name="eth" horiz-adv-x="719" unicode="&#240;" /><glyph d="M27 324H94V596H260Q329 596 385.5 573Q442 550 483 510Q524 470 546.5 415.5Q569 361 569 298Q569 234 545.5 179.5Q522 125 481 85Q440 45 384 22.5Q328 0 262 0H94V273H27ZM150 273V54H258Q313 54 359.5 72.5Q406 91 439.5 124Q473 157 492 201.5Q511 246 511 298Q511 351 493 395.5Q475 440 441.5 473Q408 506 361 524.5Q314 543 256 543H150V324H304V273Z" glyph-name="eth.smcp" horiz-adv-x="619" unicode="&#58156;" /><glyph d="M106 152Q104 184 101.5 232Q99 280 97 334.5Q95 389 94 446Q93 503 93 553V730H151V553Q151 503 150 446Q149 389 147.5 334.5Q146 280 143.5 232Q141 184 139 152ZM72 39Q72 60 86 73.5Q100 87 121 87Q144 87 157 73.5Q170 60 170 39Q170 18 157 4Q144 -10 121 -10Q98 -10 85 4Q72 18 72 39Z" glyph-name="exclam" horiz-adv-x="242" unicode="!" /><glyph d="M138 348Q140 316 142.5 268Q145 220 147 165.5Q149 111 150 54Q151 -3 151 -53V-230H93V-53Q93 -3 94 54Q95 111 96.5 165.5Q98 220 100.5 268Q103 316 105 348ZM172 461Q172 440 158 426.5Q144 413 123 413Q100 413 87 426.5Q74 440 74 461Q74 482 87 496Q100 510 123 510Q146 510 159 496Q172 482 172 461Z" glyph-name="exclamdown" horiz-adv-x="242" unicode="&#161;" /><glyph d="M138 578Q140 546 142.5 498Q145 450 147 395.5Q149 341 150 284Q151 227 151 177V0H93V177Q93 227 94 284Q95 341 96.5 395.5Q98 450 100.5 498Q103 546 105 578ZM172 691Q172 670 158 656.5Q144 643 123 643Q100 643 87 656.5Q74 670 74 691Q74 712 87 726Q100 740 123 740Q146 740 159 726Q172 712 172 691Z" glyph-name="exclamdown.cap" horiz-adv-x="242" unicode="&#58433;" /><glyph d="M39 585H142V600Q142 663 151 703.5Q160 744 183.5 767.5Q207 791 246 800Q285 809 345 809H351V755Q302 755 272 749.5Q242 744 225.5 727.5Q209 711 203 680Q197 649 197 599V585H351V533H197V0H142V533H39Z" glyph-name="f" horiz-adv-x="397" unicode="f" /><glyph d="M72 596H409V543H129V325H409V272H129V0H72Z" glyph-name="f.smcp" horiz-adv-x="460" unicode="&#57862;" /><glyph d="M36 500H121V548Q121 602 129.5 637Q138 672 158.5 693Q179 714 214 722Q249 730 301 730H307V677Q266 677 240.5 672.5Q215 668 201.5 654Q188 640 183.5 614.5Q179 589 179 547V500H307V449H179V0H121V449H36ZM385 500H442V0H385ZM385 730H442V585H385Z" glyph-name="fi" horiz-adv-x="509" unicode="&#64257;" /><glyph d="M1182 -6Q1150 -6 1122.5 5.5Q1095 17 1075 36.5Q1055 56 1044 82.5Q1033 109 1033 139Q1033 168 1041.5 195Q1050 222 1065 243L1186 422H1247L1148 277Q1170 285 1191 285Q1220 285 1245.5 274Q1271 263 1289.5 243.5Q1308 224 1319 197.5Q1330 171 1330 140Q1330 109 1318.5 82Q1307 55 1287 35.5Q1267 16 1240 5Q1213 -6 1182 -6ZM431 302Q380 302 343.5 324.5Q307 347 289 382L337 410Q350 384 373.5 367Q397 350 432 350Q470 350 496.5 375.5Q523 401 523 443Q523 488 495.5 512Q468 536 431 536Q398 536 375.5 520Q353 504 339 478L292 499L323 730H552V681H365L347 549Q362 563 384 573Q406 583 435 583Q463 583 488.5 574Q514 565 533.5 547.5Q553 530 564.5 504Q576 478 576 443Q576 412 565 386Q554 360 535 341.5Q516 323 489.5 312.5Q463 302 431 302ZM923 730H991L464 0H396ZM785 49H870V336Q862 320 841.5 309Q821 298 800 298H793V353H796Q817 353 831.5 359.5Q846 366 854.5 376Q863 386 867 398.5Q871 411 871 422H922V49H1003V0H785ZM37 357H121V642Q112 627 91.5 616.5Q71 606 51 606H45V661H48Q69 661 83 667.5Q97 674 105.5 684Q114 694 118 706.5Q122 719 122 730H173V357H254V308H37ZM1181 42Q1201 42 1218.5 49.5Q1236 57 1249.5 70.5Q1263 84 1271 102Q1279 120 1279 141Q1279 161 1271 179Q1263 197 1249.5 210.5Q1236 224 1218.5 231.5Q1201 239 1181 239Q1140 239 1111.5 210.5Q1083 182 1083 140Q1083 98 1111.5 70Q1140 42 1181 42Z" glyph-name="fifteensixteenths" horiz-adv-x="1365" unicode="&#61986;" /><glyph d="M53 277H623V226H53Z" glyph-name="figuredash" horiz-adv-x="676" unicode="&#8210;" /><glyph d="M53 315H623V264H53Z" glyph-name="figuredash.cap" horiz-adv-x="676" unicode="&#58503;" /><glyph d="M308 -10Q225 -10 161 25.5Q97 61 63 125L117 158Q144 106 192 75Q240 44 308 44Q348 44 383 57.5Q418 71 444 96Q470 121 485 156Q500 191 500 234Q500 282 483 317.5Q466 353 439 376.5Q412 400 377.5 412Q343 424 308 424Q239 424 192 392Q145 360 119 306L63 325L122 730H506V676H170L130 399Q160 434 204 455.5Q248 477 308 477Q355 477 400 462.5Q445 448 480 418Q515 388 536.5 342Q558 296 558 234Q558 180 539.5 135.5Q521 91 487.5 58.5Q454 26 408 8Q362 -10 308 -10Z" glyph-name="five" horiz-adv-x="611" unicode="5" /><glyph d="M308 -10Q225 -10 161 25.5Q97 61 63 125L117 158Q144 106 192 75Q240 44 308 44Q348 44 383 57.5Q418 71 444 96Q470 121 485 156Q500 191 500 234Q500 282 483 317.5Q466 353 439 376.5Q412 400 377.5 412Q343 424 308 424Q239 424 192 392Q145 360 119 306L63 325L122 730H506V676H170L130 399Q160 434 204 455.5Q248 477 308 477Q355 477 400 462.5Q445 448 480 418Q515 388 536.5 342Q558 296 558 234Q558 180 539.5 135.5Q521 91 487.5 58.5Q454 26 408 8Q362 -10 308 -10Z" glyph-name="five.LP" horiz-adv-x="611" unicode="&#58682;" /><glyph d="M291 -10Q213 -10 152.5 22.5Q92 55 58 109L111 144Q139 99 183.5 71.5Q228 44 291 44Q332 44 366 58Q400 72 424.5 97.5Q449 123 463 158Q477 193 477 234Q477 282 460.5 317.5Q444 353 417 377Q390 401 355.5 412.5Q321 424 286 424Q235 424 190.5 401.5Q146 379 123 344L66 362L122 730H487V676H171L131 420Q159 444 199.5 460.5Q240 477 286 477Q333 477 378 462.5Q423 448 458 418Q493 388 514.5 342.5Q536 297 536 234Q536 180 518 135.5Q500 91 467.5 58.5Q435 26 390 8Q345 -10 291 -10Z" glyph-name="five.LT" horiz-adv-x="588" unicode="&#58693;" /><glyph d="M177 -6Q126 -6 89.5 16.5Q53 39 35 74L83 102Q96 76 119.5 59Q143 42 178 42Q216 42 242.5 67.5Q269 93 269 135Q269 180 241.5 204Q214 228 177 228Q144 228 121.5 212Q99 196 85 170L38 191L69 422H298V373H111L93 241Q108 255 130 265Q152 275 181 275Q209 275 234.5 266Q260 257 279.5 239.5Q299 222 310.5 196Q322 170 322 135Q322 104 311 78Q300 52 281 33.5Q262 15 235.5 4.5Q209 -6 177 -6Z" glyph-name="five.inf" horiz-adv-x="353" unicode="&#58742;" /><glyph d="M927 -6Q895 -6 867.5 5.5Q840 17 820 36.5Q800 56 789 82.5Q778 109 778 139Q778 168 786.5 195Q795 222 810 243L931 422H992L893 277Q915 285 936 285Q965 285 990.5 274Q1016 263 1034.5 243.5Q1053 224 1064 197.5Q1075 171 1075 140Q1075 109 1063.5 82Q1052 55 1032 35.5Q1012 16 985 5Q958 -6 927 -6ZM177 302Q126 302 89.5 324.5Q53 347 35 382L83 410Q96 384 119.5 367Q143 350 178 350Q216 350 242.5 375.5Q269 401 269 443Q269 488 241.5 512Q214 536 177 536Q144 536 121.5 520Q99 504 85 478L38 499L69 730H298V681H111L93 549Q108 563 130 573Q152 583 181 583Q209 583 234.5 574Q260 565 279.5 547.5Q299 530 310.5 504Q322 478 322 443Q322 412 311 386Q300 360 281 341.5Q262 323 235.5 312.5Q209 302 177 302ZM668 730H736L209 0H141ZM531 49H615V334Q606 319 585.5 308.5Q565 298 545 298H539V353H542Q563 353 577 359.5Q591 366 599.5 376Q608 386 612 398.5Q616 411 616 422H667V49H748V0H531ZM926 42Q946 42 963.5 49.5Q981 57 994.5 70.5Q1008 84 1016 102Q1024 120 1024 141Q1024 161 1016 179Q1008 197 994.5 210.5Q981 224 963.5 231.5Q946 239 926 239Q885 239 856.5 210.5Q828 182 828 140Q828 98 856.5 70Q885 42 926 42Z" glyph-name="fivesixteenths" horiz-adv-x="1111" unicode="&#61975;" /><glyph d="M36 500H121V548Q121 602 129.5 637Q138 672 158.5 693Q179 714 214 722Q249 730 301 730H307V677Q266 677 240.5 672.5Q215 668 201.5 654Q188 640 183.5 614.5Q179 589 179 547V500H307V449H179V0H121V449H36ZM385 730H442V0H385Z" glyph-name="fl" horiz-adv-x="510" unicode="&#64258;" /><glyph d="M122 403H281L324 544Q340 598 358.5 633.5Q377 669 400.5 690.5Q424 712 453.5 721Q483 730 521 730H525V678Q497 678 475.5 671.5Q454 665 437.5 649.5Q421 634 407.5 607Q394 580 382 538L341 403H489V352H325L275 186Q259 133 242.5 97.5Q226 62 202.5 40Q179 18 147 9Q115 0 68 0H63V53Q98 53 122 59.5Q146 66 163 81.5Q180 97 192.5 124Q205 151 217 192L265 352H122Z" glyph-name="florin" horiz-adv-x="588" unicode="&#402;" /><glyph d="M110 403H266L303 545Q317 599 334 634.5Q351 670 373.5 691.5Q396 713 425 721.5Q454 730 492 730H497V678Q469 678 448 672.5Q427 667 411 652Q395 637 383.5 610.5Q372 584 361 542L325 403H471V352H312L269 185Q255 132 239.5 96.5Q224 61 201.5 39.5Q179 18 147 9Q115 0 68 0H63V53Q98 53 121.5 58.5Q145 64 161 79Q177 94 188 120.5Q199 147 210 188L252 352H110Z" glyph-name="florin.LP" horiz-adv-x="560" unicode="&#58661;" /><glyph d="M122 403H281L324 544Q340 598 358.5 633.5Q377 669 400.5 690.5Q424 712 453.5 721Q483 730 521 730H525V678Q497 678 475.5 671.5Q454 665 437.5 649.5Q421 634 407.5 607Q394 580 382 538L341 403H489V352H325L275 186Q259 133 242.5 97.5Q226 62 202.5 40Q179 18 147 9Q115 0 68 0H63V53Q98 53 122 59.5Q146 66 163 81.5Q180 97 192.5 124Q205 151 217 192L265 352H122Z" glyph-name="florin.LT" horiz-adv-x="588" unicode="&#62568;" /><glyph d="M403 168H49L47 221L403 730H461V220H568V168H461V0H403ZM403 220V639L109 220Z" glyph-name="four" horiz-adv-x="614" unicode="4" /><glyph d="M403 168H49L47 221L403 730H461V220H568V168H461V0H403ZM403 220V639L109 220Z" glyph-name="four.LP" horiz-adv-x="614" unicode="&#58681;" /><glyph d="M381 178H49L47 231L381 730H439V230H544V178H439V0H381ZM381 230V635L109 230Z" glyph-name="four.LT" horiz-adv-x="588" unicode="&#58692;" /><glyph d="M229 97H34V145L227 422H281V145H342V97H281V0H229ZM229 145V341L91 145Z" glyph-name="four.inf" horiz-adv-x="375" unicode="&#58741;" /><glyph d="M555 730H623L96 0H28Z" glyph-name="fraction" horiz-adv-x="649" unicode="&#8260;" /><glyph d="M66 730H479V675H124V469H479V416H124V309H479V256H124V0H66Z" glyph-name="franc" horiz-adv-x="544" unicode="&#8355;" /><glyph d="M361 -12Q297 -12 241.5 12Q186 36 145.5 77.5Q105 119 82 174Q59 229 59 292Q59 355 82 410.5Q105 466 145.5 507.5Q186 549 241.5 573Q297 597 361 597Q397 597 433.5 587.5Q470 578 502.5 559Q535 540 562 512.5Q589 485 606 450V585H662V12Q662 -56 641.5 -110.5Q621 -165 582.5 -203Q544 -241 490 -262Q436 -283 370 -283Q316 -283 274 -272Q232 -261 199 -240.5Q166 -220 140.5 -190.5Q115 -161 94 -123L149 -98Q181 -160 233 -195.5Q285 -231 370 -231Q424 -231 468 -214Q512 -197 542.5 -165.5Q573 -134 589.5 -89.5Q606 -45 606 10V134Q589 99 562 71.5Q535 44 502.5 25.5Q470 7 433.5 -2.5Q397 -12 361 -12ZM363 41Q416 41 461 60.5Q506 80 540 114Q574 148 593 194Q612 240 612 292Q612 344 593 390Q574 436 540 470Q506 504 461 524Q416 544 363 544Q312 544 267 524.5Q222 505 188.5 470.5Q155 436 136 390.5Q117 345 117 292Q117 240 136 194Q155 148 188.5 114Q222 80 267 60.5Q312 41 363 41Z" glyph-name="g" horiz-adv-x="747" unicode="g" /><glyph d="M282 -263Q217 -263 172.5 -253.5Q128 -244 100.5 -226.5Q73 -209 61 -185Q49 -161 49 -132Q49 -97 68 -73.5Q87 -50 116 -36Q49 -14 49 50Q49 90 76.5 114.5Q104 139 150 147Q110 172 87 214Q64 256 64 310Q64 352 79.5 388.5Q95 425 122 452Q149 479 185.5 494.5Q222 510 264 510Q323 510 368.5 481Q414 452 437 404Q445 452 471 473.5Q497 495 542 495H555V433H540Q522 433 508 429Q494 425 484.5 412Q475 399 470 375Q465 351 465 310Q465 268 450 231Q435 194 408 166.5Q381 139 345 123.5Q309 108 267 108H203Q149 108 125 92Q101 76 101 53Q101 27 123.5 14Q146 1 199 1H343Q431 1 480 -29.5Q529 -60 529 -120Q529 -183 468 -223Q407 -263 282 -263ZM263 158Q294 158 321 170Q348 182 368.5 202.5Q389 223 400.5 250.5Q412 278 412 310Q412 341 400.5 368Q389 395 368.5 415.5Q348 436 321 447.5Q294 459 263 459Q233 459 206.5 447.5Q180 436 159.5 415.5Q139 395 127.5 368Q116 341 116 310Q116 279 127.5 251.5Q139 224 159.5 203Q180 182 206.5 170Q233 158 263 158ZM222 -48Q170 -47 135.5 -69Q101 -91 101 -129Q101 -147 109.5 -162.5Q118 -178 137.5 -189.5Q157 -201 189.5 -207Q222 -213 270 -213H296Q390 -213 433 -186.5Q476 -160 476 -123Q476 -84 442.5 -66Q409 -48 341 -48Z" glyph-name="g.alt" horiz-adv-x="581" unicode="&#58566;" /><glyph d="M358 -9Q292 -9 236 15.5Q180 40 138.5 82Q97 124 73.5 179.5Q50 235 50 298Q50 361 74 417Q98 473 139.5 514.5Q181 556 237 580Q293 604 358 604Q446 604 515.5 563.5Q585 523 623 454L573 425Q541 483 485.5 517Q430 551 358 551Q304 551 258.5 531Q213 511 179.5 476.5Q146 442 127 396Q108 350 108 298Q108 247 126.5 201Q145 155 178 120.5Q211 86 257 65.5Q303 45 358 45Q410 45 452 61.5Q494 78 524.5 107.5Q555 137 574 176.5Q593 216 599 261H351V315H658V297Q658 235 637 179.5Q616 124 577 82Q538 40 482.5 15.5Q427 -9 358 -9Z" glyph-name="g.smcp" horiz-adv-x="706" unicode="&#57863;" /><glyph d="M361 -12Q297 -12 241.5 12Q186 36 145.5 77.5Q105 119 82 174Q59 229 59 292Q59 355 82 410.5Q105 466 145.5 507.5Q186 549 241.5 573Q297 597 361 597Q397 597 433.5 587.5Q470 578 502.5 559Q535 540 562 512.5Q589 485 606 450V585H662V12Q662 -56 641.5 -110.5Q621 -165 582.5 -203Q544 -241 490 -262Q436 -283 370 -283Q316 -283 274 -272Q232 -261 199 -240.5Q166 -220 140.5 -190.5Q115 -161 94 -123L149 -98Q181 -160 233 -195.5Q285 -231 370 -231Q424 -231 468 -214Q512 -197 542.5 -165.5Q573 -134 589.5 -89.5Q606 -45 606 10V134Q589 99 562 71.5Q535 44 502.5 25.5Q470 7 433.5 -2.5Q397 -12 361 -12ZM363 41Q416 41 461 60.5Q506 80 540 114Q574 148 593 194Q612 240 612 292Q612 344 593 390Q574 436 540 470Q506 504 461 524Q416 544 363 544Q312 544 267 524.5Q222 505 188.5 470.5Q155 436 136 390.5Q117 345 117 292Q117 240 136 194Q155 148 188.5 114Q222 80 267 60.5Q312 41 363 41ZM362 657Q321 657 290.5 670Q260 683 240 704.5Q220 726 210.5 754.5Q201 783 201 814H250Q250 767 278 734Q306 701 362 701Q416 701 444.5 734Q473 767 473 814H524Q524 783 513 754.5Q502 726 481 704.5Q460 683 430 670Q400 657 362 657Z" glyph-name="gbreve" horiz-adv-x="747" unicode="&#287;" /><glyph d="M282 -263Q217 -263 172.5 -253.5Q128 -244 100.5 -226.5Q73 -209 61 -185Q49 -161 49 -132Q49 -97 68 -73.5Q87 -50 116 -36Q49 -14 49 50Q49 90 76.5 114.5Q104 139 150 147Q110 172 87 214Q64 256 64 310Q64 352 79.5 388.5Q95 425 122 452Q149 479 185.5 494.5Q222 510 264 510Q323 510 368.5 481Q414 452 437 404Q445 452 471 473.5Q497 495 542 495H555V433H540Q522 433 508 429Q494 425 484.5 412Q475 399 470 375Q465 351 465 310Q465 268 450 231Q435 194 408 166.5Q381 139 345 123.5Q309 108 267 108H203Q149 108 125 92Q101 76 101 53Q101 27 123.5 14Q146 1 199 1H343Q431 1 480 -29.5Q529 -60 529 -120Q529 -183 468 -223Q407 -263 282 -263ZM263 158Q294 158 321 170Q348 182 368.5 202.5Q389 223 400.5 250.5Q412 278 412 310Q412 341 400.5 368Q389 395 368.5 415.5Q348 436 321 447.5Q294 459 263 459Q233 459 206.5 447.5Q180 436 159.5 415.5Q139 395 127.5 368Q116 341 116 310Q116 279 127.5 251.5Q139 224 159.5 203Q180 182 206.5 170Q233 158 263 158ZM222 -48Q170 -47 135.5 -69Q101 -91 101 -129Q101 -147 109.5 -162.5Q118 -178 137.5 -189.5Q157 -201 189.5 -207Q222 -213 270 -213H296Q390 -213 433 -186.5Q476 -160 476 -123Q476 -84 442.5 -66Q409 -48 341 -48ZM265 558Q224 558 193.5 571Q163 584 143 605.5Q123 627 113.5 655.5Q104 684 104 715H153Q153 668 181 635Q209 602 265 602Q319 602 347.5 635Q376 668 376 715H427Q427 684 416 655.5Q405 627 384 605.5Q363 584 333 571Q303 558 265 558Z" glyph-name="gbreve.alt" horiz-adv-x="581" unicode="&#59664;" /><glyph d="M358 -9Q292 -9 236 15.5Q180 40 138.5 82Q97 124 73.5 179.5Q50 235 50 298Q50 361 74 417Q98 473 139.5 514.5Q181 556 237 580Q293 604 358 604Q446 604 515.5 563.5Q585 523 623 454L573 425Q541 483 485.5 517Q430 551 358 551Q304 551 258.5 531Q213 511 179.5 476.5Q146 442 127 396Q108 350 108 298Q108 247 126.5 201Q145 155 178 120.5Q211 86 257 65.5Q303 45 358 45Q410 45 452 61.5Q494 78 524.5 107.5Q555 137 574 176.5Q593 216 599 261H351V315H658V297Q658 235 637 179.5Q616 124 577 82Q538 40 482.5 15.5Q427 -9 358 -9ZM356 660Q315 660 284.5 673Q254 686 234 707.5Q214 729 204.5 757.5Q195 786 195 817H244Q244 770 272 737Q300 704 356 704Q410 704 438.5 737Q467 770 467 817H518Q518 786 507 757.5Q496 729 475 707.5Q454 686 424 673Q394 660 356 660Z" glyph-name="gbreve.smcp" horiz-adv-x="706" unicode="&#57934;" /><glyph d="M361 -12Q297 -12 241.5 12Q186 36 145.5 77.5Q105 119 82 174Q59 229 59 292Q59 355 82 410.5Q105 466 145.5 507.5Q186 549 241.5 573Q297 597 361 597Q397 597 433.5 587.5Q470 578 502.5 559Q535 540 562 512.5Q589 485 606 450V585H662V12Q662 -56 641.5 -110.5Q621 -165 582.5 -203Q544 -241 490 -262Q436 -283 370 -283Q316 -283 274 -272Q232 -261 199 -240.5Q166 -220 140.5 -190.5Q115 -161 94 -123L149 -98Q181 -160 233 -195.5Q285 -231 370 -231Q424 -231 468 -214Q512 -197 542.5 -165.5Q573 -134 589.5 -89.5Q606 -45 606 10V134Q589 99 562 71.5Q535 44 502.5 25.5Q470 7 433.5 -2.5Q397 -12 361 -12ZM363 41Q416 41 461 60.5Q506 80 540 114Q574 148 593 194Q612 240 612 292Q612 344 593 390Q574 436 540 470Q506 504 461 524Q416 544 363 544Q312 544 267 524.5Q222 505 188.5 470.5Q155 436 136 390.5Q117 345 117 292Q117 240 136 194Q155 148 188.5 114Q222 80 267 60.5Q312 41 363 41ZM336 811H385L504 656H443L360 766L277 656H217Z" glyph-name="gcircumflex" horiz-adv-x="747" unicode="&#285;" /><glyph d="M282 -263Q217 -263 172.5 -253.5Q128 -244 100.5 -226.5Q73 -209 61 -185Q49 -161 49 -132Q49 -97 68 -73.5Q87 -50 116 -36Q49 -14 49 50Q49 90 76.5 114.5Q104 139 150 147Q110 172 87 214Q64 256 64 310Q64 352 79.5 388.5Q95 425 122 452Q149 479 185.5 494.5Q222 510 264 510Q323 510 368.5 481Q414 452 437 404Q445 452 471 473.5Q497 495 542 495H555V433H540Q522 433 508 429Q494 425 484.5 412Q475 399 470 375Q465 351 465 310Q465 268 450 231Q435 194 408 166.5Q381 139 345 123.5Q309 108 267 108H203Q149 108 125 92Q101 76 101 53Q101 27 123.5 14Q146 1 199 1H343Q431 1 480 -29.5Q529 -60 529 -120Q529 -183 468 -223Q407 -263 282 -263ZM263 158Q294 158 321 170Q348 182 368.5 202.5Q389 223 400.5 250.5Q412 278 412 310Q412 341 400.5 368Q389 395 368.5 415.5Q348 436 321 447.5Q294 459 263 459Q233 459 206.5 447.5Q180 436 159.5 415.5Q139 395 127.5 368Q116 341 116 310Q116 279 127.5 251.5Q139 224 159.5 203Q180 182 206.5 170Q233 158 263 158ZM222 -48Q170 -47 135.5 -69Q101 -91 101 -129Q101 -147 109.5 -162.5Q118 -178 137.5 -189.5Q157 -201 189.5 -207Q222 -213 270 -213H296Q390 -213 433 -186.5Q476 -160 476 -123Q476 -84 442.5 -66Q409 -48 341 -48ZM230 720H279L398 565H337L254 675L171 565H111Z" glyph-name="gcircumflex.alt" horiz-adv-x="581" unicode="&#59662;" /><glyph d="M358 -9Q292 -9 236 15.5Q180 40 138.5 82Q97 124 73.5 179.5Q50 235 50 298Q50 361 74 417Q98 473 139.5 514.5Q181 556 237 580Q293 604 358 604Q446 604 515.5 563.5Q585 523 623 454L573 425Q541 483 485.5 517Q430 551 358 551Q304 551 258.5 531Q213 511 179.5 476.5Q146 442 127 396Q108 350 108 298Q108 247 126.5 201Q145 155 178 120.5Q211 86 257 65.5Q303 45 358 45Q410 45 452 61.5Q494 78 524.5 107.5Q555 137 574 176.5Q593 216 599 261H351V315H658V297Q658 235 637 179.5Q616 124 577 82Q538 40 482.5 15.5Q427 -9 358 -9ZM332 815H381L500 660H439L356 770L273 660H213Z" glyph-name="gcircumflex.smcp" horiz-adv-x="706" unicode="&#57931;" /><glyph d="M361 -12Q297 -12 241.5 12Q186 36 145.5 77.5Q105 119 82 174Q59 229 59 292Q59 355 82 410.5Q105 466 145.5 507.5Q186 549 241.5 573Q297 597 361 597Q397 597 433.5 587.5Q470 578 502.5 559Q535 540 562 512.5Q589 485 606 450V585H662V12Q662 -56 641.5 -110.5Q621 -165 582.5 -203Q544 -241 490 -262Q436 -283 370 -283Q316 -283 274 -272Q232 -261 199 -240.5Q166 -220 140.5 -190.5Q115 -161 94 -123L149 -98Q181 -160 233 -195.5Q285 -231 370 -231Q424 -231 468 -214Q512 -197 542.5 -165.5Q573 -134 589.5 -89.5Q606 -45 606 10V134Q589 99 562 71.5Q535 44 502.5 25.5Q470 7 433.5 -2.5Q397 -12 361 -12ZM363 41Q416 41 461 60.5Q506 80 540 114Q574 148 593 194Q612 240 612 292Q612 344 593 390Q574 436 540 470Q506 504 461 524Q416 544 363 544Q312 544 267 524.5Q222 505 188.5 470.5Q155 436 136 390.5Q117 345 117 292Q117 240 136 194Q155 148 188.5 114Q222 80 267 60.5Q312 41 363 41ZM335 660 378 864H433L375 660Z" glyph-name="gcommaaccent" horiz-adv-x="747" unicode="&#291;" /><glyph d="M282 -263Q217 -263 172.5 -253.5Q128 -244 100.5 -226.5Q73 -209 61 -185Q49 -161 49 -132Q49 -97 68 -73.5Q87 -50 116 -36Q49 -14 49 50Q49 90 76.5 114.5Q104 139 150 147Q110 172 87 214Q64 256 64 310Q64 352 79.5 388.5Q95 425 122 452Q149 479 185.5 494.5Q222 510 264 510Q323 510 368.5 481Q414 452 437 404Q445 452 471 473.5Q497 495 542 495H555V433H540Q522 433 508 429Q494 425 484.5 412Q475 399 470 375Q465 351 465 310Q465 268 450 231Q435 194 408 166.5Q381 139 345 123.5Q309 108 267 108H203Q149 108 125 92Q101 76 101 53Q101 27 123.5 14Q146 1 199 1H343Q431 1 480 -29.5Q529 -60 529 -120Q529 -183 468 -223Q407 -263 282 -263ZM263 158Q294 158 321 170Q348 182 368.5 202.5Q389 223 400.5 250.5Q412 278 412 310Q412 341 400.5 368Q389 395 368.5 415.5Q348 436 321 447.5Q294 459 263 459Q233 459 206.5 447.5Q180 436 159.5 415.5Q139 395 127.5 368Q116 341 116 310Q116 279 127.5 251.5Q139 224 159.5 203Q180 182 206.5 170Q233 158 263 158ZM212 -48Q164 -50 132.5 -71Q101 -92 101 -129Q101 -147 109.5 -162.5Q118 -178 137.5 -189.5Q157 -201 189.5 -207Q222 -213 270 -213H296Q390 -213 433 -186.5Q476 -160 476 -123Q476 -84 442.5 -66Q409 -48 341 -48ZM244 569 287 773H342L284 569Z" glyph-name="gcommaaccent.alt" horiz-adv-x="581" unicode="&#59665;" /><glyph d="M358 -9Q292 -9 236 15.5Q180 40 138.5 82Q97 124 73.5 179.5Q50 235 50 298Q50 361 74 417Q98 473 139.5 514.5Q181 556 237 580Q293 604 358 604Q446 604 515.5 563.5Q585 523 623 454L573 425Q541 483 485.5 517Q430 551 358 551Q304 551 258.5 531Q213 511 179.5 476.5Q146 442 127 396Q108 350 108 298Q108 247 126.5 201Q145 155 178 120.5Q211 86 257 65.5Q303 45 358 45Q410 45 452 61.5Q494 78 524.5 107.5Q555 137 574 176.5Q593 216 599 261H351V315H658V297Q658 235 637 179.5Q616 124 577 82Q538 40 482.5 15.5Q427 -9 358 -9ZM287 -277 330 -73H385L327 -277Z" glyph-name="gcommaaccent.smcp" horiz-adv-x="706" unicode="&#57920;" /><glyph d="M361 -12Q297 -12 241.5 12Q186 36 145.5 77.5Q105 119 82 174Q59 229 59 292Q59 355 82 410.5Q105 466 145.5 507.5Q186 549 241.5 573Q297 597 361 597Q397 597 433.5 587.5Q470 578 502.5 559Q535 540 562 512.5Q589 485 606 450V585H662V12Q662 -56 641.5 -110.5Q621 -165 582.5 -203Q544 -241 490 -262Q436 -283 370 -283Q316 -283 274 -272Q232 -261 199 -240.5Q166 -220 140.5 -190.5Q115 -161 94 -123L149 -98Q181 -160 233 -195.5Q285 -231 370 -231Q424 -231 468 -214Q512 -197 542.5 -165.5Q573 -134 589.5 -89.5Q606 -45 606 10V134Q589 99 562 71.5Q535 44 502.5 25.5Q470 7 433.5 -2.5Q397 -12 361 -12ZM363 41Q416 41 461 60.5Q506 80 540 114Q574 148 593 194Q612 240 612 292Q612 344 593 390Q574 436 540 470Q506 504 461 524Q416 544 363 544Q312 544 267 524.5Q222 505 188.5 470.5Q155 436 136 390.5Q117 345 117 292Q117 240 136 194Q155 148 188.5 114Q222 80 267 60.5Q312 41 363 41ZM311 713Q311 734 325 747.5Q339 761 360 761Q383 761 396 747.5Q409 734 409 713Q409 692 396 678Q383 664 360 664Q337 664 324 678Q311 692 311 713Z" glyph-name="gdotaccent" horiz-adv-x="747" unicode="&#289;" /><glyph d="M282 -263Q217 -263 172.5 -253.5Q128 -244 100.5 -226.5Q73 -209 61 -185Q49 -161 49 -132Q49 -97 68 -73.5Q87 -50 116 -36Q49 -14 49 50Q49 90 76.5 114.5Q104 139 150 147Q110 172 87 214Q64 256 64 310Q64 352 79.5 388.5Q95 425 122 452Q149 479 185.5 494.5Q222 510 264 510Q323 510 368.5 481Q414 452 437 404Q445 452 471 473.5Q497 495 542 495H555V433H540Q522 433 508 429Q494 425 484.5 412Q475 399 470 375Q465 351 465 310Q465 268 450 231Q435 194 408 166.5Q381 139 345 123.5Q309 108 267 108H203Q149 108 125 92Q101 76 101 53Q101 27 123.5 14Q146 1 199 1H343Q431 1 480 -29.5Q529 -60 529 -120Q529 -183 468 -223Q407 -263 282 -263ZM263 158Q294 158 321 170Q348 182 368.5 202.5Q389 223 400.5 250.5Q412 278 412 310Q412 341 400.5 368Q389 395 368.5 415.5Q348 436 321 447.5Q294 459 263 459Q233 459 206.5 447.5Q180 436 159.5 415.5Q139 395 127.5 368Q116 341 116 310Q116 279 127.5 251.5Q139 224 159.5 203Q180 182 206.5 170Q233 158 263 158ZM222 -48Q170 -47 135.5 -69Q101 -91 101 -129Q101 -147 109.5 -162.5Q118 -178 137.5 -189.5Q157 -201 189.5 -207Q222 -213 270 -213H296Q390 -213 433 -186.5Q476 -160 476 -123Q476 -84 442.5 -66Q409 -48 341 -48ZM217 650Q217 671 231 684.5Q245 698 266 698Q289 698 302 684.5Q315 671 315 650Q315 629 302 615Q289 601 266 601Q243 601 230 615Q217 629 217 650Z" glyph-name="gdotaccent.alt" horiz-adv-x="581" unicode="&#59663;" /><glyph d="M358 -9Q292 -9 236 15.5Q180 40 138.5 82Q97 124 73.5 179.5Q50 235 50 298Q50 361 74 417Q98 473 139.5 514.5Q181 556 237 580Q293 604 358 604Q446 604 515.5 563.5Q585 523 623 454L573 425Q541 483 485.5 517Q430 551 358 551Q304 551 258.5 531Q213 511 179.5 476.5Q146 442 127 396Q108 350 108 298Q108 247 126.5 201Q145 155 178 120.5Q211 86 257 65.5Q303 45 358 45Q410 45 452 61.5Q494 78 524.5 107.5Q555 137 574 176.5Q593 216 599 261H351V315H658V297Q658 235 637 179.5Q616 124 577 82Q538 40 482.5 15.5Q427 -9 358 -9ZM310 746Q310 767 324 780.5Q338 794 359 794Q382 794 395 780.5Q408 767 408 746Q408 725 395 711Q382 697 359 697Q336 697 323 711Q310 725 310 746Z" glyph-name="gdotaccent.smcp" horiz-adv-x="706" unicode="&#57935;" /><glyph d="M-60 -214Q23 -214 54 -174Q85 -134 85 -54V636Q85 686 101 727.5Q117 769 147 799Q177 829 218.5 846Q260 863 310 863Q359 863 400.5 846Q442 829 472 799.5Q502 770 519 730Q536 690 536 643Q536 578 503.5 528.5Q471 479 416 454Q492 430 537.5 372.5Q583 315 583 234Q583 182 565.5 138Q548 94 516.5 61.5Q485 29 441 10.5Q397 -8 343 -8Q269 -8 221 20L226 74Q273 45 343 45Q381 45 414 60Q447 75 471.5 100.5Q496 126 510.5 160.5Q525 195 525 234Q525 273 510.5 307Q496 341 469 366.5Q442 392 404 406.5Q366 421 320 421H299V475H320Q350 475 378.5 487.5Q407 500 429 522.5Q451 545 464.5 576.5Q478 608 478 645Q478 679 465.5 709.5Q453 740 430.5 763.5Q408 787 377 800.5Q346 814 310 814Q275 814 244 802Q213 790 190 767.5Q167 745 153.5 713.5Q140 682 140 643V-52Q140 -163 96.5 -215.5Q53 -268 -50 -268H-60Z" glyph-name="germandbls" horiz-adv-x="642" unicode="&#223;" /><glyph d="M147 720H221L341 565H287Z" glyph-name="grave" horiz-adv-x="502" unicode="`" /><glyph d="M53 249 363 367 53 481V533L423 391V342L53 196Z" glyph-name="greater" horiz-adv-x="475" unicode="&gt;" /><glyph d="M52 325 362 443 52 557V609L422 468V418L52 273ZM52 225H422V175H52Z" glyph-name="greaterequal" horiz-adv-x="475" unicode="&#8805;" /><glyph d="M67 232V268L222 385V340L103 249L222 159V115ZM229 232V268L383 385V340L265 249L383 159V115Z" glyph-name="guillemotleft" horiz-adv-x="451" unicode="&#171;" /><glyph d="M67 346V382L222 499V454L103 363L222 273V229ZM229 346V382L383 499V454L265 363L383 273V229Z" glyph-name="guillemotleft.cap" horiz-adv-x="451" unicode="&#58451;" /><glyph d="M67 160 186 250 67 340V385L222 268V233L67 116ZM229 160 348 250 229 340V385L383 268V233L229 116Z" glyph-name="guillemotright" horiz-adv-x="451" unicode="&#187;" /><glyph d="M67 273 186 363 67 454V499L222 382V346L67 229ZM229 273 347 363 229 454V499L383 382V346L229 229Z" glyph-name="guillemotright.cap" horiz-adv-x="451" unicode="&#58452;" /><glyph d="M70 231V269L220 388V340L105 249L220 160V112Z" glyph-name="guilsinglleft" horiz-adv-x="289" unicode="&#8249;" /><glyph d="M70 345V383L220 502V454L105 363L220 274V226Z" glyph-name="guilsinglleft.cap" horiz-adv-x="289" unicode="&#58449;" /><glyph d="M70 160 184 250 70 340V389L220 270V231L70 112Z" glyph-name="guilsinglright" horiz-adv-x="289" unicode="&#8250;" /><glyph d="M70 273 184 363 70 454V502L220 383V345L70 226Z" glyph-name="guilsinglright.cap" horiz-adv-x="289" unicode="&#58450;" /><glyph d="M86 740H141V471Q171 527 229 562Q287 597 364 597Q423 597 470.5 578.5Q518 560 552.5 525Q587 490 605.5 440.5Q624 391 624 328V0H566V329Q566 378 552 417.5Q538 457 511 485.5Q484 514 445.5 529.5Q407 545 357 545Q311 545 271.5 528.5Q232 512 203 482.5Q174 453 157.5 413.5Q141 374 141 328V0H86Z" glyph-name="h" horiz-adv-x="706" unicode="h" /><glyph d="M457 272H129V0H72V596H129V326H457V596H514V0H457Z" glyph-name="h.smcp" horiz-adv-x="586" unicode="&#57864;" /><glyph d="M19 675H98V740H153V675H250V631H153V471Q183 527 241 562Q299 597 376 597Q435 597 482.5 578.5Q530 560 564.5 525Q599 490 617.5 440.5Q636 391 636 328V0H578V329Q578 378 564 417.5Q550 457 523 485.5Q496 514 457.5 529.5Q419 545 369 545Q323 545 283.5 528.5Q244 512 215 482.5Q186 453 169.5 413.5Q153 374 153 328V0H98V631H19Z" glyph-name="hbar" horiz-adv-x="719" unicode="&#295;" /><glyph d="M477 272H149V0H92V443H26V497H92V596H149V497H477V596H534V497H600V443H534V0H477ZM149 325H477V443H149Z" glyph-name="hbar.smcp" horiz-adv-x="626" unicode="&#57943;" /><glyph d="M89 740H144V471Q174 527 232 562Q290 597 367 597Q426 597 473.5 578.5Q521 560 555.5 525Q590 490 608.5 440.5Q627 391 627 328V0H569V329Q569 378 555 417.5Q541 457 514 485.5Q487 514 448.5 529.5Q410 545 360 545Q314 545 274.5 528.5Q235 512 206 482.5Q177 453 160.5 413.5Q144 374 144 328V0H89ZM93 943H142L261 788H200L117 898L34 788H-26Z" glyph-name="hcircumflex" horiz-adv-x="709" unicode="&#293;" /><glyph d="M457 272H129V0H72V596H129V326H457V596H514V0H457ZM267 815H316L435 660H374L291 770L208 660H148Z" glyph-name="hcircumflex.smcp" horiz-adv-x="586" unicode="&#57939;" /><glyph d="M89 550Q89 589 103 623.5Q117 658 142 684Q167 710 200 725Q233 740 272 740Q310 740 342.5 727.5Q375 715 399 693.5Q423 672 438 642.5Q453 613 457 579Q462 613 476.5 642.5Q491 672 515 693.5Q539 715 571 727.5Q603 740 642 740Q681 740 715 725Q749 710 775 684Q801 658 816 623.5Q831 589 831 550Q831 507 818 463.5Q805 420 777 371.5Q749 323 705 266Q661 209 599 140L457 -17L316 140Q254 209 210.5 266Q167 323 140 371.5Q113 420 101 463.5Q89 507 89 550Z" glyph-name="heart" horiz-adv-x="920" unicode="&#9829;" /><glyph d="M100 0V427L437 750L774 427V0Z" glyph-name="house" horiz-adv-x="874" unicode="&#8962;" /><glyph d="M212 720H283L143 565H93ZM334 720H405L265 565H214Z" glyph-name="hungarumlaut" horiz-adv-x="502" unicode="&#733;" /><glyph d="M53 277H423V226H53Z" glyph-name="hyphen" horiz-adv-x="475" unicode="-" /><glyph d="M53 315H423V264H53Z" glyph-name="hyphen.cap" horiz-adv-x="475" unicode="&#58498;" /><glyph d="M85 585H142V0H85ZM65 713Q65 734 79 747.5Q93 761 114 761Q137 761 150 747.5Q163 734 163 713Q163 692 150 678Q137 664 114 664Q91 664 78 678Q65 692 65 713Z" glyph-name="i" horiz-adv-x="226" unicode="i" /><glyph d="M77 596H135V0H77Z" glyph-name="i.smcp" horiz-adv-x="213" unicode="&#57865;" /><glyph d="M207 805H282L142 650H88ZM85 585H142V0H85Z" glyph-name="iacute" horiz-adv-x="226" unicode="&#237;" /><glyph d="M194 816H269L129 661H75ZM77 596H135V0H77Z" glyph-name="iacute.smcp" horiz-adv-x="213" unicode="&#57944;" /><glyph d="M85 585H142V0H85ZM113 647Q72 647 41.5 660Q11 673 -9 694.5Q-29 716 -38.5 744.5Q-48 773 -48 804H1Q1 757 29 724Q57 691 113 691Q167 691 195.5 724Q224 757 224 804H275Q275 773 264 744.5Q253 716 232 694.5Q211 673 181 660Q151 647 113 647Z" glyph-name="ibreve" horiz-adv-x="226" unicode="&#301;" /><glyph d="M77 596H135V0H77ZM106 656Q65 656 34.5 669Q4 682 -16 703.5Q-36 725 -45.5 753.5Q-55 782 -55 813H-6Q-6 766 22 733Q50 700 106 700Q160 700 188.5 733Q217 766 217 813H268Q268 782 257 753.5Q246 725 225 703.5Q204 682 174 669Q144 656 106 656Z" glyph-name="ibreve.smcp" horiz-adv-x="213" unicode="&#57951;" /><glyph d="M85 585H142V0H85ZM89 787H138L257 632H196L113 742L30 632H-30Z" glyph-name="icircumflex" horiz-adv-x="226" unicode="&#238;" /><glyph d="M77 596H135V0H77ZM81 807H130L249 652H188L105 762L22 652H-38Z" glyph-name="icircumflex.smcp" horiz-adv-x="213" unicode="&#57946;" /><glyph d="M197 814H254V650H197ZM-28 814H28V650H-28ZM85 585H142V0H85Z" glyph-name="idieresis" horiz-adv-x="226" unicode="&#239;" /><glyph d="M176 805H233V666H176ZM-19 805H37V666H-19ZM77 596H135V0H77Z" glyph-name="idieresis.smcp" horiz-adv-x="213" unicode="&#57947;" /><glyph d="M85 585H142V0H85ZM65 713Q65 734 79 747.5Q93 761 114 761Q137 761 150 747.5Q163 734 163 713Q163 692 150 678Q137 664 114 664Q91 664 78 678Q65 692 65 713Z" glyph-name="idotaccent" horiz-adv-x="226" unicode="&#59269;" /><glyph d="M77 596H135V0H77ZM57 740Q57 761 71 774.5Q85 788 105 788Q128 788 140.5 774.5Q153 761 153 740Q153 719 140.5 705Q128 691 105 691Q83 691 70 705Q57 719 57 740Z" glyph-name="idotaccent.smcp" horiz-adv-x="213" unicode="&#57954;" /><glyph d="M85 585H142V0H85ZM-54 805H20L140 650H86Z" glyph-name="igrave" horiz-adv-x="226" unicode="&#236;" /><glyph d="M-61 816H13L133 661H79ZM77 596H135V0H77Z" glyph-name="igrave.smcp" horiz-adv-x="213" unicode="&#57945;" /><glyph d="M85 585H142V0H85ZM65 713Q65 734 79 747.5Q93 761 114 761Q137 761 150 747.5Q163 734 163 713Q163 692 150 678Q137 664 114 664Q91 664 78 678Q65 692 65 713ZM369 -20Q369 -77 360 -115Q351 -153 329 -176Q307 -199 269.5 -209Q232 -219 175 -219H85V-163H167Q214 -163 242 -157Q270 -151 286 -135Q302 -119 307 -91Q312 -63 312 -19V585H369ZM292 713Q292 734 306 747.5Q320 761 341 761Q364 761 377 747.5Q390 734 390 713Q390 692 377 678Q364 664 341 664Q318 664 305 678Q292 692 292 713Z" glyph-name="ij" horiz-adv-x="454" unicode="&#307;" /><glyph d="M209 53H237Q292 53 314 83Q336 113 336 162V596H392V163Q392 86 357 43Q322 0 238 0H209ZM66 596H124V0H66Z" glyph-name="ij.smcp" horiz-adv-x="459" unicode="&#58151;" /><glyph d="M85 585H142V0H85ZM-19 714H245V664H-19Z" glyph-name="imacron" horiz-adv-x="226" unicode="&#299;" /><glyph d="M-27 711H237V661H-27ZM77 596H135V0H77Z" glyph-name="imacron.smcp" horiz-adv-x="213" unicode="&#57950;" /><glyph d="M260 232Q229 232 201 244Q173 256 152 276.5Q131 297 119 325Q107 353 107 384Q107 416 119 443.5Q131 471 152 491.5Q173 512 201 524Q229 536 260 536Q288 536 315.5 526Q343 516 369.5 500Q396 484 422.5 463Q449 442 474 420Q500 443 525.5 463.5Q551 484 577.5 500.5Q604 517 631.5 526.5Q659 536 687 536Q719 536 746.5 524Q774 512 795 491.5Q816 471 828 443.5Q840 416 840 384Q840 353 828 325Q816 297 795 276.5Q774 256 746.5 244Q719 232 687 232Q659 232 631.5 241.5Q604 251 577.5 267.5Q551 284 525 305Q499 326 474 348Q449 326 423 305Q397 284 370 267.5Q343 251 315.5 241.5Q288 232 260 232ZM261 283Q303 283 346.5 313Q390 343 436 383Q390 423 346.5 453Q303 483 261 483Q241 483 222.5 475Q204 467 190 453Q176 439 168 421Q160 403 160 383Q160 363 168 345Q176 327 190 313Q204 299 222.5 291Q241 283 261 283ZM687 285Q707 285 725.5 293Q744 301 757.5 315Q771 329 778.5 347Q786 365 786 385Q786 405 778 423Q770 441 756.5 455Q743 469 725 477Q707 485 687 485Q644 485 601 454.5Q558 424 513 384Q558 344 601.5 314.5Q645 285 687 285Z" glyph-name="infinity" horiz-adv-x="940" unicode="&#8734;" /><glyph d="M-6 -151Q35 -151 60 -146Q85 -141 99 -127Q113 -113 117.5 -87.5Q122 -62 122 -21V548Q122 602 130.5 637Q139 672 159.5 693Q180 714 215 722Q250 730 302 730H307V677Q266 677 241 672.5Q216 668 202 654Q188 640 183.5 614.5Q179 589 179 547V-21Q179 -75 170.5 -110.5Q162 -146 141.5 -166.5Q121 -187 86.5 -195.5Q52 -204 -1 -204H-6Z" glyph-name="integral" horiz-adv-x="343" unicode="&#8747;" /><glyph d="M243 161Q242 194 241.5 250Q241 306 240.5 370Q240 434 240 498.5Q240 563 240 613V687Q191 680 159 655Q127 630 107 592L56 616Q82 668 136.5 704Q191 740 271 740Q316 740 354.5 727Q393 714 421 690.5Q449 667 465 634.5Q481 602 481 562Q481 515 467 486Q453 457 431.5 436Q410 415 385 397Q360 379 338.5 354Q317 329 303 293Q289 257 289 199V161ZM423 563Q423 613 387 646.5Q351 680 296 687V613Q296 556 294 491Q292 426 290 363Q309 394 332 414Q355 434 375.5 453.5Q396 473 409.5 498Q423 523 423 563ZM216 39Q216 60 230 73.5Q244 87 265 87Q288 87 301 73.5Q314 60 314 39Q314 18 301 4Q288 -10 265 -10Q242 -10 229 4Q216 18 216 39Z" glyph-name="interrobang" horiz-adv-x="539" unicode="&#8253;" /><glyph d="M269 -240Q224 -240 185.5 -227Q147 -214 118.5 -190.5Q90 -167 74 -134.5Q58 -102 58 -62Q58 -15 72 14Q86 43 107.5 64Q129 85 154 103Q179 121 200.5 146Q222 171 236 207.5Q250 244 250 301V339H297Q298 306 298.5 250Q299 194 299 130Q299 66 299 1.5Q299 -63 299 -113V-187Q348 -180 380 -155Q412 -130 433 -92L484 -116Q458 -168 403 -204Q348 -240 269 -240ZM117 -63Q117 -113 152.5 -146.5Q188 -180 243 -187V-113Q243 -56 245 8.5Q247 73 249 135Q230 105 207 85Q184 65 164 45.5Q144 26 130.5 1.5Q117 -23 117 -63ZM225 462Q225 483 239 496.5Q253 510 274 510Q297 510 310 496.5Q323 483 323 462Q323 441 310 427Q297 413 274 413Q251 413 238 427Q225 441 225 462Z" glyph-name="interrobangdown" horiz-adv-x="539" unicode="&#59701;" /><glyph d="M269 -10Q224 -10 185.5 3Q147 16 118.5 39.5Q90 63 74 95.5Q58 128 58 168Q58 215 72 244Q86 273 107.5 294Q129 315 154 333Q179 351 200.5 376Q222 401 236 437.5Q250 474 250 531V569H297Q298 536 298.5 480Q299 424 299 360Q299 296 299 231.5Q299 167 299 117V43Q348 49 380 74.5Q412 100 433 138L484 114Q458 62 403 26Q348 -10 269 -10ZM117 167Q117 116 152.5 83Q188 50 243 42V117Q243 173 245 238Q247 303 249 365Q230 335 207 315Q184 295 164 275.5Q144 256 130.5 231.5Q117 207 117 167ZM224 692Q224 713 238 726.5Q252 740 273 740Q296 740 309 726.5Q322 713 322 692Q322 671 309 657Q296 643 273 643Q250 643 237 657Q224 671 224 692Z" glyph-name="interrobangdown.cap" horiz-adv-x="539" unicode="&#59803;" /><glyph d="M89 564Q89 595 98.5 623.5Q108 652 128 673.5Q148 695 178.5 708Q209 721 250 721Q288 721 318 708Q348 695 369 673.5Q390 652 401 623.5Q412 595 412 564H361Q361 612 332.5 644.5Q304 677 250 678Q194 677 166 644.5Q138 612 138 564Z" glyph-name="invertedbreve" horiz-adv-x="502" unicode="&#58385;" /><glyph d="M119 -218Q61 -218 33.5 -188Q6 -158 6 -117Q6 -82 28 -49.5Q50 -17 85 12V585H142V0Q102 -32 81 -60.5Q60 -89 60 -115Q60 -139 76 -154Q92 -169 119 -169Q143 -169 159.5 -160Q176 -151 192 -137L225 -177Q204 -194 176.5 -206Q149 -218 119 -218ZM65 713Q65 734 79 747.5Q93 761 114 761Q137 761 150 747.5Q163 734 163 713Q163 692 150 678Q137 664 114 664Q91 664 78 678Q65 692 65 713Z" glyph-name="iogonek" horiz-adv-x="226" unicode="&#303;" /><glyph d="M113 -218Q55 -218 27.5 -188Q0 -158 0 -117Q0 -82 21.5 -50.5Q43 -19 77 10V596H135V0H136Q96 -32 75 -60.5Q54 -89 54 -115Q54 -139 70 -154Q86 -169 113 -169Q137 -169 153.5 -160Q170 -151 186 -137L219 -177Q198 -194 170.5 -206Q143 -218 113 -218Z" glyph-name="iogonek.smcp" horiz-adv-x="213" unicode="&#63054;" /><glyph d="M85 585H142V0H85ZM-59 660Q-59 710 -33 739Q-7 768 34 768Q59 768 79.5 759Q100 750 120 738Q139 727 156.5 717Q174 707 192 707Q215 707 228.5 721Q242 735 242 765H288Q288 714 263.5 685Q239 656 193 656Q164 656 141.5 667.5Q119 679 99 691Q82 701 67 709.5Q52 718 34 718Q14 718 1 703.5Q-12 689 -12 660Z" glyph-name="itilde" horiz-adv-x="226" unicode="&#297;" /><glyph d="M77 596H135V0H77ZM-67 660Q-67 710 -41 739Q-15 768 26 768Q51 768 71.5 759Q92 750 112 738Q131 727 148.5 717Q166 707 184 707Q207 707 220.5 721Q234 735 234 765H280Q280 714 255.5 685Q231 656 185 656Q156 656 133.5 667.5Q111 679 91 691Q74 701 59 709.5Q44 718 26 718Q6 718 -7 703.5Q-20 689 -20 660Z" glyph-name="itilde.smcp" horiz-adv-x="213" unicode="&#57948;" /><glyph d="M-70 -212Q-23 -212 7.5 -207Q38 -202 55 -185.5Q72 -169 78.5 -138.5Q85 -108 85 -58V585H142V-59Q142 -121 132 -161Q122 -201 99 -225Q76 -249 36.5 -258.5Q-3 -268 -61 -268H-70ZM65 713Q65 734 79 747.5Q93 761 114 761Q137 761 150 747.5Q163 734 163 713Q163 692 150 678Q137 664 114 664Q91 664 78 678Q65 692 65 713Z" glyph-name="j" horiz-adv-x="226" unicode="j" /><glyph d="M184 -9Q127 -9 86.5 17Q46 43 28 86L81 113Q95 82 120 63.5Q145 45 183 45Q230 45 256 75.5Q282 106 282 155V596H339V158Q339 80 298 35.5Q257 -9 184 -9Z" glyph-name="j.smcp" horiz-adv-x="408" unicode="&#57866;" /><glyph d="M-70 -212Q-23 -212 7.5 -207Q38 -202 55 -185.5Q72 -169 78.5 -138.5Q85 -108 85 -58V585H142V-59Q142 -121 132.5 -161.5Q123 -202 100 -225.5Q77 -249 37.5 -258.5Q-2 -268 -61 -268H-70ZM89 800H138L257 645H196L113 755L30 645H-30Z" glyph-name="jcircumflex" horiz-adv-x="226" unicode="&#309;" /><glyph d="M184 -9Q127 -9 86.5 17Q46 43 28 86L81 113Q95 82 120 63.5Q145 45 183 45Q230 45 256 75.5Q282 106 282 155V596H339V158Q339 80 298 35.5Q257 -9 184 -9ZM281 807H330L449 652H388L305 762L222 652H162Z" glyph-name="jcircumflex.smcp" horiz-adv-x="408" unicode="&#63027;" /><glyph d="M278 305 142 164V0H86V740H142V231L482 585H555L319 340L570 0H503Z" glyph-name="k" horiz-adv-x="607" unicode="k" /><glyph d="M249 319 129 184V0H73V596H129V257L433 596H504L290 359L521 0H456Z" glyph-name="k.smcp" horiz-adv-x="554" unicode="&#57867;" /><glyph d="M278 305 142 164V0H86V740H142V231L482 585H555L319 340L570 0H503ZM246 -258 289 -54H344L286 -258Z" glyph-name="kcommaaccent" horiz-adv-x="607" unicode="&#311;" /><glyph d="M249 319 129 184V0H73V596H129V257L433 596H504L290 359L521 0H456ZM218 -261 261 -57H316L258 -261Z" glyph-name="kcommaaccent.smcp" horiz-adv-x="554" unicode="&#57960;" /><glyph d="M277 305 142 164V0H85V585H142V231L481 585H555L319 340L570 0H502Z" glyph-name="kgreenlandic" horiz-adv-x="607" unicode="&#312;" /><glyph d="M86 740H144V0H86Z" glyph-name="l" horiz-adv-x="231" unicode="l" /><glyph d="M72 596H129V54H403V0H72Z" glyph-name="l.smcp" horiz-adv-x="451" unicode="&#57868;" /><glyph d="M210 950H285L145 795H91ZM86 740H144V0H86Z" glyph-name="lacute" horiz-adv-x="231" unicode="&#314;" /><glyph d="M72 596H129V54H403V0H72ZM191 816H266L126 661H72Z" glyph-name="lacute.smcp" horiz-adv-x="451" unicode="&#57963;" /><glyph d="M258 740H313L250 568H209ZM86 740H144V0H86Z" glyph-name="lcaron" horiz-adv-x="264" unicode="&#318;" /><glyph d="M72 596H129V54H403V0H72ZM321 596H376L313 424H272Z" glyph-name="lcaron.smcp" horiz-adv-x="451" unicode="&#57964;" /><glyph d="M9 -258 52 -54H107L49 -258ZM86 740H144V0H86Z" glyph-name="lcommaaccent" horiz-adv-x="231" unicode="&#316;" /><glyph d="M72 596H129V54H403V0H72ZM171 -264 214 -60H269L211 -264Z" glyph-name="lcommaaccent.smcp" horiz-adv-x="451" unicode="&#57965;" /><glyph d="M86 740H144V0H86ZM252 286Q252 307 266 320.5Q280 334 301 334Q324 334 337 320.5Q350 307 350 286Q350 265 337 251Q324 237 301 237Q278 237 265 251Q252 265 252 286Z" glyph-name="ldot" horiz-adv-x="382" unicode="&#320;" /><glyph d="M72 596H129V54H403V0H72ZM324 322Q324 343 338 356.5Q352 370 373 370Q396 370 409 356.5Q422 343 422 322Q422 301 409 287Q396 273 373 273Q350 273 337 287Q324 301 324 322Z" glyph-name="ldot.smcp" horiz-adv-x="459" unicode="&#57969;" /><glyph d="M53 342V391L423 533V481L113 367L423 249V196Z" glyph-name="less" horiz-adv-x="475" unicode="&lt;" /><glyph d="M52 418V468L422 609V557L113 443L422 325V273ZM52 225H422V175H52Z" glyph-name="lessequal" horiz-adv-x="475" unicode="&#8804;" /><glyph d="M75 430H183Q173 455 167 483Q161 511 161 544Q161 588 176 624.5Q191 661 218.5 686.5Q246 712 284.5 726Q323 740 370 740Q445 740 495.5 711.5Q546 683 578 634L531 598Q506 644 468 667Q430 690 370 690Q301 690 259.5 650Q218 610 218 545Q218 513 225 484.5Q232 456 243 430H475V340H290Q311 301 327.5 260.5Q344 220 344 171Q344 135 332 103Q363 77 396 57Q429 37 472 37Q528 37 556 67Q584 97 584 177V195H642V170Q642 73 600.5 31.5Q559 -10 477 -10Q422 -10 383 12Q344 34 311 62Q289 30 253.5 10Q218 -10 171 -10Q106 -10 76 19Q46 48 46 93Q46 137 76.5 165Q107 193 161 194Q201 194 232.5 176.5Q264 159 293 136Q296 151 296 168Q296 219 276 259Q256 299 231 340H75ZM171 35Q207 35 233.5 51Q260 67 276 93Q250 116 223 132Q196 148 163 148Q130 148 113.5 132.5Q97 117 97 92Q97 66 116.5 50.5Q136 35 171 35Z" glyph-name="lira" horiz-adv-x="697" unicode="&#8356;" /><glyph d="M505 456H34V511H563V201H505Z" glyph-name="logicalnot" horiz-adv-x="603" unicode="&#172;" /><glyph d="M53 -100H490V-150H53Z" glyph-name="lowline" horiz-adv-x="542" unicode="&#58641;" /><glyph d="M33 366 413 746 795 364 415 -16ZM415 58 722 365 413 673 106 366Z" glyph-name="lozenge" horiz-adv-x="843" unicode="&#9674;" /><glyph d="M13 409 129 459V854H187V485L304 536V487L187 437V0H129V412L13 362Z" glyph-name="lslash" horiz-adv-x="317" unicode="&#322;" /><glyph d="M20 281 89 310V596H146V334L325 410V360L146 284V54H420V0H89V260L20 231Z" glyph-name="lslash.smcp" horiz-adv-x="469" unicode="&#63225;" /><glyph d="M85 585H140V473Q168 529 223 563Q278 597 353 597Q441 597 498.5 557Q556 517 579 451Q605 515 666.5 556Q728 597 812 597Q873 597 921.5 578Q970 559 1003.5 525Q1037 491 1055 443.5Q1073 396 1073 338V0H1016V342Q1016 386 1001.5 423.5Q987 461 960.5 488Q934 515 896 530Q858 545 811 545Q768 545 730 531Q692 517 664 490.5Q636 464 620 426.5Q604 389 604 342V0H547V353Q547 396 533 431.5Q519 467 493.5 492Q468 517 431.5 531Q395 545 349 545Q304 545 266 529.5Q228 514 200.5 486Q173 458 157.5 418.5Q142 379 142 331V0H85Z" glyph-name="m" horiz-adv-x="1155" unicode="m" /><glyph d="M72 596H128L364 269L602 596H656V0H600V498L364 175L129 501V0H72Z" glyph-name="m.smcp" horiz-adv-x="729" unicode="&#57869;" /><glyph d="M120 615H384V565H120Z" glyph-name="macron" horiz-adv-x="502" unicode="&#175;" /><glyph d="M349 -10Q295 -10 248 10.5Q201 31 165.5 66Q130 101 110 148.5Q90 196 90 250Q90 304 110 351.5Q130 399 165.5 434Q201 469 248 489.5Q295 510 349 510Q403 510 450 489.5Q497 469 532.5 434Q568 399 588 351.5Q608 304 608 250Q608 196 588 148.5Q568 101 532.5 66Q497 31 450 10.5Q403 -10 349 -10Z" glyph-name="mediumblackcircle" horiz-adv-x="698" unicode="&#9899;" /><glyph d="M349 -10Q295 -10 248 10Q201 30 165.5 65Q130 100 110 147.5Q90 195 90 250Q90 305 110 352.5Q130 400 165.5 435Q201 470 248 490Q295 510 349 510Q403 510 450.5 490Q498 470 533 435Q568 400 588.5 352.5Q609 305 609 250Q609 195 588.5 147.5Q568 100 533 65Q498 30 450.5 10Q403 -10 349 -10ZM349 42Q391 42 428 58.5Q465 75 492.5 103Q520 131 535.5 169Q551 207 551 250Q551 293 535.5 331Q520 369 492.5 397Q465 425 428 441.5Q391 458 349 458Q307 458 270 441.5Q233 425 205.5 397Q178 369 162.5 331Q147 293 147 250Q147 207 162.5 169Q178 131 205.5 103Q233 75 270 58.5Q307 42 349 42Z" glyph-name="mediumwhitecircle" horiz-adv-x="698" unicode="&#9898;" /><glyph d="M53 391H423V341H53Z" glyph-name="minus" horiz-adv-x="475" unicode="&#8722;" /><glyph d="M35 234H248V189H35Z" glyph-name="minus.inf" horiz-adv-x="284" unicode="&#58748;" /><glyph d="M44 526 88 730H145L83 526Z" glyph-name="minute" horiz-adv-x="189" unicode="&#8242;" /><glyph d="M71 500H129V224Q129 183 142 149.5Q155 116 177.5 92Q200 68 231.5 55Q263 42 300 42Q338 42 370.5 55.5Q403 69 426.5 93Q450 117 463.5 150Q477 183 477 221V500H534V0H478V93Q452 47 404.5 18.5Q357 -10 294 -10Q239 -10 196.5 14Q154 38 128 73V-230H71Z" glyph-name="mu" horiz-adv-x="604" unicode="&#181;" /><glyph d="M76 236 204 364 76 493 110 527 238 398 366 526 400 492 272 364 400 237 366 203 238 330 110 202Z" glyph-name="multiply" horiz-adv-x="475" unicode="&#215;" /><glyph d="M85 585H140V466Q169 524 228 560.5Q287 597 365 597Q424 597 471.5 578.5Q519 560 553.5 525Q588 490 606.5 440.5Q625 391 625 328V0H568V329Q568 378 553.5 417.5Q539 457 512 485Q485 513 446 528.5Q407 544 358 544Q312 544 272.5 527.5Q233 511 204 482Q175 453 158.5 413.5Q142 374 142 328V0H85Z" glyph-name="n" horiz-adv-x="707" unicode="n" /><glyph d="M72 596H135L501 89V596H558V0H497L129 509V0H72Z" glyph-name="n.smcp" horiz-adv-x="630" unicode="&#57870;" /><glyph d="M85 585H140V466Q169 524 228 560.5Q287 597 365 597Q424 597 471.5 578.5Q519 560 553.5 525Q588 490 606.5 440.5Q625 391 625 328V0H568V329Q568 378 553.5 417.5Q539 457 512 485Q485 513 446 528.5Q407 544 358 544Q312 544 272.5 527.5Q233 511 204 482Q175 453 158.5 413.5Q142 374 142 328V0H85ZM449 815H524L384 660H330Z" glyph-name="nacute" horiz-adv-x="707" unicode="&#324;" /><glyph d="M72 596H135L501 89V596H558V0H497L129 509V0H72ZM409 803H484L344 648H290Z" glyph-name="nacute.smcp" horiz-adv-x="630" unicode="&#57974;" /><glyph d="M85 585H140V466Q169 524 228 560.5Q287 597 365 597Q424 597 471.5 578.5Q519 560 553.5 525Q588 490 606.5 440.5Q625 391 625 328V0H568V329Q568 378 553.5 417.5Q539 457 512 485Q485 513 446 528.5Q407 544 358 544Q312 544 272.5 527.5Q233 511 204 482Q175 453 158.5 413.5Q142 374 142 328V0H85ZM228 815H287L368 701L452 815H511L393 660H345Z" glyph-name="ncaron" horiz-adv-x="707" unicode="&#328;" /><glyph d="M72 596H135L501 89V596H558V0H497L129 509V0H72ZM176 806H235L316 692L400 806H459L341 651H293Z" glyph-name="ncaron.smcp" horiz-adv-x="630" unicode="&#57978;" /><glyph d="M85 585H140V466Q169 524 228 560.5Q287 597 365 597Q424 597 471.5 578.5Q519 560 553.5 525Q588 490 606.5 440.5Q625 391 625 328V0H568V329Q568 378 553.5 417.5Q539 457 512 485Q485 513 446 528.5Q407 544 358 544Q312 544 272.5 527.5Q233 511 204 482Q175 453 158.5 413.5Q142 374 142 328V0H85ZM285 -254 328 -50H383L325 -254Z" glyph-name="ncommaaccent" horiz-adv-x="707" unicode="&#326;" /><glyph d="M72 596H135L501 89V596H558V0H497L129 509V0H72ZM255 -259 298 -55H353L295 -259Z" glyph-name="ncommaaccent.smcp" horiz-adv-x="630" unicode="&#57981;" /><glyph d="M390 258Q348 240 296 240Q245 240 200 259.5Q155 279 122 312.5Q89 346 70 392Q51 438 51 490Q51 543 70.5 588.5Q90 634 124 668Q158 702 204.5 721Q251 740 304 740Q357 740 403.5 720.5Q450 701 484 667.5Q518 634 537.5 588.5Q557 543 557 491Q557 446 543 404.5Q529 363 506 330L282 0H213ZM304 294Q345 294 380.5 309.5Q416 325 442.5 351.5Q469 378 484.5 413.5Q500 449 500 490Q500 531 484.5 566.5Q469 602 442.5 629Q416 656 380.5 671.5Q345 687 304 687Q264 687 228.5 671.5Q193 656 166 629Q139 602 123.5 566.5Q108 531 108 490Q108 449 123.5 413.5Q139 378 166 351.5Q193 325 228.5 309.5Q264 294 304 294Z" glyph-name="nine" horiz-adv-x="608" unicode="9" /><glyph d="M390 258Q348 240 296 240Q245 240 200 259.5Q155 279 122 312.5Q89 346 70 392Q51 438 51 490Q51 543 70.5 588.5Q90 634 124 668Q158 702 204.5 721Q251 740 304 740Q357 740 403.5 720.5Q450 701 484 667.5Q518 634 537.5 588.5Q557 543 557 491Q557 446 543 404.5Q529 363 506 330L282 0H213ZM304 294Q345 294 380.5 309.5Q416 325 442.5 351.5Q469 378 484.5 413.5Q500 449 500 490Q500 531 484.5 566.5Q469 602 442.5 629Q416 656 380.5 671.5Q345 687 304 687Q264 687 228.5 671.5Q193 656 166 629Q139 602 123.5 566.5Q108 531 108 490Q108 449 123.5 413.5Q139 378 166 351.5Q193 325 228.5 309.5Q264 294 304 294Z" glyph-name="nine.LP" horiz-adv-x="608" unicode="&#58686;" /><glyph d="M190 0 372 277Q333 262 287 262Q238 262 195 280.5Q152 299 120 331Q88 363 70 406.5Q52 450 52 501Q52 551 71 595Q90 639 122.5 671Q155 703 199 721.5Q243 740 294 740Q346 740 390 721Q434 702 466.5 670Q499 638 517.5 594.5Q536 551 536 501Q536 459 523 419.5Q510 380 488 348L260 0ZM295 315Q333 315 366.5 329.5Q400 344 425 369Q450 394 464.5 428Q479 462 479 500Q479 538 464.5 572Q450 606 425 631.5Q400 657 366.5 672Q333 687 295 687Q257 687 223 672.5Q189 658 163.5 632.5Q138 607 123.5 573Q109 539 109 501Q109 462 123.5 428.5Q138 395 163.5 369.5Q189 344 223 329.5Q257 315 295 315Z" glyph-name="nine.LT" horiz-adv-x="588" unicode="&#58697;" /><glyph d="M210 149Q192 142 168 142Q140 142 115 153Q90 164 71.5 183Q53 202 42 228Q31 254 31 285Q31 316 42.5 342Q54 368 73.5 387Q93 406 119.5 417Q146 428 177 428Q209 428 235.5 417Q262 406 282 386.5Q302 367 313 341Q324 315 324 285Q324 258 316 232.5Q308 207 295 187L174 0H111ZM178 188Q198 188 215.5 195.5Q233 203 246 216.5Q259 230 266.5 247.5Q274 265 274 285Q274 325 246 353Q218 381 178 381Q138 381 110 353Q82 325 82 284Q82 244 110 216Q138 188 178 188Z" glyph-name="nine.inf" horiz-adv-x="355" unicode="&#58746;" /><glyph d="M882 -6Q850 -6 822.5 5.5Q795 17 775 36.5Q755 56 744 82.5Q733 109 733 139Q733 168 741.5 195Q750 222 765 243L886 422H947L848 277Q870 285 891 285Q920 285 945.5 274Q971 263 989.5 243.5Q1008 224 1019 197.5Q1030 171 1030 140Q1030 109 1018.5 82Q1007 55 987 35.5Q967 16 940 5Q913 -6 882 -6ZM210 456Q192 449 168 449Q140 449 115 460Q90 471 71.5 490Q53 509 42 535Q31 561 31 592Q31 623 42.5 649Q54 675 73.5 694Q93 713 119.5 724Q146 735 177 735Q209 735 235.5 724Q262 713 282 693.5Q302 674 313 648Q324 622 324 592Q324 565 316 539.5Q308 514 295 494L174 307H111ZM624 730H692L165 0H97ZM486 49H570V334Q561 319 540.5 308.5Q520 298 500 298H494V353H497Q518 353 532 359.5Q546 366 554.5 376Q563 386 567 398.5Q571 411 571 422H622V49H703V0H486ZM881 42Q901 42 918.5 49.5Q936 57 949.5 70.5Q963 84 971 102Q979 120 979 141Q979 161 971 179Q963 197 949.5 210.5Q936 224 918.5 231.5Q901 239 881 239Q840 239 811.5 210.5Q783 182 783 140Q783 98 811.5 70Q840 42 881 42ZM178 495Q198 495 215.5 502.5Q233 510 246 523.5Q259 537 266.5 554.5Q274 572 274 592Q274 632 246 660Q218 688 178 688Q138 688 110 660Q82 632 82 591Q82 551 110 523Q138 495 178 495Z" glyph-name="ninesixteenths" horiz-adv-x="1066" unicode="&#61977;" /><glyph glyph-name="nonmarkingreturn" horiz-adv-x="250" unicode="" /><glyph d="M311 469H423V419H287L233 307H423V258H209L177 191H124L156 258H53V307H179L233 419H53V469H257L290 536H344Z" glyph-name="notequal" horiz-adv-x="475" unicode="&#8800;" /><glyph d="M85 585H140V466Q169 524 228 560.5Q287 597 365 597Q424 597 471.5 578.5Q519 560 553.5 525Q588 490 606.5 440.5Q625 391 625 328V0H568V329Q568 378 553.5 417.5Q539 457 512 485Q485 513 446 528.5Q407 544 358 544Q312 544 272.5 527.5Q233 511 204 482Q175 453 158.5 413.5Q142 374 142 328V0H85ZM188 660Q188 710 214 739Q240 768 281 768Q306 768 326.5 759Q347 750 367 738Q386 727 403.5 717Q421 707 439 707Q462 707 475.5 721Q489 735 489 765H535Q535 714 510.5 685Q486 656 440 656Q411 656 388.5 667.5Q366 679 346 691Q329 701 314 709.5Q299 718 281 718Q261 718 248 703.5Q235 689 235 660Z" glyph-name="ntilde" horiz-adv-x="707" unicode="&#241;" /><glyph d="M72 596H135L501 89V596H558V0H497L129 509V0H72ZM144 660Q144 710 170 739Q196 768 237 768Q262 768 282.5 759Q303 750 323 738Q342 727 359.5 717Q377 707 395 707Q418 707 431.5 721Q445 735 445 765H491Q491 714 466.5 685Q442 656 396 656Q367 656 344.5 667.5Q322 679 302 691Q285 701 270 709.5Q255 718 237 718Q217 718 204 703.5Q191 689 191 660Z" glyph-name="ntilde.smcp" horiz-adv-x="630" unicode="&#57977;" /><glyph d="M525 204H308V0H250V204H48V259H250V479H48V534H250V730H308V534H525V730H583V534H787V479H583V259H787V204H583V0H525ZM308 259H525V479H308Z" glyph-name="numbersign" horiz-adv-x="835" unicode="#" /><glyph d="M470 159 241 247 146 0H88L190 266L52 319L53 377L211 317L297 541L53 634V692L317 592L370 730H428L368 572L597 485L691 730H749L648 466L783 414V356L626 415L540 191L782 99V41L520 140L467 0H410ZM262 298 490 211 575 435 348 522Z" glyph-name="numbersign.alt" horiz-adv-x="835" unicode="&#62563;" /><glyph d="M363 -12Q300 -12 244.5 11.5Q189 35 147.5 76Q106 117 82.5 172.5Q59 228 59 292Q59 356 82.5 411.5Q106 467 147.5 508.5Q189 550 244.5 573.5Q300 597 363 597Q426 597 481.5 573.5Q537 550 578 508.5Q619 467 643 411.5Q667 356 667 292Q667 228 643 172.5Q619 117 578 76Q537 35 481.5 11.5Q426 -12 363 -12ZM363 41Q414 41 459 60.5Q504 80 537 114Q570 148 589 194Q608 240 608 292Q608 345 589 390.5Q570 436 537 470.5Q504 505 459 524.5Q414 544 363 544Q311 544 266 524.5Q221 505 188 470.5Q155 436 136 390.5Q117 345 117 292Q117 240 136 194Q155 148 188 114Q221 80 266 60.5Q311 41 363 41Z" glyph-name="o" horiz-adv-x="726" unicode="o" /><glyph d="M355 -9Q291 -9 235.5 15Q180 39 139 81Q98 123 74 179Q50 235 50 298Q50 361 74 417Q98 473 139 514.5Q180 556 235.5 580Q291 604 355 604Q419 604 474.5 580Q530 556 571.5 514.5Q613 473 637 417Q661 361 661 298Q661 235 637 179Q613 123 571.5 81Q530 39 474.5 15Q419 -9 355 -9ZM355 45Q408 45 453 65Q498 85 531 119.5Q564 154 583 200Q602 246 602 298Q602 350 583 396Q564 442 531 476.5Q498 511 453 531Q408 551 355 551Q303 551 257.5 531Q212 511 179 476.5Q146 442 127 396Q108 350 108 298Q108 246 127 200Q146 154 179 119.5Q212 85 257.5 65Q303 45 355 45Z" glyph-name="o.smcp" horiz-adv-x="711" unicode="&#57871;" /><glyph d="M456 815H531L391 660H337ZM363 -12Q300 -12 244.5 11.5Q189 35 147.5 76Q106 117 82.5 172.5Q59 228 59 292Q59 356 82.5 411.5Q106 467 147.5 508.5Q189 550 244.5 573.5Q300 597 363 597Q426 597 481.5 573.5Q537 550 578 508.5Q619 467 643 411.5Q667 356 667 292Q667 228 643 172.5Q619 117 578 76Q537 35 481.5 11.5Q426 -12 363 -12ZM363 41Q414 41 459 60.5Q504 80 537 114Q570 148 589 194Q608 240 608 292Q608 345 589 390.5Q570 436 537 470.5Q504 505 459 524.5Q414 544 363 544Q311 544 266 524.5Q221 505 188 470.5Q155 436 136 390.5Q117 345 117 292Q117 240 136 194Q155 148 188 114Q221 80 266 60.5Q311 41 363 41Z" glyph-name="oacute" horiz-adv-x="726" unicode="&#243;" /><glyph d="M355 -9Q291 -9 235.5 15Q180 39 139 81Q98 123 74 179Q50 235 50 298Q50 361 74 417Q98 473 139 514.5Q180 556 235.5 580Q291 604 355 604Q419 604 474.5 580Q530 556 571.5 514.5Q613 473 637 417Q661 361 661 298Q661 235 637 179Q613 123 571.5 81Q530 39 474.5 15Q419 -9 355 -9ZM355 45Q408 45 453 65Q498 85 531 119.5Q564 154 583 200Q602 246 602 298Q602 350 583 396Q564 442 531 476.5Q498 511 453 531Q408 551 355 551Q303 551 257.5 531Q212 511 179 476.5Q146 442 127 396Q108 350 108 298Q108 246 127 200Q146 154 179 119.5Q212 85 257.5 65Q303 45 355 45ZM435 816H510L370 661H316Z" glyph-name="oacute.smcp" horiz-adv-x="711" unicode="&#57985;" /><glyph d="M363 -12Q300 -12 244.5 11.5Q189 35 147.5 76Q106 117 82.5 172.5Q59 228 59 292Q59 356 82.5 411.5Q106 467 147.5 508.5Q189 550 244.5 573.5Q300 597 363 597Q426 597 481.5 573.5Q537 550 578 508.5Q619 467 643 411.5Q667 356 667 292Q667 228 643 172.5Q619 117 578 76Q537 35 481.5 11.5Q426 -12 363 -12ZM363 41Q414 41 459 60.5Q504 80 537 114Q570 148 589 194Q608 240 608 292Q608 345 589 390.5Q570 436 537 470.5Q504 505 459 524.5Q414 544 363 544Q311 544 266 524.5Q221 505 188 470.5Q155 436 136 390.5Q117 345 117 292Q117 240 136 194Q155 148 188 114Q221 80 266 60.5Q311 41 363 41ZM362 657Q321 657 290.5 670Q260 683 240 704.5Q220 726 210.5 754.5Q201 783 201 814H250Q250 767 278 734Q306 701 362 701Q416 701 444.5 734Q473 767 473 814H524Q524 783 513 754.5Q502 726 481 704.5Q460 683 430 670Q400 657 362 657Z" glyph-name="obreve" horiz-adv-x="726" unicode="&#335;" /><glyph d="M355 -9Q291 -9 235.5 15Q180 39 139 81Q98 123 74 179Q50 235 50 298Q50 361 74 417Q98 473 139 514.5Q180 556 235.5 580Q291 604 355 604Q419 604 474.5 580Q530 556 571.5 514.5Q613 473 637 417Q661 361 661 298Q661 235 637 179Q613 123 571.5 81Q530 39 474.5 15Q419 -9 355 -9ZM355 45Q408 45 453 65Q498 85 531 119.5Q564 154 583 200Q602 246 602 298Q602 350 583 396Q564 442 531 476.5Q498 511 453 531Q408 551 355 551Q303 551 257.5 531Q212 511 179 476.5Q146 442 127 396Q108 350 108 298Q108 246 127 200Q146 154 179 119.5Q212 85 257.5 65Q303 45 355 45ZM354 660Q313 660 282.5 673Q252 686 232 707.5Q212 729 202.5 757.5Q193 786 193 817H242Q242 770 270 737Q298 704 354 704Q408 704 436.5 737Q465 770 465 817H516Q516 786 505 757.5Q494 729 473 707.5Q452 686 422 673Q392 660 354 660Z" glyph-name="obreve.smcp" horiz-adv-x="711" unicode="&#57992;" /><glyph d="M363 -12Q300 -12 244.5 11.5Q189 35 147.5 76Q106 117 82.5 172.5Q59 228 59 292Q59 356 82.5 411.5Q106 467 147.5 508.5Q189 550 244.5 573.5Q300 597 363 597Q426 597 481.5 573.5Q537 550 578 508.5Q619 467 643 411.5Q667 356 667 292Q667 228 643 172.5Q619 117 578 76Q537 35 481.5 11.5Q426 -12 363 -12ZM363 41Q414 41 459 60.5Q504 80 537 114Q570 148 589 194Q608 240 608 292Q608 345 589 390.5Q570 436 537 470.5Q504 505 459 524.5Q414 544 363 544Q311 544 266 524.5Q221 505 188 470.5Q155 436 136 390.5Q117 345 117 292Q117 240 136 194Q155 148 188 114Q221 80 266 60.5Q311 41 363 41ZM338 811H387L506 656H445L362 766L279 656H219Z" glyph-name="ocircumflex" horiz-adv-x="726" unicode="&#244;" /><glyph d="M355 -9Q291 -9 235.5 15Q180 39 139 81Q98 123 74 179Q50 235 50 298Q50 361 74 417Q98 473 139 514.5Q180 556 235.5 580Q291 604 355 604Q419 604 474.5 580Q530 556 571.5 514.5Q613 473 637 417Q661 361 661 298Q661 235 637 179Q613 123 571.5 81Q530 39 474.5 15Q419 -9 355 -9ZM355 45Q408 45 453 65Q498 85 531 119.5Q564 154 583 200Q602 246 602 298Q602 350 583 396Q564 442 531 476.5Q498 511 453 531Q408 551 355 551Q303 551 257.5 531Q212 511 179 476.5Q146 442 127 396Q108 350 108 298Q108 246 127 200Q146 154 179 119.5Q212 85 257.5 65Q303 45 355 45ZM331 812H380L499 657H438L355 767L272 657H212Z" glyph-name="ocircumflex.smcp" horiz-adv-x="711" unicode="&#57987;" /><glyph d="M236 698Q236 717 248.5 729Q261 741 280 741Q300 741 311.5 729Q323 717 323 698Q323 679 311.5 666.5Q300 654 280 654Q260 654 248 666.5Q236 679 236 698ZM404 698Q404 717 416.5 729Q429 741 448 741Q468 741 479.5 729Q491 717 491 698Q491 679 479.5 666.5Q468 654 448 654Q428 654 416 666.5Q404 679 404 698ZM363 -12Q300 -12 244.5 11.5Q189 35 147.5 76Q106 117 82.5 172.5Q59 228 59 292Q59 356 82.5 411.5Q106 467 147.5 508.5Q189 550 244.5 573.5Q300 597 363 597Q426 597 481.5 573.5Q537 550 578 508.5Q619 467 643 411.5Q667 356 667 292Q667 228 643 172.5Q619 117 578 76Q537 35 481.5 11.5Q426 -12 363 -12ZM363 41Q414 41 459 60.5Q504 80 537 114Q570 148 589 194Q608 240 608 292Q608 345 589 390.5Q570 436 537 470.5Q504 505 459 524.5Q414 544 363 544Q311 544 266 524.5Q221 505 188 470.5Q155 436 136 390.5Q117 345 117 292Q117 240 136 194Q155 148 188 114Q221 80 266 60.5Q311 41 363 41Z" glyph-name="odieresis" horiz-adv-x="726" unicode="&#246;" /><glyph d="M355 -9Q291 -9 235.5 15Q180 39 139 81Q98 123 74 179Q50 235 50 298Q50 361 74 417Q98 473 139 514.5Q180 556 235.5 580Q291 604 355 604Q419 604 474.5 580Q530 556 571.5 514.5Q613 473 637 417Q661 361 661 298Q661 235 637 179Q613 123 571.5 81Q530 39 474.5 15Q419 -9 355 -9ZM355 45Q408 45 453 65Q498 85 531 119.5Q564 154 583 200Q602 246 602 298Q602 350 583 396Q564 442 531 476.5Q498 511 453 531Q408 551 355 551Q303 551 257.5 531Q212 511 179 476.5Q146 442 127 396Q108 350 108 298Q108 246 127 200Q146 154 179 119.5Q212 85 257.5 65Q303 45 355 45ZM229 745Q229 764 241.5 776Q254 788 273 788Q293 788 304.5 776Q316 764 316 745Q316 726 304.5 713.5Q293 701 273 701Q253 701 241 713.5Q229 726 229 745ZM397 745Q397 764 409.5 776Q422 788 441 788Q461 788 472.5 776Q484 764 484 745Q484 726 472.5 713.5Q461 701 441 701Q421 701 409 713.5Q397 726 397 745Z" glyph-name="odieresis.smcp" horiz-adv-x="711" unicode="&#57988;" /><glyph d="M363 -12Q300 -12 244.5 11.5Q189 35 147.5 76Q106 117 82.5 172.5Q59 228 59 292Q59 356 82.5 411.5Q106 467 147.5 508.5Q189 550 244.5 573.5Q300 597 363 597Q410 597 452.5 584Q495 571 530 547.5Q565 524 592.5 491Q620 458 637 418Q654 458 680.5 491Q707 524 742.5 547.5Q778 571 821 584Q864 597 913 597Q977 597 1031.5 575Q1086 553 1126.5 513Q1167 473 1190 418Q1213 363 1213 298V278H664Q666 227 686 183.5Q706 140 740 108Q774 76 819 58Q864 40 916 40Q1005 40 1066 87Q1127 134 1151 209L1202 186Q1187 141 1160.5 104.5Q1134 68 1097 42Q1060 16 1014.5 2Q969 -12 916 -12Q814 -12 741 36.5Q668 85 635 165Q618 126 591 93Q564 60 529 37Q494 14 452 1Q410 -12 363 -12ZM363 41Q414 41 459 60.5Q504 80 537 114Q570 148 589 194Q608 240 608 292Q608 345 589 390.5Q570 436 537 470.5Q504 505 459 524.5Q414 544 363 544Q311 544 266 524.5Q221 505 188 470.5Q155 436 136 390.5Q117 345 117 292Q117 240 136 194Q155 148 188 114Q221 80 266 60.5Q311 41 363 41ZM913 545Q865 545 823 528.5Q781 512 748.5 483Q716 454 695 415Q674 376 667 330H1154Q1149 378 1129.5 417.5Q1110 457 1078.5 485.5Q1047 514 1005 529.5Q963 545 913 545Z" glyph-name="oe" horiz-adv-x="1275" unicode="&#339;" /><glyph d="M602 128Q564 65 500 28Q436 -9 355 -9Q291 -9 235.5 15Q180 39 139 81Q98 123 74 179Q50 235 50 298Q50 361 74 417Q98 473 139 514.5Q180 556 235.5 580Q291 604 355 604Q436 604 500 566.5Q564 529 602 467V596H965V543H659V325H965V272H659V54H965V0H602ZM355 45Q408 45 453 65Q498 85 531 119.5Q564 154 583 200Q602 246 602 298Q602 350 583 396Q564 442 531 476.5Q498 511 453 531Q408 551 355 551Q303 551 257.5 531Q212 511 179 476.5Q146 442 127 396Q108 350 108 298Q108 246 127 200Q146 154 179 119.5Q212 85 257.5 65Q303 45 355 45Z" glyph-name="oe.smcp" horiz-adv-x="1021" unicode="&#58008;" /><glyph d="M244 -209Q186 -209 150.5 -182Q115 -155 115 -114Q115 -78 144.5 -44Q174 -10 249 25L295 -1Q259 -21 235.5 -36Q212 -51 198 -63.5Q184 -76 178.5 -87.5Q173 -99 173 -111Q173 -135 193 -148.5Q213 -162 244 -162Q272 -162 292 -150.5Q312 -139 330 -123L375 -154Q351 -176 316.5 -192.5Q282 -209 244 -209Z" glyph-name="ogonek" horiz-adv-x="502" unicode="&#731;" /><glyph d="M363 -12Q300 -12 244.5 11.5Q189 35 147.5 76Q106 117 82.5 172.5Q59 228 59 292Q59 356 82.5 411.5Q106 467 147.5 508.5Q189 550 244.5 573.5Q300 597 363 597Q426 597 481.5 573.5Q537 550 578 508.5Q619 467 643 411.5Q667 356 667 292Q667 228 643 172.5Q619 117 578 76Q537 35 481.5 11.5Q426 -12 363 -12ZM363 41Q414 41 459 60.5Q504 80 537 114Q570 148 589 194Q608 240 608 292Q608 345 589 390.5Q570 436 537 470.5Q504 505 459 524.5Q414 544 363 544Q311 544 266 524.5Q221 505 188 470.5Q155 436 136 390.5Q117 345 117 292Q117 240 136 194Q155 148 188 114Q221 80 266 60.5Q311 41 363 41ZM199 815H273L393 660H339Z" glyph-name="ograve" horiz-adv-x="726" unicode="&#242;" /><glyph d="M355 -9Q291 -9 235.5 15Q180 39 139 81Q98 123 74 179Q50 235 50 298Q50 361 74 417Q98 473 139 514.5Q180 556 235.5 580Q291 604 355 604Q419 604 474.5 580Q530 556 571.5 514.5Q613 473 637 417Q661 361 661 298Q661 235 637 179Q613 123 571.5 81Q530 39 474.5 15Q419 -9 355 -9ZM355 45Q408 45 453 65Q498 85 531 119.5Q564 154 583 200Q602 246 602 298Q602 350 583 396Q564 442 531 476.5Q498 511 453 531Q408 551 355 551Q303 551 257.5 531Q212 511 179 476.5Q146 442 127 396Q108 350 108 298Q108 246 127 200Q146 154 179 119.5Q212 85 257.5 65Q303 45 355 45ZM191 816H265L385 661H331Z" glyph-name="ograve.smcp" horiz-adv-x="711" unicode="&#57986;" /><glyph d="M26 55H274Q244 87 211.5 125.5Q179 164 153 210Q127 256 110 308Q93 360 93 417Q93 484 118 543Q143 602 186.5 646Q230 690 288.5 715.5Q347 741 414 741Q480 741 539 716Q598 691 642 647Q686 603 711.5 544Q737 485 737 417Q737 359 719.5 307.5Q702 256 675 210.5Q648 165 615.5 126Q583 87 553 55H803V0H504L477 49Q511 89 546.5 129.5Q582 170 611 214.5Q640 259 658.5 309Q677 359 677 417Q677 476 656.5 525.5Q636 575 600 612Q564 649 516 669.5Q468 690 413 690Q359 690 311.5 669.5Q264 649 228.5 612Q193 575 173 525.5Q153 476 153 417Q153 360 171.5 309.5Q190 259 218.5 213.5Q247 168 282.5 127.5Q318 87 352 49L326 0H26Z" glyph-name="ohm" horiz-adv-x="829" unicode="&#59425;" /></font>
</defs>
</svg>
