<?xml version="1.0" standalone="no"?><!DOCTYPE svg PUBLIC "-//W3C//DTD SVG 1.1//EN" "http://www.w3.org/Graphics/SVG/1.1/DTD/svg11.dtd" ><svg version="1.1" xmlns="http://www.w3.org/2000/svg"><defs><font horiz-adv-x="0" id="font"><font-face ascent="715" bbox="-75 -285 1370 1085" cap-height="730" descent="-285" font-family="Samsung Sharp Sans Medium" font-stretch="normal" font-style="normal" font-weight="600" units-per-em="1000" x-height="585" /><missing-glyph d="M100 730H826V0H100ZM236 130H690V600H236ZM260 240 383 367 259 496 339 574 461 448 585 575 665 497 539 367 664 239 584 161 461 287 340 162Z" horiz-adv-x="926" /><glyph glyph-name=".null" horiz-adv-x="0" /><glyph d="M298 730H399L669 0H568L506 167H190L129 0H27ZM224 260H472L348 597Z" glyph-name="A" horiz-adv-x="696" unicode="A" /><glyph d="M369 730H934V638H493L547 412H934V320H569L623 93H934V0H544L505 164H205L128 0H23ZM247 254H484L405 589Z" glyph-name="AE" horiz-adv-x="993" unicode="&#198;" /><glyph d="M369 730H934V638H493L547 412H934V320H569L623 93H934V0H544L505 164H205L128 0H23ZM247 254H484L405 589ZM614 960H719L573 797H498Z" glyph-name="AEacute" horiz-adv-x="993" unicode="&#508;" /><glyph d="M298 730H399L669 0H568L506 167H190L129 0H27ZM224 260H472L348 597ZM421 950H526L380 787H305Z" glyph-name="Aacute" horiz-adv-x="696" unicode="&#193;" /><glyph d="M298 730H399L669 0H568L506 167H190L129 0H27ZM224 260H472L348 597ZM344 782Q303 782 272.5 795Q242 808 222 830Q202 852 192.5 882Q183 912 183 946H253Q253 898 276 871Q299 844 344 843Q388 844 411.5 871Q435 898 435 946H506Q506 912 495 882Q484 852 463 830Q442 808 412 795Q382 782 344 782Z" glyph-name="Abreve" horiz-adv-x="696" unicode="&#258;" /><glyph d="M298 730H399L669 0H568L506 167H190L129 0H27ZM224 260H472L348 597ZM309 950H378L497 787H413L343 885L275 787H190Z" glyph-name="Acircumflex" horiz-adv-x="696" unicode="&#194;" /><glyph d="M298 730H399L669 0H568L506 167H190L129 0H27ZM224 260H472L348 597ZM185 861Q185 889 202 906Q219 923 248 923Q279 923 295.5 906Q312 889 312 861Q312 832 295.5 815Q279 798 248 798Q218 798 201.5 815Q185 832 185 861ZM380 861Q380 889 397 906Q414 923 443 923Q474 923 490.5 906Q507 889 507 861Q507 832 490.5 815Q474 798 443 798Q413 798 396.5 815Q380 832 380 861Z" glyph-name="Adieresis" horiz-adv-x="696" unicode="&#196;" /><glyph d="M298 730H399L669 0H568L506 167H190L129 0H27ZM224 260H472L348 597ZM163 950H267L384 787H309Z" glyph-name="Agrave" horiz-adv-x="696" unicode="&#192;" /><glyph d="M298 730H399L669 0H568L506 167H190L129 0H27ZM224 260H472L348 597ZM214 857H478V787H214Z" glyph-name="Amacron" horiz-adv-x="696" unicode="&#256;" /><glyph d="M298 730H399L669 0H568L348 597L129 0H27Z" glyph-name="Anocross" horiz-adv-x="696" unicode="&#59185;" /><glyph d="M597 -219Q535 -219 497.5 -189.5Q460 -160 460 -116Q460 -83 481.5 -52Q503 -21 563 13L506 167H190L129 0H27L298 730H399L669 0H666L668 -1Q630 -25 605.5 -41Q581 -57 567 -69.5Q553 -82 548 -92Q543 -102 543 -113Q543 -132 558.5 -141.5Q574 -151 597 -151Q620 -151 636.5 -141.5Q653 -132 668 -118L733 -162Q707 -185 670.5 -202Q634 -219 597 -219ZM224 260H472L348 597Z" glyph-name="Aogonek" horiz-adv-x="696" unicode="&#260;" /><glyph d="M283 690Q261 704 248.5 727.5Q236 751 236 780Q236 803 244.5 823Q253 843 267.5 858Q282 873 302 881.5Q322 890 344 890Q367 890 387.5 881.5Q408 873 423 858Q438 843 446.5 823Q455 803 455 780Q455 753 443.5 731Q432 709 412 694L669 0H568L506 167H190L129 0H27ZM224 260H472L348 597ZM344 734Q364 734 377.5 747Q391 760 391 780Q391 799 377.5 813Q364 827 344 827Q325 827 311.5 813Q298 799 298 780Q298 760 311.5 747Q325 734 344 734Z" glyph-name="Aring" horiz-adv-x="696" unicode="&#197;" /><glyph d="M283 691Q263 706 252 728.5Q241 751 241 778Q241 801 249.5 821Q258 841 272.5 856Q287 871 307 879.5Q327 888 349 888Q372 888 392.5 879.5Q413 871 428 856Q443 841 451.5 821Q460 801 460 778Q460 750 447.5 727Q435 704 414 689L669 0H568L506 167H190L129 0H27ZM224 260H472L348 597ZM426 1085H531L385 922H310ZM349 732Q369 732 382.5 745Q396 758 396 778Q396 797 382.5 811Q369 825 349 825Q330 825 316.5 811Q303 797 303 778Q303 758 316.5 745Q330 732 349 732Z" glyph-name="Aringacute" horiz-adv-x="696" unicode="&#506;" /><glyph d="M298 730H399L669 0H568L506 167H190L129 0H27ZM224 260H472L348 597ZM173 787Q173 843 200 876.5Q227 910 273 910Q298 910 317 902Q336 894 353 883Q369 873 383.5 864.5Q398 856 414 856Q450 856 450 906H516Q516 849 490.5 816Q465 783 415 783Q386 783 364.5 793.5Q343 804 324 815Q310 823 298.5 829.5Q287 836 273 836Q238 836 238 787Z" glyph-name="Atilde" horiz-adv-x="696" unicode="&#195;" /><glyph d="M298 730H399L669 0H568L506 167H190L129 0H27ZM224 260H472L348 597ZM504 730H600V592H504ZM100 730H195V592H100Z" glyph-name="Aumlaut" horiz-adv-x="696" unicode="&#61814;" /><glyph d="M60 730H315Q368 730 411 716.5Q454 703 484.5 677.5Q515 652 531.5 615.5Q548 579 548 533Q548 483 526 443.5Q504 404 459 381Q513 359 541.5 315Q570 271 570 209Q570 160 553 121Q536 82 504.5 55Q473 28 429 14Q385 0 331 0H60ZM156 331V89H331Q397 89 435 122.5Q473 156 473 210Q473 265 437.5 298Q402 331 327 331ZM156 642V421H320Q386 421 418.5 452.5Q451 484 451 533Q451 584 415.5 613Q380 642 314 642Z" glyph-name="B" horiz-adv-x="610" unicode="B" /><glyph d="M414 -10Q334 -10 265.5 19.5Q197 49 146.5 100Q96 151 67.5 219Q39 287 39 365Q39 445 68.5 513.5Q98 582 148.5 632Q199 682 267.5 711Q336 740 414 740Q466 740 513.5 726.5Q561 713 602.5 689Q644 665 678.5 631Q713 597 737 556L652 504Q617 569 556 608Q495 647 414 647Q355 647 304 625Q253 603 216 564.5Q179 526 158 475Q137 424 137 365Q137 307 158 256Q179 205 216 167Q253 129 303.5 107Q354 85 413 85Q501 85 563.5 127.5Q626 170 660 239L747 193Q723 148 689 110.5Q655 73 612.5 46Q570 19 520 4.5Q470 -10 414 -10Z" glyph-name="C" horiz-adv-x="769" unicode="C" /><glyph d="M487 950H592L446 787H371ZM414 -10Q334 -10 265.5 19.5Q197 49 146.5 100Q96 151 67.5 219Q39 287 39 365Q39 445 68.5 513.5Q98 582 148.5 632Q199 682 267.5 711Q336 740 414 740Q466 740 513.5 726.5Q561 713 602.5 689Q644 665 678.5 631Q713 597 737 556L652 504Q617 569 556 608Q495 647 414 647Q355 647 304 625Q253 603 216 564.5Q179 526 158 475Q137 424 137 365Q137 307 158 256Q179 205 216 167Q253 129 303.5 107Q354 85 413 85Q501 85 563.5 127.5Q626 170 660 239L747 193Q723 148 689 110.5Q655 73 612.5 46Q570 19 520 4.5Q470 -10 414 -10Z" glyph-name="Cacute" horiz-adv-x="769" unicode="&#262;" /><glyph d="M414 -10Q334 -10 265.5 19.5Q197 49 146.5 100Q96 151 67.5 219Q39 287 39 365Q39 445 68.5 513.5Q98 582 148.5 632Q199 682 267.5 711Q336 740 414 740Q466 740 513.5 726.5Q561 713 602.5 689Q644 665 678.5 631Q713 597 737 556L652 504Q617 569 556 608Q495 647 414 647Q355 647 304 625Q253 603 216 564.5Q179 526 158 475Q137 424 137 365Q137 307 158 256Q179 205 216 167Q253 129 303.5 107Q354 85 413 85Q501 85 563.5 127.5Q626 170 660 239L747 193Q723 148 689 110.5Q655 73 612.5 46Q570 19 520 4.5Q470 -10 414 -10ZM258 950H343L411 852L481 950H565L446 787H377Z" glyph-name="Ccaron" horiz-adv-x="769" unicode="&#268;" /><glyph d="M411 -235Q367 -235 331 -219.5Q295 -204 268 -179L332 -140Q350 -155 368.5 -165Q387 -175 416 -175Q443 -175 462 -164Q481 -153 481 -136Q481 -102 413 -102H370V-7Q298 1 237.5 33Q177 65 132.5 114.5Q88 164 63.5 228.5Q39 293 39 365Q39 445 68.5 513.5Q98 582 148.5 632Q199 682 267.5 711Q336 740 414 740Q466 740 513.5 726.5Q561 713 602.5 689Q644 665 678.5 631Q713 597 737 556L652 504Q617 569 556 608Q495 647 414 647Q355 647 304 625Q253 603 216 564.5Q179 526 158 475Q137 424 137 365Q137 307 158 256Q179 205 216 167Q253 129 303.5 107Q354 85 413 85Q501 85 563.5 127.5Q626 170 660 239L747 193Q702 107 622 52.5Q542 -2 439 -9V-53Q493 -52 525 -75Q557 -98 557 -133Q557 -156 545.5 -174.5Q534 -193 514 -206.5Q494 -220 467.5 -227.5Q441 -235 411 -235Z" glyph-name="Ccedilla" horiz-adv-x="769" unicode="&#199;" /><glyph d="M414 -10Q334 -10 265.5 19.5Q197 49 146.5 100Q96 151 67.5 219Q39 287 39 365Q39 445 68.5 513.5Q98 582 148.5 632Q199 682 267.5 711Q336 740 414 740Q466 740 513.5 726.5Q561 713 602.5 689Q644 665 678.5 631Q713 597 737 556L652 504Q617 569 556 608Q495 647 414 647Q355 647 304 625Q253 603 216 564.5Q179 526 158 475Q137 424 137 365Q137 307 158 256Q179 205 216 167Q253 129 303.5 107Q354 85 413 85Q501 85 563.5 127.5Q626 170 660 239L747 193Q723 148 689 110.5Q655 73 612.5 46Q570 19 520 4.5Q470 -10 414 -10ZM380 950H449L568 787H484L414 885L346 787H261Z" glyph-name="Ccircumflex" horiz-adv-x="769" unicode="&#264;" /><glyph d="M414 -10Q334 -10 265.5 19.5Q197 49 146.5 100Q96 151 67.5 219Q39 287 39 365Q39 445 68.5 513.5Q98 582 148.5 632Q199 682 267.5 711Q336 740 414 740Q466 740 513.5 726.5Q561 713 602.5 689Q644 665 678.5 631Q713 597 737 556L652 504Q617 569 556 608Q495 647 414 647Q355 647 304 625Q253 603 216 564.5Q179 526 158 475Q137 424 137 365Q137 307 158 256Q179 205 216 167Q253 129 303.5 107Q354 85 413 85Q501 85 563.5 127.5Q626 170 660 239L747 193Q723 148 689 110.5Q655 73 612.5 46Q570 19 520 4.5Q470 -10 414 -10ZM356 861Q356 890 374 907.5Q392 925 421 925Q453 925 470 907.5Q487 890 487 861Q487 832 470 814Q453 796 421 796Q390 796 373 814Q356 832 356 861Z" glyph-name="Cdotaccent" horiz-adv-x="769" unicode="&#266;" /><glyph d="M60 730H263Q350 730 421 702Q492 674 541.5 625Q591 576 618 509.5Q645 443 645 365Q645 287 616.5 220Q588 153 537.5 104.5Q487 56 417.5 28Q348 0 267 0H60ZM156 641V90H257Q322 90 375 111Q428 132 466.5 169Q505 206 526 256.5Q547 307 547 365Q547 424 527 474.5Q507 525 469.5 562Q432 599 377.5 620Q323 641 254 641Z" glyph-name="D" horiz-adv-x="684" unicode="D" /><glyph d="M60 730H263Q350 730 421 702Q492 674 541.5 625Q591 576 618 509.5Q645 443 645 365Q645 287 616.5 220Q588 153 537.5 104.5Q487 56 417.5 28Q348 0 267 0H60ZM156 641V90H257Q322 90 375 111Q428 132 466.5 169Q505 206 526 256.5Q547 307 547 365Q547 424 527 474.5Q507 525 469.5 562Q432 599 377.5 620Q323 641 254 641ZM130 950H215L283 852L353 950H437L318 787H249Z" glyph-name="Dcaron" horiz-adv-x="684" unicode="&#270;" /><glyph d="M22 411H95V730H296Q383 730 454 702Q525 674 574.5 625Q624 576 651 509.5Q678 443 678 365Q678 287 649.5 220Q621 153 570.5 104.5Q520 56 450.5 28Q381 0 300 0H95V323H22ZM192 641V411H390V323H192V90H289Q354 90 407.5 111Q461 132 499.5 169Q538 206 559.5 256.5Q581 307 581 365Q581 424 561 474.5Q541 525 503 562Q465 599 410 620Q355 641 286 641Z" glyph-name="Dcroat" horiz-adv-x="717" unicode="&#272;" /><glyph d="M20 0 449 742 877 0ZM183 93H715L448 556Z" glyph-name="Delta" horiz-adv-x="897" unicode="&#8710;" /><glyph d="M60 730H500V638H156V412H500V320H156V93H500V0H60Z" glyph-name="E" horiz-adv-x="550" unicode="E" /><glyph d="M60 730H500V638H156V412H500V320H156V93H500V0H60ZM342 950H447L301 787H226Z" glyph-name="Eacute" horiz-adv-x="551" unicode="&#201;" /><glyph d="M60 730H500V638H156V412H500V320H156V93H500V0H60ZM280 782Q239 782 208.5 795Q178 808 158 830Q138 852 128.5 882Q119 912 119 946H189Q189 898 212 871Q235 844 280 843Q324 844 347.5 871Q371 898 371 946H442Q442 912 431 882Q420 852 399 830Q378 808 348 795Q318 782 280 782Z" glyph-name="Ebreve" horiz-adv-x="551" unicode="&#276;" /><glyph d="M60 730H500V638H156V412H500V320H156V93H500V0H60ZM122 950H207L275 852L345 950H429L310 787H241Z" glyph-name="Ecaron" horiz-adv-x="552" unicode="&#282;" /><glyph d="M60 730H500V638H156V412H500V320H156V93H500V0H60ZM242 950H311L430 787H346L276 885L208 787H123Z" glyph-name="Ecircumflex" horiz-adv-x="551" unicode="&#202;" /><glyph d="M60 730H500V638H156V412H500V320H156V93H500V0H60ZM316 861Q316 889 333 906Q350 923 379 923Q410 923 426.5 906Q443 889 443 861Q443 832 426.5 815Q410 798 379 798Q349 798 332.5 815Q316 832 316 861ZM121 861Q121 889 138 906Q155 923 184 923Q215 923 231.5 906Q248 889 248 861Q248 832 231.5 815Q215 798 184 798Q154 798 137.5 815Q121 832 121 861Z" glyph-name="Edieresis" horiz-adv-x="551" unicode="&#203;" /><glyph d="M60 730H500V638H156V412H500V320H156V93H500V0H60ZM227 861Q227 890 245 907.5Q263 925 292 925Q324 925 341 907.5Q358 890 358 861Q358 832 341 814Q324 796 292 796Q261 796 244 814Q227 832 227 861Z" glyph-name="Edotaccent" horiz-adv-x="551" unicode="&#278;" /><glyph d="M60 730H500V638H156V412H500V320H156V93H500V0H60ZM105 950H209L326 787H251Z" glyph-name="Egrave" horiz-adv-x="551" unicode="&#200;" /><glyph d="M60 730H500V638H156V412H500V320H156V93H500V0H60ZM145 857H409V787H145Z" glyph-name="Emacron" horiz-adv-x="551" unicode="&#274;" /><glyph d="M449 -119H470Q524 -118 543.5 -96.5Q563 -75 563 -18V11L158 582V0H60V730H170L563 174V730H659V-17Q659 -118 619 -165.5Q579 -213 479 -213H449Z" glyph-name="Eng" horiz-adv-x="720" unicode="&#330;" /><glyph d="M60 730H500V638H156V412H500V320H156V93H500V0H498L500 -1Q462 -25 437.5 -41Q413 -57 399 -69.5Q385 -82 380 -92Q375 -102 375 -113Q375 -132 390.5 -141.5Q406 -151 429 -151Q452 -151 468.5 -141.5Q485 -132 500 -118L565 -162Q539 -185 502.5 -202Q466 -219 429 -219Q367 -219 329.5 -189.5Q292 -160 292 -116Q292 -87 309.5 -58.5Q327 -30 373 0H60Z" glyph-name="Eogonek" horiz-adv-x="551" unicode="&#280;" /><glyph d="M22 411H95V730H296Q383 730 454 702Q525 674 574.5 625Q624 576 651 509.5Q678 443 678 365Q678 287 649.5 220Q621 153 570.5 104.5Q520 56 450.5 28Q381 0 300 0H95V323H22ZM192 641V411H390V323H192V90H289Q354 90 407.5 111Q461 132 499.5 169Q538 206 559.5 256.5Q581 307 581 365Q581 424 561 474.5Q541 525 503 562Q465 599 410 620Q355 641 286 641Z" glyph-name="Eth" horiz-adv-x="717" unicode="&#208;" /><glyph d="M30 510H105Q107 560 125 602Q143 644 174 675Q205 706 248 723Q291 740 343 740Q400 740 445.5 719.5Q491 699 522 664L452 601Q413 648 343 648Q277 648 241.5 609.5Q206 571 202 510H454L440 433H202V297H419L407 221H202Q204 158 238.5 120.5Q273 83 341 83Q381 83 409 97.5Q437 112 454 137L535 78Q505 36 457 13Q409 -10 342 -10Q285 -10 241 6.5Q197 23 167 53.5Q137 84 121 126.5Q105 169 105 221H30V297H105V433H30Z" glyph-name="Euro" horiz-adv-x="588" unicode="&#8364;" /><glyph d="M30 510H130Q151 561 186 603.5Q221 646 266 676Q311 706 365 723Q419 740 478 740Q569 740 644 702.5Q719 665 770 602L697 540Q662 591 605 619Q548 647 478 647Q399 647 336.5 609.5Q274 572 239 510H595L574 431H211Q206 415 203.5 398.5Q201 382 201 365Q201 348 203.5 331.5Q206 315 211 299H539L517 221H239Q274 158 336 121Q398 84 477 84Q556 84 612.5 117Q669 150 704 207L785 155Q734 79 658 34.5Q582 -10 480 -10Q419 -10 364.5 7Q310 24 265 54.5Q220 85 186 127.5Q152 170 131 221H30V299H108Q106 315 104.5 331.5Q103 348 103 365Q103 382 104.5 398.5Q106 415 108 431H30Z" glyph-name="Euro.LP" horiz-adv-x="843" unicode="&#58657;" /><glyph d="M30 510H105Q107 560 125 602Q143 644 174 675Q205 706 248 723Q291 740 343 740Q400 740 445.5 719.5Q491 699 522 664L452 601Q413 648 343 648Q277 648 241.5 609.5Q206 571 202 510H454L440 433H202V297H419L407 221H202Q204 158 238.5 120.5Q273 83 341 83Q381 83 409 97.5Q437 112 454 137L535 78Q505 36 457 13Q409 -10 342 -10Q285 -10 241 6.5Q197 23 167 53.5Q137 84 121 126.5Q105 169 105 221H30V297H105V433H30Z" glyph-name="Euro.LT" horiz-adv-x="588" unicode="&#62567;" /><glyph d="M60 730H473V638H156V412H473V320H156V0H60Z" glyph-name="F" horiz-adv-x="524" unicode="F" /><glyph d="M418 -10Q336 -10 266.5 20Q197 50 146.5 101Q96 152 67.5 220Q39 288 39 365Q39 443 67.5 511.5Q96 580 146.5 630.5Q197 681 266.5 710.5Q336 740 418 740Q472 740 521 726.5Q570 713 611.5 688.5Q653 664 686.5 629.5Q720 595 744 553L660 502Q623 570 561 608.5Q499 647 418 647Q356 647 304.5 624.5Q253 602 215.5 563.5Q178 525 157.5 474Q137 423 137 365Q137 307 158 256Q179 205 216 166.5Q253 128 305 106Q357 84 418 84Q474 84 519 100.5Q564 117 597 146Q630 175 651 215.5Q672 256 680 304H406V396H781V362Q781 287 756.5 219.5Q732 152 685 101Q638 50 571 20Q504 -10 418 -10Z" glyph-name="G" horiz-adv-x="820" unicode="G" /><glyph d="M418 -10Q336 -10 266.5 20Q197 50 146.5 101Q96 152 67.5 220Q39 288 39 365Q39 443 67.5 511.5Q96 580 146.5 630.5Q197 681 266.5 710.5Q336 740 418 740Q472 740 521 726.5Q570 713 611.5 688.5Q653 664 686.5 629.5Q720 595 744 553L660 502Q623 570 561 608.5Q499 647 418 647Q356 647 304.5 624.5Q253 602 215.5 563.5Q178 525 157.5 474Q137 423 137 365Q137 307 158 256Q179 205 216 166.5Q253 128 305 106Q357 84 418 84Q474 84 519 100.5Q564 117 597 146Q630 175 651 215.5Q672 256 680 304H406V396H781V362Q781 287 756.5 219.5Q732 152 685 101Q638 50 571 20Q504 -10 418 -10ZM410 782Q369 782 338.5 795Q308 808 288 830Q268 852 258.5 882Q249 912 249 946H319Q319 898 342 871Q365 844 410 843Q454 844 477.5 871Q501 898 501 946H572Q572 912 561 882Q550 852 529 830Q508 808 478 795Q448 782 410 782Z" glyph-name="Gbreve" horiz-adv-x="820" unicode="&#286;" /><glyph d="M418 -10Q336 -10 266.5 20Q197 50 146.5 101Q96 152 67.5 220Q39 288 39 365Q39 443 67.5 511.5Q96 580 146.5 630.5Q197 681 266.5 710.5Q336 740 418 740Q472 740 521 726.5Q570 713 611.5 688.5Q653 664 686.5 629.5Q720 595 744 553L660 502Q623 570 561 608.5Q499 647 418 647Q356 647 304.5 624.5Q253 602 215.5 563.5Q178 525 157.5 474Q137 423 137 365Q137 307 158 256Q179 205 216 166.5Q253 128 305 106Q357 84 418 84Q474 84 519 100.5Q564 117 597 146Q630 175 651 215.5Q672 256 680 304H406V396H781V362Q781 287 756.5 219.5Q732 152 685 101Q638 50 571 20Q504 -10 418 -10ZM377 950H446L565 787H481L411 885L343 787H258Z" glyph-name="Gcircumflex" horiz-adv-x="820" unicode="&#284;" /><glyph d="M418 -10Q336 -10 266.5 20Q197 50 146.5 101Q96 152 67.5 220Q39 288 39 365Q39 443 67.5 511.5Q96 580 146.5 630.5Q197 681 266.5 710.5Q336 740 418 740Q472 740 521 726.5Q570 713 611.5 688.5Q653 664 686.5 629.5Q720 595 744 553L660 502Q623 570 561 608.5Q499 647 418 647Q356 647 304.5 624.5Q253 602 215.5 563.5Q178 525 157.5 474Q137 423 137 365Q137 307 158 256Q179 205 216 166.5Q253 128 305 106Q357 84 418 84Q474 84 519 100.5Q564 117 597 146Q630 175 651 215.5Q672 256 680 304H406V396H781V362Q781 287 756.5 219.5Q732 152 685 101Q638 50 571 20Q504 -10 418 -10ZM339 -259 379 -55H465L402 -259Z" glyph-name="Gcommaaccent" horiz-adv-x="820" unicode="&#290;" /><glyph d="M418 -10Q336 -10 266.5 20Q197 50 146.5 101Q96 152 67.5 220Q39 288 39 365Q39 443 67.5 511.5Q96 580 146.5 630.5Q197 681 266.5 710.5Q336 740 418 740Q472 740 521 726.5Q570 713 611.5 688.5Q653 664 686.5 629.5Q720 595 744 553L660 502Q623 570 561 608.5Q499 647 418 647Q356 647 304.5 624.5Q253 602 215.5 563.5Q178 525 157.5 474Q137 423 137 365Q137 307 158 256Q179 205 216 166.5Q253 128 305 106Q357 84 418 84Q474 84 519 100.5Q564 117 597 146Q630 175 651 215.5Q672 256 680 304H406V396H781V362Q781 287 756.5 219.5Q732 152 685 101Q638 50 571 20Q504 -10 418 -10ZM348 861Q348 890 366 907.5Q384 925 413 925Q445 925 462 907.5Q479 890 479 861Q479 832 462 814Q445 796 413 796Q382 796 365 814Q348 832 348 861Z" glyph-name="Gdotaccent" horiz-adv-x="820" unicode="&#288;" /><glyph d="M508 320H156V0H60V730H156V413H508V730H605V0H508Z" glyph-name="H" horiz-adv-x="665" unicode="H" /><glyph d="M18 609H82V730H178V609H530V730H627V609H688V535H627V0H530V320H178V0H82V535H18ZM178 413H530V535H178Z" glyph-name="Hbar" horiz-adv-x="712" unicode="&#294;" /><glyph d="M508 320H156V0H60V730H156V413H508V730H605V0H508ZM297 950H366L485 787H401L331 885L263 787H178Z" glyph-name="Hcircumflex" horiz-adv-x="666" unicode="&#292;" /><glyph d="M68 730H165V0H68Z" glyph-name="I" horiz-adv-x="233" unicode="I" /><glyph d="M233 93H289Q342 93 364.5 117.5Q387 142 387 200V730H484V202Q484 99 442.5 49.5Q401 0 297 0H233ZM54 730H152V0H54Z" glyph-name="IJ" horiz-adv-x="538" unicode="&#306;" /><glyph d="M68 730H165V0H68ZM192 950H297L151 787H76Z" glyph-name="Iacute" horiz-adv-x="233" unicode="&#205;" /><glyph d="M68 730H165V0H68ZM114 782Q73 782 42.5 795Q12 808 -8 830Q-28 852 -37.5 882Q-47 912 -47 946H23Q23 898 46 871Q69 844 114 843Q158 844 181.5 871Q205 898 205 946H276Q276 912 265 882Q254 852 233 830Q212 808 182 795Q152 782 114 782Z" glyph-name="Ibreve" horiz-adv-x="233" unicode="&#300;" /><glyph d="M68 730H165V0H68ZM81 950H150L269 787H185L115 885L47 787H-38Z" glyph-name="Icircumflex" horiz-adv-x="233" unicode="&#206;" /><glyph d="M170 929H266V791H170ZM-33 929H63V791H-33ZM68 730H165V0H68Z" glyph-name="Idieresis" horiz-adv-x="233" unicode="&#207;" /><glyph d="M68 730H165V0H68ZM51 861Q51 890 69 907.5Q87 925 116 925Q148 925 165 907.5Q182 890 182 861Q182 832 165 814Q148 796 116 796Q85 796 68 814Q51 832 51 861Z" glyph-name="Idotaccent" horiz-adv-x="233" unicode="&#304;" /><glyph d="M68 730H165V0H68ZM-67 950H37L154 787H79Z" glyph-name="Igrave" horiz-adv-x="233" unicode="&#204;" /><glyph d="M68 730H165V0H68ZM-16 857H248V787H-16Z" glyph-name="Imacron" horiz-adv-x="233" unicode="&#298;" /><glyph d="M118 -223Q58 -223 26.5 -191Q-5 -159 -6 -115Q-7 -79 13 -48.5Q33 -18 68 10V730H165V0H163Q116 -34 95 -61Q74 -88 74 -110Q74 -130 87 -141.5Q100 -153 120 -153Q140 -153 154 -144.5Q168 -136 181 -123L236 -175Q213 -195 183 -209Q153 -223 118 -223Z" glyph-name="Iogonek" horiz-adv-x="233" unicode="&#302;" /><glyph d="M68 730H165V0H68ZM-47 787Q-47 843 -20 876.5Q7 910 53 910Q78 910 97 902Q116 894 133 883Q149 873 163.5 864.5Q178 856 194 856Q230 856 230 906H296Q296 849 270.5 816Q245 783 195 783Q166 783 144.5 793.5Q123 804 104 815Q90 823 78.5 829.5Q67 836 53 836Q18 836 18 787Z" glyph-name="Itilde" horiz-adv-x="232" unicode="&#296;" /><glyph d="M230 -10Q155 -10 102.5 25.5Q50 61 29 118L121 161Q133 126 160.5 103Q188 80 228 80Q277 80 303 112Q329 144 329 198V730H426V204Q426 103 374 46.5Q322 -10 230 -10Z" glyph-name="J" horiz-adv-x="484" unicode="J" /><glyph d="M230 -10Q155 -10 102.5 25.5Q50 61 29 118L121 161Q133 126 160.5 103Q188 80 228 80Q277 80 303 112Q329 144 329 198V730H426V204Q426 103 374 46.5Q322 -10 230 -10ZM340 950H409L528 787H444L374 885L306 787H221Z" glyph-name="Jcircumflex" horiz-adv-x="484" unicode="&#308;" /><glyph d="M276 375 156 233V0H60V730H156V360L468 730H587L344 441L616 0H504Z" glyph-name="K" horiz-adv-x="634" unicode="K" /><glyph d="M277 375 157 233V0H61V730H157V360L469 730H588L345 441L617 0H505ZM245 -259 285 -55H371L308 -259Z" glyph-name="Kcommaaccent" horiz-adv-x="635" unicode="&#310;" /><glyph d="M60 730H156V93H465V0H60Z" glyph-name="L" horiz-adv-x="512" unicode="L" /><glyph d="M60 730H156V93H465V0H60ZM183 950H288L142 787H67Z" glyph-name="Lacute" horiz-adv-x="512" unicode="&#313;" /><glyph d="M60 730H156V93H465V0H60ZM302 730H384L328 554H266Z" glyph-name="Lcaron" horiz-adv-x="512" unicode="&#317;" /><glyph d="M60 730H156V93H465V0H60ZM178 -259 218 -55H304L241 -259Z" glyph-name="Lcommaaccent" horiz-adv-x="512" unicode="&#315;" /><glyph d="M60 730H156V93H465V0H60ZM351 362Q351 391 369 408.5Q387 426 416 426Q448 426 465 408.5Q482 391 482 362Q482 333 465 315Q448 297 416 297Q385 297 368 315Q351 333 351 362Z" glyph-name="Ldot" horiz-adv-x="516" unicode="&#319;" /><glyph d="M14 392 94 416V730H190V446L322 486V416L190 376V93H499V0H94V346L14 322Z" glyph-name="Lslash" horiz-adv-x="546" unicode="&#321;" /><glyph d="M60 730H157L416 371L679 724V730H775V0H679V575L414 217L156 570V0H60Z" glyph-name="M" horiz-adv-x="836" unicode="M" /><glyph d="M60 730H170L563 156V730H659V0H556L156 582V0H60Z" glyph-name="N" horiz-adv-x="720" unicode="N" /><glyph d="M60 730H170L563 156V730H659V0H556L156 582V0H60ZM443 950H548L402 787H327Z" glyph-name="Nacute" horiz-adv-x="720" unicode="&#323;" /><glyph d="M60 730H170L563 156V730H659V0H556L156 582V0H60ZM207 950H292L360 852L430 950H514L395 787H326Z" glyph-name="Ncaron" horiz-adv-x="720" unicode="&#327;" /><glyph d="M60 730H170L563 156V730H659V0H556L156 582V0H60ZM274 -259 314 -55H400L337 -259Z" glyph-name="Ncommaaccent" horiz-adv-x="720" unicode="&#325;" /><glyph d="M60 730H170L563 156V730H659V0H556L156 582V0H60ZM187 787Q187 843 214 876.5Q241 910 287 910Q312 910 331 902Q350 894 367 883Q383 873 397.5 864.5Q412 856 428 856Q464 856 464 906H530Q530 849 504.5 816Q479 783 429 783Q400 783 378.5 793.5Q357 804 338 815Q324 823 312.5 829.5Q301 836 287 836Q252 836 252 787Z" glyph-name="Ntilde" horiz-adv-x="720" unicode="&#209;" /><glyph d="M413 -10Q335 -10 267 19.5Q199 49 148.5 100Q98 151 68.5 219Q39 287 39 365Q39 443 68.5 511Q98 579 148.5 630Q199 681 267 710.5Q335 740 413 740Q491 740 559.5 710.5Q628 681 678.5 630Q729 579 758.5 511Q788 443 788 365Q788 287 758.5 219Q729 151 678.5 100Q628 49 559.5 19.5Q491 -10 413 -10ZM413 84Q472 84 522.5 106.5Q573 129 610.5 167Q648 205 669.5 256Q691 307 691 365Q691 423 669.5 474Q648 525 610.5 563.5Q573 602 522.5 624Q472 646 413 646Q355 646 304.5 624Q254 602 217 563.5Q180 525 158.5 474Q137 423 137 365Q137 307 158.5 256Q180 205 217 167Q254 129 304.5 106.5Q355 84 413 84Z" glyph-name="O" horiz-adv-x="827" unicode="O" /><glyph d="M691 122Q643 61 572 25.5Q501 -10 413 -10Q335 -10 267 19.5Q199 49 148.5 100Q98 151 68.5 219Q39 287 39 365Q39 443 68.5 511Q98 579 148.5 630Q199 681 267 710.5Q335 740 413 740Q501 740 572 704Q643 668 691 607V730H1131V638H788V412H1131V320H788V93H1131V0H691ZM413 86Q471 86 522 108Q573 130 610.5 168Q648 206 669.5 257Q691 308 691 365V376Q689 432 666.5 481Q644 530 606.5 566.5Q569 603 519.5 624Q470 645 413 645Q355 645 304.5 623Q254 601 216.5 563Q179 525 157.5 474Q136 423 136 365Q136 308 157.5 257Q179 206 216.5 168Q254 130 304.5 108Q355 86 413 86Z" glyph-name="OE" horiz-adv-x="1181" unicode="&#338;" /><glyph d="M484 950H589L443 787H368ZM413 -10Q335 -10 267 19.5Q199 49 148.5 100Q98 151 68.5 219Q39 287 39 365Q39 443 68.5 511Q98 579 148.5 630Q199 681 267 710.5Q335 740 413 740Q491 740 559.5 710.5Q628 681 678.5 630Q729 579 758.5 511Q788 443 788 365Q788 287 758.5 219Q729 151 678.5 100Q628 49 559.5 19.5Q491 -10 413 -10ZM413 84Q472 84 522.5 106.5Q573 129 610.5 167Q648 205 669.5 256Q691 307 691 365Q691 423 669.5 474Q648 525 610.5 563.5Q573 602 522.5 624Q472 646 413 646Q355 646 304.5 624Q254 602 217 563.5Q180 525 158.5 474Q137 423 137 365Q137 307 158.5 256Q180 205 217 167Q254 129 304.5 106.5Q355 84 413 84Z" glyph-name="Oacute" horiz-adv-x="827" unicode="&#211;" /><glyph d="M413 -10Q335 -10 267 19.5Q199 49 148.5 100Q98 151 68.5 219Q39 287 39 365Q39 443 68.5 511Q98 579 148.5 630Q199 681 267 710.5Q335 740 413 740Q491 740 559.5 710.5Q628 681 678.5 630Q729 579 758.5 511Q788 443 788 365Q788 287 758.5 219Q729 151 678.5 100Q628 49 559.5 19.5Q491 -10 413 -10ZM413 84Q472 84 522.5 106.5Q573 129 610.5 167Q648 205 669.5 256Q691 307 691 365Q691 423 669.5 474Q648 525 610.5 563.5Q573 602 522.5 624Q472 646 413 646Q355 646 304.5 624Q254 602 217 563.5Q180 525 158.5 474Q137 423 137 365Q137 307 158.5 256Q180 205 217 167Q254 129 304.5 106.5Q355 84 413 84ZM408 783Q367 783 336.5 796Q306 809 286 831Q266 853 256.5 883Q247 913 247 947H317Q317 899 340 872Q363 845 408 844Q452 845 475.5 872Q499 899 499 947H570Q570 913 559 883Q548 853 527 831Q506 809 476 796Q446 783 408 783Z" glyph-name="Obreve" horiz-adv-x="827" unicode="&#334;" /><glyph d="M413 -10Q335 -10 267 19.5Q199 49 148.5 100Q98 151 68.5 219Q39 287 39 365Q39 443 68.5 511Q98 579 148.5 630Q199 681 267 710.5Q335 740 413 740Q491 740 559.5 710.5Q628 681 678.5 630Q729 579 758.5 511Q788 443 788 365Q788 287 758.5 219Q729 151 678.5 100Q628 49 559.5 19.5Q491 -10 413 -10ZM413 84Q472 84 522.5 106.5Q573 129 610.5 167Q648 205 669.5 256Q691 307 691 365Q691 423 669.5 474Q648 525 610.5 563.5Q573 602 522.5 624Q472 646 413 646Q355 646 304.5 624Q254 602 217 563.5Q180 525 158.5 474Q137 423 137 365Q137 307 158.5 256Q180 205 217 167Q254 129 304.5 106.5Q355 84 413 84ZM375 950H444L563 787H479L409 885L341 787H256Z" glyph-name="Ocircumflex" horiz-adv-x="827" unicode="&#212;" /><glyph d="M249 861Q249 889 266 906Q283 923 312 923Q343 923 359.5 906Q376 889 376 861Q376 832 359.5 815Q343 798 312 798Q282 798 265.5 815Q249 832 249 861ZM444 861Q444 889 461 906Q478 923 507 923Q538 923 554.5 906Q571 889 571 861Q571 832 554.5 815Q538 798 507 798Q477 798 460.5 815Q444 832 444 861ZM413 -10Q335 -10 267 19.5Q199 49 148.5 100Q98 151 68.5 219Q39 287 39 365Q39 443 68.5 511Q98 579 148.5 630Q199 681 267 710.5Q335 740 413 740Q491 740 559.5 710.5Q628 681 678.5 630Q729 579 758.5 511Q788 443 788 365Q788 287 758.5 219Q729 151 678.5 100Q628 49 559.5 19.5Q491 -10 413 -10ZM413 84Q472 84 522.5 106.5Q573 129 610.5 167Q648 205 669.5 256Q691 307 691 365Q691 423 669.5 474Q648 525 610.5 563.5Q573 602 522.5 624Q472 646 413 646Q355 646 304.5 624Q254 602 217 563.5Q180 525 158.5 474Q137 423 137 365Q137 307 158.5 256Q180 205 217 167Q254 129 304.5 106.5Q355 84 413 84Z" glyph-name="Odieresis" horiz-adv-x="827" unicode="&#214;" /><glyph d="M413 -10Q335 -10 267 19.5Q199 49 148.5 100Q98 151 68.5 219Q39 287 39 365Q39 443 68.5 511Q98 579 148.5 630Q199 681 267 710.5Q335 740 413 740Q491 740 559.5 710.5Q628 681 678.5 630Q729 579 758.5 511Q788 443 788 365Q788 287 758.5 219Q729 151 678.5 100Q628 49 559.5 19.5Q491 -10 413 -10ZM413 84Q472 84 522.5 106.5Q573 129 610.5 167Q648 205 669.5 256Q691 307 691 365Q691 423 669.5 474Q648 525 610.5 563.5Q573 602 522.5 624Q472 646 413 646Q355 646 304.5 624Q254 602 217 563.5Q180 525 158.5 474Q137 423 137 365Q137 307 158.5 256Q180 205 217 167Q254 129 304.5 106.5Q355 84 413 84ZM228 950H332L449 787H374Z" glyph-name="Ograve" horiz-adv-x="827" unicode="&#210;" /><glyph d="M407 950H507L360 787H291ZM555 950H654L508 787H438ZM413 -10Q335 -10 267 19.5Q199 49 148.5 100Q98 151 68.5 219Q39 287 39 365Q39 443 68.5 511Q98 579 148.5 630Q199 681 267 710.5Q335 740 413 740Q491 740 559.5 710.5Q628 681 678.5 630Q729 579 758.5 511Q788 443 788 365Q788 287 758.5 219Q729 151 678.5 100Q628 49 559.5 19.5Q491 -10 413 -10ZM413 84Q472 84 522.5 106.5Q573 129 610.5 167Q648 205 669.5 256Q691 307 691 365Q691 423 669.5 474Q648 525 610.5 563.5Q573 602 522.5 624Q472 646 413 646Q355 646 304.5 624Q254 602 217 563.5Q180 525 158.5 474Q137 423 137 365Q137 307 158.5 256Q180 205 217 167Q254 129 304.5 106.5Q355 84 413 84Z" glyph-name="Ohungarumlaut" horiz-adv-x="827" unicode="&#336;" /><glyph d="M277 857H541V787H277ZM413 -10Q335 -10 267 19.5Q199 49 148.5 100Q98 151 68.5 219Q39 287 39 365Q39 443 68.5 511Q98 579 148.5 630Q199 681 267 710.5Q335 740 413 740Q491 740 559.5 710.5Q628 681 678.5 630Q729 579 758.5 511Q788 443 788 365Q788 287 758.5 219Q729 151 678.5 100Q628 49 559.5 19.5Q491 -10 413 -10ZM413 84Q472 84 522.5 106.5Q573 129 610.5 167Q648 205 669.5 256Q691 307 691 365Q691 423 669.5 474Q648 525 610.5 563.5Q573 602 522.5 624Q472 646 413 646Q355 646 304.5 624Q254 602 217 563.5Q180 525 158.5 474Q137 423 137 365Q137 307 158.5 256Q180 205 217 167Q254 129 304.5 106.5Q355 84 413 84Z" glyph-name="Omacron" horiz-adv-x="827" unicode="&#332;" /><glyph d="M150 98Q98 149 68.5 217.5Q39 286 39 365Q39 443 68.5 511Q98 579 148.5 630Q199 681 267 710.5Q335 740 413 740Q467 740 516.5 725.5Q566 711 609 685L644 730H756L678 630Q729 579 758.5 511Q788 443 788 365Q788 287 758.5 219Q729 151 678.5 100Q628 49 559.5 19.5Q491 -10 413 -10Q359 -10 310.5 3.5Q262 17 220 43L186 0H74ZM137 365Q137 309 156 260.5Q175 212 210 174L550 610Q520 627 485.5 636.5Q451 646 413 646Q355 646 304.5 624Q254 602 217 563.5Q180 525 158.5 474Q137 423 137 365ZM413 84Q472 84 522.5 106.5Q573 129 610.5 167Q648 205 669.5 256Q691 307 691 365Q691 419 672 467.5Q653 516 619 554L279 119Q308 102 342 93Q376 84 413 84Z" glyph-name="Oslash" horiz-adv-x="827" unicode="&#216;" /><glyph d="M150 98Q98 149 68.5 217.5Q39 286 39 365Q39 443 68.5 511Q98 579 148.5 630Q199 681 267 710.5Q335 740 413 740Q467 740 516.5 725.5Q566 711 609 685L644 730H756L678 630Q729 579 758.5 511Q788 443 788 365Q788 287 758.5 219Q729 151 678.5 100Q628 49 559.5 19.5Q491 -10 413 -10Q359 -10 310.5 3.5Q262 17 220 43L186 0H74ZM137 365Q137 309 156 260.5Q175 212 210 174L550 610Q520 627 485.5 636.5Q451 646 413 646Q355 646 304.5 624Q254 602 217 563.5Q180 525 158.5 474Q137 423 137 365ZM413 84Q472 84 522.5 106.5Q573 129 610.5 167Q648 205 669.5 256Q691 307 691 365Q691 419 672 467.5Q653 516 619 554L279 119Q308 102 342 93Q376 84 413 84ZM480 950H585L439 787H364Z" glyph-name="Oslashacute" horiz-adv-x="827" unicode="&#510;" /><glyph d="M413 -10Q335 -10 267 19.5Q199 49 148.5 100Q98 151 68.5 219Q39 287 39 365Q39 443 68.5 511Q98 579 148.5 630Q199 681 267 710.5Q335 740 413 740Q491 740 559.5 710.5Q628 681 678.5 630Q729 579 758.5 511Q788 443 788 365Q788 287 758.5 219Q729 151 678.5 100Q628 49 559.5 19.5Q491 -10 413 -10ZM413 84Q472 84 522.5 106.5Q573 129 610.5 167Q648 205 669.5 256Q691 307 691 365Q691 423 669.5 474Q648 525 610.5 563.5Q573 602 522.5 624Q472 646 413 646Q355 646 304.5 624Q254 602 217 563.5Q180 525 158.5 474Q137 423 137 365Q137 307 158.5 256Q180 205 217 167Q254 129 304.5 106.5Q355 84 413 84ZM236 787Q236 843 263 876.5Q290 910 336 910Q361 910 380 902Q399 894 416 883Q432 873 446.5 864.5Q461 856 477 856Q513 856 513 906H579Q579 849 553.5 816Q528 783 478 783Q449 783 427.5 793.5Q406 804 387 815Q373 823 361.5 829.5Q350 836 336 836Q301 836 301 787Z" glyph-name="Otilde" horiz-adv-x="827" unicode="&#213;" /><glyph d="M53 730H150V681Q105 649 74 600H53ZM749 600Q735 624 715.5 644.5Q696 665 673 681V730H771V600ZM413 -10Q335 -10 267 19.5Q199 49 148.5 100Q98 151 68.5 219Q39 287 39 365Q39 443 68.5 511Q98 579 148.5 630Q199 681 267 710.5Q335 740 413 740Q491 740 559.5 710.5Q628 681 678.5 630Q729 579 758.5 511Q788 443 788 365Q788 287 758.5 219Q729 151 678.5 100Q628 49 559.5 19.5Q491 -10 413 -10ZM413 84Q472 84 522.5 106.5Q573 129 610.5 167Q648 205 669.5 256Q691 307 691 365Q691 423 669.5 474Q648 525 610.5 563.5Q573 602 522.5 624Q472 646 413 646Q355 646 304.5 624Q254 602 217 563.5Q180 525 158.5 474Q137 423 137 365Q137 307 158.5 256Q180 205 217 167Q254 129 304.5 106.5Q355 84 413 84Z" glyph-name="Oumlaut" horiz-adv-x="827" unicode="&#61815;" /><glyph d="M60 730H296Q355 730 403.5 710.5Q452 691 487 656.5Q522 622 541.5 576Q561 530 561 476Q561 422 541.5 375.5Q522 329 487 294.5Q452 260 403 240.5Q354 221 295 221H156V0H60ZM156 641V312H289Q329 312 361.5 324.5Q394 337 416.5 359.5Q439 382 451 412Q463 442 463 476Q463 511 451 541Q439 571 416.5 593.5Q394 616 361.5 628.5Q329 641 289 641Z" glyph-name="P" horiz-adv-x="603" unicode="P" /><glyph d="M398 330H515L628 191Q657 226 674 270Q691 314 691 365Q691 423 669.5 474Q648 525 610.5 563.5Q573 602 522.5 624Q472 646 413 646Q355 646 304.5 624Q254 602 217 563.5Q180 525 158.5 474Q137 423 137 365Q137 307 158.5 256Q180 205 217 167Q254 129 304.5 106.5Q355 84 413 84Q444 84 470.5 90.5Q497 97 522 108L582 32Q544 12 501.5 1Q459 -10 413 -10Q335 -10 267 19.5Q199 49 148.5 100Q98 151 68.5 219Q39 287 39 365Q39 443 68.5 511Q98 579 148.5 630Q199 681 267 710.5Q335 740 413 740Q491 740 559.5 710.5Q628 681 678.5 630Q729 579 758.5 511Q788 443 788 365Q788 292 761.5 228.5Q735 165 690 114L783 0H662Z" glyph-name="Q" horiz-adv-x="827" unicode="Q" /><glyph d="M60 730H294Q351 730 397.5 711.5Q444 693 477.5 661.5Q511 630 529.5 587Q548 544 548 494Q548 458 537 424.5Q526 391 506.5 362.5Q487 334 459.5 312Q432 290 399 276L559 0H450L306 254H155V0H60ZM155 640V343H283Q324 343 355.5 356.5Q387 370 408 391.5Q429 413 439.5 440Q450 467 450 494Q450 559 407.5 599.5Q365 640 284 640Z" glyph-name="R" horiz-adv-x="593" unicode="R" /><glyph d="M60 730H294Q351 730 397.5 711.5Q444 693 477.5 661.5Q511 630 529.5 587Q548 544 548 494Q548 458 537 424.5Q526 391 506.5 363Q487 335 460 313Q433 291 400 277L562 0H453L307 254H158V0H60ZM158 640V343H283Q324 343 355.5 356.5Q387 370 408 391.5Q429 413 439.5 440Q450 467 450 494Q450 559 407.5 599.5Q365 640 284 640Z" glyph-name="R.alt" horiz-adv-x="593" unicode="&#57665;" /><glyph d="M60 730H294Q351 730 397.5 711.5Q444 693 477.5 661.5Q511 630 529.5 587Q548 544 548 494Q548 458 537 424.5Q526 391 506.5 362.5Q487 334 459.5 312Q432 290 399 276L559 0H450L306 254H155V0H60ZM155 640V343H283Q324 343 355.5 356.5Q387 370 408 391.5Q429 413 439.5 440Q450 467 450 494Q450 559 407.5 599.5Q365 640 284 640ZM332 950H437L291 787H216Z" glyph-name="Racute" horiz-adv-x="593" unicode="&#340;" /><glyph d="M60 730H294Q351 730 397.5 711.5Q444 693 477.5 661.5Q511 630 529.5 587Q548 544 548 494Q548 458 537 424.5Q526 391 506.5 363Q487 335 460 313Q433 291 400 277L562 0H453L307 254H158V0H60ZM158 640V343H283Q324 343 355.5 356.5Q387 370 408 391.5Q429 413 439.5 440Q450 467 450 494Q450 559 407.5 599.5Q365 640 284 640ZM332 950H437L291 787H216Z" glyph-name="Racute.alt" horiz-adv-x="593" unicode="&#57666;" /><glyph d="M60 730H294Q351 730 397.5 711.5Q444 693 477.5 661.5Q511 630 529.5 587Q548 544 548 494Q548 458 537 424.5Q526 391 506.5 362.5Q487 334 459.5 312Q432 290 399 276L559 0H450L306 254H155V0H60ZM155 640V343H283Q324 343 355.5 356.5Q387 370 408 391.5Q429 413 439.5 440Q450 467 450 494Q450 559 407.5 599.5Q365 640 284 640ZM147 950H232L300 852L370 950H454L335 787H266Z" glyph-name="Rcaron" horiz-adv-x="593" unicode="&#344;" /><glyph d="M60 730H294Q351 730 397.5 711.5Q444 693 477.5 661.5Q511 630 529.5 587Q548 544 548 494Q548 458 537 424.5Q526 391 506.5 363Q487 335 460 313Q433 291 400 277L562 0H453L307 254H158V0H60ZM158 640V343H283Q324 343 355.5 356.5Q387 370 408 391.5Q429 413 439.5 440Q450 467 450 494Q450 559 407.5 599.5Q365 640 284 640ZM147 950H232L300 852L370 950H454L335 787H266Z" glyph-name="Rcaron.alt" horiz-adv-x="593" unicode="&#57667;" /><glyph d="M60 730H294Q351 730 397.5 711.5Q444 693 477.5 661.5Q511 630 529.5 587Q548 544 548 494Q548 458 537 424.5Q526 391 506.5 362.5Q487 334 459.5 312Q432 290 399 276L559 0H450L306 254H155V0H60ZM155 640V343H283Q324 343 355.5 356.5Q387 370 408 391.5Q429 413 439.5 440Q450 467 450 494Q450 559 407.5 599.5Q365 640 284 640ZM227 -281 267 -77H353L290 -281Z" glyph-name="Rcommaaccent" horiz-adv-x="593" unicode="&#342;" /><glyph d="M60 730H294Q351 730 397.5 711.5Q444 693 477.5 661.5Q511 630 529.5 587Q548 544 548 494Q548 458 537 424.5Q526 391 506.5 363Q487 335 460 313Q433 291 400 277L562 0H453L307 254H158V0H60ZM158 640V343H283Q324 343 355.5 356.5Q387 370 408 391.5Q429 413 439.5 440Q450 467 450 494Q450 559 407.5 599.5Q365 640 284 640ZM227 -281 267 -77H353L290 -281Z" glyph-name="Rcommaaccent.alt" horiz-adv-x="593" unicode="&#57670;" /><glyph d="M282 -10Q191 -10 126.5 25.5Q62 61 17 120L102 186Q135 135 179.5 108Q224 81 281 81Q345 81 384 116.5Q423 152 423 206Q423 236 409 257Q395 278 371.5 293Q348 308 317.5 319Q287 330 254 340Q217 352 180.5 367Q144 382 114.5 404.5Q85 427 67 461Q49 495 49 544Q49 585 66.5 621Q84 657 114.5 683.5Q145 710 187.5 725Q230 740 279 740Q360 740 414.5 711Q469 682 510 634L431 575Q379 654 279 654Q220 654 184 623.5Q148 593 148 546Q148 518 162 498Q176 478 199 464Q222 450 252 439.5Q282 429 314 418Q352 405 389.5 389.5Q427 374 456.5 350Q486 326 504.5 291.5Q523 257 523 206Q523 164 506 125Q489 86 458 56Q427 26 382.5 8Q338 -10 282 -10Z" glyph-name="S" horiz-adv-x="562" unicode="S" /><glyph d="M351 950H456L310 787H235ZM282 -10Q191 -10 126.5 25.5Q62 61 17 120L102 186Q135 135 179.5 108Q224 81 281 81Q345 81 384 116.5Q423 152 423 206Q423 236 409 257Q395 278 371.5 293Q348 308 317.5 319Q287 330 254 340Q217 352 180.5 367Q144 382 114.5 404.5Q85 427 67 461Q49 495 49 544Q49 585 66.5 621Q84 657 114.5 683.5Q145 710 187.5 725Q230 740 279 740Q360 740 414.5 711Q469 682 510 634L431 575Q379 654 279 654Q220 654 184 623.5Q148 593 148 546Q148 518 162 498Q176 478 199 464Q222 450 252 439.5Q282 429 314 418Q352 405 389.5 389.5Q427 374 456.5 350Q486 326 504.5 291.5Q523 257 523 206Q523 164 506 125Q489 86 458 56Q427 26 382.5 8Q338 -10 282 -10Z" glyph-name="Sacute" horiz-adv-x="562" unicode="&#346;" /><glyph d="M282 -10Q191 -10 126.5 25.5Q62 61 17 120L102 186Q135 135 179.5 108Q224 81 281 81Q345 81 384 116.5Q423 152 423 206Q423 236 409 257Q395 278 371.5 293Q348 308 317.5 319Q287 330 254 340Q217 352 180.5 367Q144 382 114.5 404.5Q85 427 67 461Q49 495 49 544Q49 585 66.5 621Q84 657 114.5 683.5Q145 710 187.5 725Q230 740 279 740Q360 740 414.5 711Q469 682 510 634L431 575Q379 654 279 654Q220 654 184 623.5Q148 593 148 546Q148 518 162 498Q176 478 199 464Q222 450 252 439.5Q282 429 314 418Q352 405 389.5 389.5Q427 374 456.5 350Q486 326 504.5 291.5Q523 257 523 206Q523 164 506 125Q489 86 458 56Q427 26 382.5 8Q338 -10 282 -10ZM130 950H215L283 852L353 950H437L318 787H249Z" glyph-name="Scaron" horiz-adv-x="562" unicode="&#352;" /><glyph d="M279 -235Q235 -235 199 -219.5Q163 -204 136 -179L200 -140Q218 -155 236.5 -165Q255 -175 284 -175Q311 -175 330 -164Q349 -153 349 -136Q349 -102 281 -102H238V-7Q164 1 110 35Q56 69 17 120L102 186Q135 135 179.5 108Q224 81 281 81Q345 81 384 116.5Q423 152 423 206Q423 236 409 257Q395 278 371.5 293Q348 308 317.5 319Q287 330 254 340Q217 352 180.5 367Q144 382 114.5 404.5Q85 427 67 461Q49 495 49 544Q49 585 66.5 621Q84 657 114.5 683.5Q145 710 187.5 725Q230 740 279 740Q360 740 414.5 711Q469 682 510 634L431 575Q379 654 279 654Q220 654 184 623.5Q148 593 148 546Q148 518 162 498Q176 478 199 464Q222 450 252 439.5Q282 429 314 418Q352 405 389.5 389.5Q427 374 456.5 350Q486 326 504.5 291.5Q523 257 523 206Q523 166 508 129Q493 92 465 63Q437 34 397 14.5Q357 -5 307 -9V-53Q361 -52 393 -75Q425 -98 425 -133Q425 -156 413.5 -174.5Q402 -193 382 -206.5Q362 -220 335.5 -227.5Q309 -235 279 -235Z" glyph-name="Scedilla" horiz-adv-x="562" unicode="&#350;" /><glyph d="M282 -10Q191 -10 126.5 25.5Q62 61 17 120L102 186Q135 135 179.5 108Q224 81 281 81Q345 81 384 116.5Q423 152 423 206Q423 236 409 257Q395 278 371.5 293Q348 308 317.5 319Q287 330 254 340Q217 352 180.5 367Q144 382 114.5 404.5Q85 427 67 461Q49 495 49 544Q49 585 66.5 621Q84 657 114.5 683.5Q145 710 187.5 725Q230 740 279 740Q360 740 414.5 711Q469 682 510 634L431 575Q379 654 279 654Q220 654 184 623.5Q148 593 148 546Q148 518 162 498Q176 478 199 464Q222 450 252 439.5Q282 429 314 418Q352 405 389.5 389.5Q427 374 456.5 350Q486 326 504.5 291.5Q523 257 523 206Q523 164 506 125Q489 86 458 56Q427 26 382.5 8Q338 -10 282 -10ZM245 950H314L433 787H349L279 885L211 787H126Z" glyph-name="Scircumflex" horiz-adv-x="562" unicode="&#348;" /><glyph d="M202 -252 242 -48H328L265 -252ZM282 -10Q191 -10 126.5 25.5Q62 61 17 120L102 186Q135 135 179.5 108Q224 81 281 81Q345 81 384 116.5Q423 152 423 206Q423 236 409 257Q395 278 371.5 293Q348 308 317.5 319Q287 330 254 340Q217 352 180.5 367Q144 382 114.5 404.5Q85 427 67 461Q49 495 49 544Q49 585 66.5 621Q84 657 114.5 683.5Q145 710 187.5 725Q230 740 279 740Q360 740 414.5 711Q469 682 510 634L431 575Q379 654 279 654Q220 654 184 623.5Q148 593 148 546Q148 518 162 498Q176 478 199 464Q222 450 252 439.5Q282 429 314 418Q352 405 389.5 389.5Q427 374 456.5 350Q486 326 504.5 291.5Q523 257 523 206Q523 164 506 125Q489 86 458 56Q427 26 382.5 8Q338 -10 282 -10Z" glyph-name="Scommaaccent" horiz-adv-x="562" unicode="&#536;" /><glyph d="M251 639H39V730H559V639H347V0H251Z" glyph-name="T" horiz-adv-x="597" unicode="T" /><glyph d="M145 437H256V639H44V730H564V639H352V437H461V346H352V0H256V346H145Z" glyph-name="Tbar" horiz-adv-x="605" unicode="&#358;" /><glyph d="M256 639H44V730H564V639H352V0H256ZM145 950H230L298 852L368 950H452L333 787H264Z" glyph-name="Tcaron" horiz-adv-x="605" unicode="&#356;" /><glyph d="M221 -259 261 -55H347L284 -259ZM256 639H44V730H564V639H352V0H256Z" glyph-name="Tcommaaccent" horiz-adv-x="605" unicode="&#354;" /><glyph d="M60 730H157V588H296Q346 588 388 571.5Q430 555 460 526.5Q490 498 506.5 458.5Q523 419 523 373Q523 327 506.5 287.5Q490 248 460 219.5Q430 191 388.5 174.5Q347 158 296 158H157V0H60ZM157 498V247H289Q352 247 389 282.5Q426 318 426 373Q426 427 389 462.5Q352 498 289 498Z" glyph-name="Thorn" horiz-adv-x="565" unicode="&#222;" /><glyph d="M312 -10Q257 -10 210.5 8Q164 26 130 59.5Q96 93 77 140Q58 187 58 244V730H154V238Q154 206 166 177.5Q178 149 199.5 127.5Q221 106 250 93.5Q279 81 312 81Q345 81 374 93.5Q403 106 424.5 127.5Q446 149 458.5 177.5Q471 206 471 238V730H567V244Q567 187 547.5 140Q528 93 494 59.5Q460 26 413.5 8Q367 -10 312 -10Z" glyph-name="U" horiz-adv-x="625" unicode="U" /><glyph d="M379 950H484L338 787H263ZM312 -10Q257 -10 210.5 8Q164 26 130 59.5Q96 93 77 140Q58 187 58 244V730H154V238Q154 206 166 177.5Q178 149 199.5 127.5Q221 106 250 93.5Q279 81 312 81Q345 81 374 93.5Q403 106 424.5 127.5Q446 149 458.5 177.5Q471 206 471 238V730H567V244Q567 187 547.5 140Q528 93 494 59.5Q460 26 413.5 8Q367 -10 312 -10Z" glyph-name="Uacute" horiz-adv-x="625" unicode="&#218;" /><glyph d="M312 -10Q257 -10 210.5 8Q164 26 130 59.5Q96 93 77 140Q58 187 58 244V730H154V238Q154 206 166 177.5Q178 149 199.5 127.5Q221 106 250 93.5Q279 81 312 81Q345 81 374 93.5Q403 106 424.5 127.5Q446 149 458.5 177.5Q471 206 471 238V730H567V244Q567 187 547.5 140Q528 93 494 59.5Q460 26 413.5 8Q367 -10 312 -10ZM311 782Q270 782 239.5 795Q209 808 189 830Q169 852 159.5 882Q150 912 150 946H220Q220 898 243 871Q266 844 311 843Q355 844 378.5 871Q402 898 402 946H473Q473 912 462 882Q451 852 430 830Q409 808 379 795Q349 782 311 782Z" glyph-name="Ubreve" horiz-adv-x="625" unicode="&#364;" /><glyph d="M312 -10Q257 -10 210.5 8Q164 26 130 59.5Q96 93 77 140Q58 187 58 244V730H154V238Q154 206 166 177.5Q178 149 199.5 127.5Q221 106 250 93.5Q279 81 312 81Q345 81 374 93.5Q403 106 424.5 127.5Q446 149 458.5 177.5Q471 206 471 238V730H567V244Q567 187 547.5 140Q528 93 494 59.5Q460 26 413.5 8Q367 -10 312 -10ZM275 950H344L463 787H379L309 885L241 787H156Z" glyph-name="Ucircumflex" horiz-adv-x="625" unicode="&#219;" /><glyph d="M153 861Q153 889 170 906Q187 923 216 923Q247 923 263.5 906Q280 889 280 861Q280 832 263.5 815Q247 798 216 798Q186 798 169.5 815Q153 832 153 861ZM348 861Q348 889 365 906Q382 923 411 923Q442 923 458.5 906Q475 889 475 861Q475 832 458.5 815Q442 798 411 798Q381 798 364.5 815Q348 832 348 861ZM312 -10Q257 -10 210.5 8Q164 26 130 59.5Q96 93 77 140Q58 187 58 244V730H154V238Q154 206 166 177.5Q178 149 199.5 127.5Q221 106 250 93.5Q279 81 312 81Q345 81 374 93.5Q403 106 424.5 127.5Q446 149 458.5 177.5Q471 206 471 238V730H567V244Q567 187 547.5 140Q528 93 494 59.5Q460 26 413.5 8Q367 -10 312 -10Z" glyph-name="Udieresis" horiz-adv-x="625" unicode="&#220;" /><glyph d="M312 -10Q257 -10 210.5 8Q164 26 130 59.5Q96 93 77 140Q58 187 58 244V730H154V238Q154 206 166 177.5Q178 149 199.5 127.5Q221 106 250 93.5Q279 81 312 81Q345 81 374 93.5Q403 106 424.5 127.5Q446 149 458.5 177.5Q471 206 471 238V730H567V244Q567 187 547.5 140Q528 93 494 59.5Q460 26 413.5 8Q367 -10 312 -10ZM134 950H238L355 787H280Z" glyph-name="Ugrave" horiz-adv-x="625" unicode="&#217;" /><glyph d="M312 -10Q257 -10 210.5 8Q164 26 130 59.5Q96 93 77 140Q58 187 58 244V730H154V238Q154 206 166 177.5Q178 149 199.5 127.5Q221 106 250 93.5Q279 81 312 81Q345 81 374 93.5Q403 106 424.5 127.5Q446 149 458.5 177.5Q471 206 471 238V730H567V244Q567 187 547.5 140Q528 93 494 59.5Q460 26 413.5 8Q367 -10 312 -10ZM301 950H401L254 787H185ZM449 950H548L402 787H332Z" glyph-name="Uhungarumlaut" horiz-adv-x="625" unicode="&#368;" /><glyph d="M312 -10Q257 -10 210.5 8Q164 26 130 59.5Q96 93 77 140Q58 187 58 244V730H154V238Q154 206 166 177.5Q178 149 199.5 127.5Q221 106 250 93.5Q279 81 312 81Q345 81 374 93.5Q403 106 424.5 127.5Q446 149 458.5 177.5Q471 206 471 238V730H567V244Q567 187 547.5 140Q528 93 494 59.5Q460 26 413.5 8Q367 -10 312 -10ZM178 857H442V787H178Z" glyph-name="Umacron" horiz-adv-x="625" unicode="&#362;" /><glyph d="M319 -217Q257 -217 219.5 -187.5Q182 -158 182 -114Q182 -86 197 -59.5Q212 -33 253 -4Q210 5 174 26Q138 47 112.5 79Q87 111 72.5 153Q58 195 58 244V730H154V238Q154 206 166 177.5Q178 149 199.5 127.5Q221 106 250 93.5Q279 81 312 81Q345 81 374 93.5Q403 106 424.5 127.5Q446 149 458.5 177.5Q471 206 471 238V730H567V244Q567 197 554 157Q541 117 517.5 86Q494 55 461 33Q428 11 388 0Q350 -23 326 -39.5Q302 -56 288.5 -68Q275 -80 270 -90Q265 -100 265 -111Q265 -130 280.5 -139.5Q296 -149 319 -149Q342 -149 358.5 -139.5Q375 -130 390 -116L455 -160Q429 -183 392.5 -200Q356 -217 319 -217Z" glyph-name="Uogonek" horiz-adv-x="625" unicode="&#370;" /><glyph d="M308 764Q286 764 266 772.5Q246 781 231.5 795.5Q217 810 208.5 830Q200 850 200 873Q200 896 208.5 916Q217 936 231.5 951Q246 966 266 974.5Q286 983 308 983Q331 983 351.5 974.5Q372 966 387 951Q402 936 410.5 916Q419 896 419 873Q419 850 410.5 830Q402 810 387 795.5Q372 781 351.5 772.5Q331 764 308 764ZM308 827Q328 827 341.5 840Q355 853 355 873Q355 892 341.5 906Q328 920 308 920Q289 920 275.5 906Q262 892 262 873Q262 853 275.5 840Q289 827 308 827ZM312 -10Q257 -10 210.5 8Q164 26 130 59.5Q96 93 77 140Q58 187 58 244V730H154V238Q154 206 166 177.5Q178 149 199.5 127.5Q221 106 250 93.5Q279 81 312 81Q345 81 374 93.5Q403 106 424.5 127.5Q446 149 458.5 177.5Q471 206 471 238V730H567V244Q567 187 547.5 140Q528 93 494 59.5Q460 26 413.5 8Q367 -10 312 -10Z" glyph-name="Uring" horiz-adv-x="625" unicode="&#366;" /><glyph d="M312 -10Q257 -10 210.5 8Q164 26 130 59.5Q96 93 77 140Q58 187 58 244V730H154V238Q154 206 166 177.5Q178 149 199.5 127.5Q221 106 250 93.5Q279 81 312 81Q345 81 374 93.5Q403 106 424.5 127.5Q446 149 458.5 177.5Q471 206 471 238V730H567V244Q567 187 547.5 140Q528 93 494 59.5Q460 26 413.5 8Q367 -10 312 -10ZM139 787Q139 843 166 876.5Q193 910 239 910Q264 910 283 902Q302 894 319 883Q335 873 349.5 864.5Q364 856 380 856Q416 856 416 906H482Q482 849 456.5 816Q431 783 381 783Q352 783 330.5 793.5Q309 804 290 815Q276 823 264.5 829.5Q253 836 239 836Q204 836 204 787Z" glyph-name="Utilde" horiz-adv-x="625" unicode="&#360;" /><glyph d="M367 730H447V588H367ZM219 730H300V588H219ZM332 -9Q273 -9 223 9Q173 27 136.5 62Q100 97 79.5 148Q59 199 59 264V730H155V261Q155 221 168.5 187.5Q182 154 205.5 131Q229 108 261.5 95Q294 82 333 82Q371 82 403.5 95Q436 108 460 131Q484 154 497.5 187.5Q511 221 511 261V730H607V264Q607 199 586.5 148Q566 97 529 62Q492 27 442 9Q392 -9 332 -9Z" glyph-name="Uumlaut" horiz-adv-x="666" unicode="&#61816;" /><glyph d="M27 730H128L336 141L543 730H644L384 0H286Z" glyph-name="V" horiz-adv-x="671" unicode="V" /><glyph d="M29 730H131L293 152L478 730H573L757 151L924 730H1023L806 0H709L525 579L339 0H240Z" glyph-name="W" horiz-adv-x="1051" unicode="W" /><glyph d="M29 730H131L293 152L478 730H573L757 151L924 730H1023L806 0H709L525 579L339 0H240ZM598 950H703L557 787H482Z" glyph-name="Wacute" horiz-adv-x="1051" unicode="&#7810;" /><glyph d="M29 730H131L293 152L478 730H573L757 151L924 730H1023L806 0H709L525 579L339 0H240ZM489 950H558L677 787H593L523 885L455 787H370Z" glyph-name="Wcircumflex" horiz-adv-x="1051" unicode="&#372;" /><glyph d="M29 730H131L293 152L478 730H573L757 151L924 730H1023L806 0H709L525 579L339 0H240ZM559 861Q559 889 576 906Q593 923 622 923Q653 923 669.5 906Q686 889 686 861Q686 832 669.5 815Q653 798 622 798Q592 798 575.5 815Q559 832 559 861ZM364 861Q364 889 381 906Q398 923 427 923Q458 923 474.5 906Q491 889 491 861Q491 832 474.5 815Q458 798 427 798Q397 798 380.5 815Q364 832 364 861Z" glyph-name="Wdieresis" horiz-adv-x="1051" unicode="&#7812;" /><glyph d="M29 730H131L293 152L478 730H573L757 151L924 730H1023L806 0H709L525 579L339 0H240ZM338 950H442L559 787H484Z" glyph-name="Wgrave" horiz-adv-x="1051" unicode="&#7808;" /><glyph d="M322 292 134 0H25L266 373L37 730H146L323 456L499 730H608L380 375L620 0H511Z" glyph-name="X" horiz-adv-x="644" unicode="X" /><glyph d="M263 346 24 730H131L311 439L491 730H598L359 346V0H263Z" glyph-name="Y" horiz-adv-x="621" unicode="Y" /><glyph d="M263 346 24 730H131L311 439L491 730H598L359 346V0H263ZM382 950H487L341 787H266Z" glyph-name="Yacute" horiz-adv-x="621" unicode="&#221;" /><glyph d="M263 346 24 730H131L311 439L491 730H598L359 346V0H263ZM275 950H344L463 787H379L309 885L241 787H156Z" glyph-name="Ycircumflex" horiz-adv-x="621" unicode="&#374;" /><glyph d="M263 346 24 730H131L311 439L491 730H598L359 346V0H263ZM344 861Q344 889 361 906Q378 923 407 923Q438 923 454.5 906Q471 889 471 861Q471 832 454.5 815Q438 798 407 798Q377 798 360.5 815Q344 832 344 861ZM149 861Q149 889 166 906Q183 923 212 923Q243 923 259.5 906Q276 889 276 861Q276 832 259.5 815Q243 798 212 798Q182 798 165.5 815Q149 832 149 861Z" glyph-name="Ydieresis" horiz-adv-x="621" unicode="&#376;" /><glyph d="M263 346 24 730H131L311 439L491 730H598L359 346V0H263ZM125 937H229L346 774H271Z" glyph-name="Ygrave" horiz-adv-x="621" unicode="&#7922;" /><glyph d="M50 89 419 638H62V730H533V642L164 93H534V0H50Z" glyph-name="Z" horiz-adv-x="583" unicode="Z" /><glyph d="M50 89 419 638H62V730H533V642L164 93H534V0H50ZM360 950H465L319 787H244Z" glyph-name="Zacute" horiz-adv-x="583" unicode="&#377;" /><glyph d="M50 89 419 638H62V730H533V642L164 93H534V0H50ZM141 950H226L294 852L364 950H448L329 787H260Z" glyph-name="Zcaron" horiz-adv-x="583" unicode="&#381;" /><glyph d="M50 89 419 638H62V730H533V642L164 93H534V0H50ZM231 861Q231 890 249 907.5Q267 925 296 925Q328 925 345 907.5Q362 890 362 861Q362 832 345 814Q328 796 296 796Q265 796 248 814Q231 832 231 861Z" glyph-name="Zdotaccent" horiz-adv-x="583" unicode="&#379;" /><glyph d="M339 -12Q278 -12 223.5 11Q169 34 128.5 74.5Q88 115 64.5 171Q41 227 41 292Q41 358 64 413.5Q87 469 127.5 510Q168 551 222.5 574Q277 597 339 597Q401 597 460 568.5Q519 540 554 488V585H648V0H554V99Q519 46 459.5 17Q400 -12 339 -12ZM348 76Q393 76 432 93Q471 110 499.5 139Q528 168 544.5 208Q561 248 561 293Q561 338 544.5 377.5Q528 417 499.5 446.5Q471 476 432 493Q393 510 348 510Q304 510 265.5 493Q227 476 198.5 446.5Q170 417 153.5 377.5Q137 338 137 293Q137 248 153.5 208Q170 168 198.5 139Q227 110 265.5 93Q304 76 348 76Z" glyph-name="a" horiz-adv-x="712" unicode="a" /><glyph d="M205 -10Q120 -10 78.5 28.5Q37 67 37 124Q37 194 85 231Q133 268 225 289Q255 296 283 302Q311 308 333 316.5Q355 325 368.5 337Q382 349 382 367Q382 396 357.5 415Q333 434 273 434Q206 434 176 407Q146 380 146 337V334H55V336Q55 419 111 464.5Q167 510 269 510Q372 510 425.5 466.5Q479 423 479 347V0H387V69Q355 35 310 12.5Q265 -10 205 -10ZM209 70Q239 70 266.5 79.5Q294 89 317 104.5Q340 120 358 141Q376 162 388 185V263Q377 249 337.5 237Q298 225 251 215Q190 202 159.5 184Q129 166 129 131Q129 103 150 86.5Q171 70 209 70Z" glyph-name="a.alt" horiz-adv-x="534" unicode="&#58560;" /><glyph d="M242 596H338L555 0H457L413 123H167L123 0H26ZM199 213H381L290 466Z" glyph-name="a.smcp" horiz-adv-x="580" unicode="&#57857;" /><glyph d="M339 -12Q278 -12 223.5 11Q169 34 128.5 74.5Q88 115 64.5 171Q41 227 41 292Q41 358 64 413.5Q87 469 127.5 510Q168 551 222.5 574Q277 597 339 597Q401 597 460 568.5Q519 540 554 488V585H648V0H554V99Q519 46 459.5 17Q400 -12 339 -12ZM348 76Q393 76 432 93Q471 110 499.5 139Q528 168 544.5 208Q561 248 561 293Q561 338 544.5 377.5Q528 417 499.5 446.5Q471 476 432 493Q393 510 348 510Q304 510 265.5 493Q227 476 198.5 446.5Q170 417 153.5 377.5Q137 338 137 293Q137 248 153.5 208Q170 168 198.5 139Q227 110 265.5 93Q304 76 348 76ZM414 815H519L373 652H298Z" glyph-name="aacute" horiz-adv-x="712" unicode="&#225;" /><glyph d="M205 -10Q120 -10 78.5 28.5Q37 67 37 124Q37 194 85 231Q133 268 225 289Q255 296 283 302Q311 308 333 316.5Q355 325 368.5 337Q382 349 382 367Q382 396 357.5 415Q333 434 273 434Q206 434 176 407Q146 380 146 337V334H55V336Q55 419 111 464.5Q167 510 269 510Q372 510 425.5 466.5Q479 423 479 347V0H387V69Q355 35 310 12.5Q265 -10 205 -10ZM209 70Q239 70 266.5 79.5Q294 89 317 104.5Q340 120 358 141Q376 162 388 185V263Q377 249 337.5 237Q298 225 251 215Q190 202 159.5 184Q129 166 129 131Q129 103 150 86.5Q171 70 209 70ZM349 720H454L308 557H233Z" glyph-name="aacute.alt" horiz-adv-x="534" unicode="&#59537;" /><glyph d="M242 596H338L555 0H457L413 123H167L123 0H26ZM199 213H381L290 466ZM367 816H472L326 653H251Z" glyph-name="aacute.smcp" horiz-adv-x="580" unicode="&#57889;" /><glyph d="M339 -12Q278 -12 223.5 11Q169 34 128.5 74.5Q88 115 64.5 171Q41 227 41 292Q41 358 64 413.5Q87 469 127.5 510Q168 551 222.5 574Q277 597 339 597Q401 597 460 568.5Q519 540 554 488V585H648V0H554V99Q519 46 459.5 17Q400 -12 339 -12ZM348 76Q393 76 432 93Q471 110 499.5 139Q528 168 544.5 208Q561 248 561 293Q561 338 544.5 377.5Q528 417 499.5 446.5Q471 476 432 493Q393 510 348 510Q304 510 265.5 493Q227 476 198.5 446.5Q170 417 153.5 377.5Q137 338 137 293Q137 248 153.5 208Q170 168 198.5 139Q227 110 265.5 93Q304 76 348 76ZM347 647Q306 647 275.5 660Q245 673 225 695Q205 717 195.5 747Q186 777 186 811H256Q256 763 279 736Q302 709 347 708Q391 709 414.5 736Q438 763 438 811H509Q509 777 498 747Q487 717 466 695Q445 673 415 660Q385 647 347 647Z" glyph-name="abreve" horiz-adv-x="712" unicode="&#259;" /><glyph d="M205 -10Q120 -10 78.5 28.5Q37 67 37 124Q37 194 85 231Q133 268 225 289Q255 296 283 302Q311 308 333 316.5Q355 325 368.5 337Q382 349 382 367Q382 396 357.5 415Q333 434 273 434Q206 434 176 407Q146 380 146 337V334H55V336Q55 419 111 464.5Q167 510 269 510Q372 510 425.5 466.5Q479 423 479 347V0H387V69Q355 35 310 12.5Q265 -10 205 -10ZM209 70Q239 70 266.5 79.5Q294 89 317 104.5Q340 120 358 141Q376 162 388 185V263Q377 249 337.5 237Q298 225 251 215Q190 202 159.5 184Q129 166 129 131Q129 103 150 86.5Q171 70 209 70ZM268 551Q227 551 196.5 564Q166 577 146 599Q126 621 116.5 651Q107 681 107 715H177Q177 667 200 640Q223 613 268 612Q312 613 335.5 640Q359 667 359 715H430Q430 681 419 651Q408 621 387 599Q366 577 336 564Q306 551 268 551Z" glyph-name="abreve.alt" horiz-adv-x="534" unicode="&#59542;" /><glyph d="M242 596H338L555 0H457L413 123H167L123 0H26ZM287 645Q246 645 215.5 658Q185 671 165 693Q145 715 135.5 745Q126 775 126 809H196Q196 761 219 734Q242 707 287 706Q331 707 354.5 734Q378 761 378 809H449Q449 775 438 745Q427 715 406 693Q385 671 355 658Q325 645 287 645ZM199 213H381L290 466Z" glyph-name="abreve.smcp" horiz-adv-x="580" unicode="&#57897;" /><glyph d="M339 -12Q278 -12 223.5 11Q169 34 128.5 74.5Q88 115 64.5 171Q41 227 41 292Q41 358 64 413.5Q87 469 127.5 510Q168 551 222.5 574Q277 597 339 597Q401 597 460 568.5Q519 540 554 488V585H648V0H554V99Q519 46 459.5 17Q400 -12 339 -12ZM348 76Q393 76 432 93Q471 110 499.5 139Q528 168 544.5 208Q561 248 561 293Q561 338 544.5 377.5Q528 417 499.5 446.5Q471 476 432 493Q393 510 348 510Q304 510 265.5 493Q227 476 198.5 446.5Q170 417 153.5 377.5Q137 338 137 293Q137 248 153.5 208Q170 168 198.5 139Q227 110 265.5 93Q304 76 348 76ZM307 811H376L495 648H411L341 746L273 648H188Z" glyph-name="acircumflex" horiz-adv-x="712" unicode="&#226;" /><glyph d="M205 -10Q120 -10 78.5 28.5Q37 67 37 124Q37 194 85 231Q133 268 225 289Q255 296 283 302Q311 308 333 316.5Q355 325 368.5 337Q382 349 382 367Q382 396 357.5 415Q333 434 273 434Q206 434 176 407Q146 380 146 337V334H55V336Q55 419 111 464.5Q167 510 269 510Q372 510 425.5 466.5Q479 423 479 347V0H387V69Q355 35 310 12.5Q265 -10 205 -10ZM209 70Q239 70 266.5 79.5Q294 89 317 104.5Q340 120 358 141Q376 162 388 185V263Q377 249 337.5 237Q298 225 251 215Q190 202 159.5 184Q129 166 129 131Q129 103 150 86.5Q171 70 209 70ZM233 720H302L421 557H337L267 655L199 557H114Z" glyph-name="acircumflex.alt" horiz-adv-x="534" unicode="&#59539;" /><glyph d="M242 596H338L555 0H457L413 123H167L123 0H26ZM254 811H323L442 648H358L288 746L220 648H135ZM199 213H381L290 466Z" glyph-name="acircumflex.smcp" horiz-adv-x="580" unicode="&#57891;" /><glyph d="M241 720H346L200 557H125Z" glyph-name="acute" horiz-adv-x="489" unicode="&#180;" /><glyph d="M339 -12Q278 -12 223.5 11Q169 34 128.5 74.5Q88 115 64.5 171Q41 227 41 292Q41 358 64 413.5Q87 469 127.5 510Q168 551 222.5 574Q277 597 339 597Q401 597 460 568.5Q519 540 554 488V585H648V0H554V99Q519 46 459.5 17Q400 -12 339 -12ZM348 76Q393 76 432 93Q471 110 499.5 139Q528 168 544.5 208Q561 248 561 293Q561 338 544.5 377.5Q528 417 499.5 446.5Q471 476 432 493Q393 510 348 510Q304 510 265.5 493Q227 476 198.5 446.5Q170 417 153.5 377.5Q137 338 137 293Q137 248 153.5 208Q170 168 198.5 139Q227 110 265.5 93Q304 76 348 76ZM185 713Q185 741 202 758Q219 775 248 775Q279 775 295.5 758Q312 741 312 713Q312 684 295.5 667Q279 650 248 650Q218 650 201.5 667Q185 684 185 713ZM380 713Q380 741 397 758Q414 775 443 775Q474 775 490.5 758Q507 741 507 713Q507 684 490.5 667Q474 650 443 650Q413 650 396.5 667Q380 684 380 713Z" glyph-name="adieresis" horiz-adv-x="712" unicode="&#228;" /><glyph d="M205 -10Q120 -10 78.5 28.5Q37 67 37 124Q37 194 85 231Q133 268 225 289Q255 296 283 302Q311 308 333 316.5Q355 325 368.5 337Q382 349 382 367Q382 396 357.5 415Q333 434 273 434Q206 434 176 407Q146 380 146 337V334H55V336Q55 419 111 464.5Q167 510 269 510Q372 510 425.5 466.5Q479 423 479 347V0H387V69Q355 35 310 12.5Q265 -10 205 -10ZM209 70Q239 70 266.5 79.5Q294 89 317 104.5Q340 120 358 141Q376 162 388 185V263Q377 249 337.5 237Q298 225 251 215Q190 202 159.5 184Q129 166 129 131Q129 103 150 86.5Q171 70 209 70ZM299 631Q299 659 316 676Q333 693 362 693Q393 693 409.5 676Q426 659 426 631Q426 602 409.5 585Q393 568 362 568Q332 568 315.5 585Q299 602 299 631ZM104 631Q104 659 121 676Q138 693 167 693Q198 693 214.5 676Q231 659 231 631Q231 602 214.5 585Q198 568 167 568Q137 568 120.5 585Q104 602 104 631Z" glyph-name="adieresis.alt" horiz-adv-x="534" unicode="&#59540;" /><glyph d="M242 596H338L555 0H457L413 123H167L123 0H26ZM199 213H381L290 466ZM324 727Q324 755 341 772Q358 789 387 789Q418 789 434.5 772Q451 755 451 727Q451 698 434.5 681Q418 664 387 664Q357 664 340.5 681Q324 698 324 727ZM129 727Q129 755 146 772Q163 789 192 789Q223 789 239.5 772Q256 755 256 727Q256 698 239.5 681Q223 664 192 664Q162 664 145.5 681Q129 698 129 727Z" glyph-name="adieresis.smcp" horiz-adv-x="580" unicode="&#57892;" /><glyph d="M756 -12Q667 -12 600 24.5Q533 61 494 123Q480 97 456 72.5Q432 48 400.5 29.5Q369 11 330.5 -0.5Q292 -12 247 -12Q192 -12 152.5 0Q113 12 88 34Q63 56 51 85.5Q39 115 38 149Q38 191 54 221.5Q70 252 98.5 273Q127 294 165 307.5Q203 321 246 331Q284 340 321 348Q358 356 387 366.5Q416 377 433.5 392Q451 407 451 431Q451 469 415 495Q379 521 307 521Q226 521 183 482.5Q140 444 140 386V383H52V385Q52 434 69.5 473Q87 512 119.5 539.5Q152 567 199 582Q246 597 304 597Q385 597 441 570.5Q497 544 523 496Q564 543 621.5 570Q679 597 750 597Q814 597 869 575.5Q924 554 964.5 514.5Q1005 475 1028 420.5Q1051 366 1051 300V263H539Q544 221 562 186Q580 151 608.5 126Q637 101 674.5 87Q712 73 756 73Q827 73 877 108.5Q927 144 953 201L1035 163Q997 82 926.5 35Q856 -12 756 -12ZM750 512Q711 512 677.5 499.5Q644 487 617.5 465.5Q591 444 572.5 413.5Q554 383 545 347H954Q940 425 886 468.5Q832 512 750 512ZM252 68Q294 68 328.5 83Q363 98 389.5 120Q416 142 433 168Q450 194 456 216Q449 248 449 289Q449 297 449 305.5Q449 314 450 322Q438 300 397 287.5Q356 275 290 261Q254 254 225.5 245.5Q197 237 176.5 224.5Q156 212 145.5 194.5Q135 177 135 151Q135 116 162 92Q189 68 252 68Z" glyph-name="ae" horiz-adv-x="1094" unicode="&#230;" /><glyph d="M306 596H786V506H428L460 345H786V254H478L511 91H786V0H431L407 120H184L128 0H24ZM225 208H390L341 455Z" glyph-name="ae.smcp" horiz-adv-x="832" unicode="&#57905;" /><glyph d="M756 -12Q667 -12 600 24.5Q533 61 494 123Q480 97 456 72.5Q432 48 400.5 29.5Q369 11 330.5 -0.5Q292 -12 247 -12Q192 -12 152.5 0Q113 12 88 34Q63 56 51 85.5Q39 115 38 149Q38 191 54 221.5Q70 252 98.5 273Q127 294 165 307.5Q203 321 246 331Q284 340 321 348Q358 356 387 366.5Q416 377 433.5 392Q451 407 451 431Q451 469 415 495Q379 521 307 521Q226 521 183 482.5Q140 444 140 386V383H52V385Q52 434 69.5 473Q87 512 119.5 539.5Q152 567 199 582Q246 597 304 597Q385 597 441 570.5Q497 544 523 496Q564 543 621.5 570Q679 597 750 597Q814 597 869 575.5Q924 554 964.5 514.5Q1005 475 1028 420.5Q1051 366 1051 300V263H539Q544 221 562 186Q580 151 608.5 126Q637 101 674.5 87Q712 73 756 73Q827 73 877 108.5Q927 144 953 201L1035 163Q997 82 926.5 35Q856 -12 756 -12ZM750 512Q711 512 677.5 499.5Q644 487 617.5 465.5Q591 444 572.5 413.5Q554 383 545 347H954Q940 425 886 468.5Q832 512 750 512ZM252 68Q294 68 328.5 83Q363 98 389.5 120Q416 142 433 168Q450 194 456 216Q449 248 449 289Q449 297 449 305.5Q449 314 450 322Q438 300 397 287.5Q356 275 290 261Q254 254 225.5 245.5Q197 237 176.5 224.5Q156 212 145.5 194.5Q135 177 135 151Q135 116 162 92Q189 68 252 68ZM613 811H718L572 648H497Z" glyph-name="aeacute" horiz-adv-x="1094" unicode="&#509;" /><glyph d="M306 596H786V506H428L460 345H786V254H478L511 91H786V0H431L407 120H184L128 0H24ZM225 208H390L341 455ZM566 816H671L525 653H450Z" glyph-name="aeacute.smcp" horiz-adv-x="835" unicode="&#57906;" /><glyph d="M339 -12Q278 -12 223.5 11Q169 34 128.5 74.5Q88 115 64.5 171Q41 227 41 292Q41 358 64 413.5Q87 469 127.5 510Q168 551 222.5 574Q277 597 339 597Q401 597 460 568.5Q519 540 554 488V585H648V0H554V99Q519 46 459.5 17Q400 -12 339 -12ZM348 76Q393 76 432 93Q471 110 499.5 139Q528 168 544.5 208Q561 248 561 293Q561 338 544.5 377.5Q528 417 499.5 446.5Q471 476 432 493Q393 510 348 510Q304 510 265.5 493Q227 476 198.5 446.5Q170 417 153.5 377.5Q137 338 137 293Q137 248 153.5 208Q170 168 198.5 139Q227 110 265.5 93Q304 76 348 76ZM167 815H271L388 652H313Z" glyph-name="agrave" horiz-adv-x="712" unicode="&#224;" /><glyph d="M205 -10Q120 -10 78.5 28.5Q37 67 37 124Q37 194 85 231Q133 268 225 289Q255 296 283 302Q311 308 333 316.5Q355 325 368.5 337Q382 349 382 367Q382 396 357.5 415Q333 434 273 434Q206 434 176 407Q146 380 146 337V334H55V336Q55 419 111 464.5Q167 510 269 510Q372 510 425.5 466.5Q479 423 479 347V0H387V69Q355 35 310 12.5Q265 -10 205 -10ZM209 70Q239 70 266.5 79.5Q294 89 317 104.5Q340 120 358 141Q376 162 388 185V263Q377 249 337.5 237Q298 225 251 215Q190 202 159.5 184Q129 166 129 131Q129 103 150 86.5Q171 70 209 70ZM88 720H192L309 557H234Z" glyph-name="agrave.alt" horiz-adv-x="534" unicode="&#59538;" /><glyph d="M242 596H338L555 0H457L413 123H167L123 0H26ZM199 213H381L290 466ZM106 816H210L327 653H252Z" glyph-name="agrave.smcp" horiz-adv-x="580" unicode="&#57890;" /><glyph d="M236 -235Q185 -235 151 -221.5Q117 -208 90 -179L154 -139Q171 -155 189 -165Q207 -175 236 -175Q263 -175 282 -164Q301 -153 301 -136Q301 -102 232 -102H220V-53H242Q305 -51 341 -74.5Q377 -98 377 -134Q377 -157 366 -175.5Q355 -194 336 -207Q317 -220 291.5 -227.5Q266 -235 236 -235Z" glyph-name="altcedilla" horiz-adv-x="489" unicode="&#58390;" /><glyph d="M339 -12Q278 -12 223.5 11Q169 34 128.5 74.5Q88 115 64.5 171Q41 227 41 292Q41 358 64 413.5Q87 469 127.5 510Q168 551 222.5 574Q277 597 339 597Q401 597 460 568.5Q519 540 554 488V585H648V0H554V99Q519 46 459.5 17Q400 -12 339 -12ZM348 76Q393 76 432 93Q471 110 499.5 139Q528 168 544.5 208Q561 248 561 293Q561 338 544.5 377.5Q528 417 499.5 446.5Q471 476 432 493Q393 510 348 510Q304 510 265.5 493Q227 476 198.5 446.5Q170 417 153.5 377.5Q137 338 137 293Q137 248 153.5 208Q170 168 198.5 139Q227 110 265.5 93Q304 76 348 76ZM215 723H479V653H215Z" glyph-name="amacron" horiz-adv-x="712" unicode="&#257;" /><glyph d="M205 -10Q120 -10 78.5 28.5Q37 67 37 124Q37 194 85 231Q133 268 225 289Q255 296 283 302Q311 308 333 316.5Q355 325 368.5 337Q382 349 382 367Q382 396 357.5 415Q333 434 273 434Q206 434 176 407Q146 380 146 337V334H55V336Q55 419 111 464.5Q167 510 269 510Q372 510 425.5 466.5Q479 423 479 347V0H387V69Q355 35 310 12.5Q265 -10 205 -10ZM209 70Q239 70 266.5 79.5Q294 89 317 104.5Q340 120 358 141Q376 162 388 185V263Q377 249 337.5 237Q298 225 251 215Q190 202 159.5 184Q129 166 129 131Q129 103 150 86.5Q171 70 209 70ZM138 627H402V557H138Z" glyph-name="amacron.alt" horiz-adv-x="534" unicode="&#59541;" /><glyph d="M242 596H338L555 0H457L413 123H167L123 0H26ZM199 213H381L290 466ZM156 723H420V653H156Z" glyph-name="amacron.smcp" horiz-adv-x="580" unicode="&#57896;" /><glyph d="M532 66Q487 31 434.5 10Q382 -11 322 -11Q244 -11 190 10.5Q136 32 102 66.5Q68 101 52.5 143Q37 185 37 227Q37 299 74 353.5Q111 408 169 441Q150 469 140 498.5Q130 528 130 564Q130 600 143.5 632Q157 664 182.5 688Q208 712 244 726Q280 740 325 740Q400 740 446.5 707Q493 674 516 630L428 589Q414 615 389.5 635Q365 655 326 655Q282 655 256 628.5Q230 602 230 564Q230 542 236.5 523.5Q243 505 257 484.5Q271 464 294 439.5Q317 415 351 381L539 193Q570 232 589.5 277.5Q609 323 617 368H490V459H712V417Q712 348 682.5 272Q653 196 600 132L731 0H599ZM321 75Q363 75 401 89Q439 103 471 126L272 326Q259 339 247.5 350.5Q236 362 225 374Q180 348 156.5 313Q133 278 133 228Q133 200 144.5 173Q156 146 179.5 124Q203 102 238 88.5Q273 75 321 75Z" glyph-name="ampersand" horiz-adv-x="756" unicode="&amp;" /><glyph d="M440 48Q404 22 361.5 6.5Q319 -9 271 -9Q209 -9 165 8Q121 25 93 52.5Q65 80 52 114.5Q39 149 39 185Q39 242 68 286Q97 330 142 357Q127 379 119 402.5Q111 426 111 455Q111 486 122.5 513Q134 540 156 560.5Q178 581 208.5 592.5Q239 604 276 604Q342 604 380.5 576.5Q419 549 439 511L351 469Q341 489 323.5 504Q306 519 278 519Q246 519 227.5 500.5Q209 482 209 455Q209 439 214 425Q219 411 231 395Q243 379 262.5 359Q282 339 311 310L447 172Q470 201 485 233.5Q500 266 506 300H403V389H601V347Q601 289 576.5 226.5Q552 164 508 112L618 0H489ZM271 77Q300 77 327 85.5Q354 94 378 109L234 255L197 291Q166 273 150 248Q134 223 134 188Q134 166 142.5 146Q151 126 168 110.5Q185 95 211 86Q237 77 271 77Z" glyph-name="ampersand.smcp" horiz-adv-x="651" unicode="&#58369;" /><glyph d="M25 250 252 730H355L127 250L355 -230H252Z" glyph-name="anglebracketleft" horiz-adv-x="376" unicode="&#12296;" /><glyph d="M25 360 252 840H355L127 360L355 -120H252Z" glyph-name="anglebracketleft.cap" horiz-adv-x="376" unicode="&#58519;" /><glyph d="M210 -98 25 294 211 686H311L125 294L311 -98Z" glyph-name="anglebracketleft.smcp" horiz-adv-x="340" unicode="&#58527;" /><glyph d="M24 -230 252 250 24 730H127L354 250L127 -230Z" glyph-name="anglebracketright" horiz-adv-x="376" unicode="&#12297;" /><glyph d="M24 -120 252 360 24 840H127L354 360L127 -120Z" glyph-name="anglebracketright.cap" horiz-adv-x="376" unicode="&#58520;" /><glyph d="M32 -98 218 294 31 686H132L318 294L132 -98Z" glyph-name="anglebracketright.smcp" horiz-adv-x="340" unicode="&#58512;" /><glyph d="M242 596H338L555 0H457L290 466L123 0H26Z" glyph-name="anocross.smcp" horiz-adv-x="580" unicode="&#57888;" /><glyph d="M339 -12Q278 -12 223.5 11Q169 34 128.5 74.5Q88 115 64.5 171Q41 227 41 292Q41 358 64 413.5Q87 469 127.5 510Q168 551 222.5 574Q277 597 339 597Q401 597 460 568.5Q519 540 554 488V585H648V0Q601 -34 580 -61Q559 -88 559 -110Q559 -130 572 -141.5Q585 -153 605 -153Q625 -153 639 -144.5Q653 -136 666 -123L721 -175Q698 -195 668 -209Q638 -223 603 -223Q543 -223 511.5 -191Q480 -159 479 -115Q478 -79 498.5 -48Q519 -17 554 11V99Q519 46 459.5 17Q400 -12 339 -12ZM348 76Q393 76 432 93Q471 110 499.5 139Q528 168 544.5 208Q561 248 561 293Q561 338 544.5 377.5Q528 417 499.5 446.5Q471 476 432 493Q393 510 348 510Q304 510 265.5 493Q227 476 198.5 446.5Q170 417 153.5 377.5Q137 338 137 293Q137 248 153.5 208Q170 168 198.5 139Q227 110 265.5 93Q304 76 348 76Z" glyph-name="aogonek" horiz-adv-x="712" unicode="&#261;" /><glyph d="M435 -223Q375 -223 343.5 -191Q312 -159 311 -115Q310 -79 331 -48Q352 -17 387 11V69Q355 35 310 12.5Q265 -10 205 -10Q120 -10 78.5 28.5Q37 67 37 124Q37 194 85 231Q133 268 225 289Q255 296 283 302Q311 308 333 316.5Q355 325 368.5 337Q382 349 382 367Q382 396 357.5 415Q333 434 273 434Q206 434 176 407Q146 380 146 337V334H55V336Q55 419 111 464.5Q167 510 269 510Q372 510 425.5 466.5Q479 423 479 347V0H480Q433 -34 412 -61Q391 -88 391 -110Q391 -130 404 -141.5Q417 -153 437 -153Q457 -153 471 -144.5Q485 -136 498 -123L553 -175Q530 -195 500 -209Q470 -223 435 -223ZM209 70Q239 70 266.5 79.5Q294 89 317 104.5Q340 120 358 141Q376 162 388 185V263Q377 249 337.5 237Q298 225 251 215Q190 202 159.5 184Q129 166 129 131Q129 103 150 86.5Q171 70 209 70Z" glyph-name="aogonek.alt" horiz-adv-x="534" unicode="&#59545;" /><glyph d="M242 596H338L555 0H552L554 -1Q516 -25 491.5 -41Q467 -57 453 -69.5Q439 -82 434 -92Q429 -102 429 -113Q429 -132 444.5 -141.5Q460 -151 483 -151Q506 -151 522.5 -141.5Q539 -132 554 -118L619 -162Q593 -185 556.5 -202Q520 -219 483 -219Q421 -219 383.5 -189.5Q346 -160 346 -116Q346 -83 368.5 -51.5Q391 -20 451 15L413 123H167L123 0H26ZM199 213H381L290 466Z" glyph-name="aogonek.smcp" horiz-adv-x="580" unicode="&#57903;" /><glyph d="M42 482Q64 493 86 500.5Q108 508 139 508Q162 508 185 502Q208 496 230.5 489Q253 482 275 476Q297 470 316 470Q345 470 365.5 476.5Q386 483 412 495V411Q391 399 370 392.5Q349 386 316 386Q295 386 272 392Q249 398 225.5 405Q202 412 180 418Q158 424 139 424Q109 424 87 416.5Q65 409 42 398ZM42 315Q64 326 84.5 334Q105 342 136 342Q159 342 182.5 336Q206 330 230 323.5Q254 317 276.5 311Q299 305 318 305Q347 305 366.5 311Q386 317 412 328V245Q391 233 371 227.5Q351 222 318 222Q297 222 273 228Q249 234 225 240.5Q201 247 178 253Q155 259 136 259Q106 259 85.5 251Q65 243 42 232Z" glyph-name="approxequal" horiz-adv-x="454" unicode="&#8776;" /><glyph d="M339 -12Q278 -12 223.5 11Q169 34 128.5 74.5Q88 115 64.5 171Q41 227 41 292Q41 358 64 413.5Q87 469 127.5 510Q168 551 222.5 574Q277 597 339 597Q401 597 460 568.5Q519 540 554 488V585H648V0H554V99Q519 46 459.5 17Q400 -12 339 -12ZM348 76Q393 76 432 93Q471 110 499.5 139Q528 168 544.5 208Q561 248 561 293Q561 338 544.5 377.5Q528 417 499.5 446.5Q471 476 432 493Q393 510 348 510Q304 510 265.5 493Q227 476 198.5 446.5Q170 417 153.5 377.5Q137 338 137 293Q137 248 153.5 208Q170 168 198.5 139Q227 110 265.5 93Q304 76 348 76ZM349 646Q327 646 307 654.5Q287 663 272.5 677.5Q258 692 249.5 712Q241 732 241 755Q241 778 249.5 798Q258 818 272.5 833Q287 848 307 856.5Q327 865 349 865Q372 865 392.5 856.5Q413 848 428 833Q443 818 451.5 798Q460 778 460 755Q460 732 451.5 712Q443 692 428 677.5Q413 663 392.5 654.5Q372 646 349 646ZM349 709Q369 709 382.5 722Q396 735 396 755Q396 774 382.5 788Q369 802 349 802Q330 802 316.5 788Q303 774 303 755Q303 735 316.5 722Q330 709 349 709Z" glyph-name="aring" horiz-adv-x="712" unicode="&#229;" /><glyph d="M205 -10Q120 -10 78.5 28.5Q37 67 37 124Q37 194 85 231Q133 268 225 289Q255 296 283 302Q311 308 333 316.5Q355 325 368.5 337Q382 349 382 367Q382 396 357.5 415Q333 434 273 434Q206 434 176 407Q146 380 146 337V334H55V336Q55 419 111 464.5Q167 510 269 510Q372 510 425.5 466.5Q479 423 479 347V0H387V69Q355 35 310 12.5Q265 -10 205 -10ZM265 550Q243 550 223 558.5Q203 567 188.5 581.5Q174 596 165.5 616Q157 636 157 659Q157 682 165.5 702Q174 722 188.5 737Q203 752 223 760.5Q243 769 265 769Q288 769 308.5 760.5Q329 752 344 737Q359 722 367.5 702Q376 682 376 659Q376 636 367.5 616Q359 596 344 581.5Q329 567 308.5 558.5Q288 550 265 550ZM209 70Q239 70 266.5 79.5Q294 89 317 104.5Q340 120 358 141Q376 162 388 185V263Q377 249 337.5 237Q298 225 251 215Q190 202 159.5 184Q129 166 129 131Q129 103 150 86.5Q171 70 209 70ZM265 613Q285 613 298.5 626Q312 639 312 659Q312 678 298.5 692Q285 706 265 706Q246 706 232.5 692Q219 678 219 659Q219 639 232.5 626Q246 613 265 613Z" glyph-name="aring.alt" horiz-adv-x="533" unicode="&#59543;" /><glyph d="M230 563Q207 577 193.5 601.5Q180 626 180 655Q180 678 188.5 698Q197 718 211.5 733Q226 748 246 756.5Q266 765 288 765Q311 765 331.5 756.5Q352 748 367 733Q382 718 390.5 698Q399 678 399 655Q399 626 385.5 602Q372 578 349 564L555 0H457L413 123H167L123 0H26ZM199 213H381L290 466ZM288 609Q308 609 321.5 622Q335 635 335 655Q335 674 321.5 688Q308 702 288 702Q269 702 255.5 688Q242 674 242 655Q242 635 255.5 622Q269 609 288 609Z" glyph-name="aring.smcp" horiz-adv-x="580" unicode="&#57894;" /><glyph d="M339 -12Q278 -12 223.5 11Q169 34 128.5 74.5Q88 115 64.5 171Q41 227 41 292Q41 345 56.5 392Q72 439 100 477Q128 515 166 542Q204 569 250 583Q233 609 233 643Q233 666 241.5 686Q250 706 264.5 721Q279 736 299 744.5Q319 753 341 753Q364 753 384.5 744.5Q405 736 420 721Q435 706 443.5 686Q452 666 452 643Q452 608 432 580Q469 566 500.5 543Q532 520 554 488V585H648V0H554V99Q519 46 459.5 17Q400 -12 339 -12ZM348 76Q393 76 432 93Q471 110 499.5 139Q528 168 544.5 208Q561 248 561 293Q561 338 544.5 377.5Q528 417 499.5 446.5Q471 476 432 493Q393 510 348 510Q304 510 265.5 493Q227 476 198.5 446.5Q170 417 153.5 377.5Q137 338 137 293Q137 248 153.5 208Q170 168 198.5 139Q227 110 265.5 93Q304 76 348 76ZM416 948H521L375 785H300ZM341 597Q361 597 374.5 610Q388 623 388 643Q388 662 374.5 676Q361 690 341 690Q322 690 308.5 676Q295 662 295 643Q295 623 308 610.5Q321 598 339 597Z" glyph-name="aringacute" horiz-adv-x="712" unicode="&#507;" /><glyph d="M205 -10Q120 -10 78.5 28.5Q37 67 37 124Q37 194 85 231Q133 268 225 289Q255 296 283 302Q311 308 333 316.5Q355 325 368.5 337Q382 349 382 367Q382 396 357.5 415Q333 434 273 434Q206 434 176 407Q146 380 146 337V334H55V336Q55 419 111 464.5Q167 510 269 510Q372 510 425.5 466.5Q479 423 479 347V0H387V69Q355 35 310 12.5Q265 -10 205 -10ZM268 553Q246 553 226 561.5Q206 570 191.5 584.5Q177 599 168.5 619Q160 639 160 662Q160 685 168.5 705Q177 725 191.5 740Q206 755 226 763.5Q246 772 268 772Q291 772 311.5 763.5Q332 755 347 740Q362 725 370.5 705Q379 685 379 662Q379 639 370.5 619Q362 599 347 584.5Q332 570 311.5 561.5Q291 553 268 553ZM209 70Q239 70 266.5 79.5Q294 89 317 104.5Q340 120 358 141Q376 162 388 185V263Q377 249 337.5 237Q298 225 251 215Q190 202 159.5 184Q129 166 129 131Q129 103 150 86.5Q171 70 209 70ZM346 968H451L305 805H230ZM268 616Q288 616 301.5 629Q315 642 315 662Q315 681 301.5 695Q288 709 268 709Q249 709 235.5 695Q222 681 222 662Q222 642 235.5 629Q249 616 268 616Z" glyph-name="aringacute.alt" horiz-adv-x="534" unicode="&#62552;" /><glyph d="M230 563Q207 577 193.5 601.5Q180 626 180 655Q180 678 188.5 698Q197 718 211.5 733Q226 748 246 756.5Q266 765 288 765Q311 765 331.5 756.5Q352 748 367 733Q382 718 390.5 698Q399 678 399 655Q399 626 385.5 602Q372 578 349 564L555 0H457L413 123H167L123 0H26ZM199 213H381L290 466ZM364 967H469L323 804H248ZM288 609Q308 609 321.5 622Q335 635 335 655Q335 674 321.5 688Q308 702 288 702Q269 702 255.5 688Q242 674 242 655Q242 635 255.5 622Q269 609 288 609Z" glyph-name="aringacute.smcp" horiz-adv-x="580" unicode="&#57901;" /><glyph d="M415 -17Q395 16 366 48.5Q337 81 303.5 109Q270 137 235.5 159Q201 181 171 194L219 279Q269 255 314 215.5Q359 176 390 136V730H485V132Q515 173 560.5 214Q606 255 657 279L706 194Q676 181 641.5 159Q607 137 573.5 109Q540 81 511 48.5Q482 16 462 -17Z" glyph-name="arrowdown" horiz-adv-x="896" unicode="&#8595;" /><glyph d="M805 156Q770 139 734.5 115Q699 91 666.5 62.5Q634 34 607 2.5Q580 -29 562 -62H514Q495 -29 466.5 2.5Q438 34 405 61Q372 88 337.5 109.5Q303 131 272 144L318 228Q369 204 414.5 165Q460 126 491 87V730H584V90Q613 130 658 169.5Q703 209 751 235ZM627 602V638L777 727V673ZM627 509V545L777 634V581ZM627 695V731L777 819V766ZM305 671V725L450 639V603ZM305 764V818L450 732V696ZM305 579V632L450 546V510Z" glyph-name="arrowdown.alt" horiz-adv-x="1068" unicode="&#62553;" /><glyph d="M279 98Q262 134 238 169Q214 204 185.5 235.5Q157 267 124.5 294.5Q92 322 59 341V389Q92 410 124.5 439Q157 468 185 501.5Q213 535 235 569.5Q257 604 270 635L355 585Q331 535 290 489Q249 443 209 413H817V320H209Q250 292 291 247Q332 202 358 153Z" glyph-name="arrowleft" horiz-adv-x="896" unicode="&#8592;" /><glyph d="M265 99Q248 134 224.5 170Q201 206 172.5 238Q144 270 112.5 297Q81 324 48 342V390Q81 409 113 437.5Q145 466 172 499Q199 532 220 566.5Q241 601 254 632L338 586Q315 535 275 489Q235 443 196 413H941V320H200Q240 291 279.5 246Q319 201 345 153ZM720 277H756L844 127H791ZM906 277H941L1030 127H977ZM813 277H848L937 127H884ZM789 599H843L757 454H721ZM975 599H1028L942 454H907ZM882 599H935L849 454H814Z" glyph-name="arrowleft.alt" horiz-adv-x="1068" unicode="&#62560;" /><glyph d="M519 152Q545 201 585.5 246.5Q626 292 668 320H60V413H667Q626 443 586 488.5Q546 534 523 585L607 635Q620 604 642 569Q664 534 692 501Q720 468 752.5 438.5Q785 409 818 389V341Q785 322 753 294.5Q721 267 692 235.5Q663 204 639 169Q615 134 598 98Z" glyph-name="arrowright" horiz-adv-x="896" unicode="&#8594;" /><glyph d="M810 634Q827 598 850.5 562.5Q874 527 902.5 495Q931 463 962.5 436Q994 409 1027 391V343Q994 324 962 295.5Q930 267 903 234Q876 201 855 166.5Q834 132 821 101L737 147Q760 197 799 242.5Q838 288 877 319H134V412H875Q835 440 795.5 485.5Q756 531 730 579ZM355 456H319L230 605H284ZM262 456H226L138 605H191ZM169 456H134L45 605H98ZM286 134H232L318 279H354ZM193 134H139L225 279H261ZM100 134H47L133 279H168Z" glyph-name="arrowright.alt" horiz-adv-x="1068" unicode="&#62561;" /><glyph d="M392 596Q361 556 315.5 515.5Q270 475 220 452L171 536Q202 549 236.5 571Q271 593 304 621Q337 649 366.5 681.5Q396 714 416 747H463Q483 714 512 681.5Q541 649 574 621Q607 593 641.5 571Q676 549 707 536L658 452Q607 475 561.5 515.5Q516 556 486 596V0H392Z" glyph-name="arrowup" horiz-adv-x="896" unicode="&#8593;" /><glyph d="M273 584Q308 601 343.5 624.5Q379 648 411.5 676.5Q444 705 470.5 736.5Q497 768 515 801H564Q582 768 611 736Q640 704 673 677Q706 650 740.5 629Q775 608 805 595L759 511Q708 534 662 573.5Q616 613 586 653V0H493V647Q464 608 419 569Q374 530 326 504ZM450 36V-1L301 -89V-36ZM450 128V93L301 3V57ZM450 221V186L301 96V149ZM772 -34V-88L628 -2V35ZM772 59V5L628 92V128ZM772 151V98L628 185V220Z" glyph-name="arrowup.alt" horiz-adv-x="1068" unicode="&#62562;" /><glyph d="M210 704H277L400 535H316L244 636L174 535H90Z" glyph-name="asciicircum" horiz-adv-x="489" unicode="^" /><glyph d="M66 566Q68 620 94 653Q120 686 165 686Q190 686 208 678Q226 670 242 661Q257 652 270.5 643.5Q284 635 299 635Q332 635 335 681H399Q398 626 373 593.5Q348 561 300 561Q271 561 250.5 571.5Q230 582 213 592Q201 600 189.5 605.5Q178 611 165 611Q135 611 132 566Z" glyph-name="asciitilde" horiz-adv-x="468" unicode="~" /><glyph d="M234 515 254 377H170L189 515L79 429L37 503L166 554L37 607L80 680L190 592L170 731H254L234 593L344 679L386 605L255 554L386 502L342 429Z" glyph-name="asterisk" horiz-adv-x="424" unicode="*" /><glyph d="M412 -125Q334 -125 266 -95.5Q198 -66 147.5 -15.5Q97 35 68 103.5Q39 172 39 250Q39 328 69 396Q99 464 150.5 515Q202 566 270.5 595.5Q339 625 417 625Q500 625 568 596.5Q636 568 684.5 521Q733 474 759.5 413.5Q786 353 786 288Q786 246 775.5 208Q765 170 744 141.5Q723 113 693 96Q663 79 624 79Q579 79 551 96Q523 113 508 137Q489 111 456.5 94.5Q424 78 379 78Q348 78 318.5 90Q289 102 266.5 125Q244 148 232 181.5Q220 215 224 259Q229 304 247 338Q265 372 290.5 394Q316 416 345.5 427Q375 438 404 438Q440 438 467 425Q494 412 510 391Q512 405 512.5 413Q513 421 514 425Q514 430 514 432H598L578 251Q573 203 586 182Q599 161 630 161Q665 161 684.5 196Q704 231 704 287Q704 336 683.5 382.5Q663 429 625.5 465Q588 501 535 523Q482 545 416 545Q355 545 302 522Q249 499 209 459Q169 419 146 365Q123 311 123 250Q123 189 145.5 135Q168 81 207 41Q246 1 298.5 -22Q351 -45 412 -45Q477 -45 530.5 -21Q584 3 625 46L687 -6Q639 -58 567.5 -91.5Q496 -125 412 -125ZM397 156Q440 156 466.5 187Q493 218 497 260Q502 301 480.5 331.5Q459 362 417 362Q377 362 345.5 334.5Q314 307 311 260Q305 216 330 186Q355 156 397 156Z" glyph-name="at" horiz-adv-x="825" unicode="@" /><glyph d="M412 -11Q334 -11 266 18.5Q198 48 147.5 99Q97 150 68 218.5Q39 287 39 365Q39 443 69 511Q99 579 150.5 630Q202 681 270.5 710.5Q339 740 417 740Q500 740 568 711.5Q636 683 684.5 636Q733 589 759.5 528.5Q786 468 786 403Q786 361 775.5 323Q765 285 744 256Q723 227 693 210Q663 193 624 193Q580 193 551.5 210Q523 227 508 251Q489 225 456.5 208.5Q424 192 379 192Q348 192 318.5 204Q289 216 266.5 239Q244 262 232 295.5Q220 329 224 373Q229 419 247 452.5Q265 486 290.5 508Q316 530 345.5 541Q375 552 404 552Q440 552 467 539Q494 526 510 505Q512 519 512.5 527Q513 535 514 539Q514 544 514 546H598L578 365Q573 317 586 296Q599 275 630 275Q665 275 684.5 310Q704 345 704 402Q704 451 683.5 497.5Q663 544 625.5 580Q588 616 535 637.5Q482 659 416 659Q355 659 302 636Q249 613 209 573Q169 533 146 479Q123 425 123 364Q123 303 145.5 249.5Q168 196 207 156Q246 116 298.5 93Q351 70 412 70Q475 70 529 94Q583 118 624 161L687 109Q637 55 566.5 22Q496 -11 412 -11ZM397 270Q440 270 466.5 301.5Q493 333 497 375Q502 416 480.5 446.5Q459 477 417 477Q377 477 345.5 449.5Q314 422 311 375Q305 331 330 300.5Q355 270 397 270Z" glyph-name="at.cap" horiz-adv-x="825" unicode="&#58643;" /><glyph d="M412 -75Q334 -75 266 -45.5Q198 -16 147.5 34.5Q97 85 68 153.5Q39 222 39 300Q39 378 69 446Q99 514 150.5 565Q202 616 270.5 645.5Q339 675 417 675Q500 675 568 646.5Q636 618 684.5 571Q733 524 759.5 463.5Q786 403 786 338Q786 296 775.5 258Q765 220 744 191.5Q723 163 693 146Q663 129 624 129Q580 129 551.5 145.5Q523 162 508 187Q489 161 456.5 144Q424 127 379 127Q348 127 318.5 139Q289 151 266.5 174Q244 197 232 231Q220 265 224 308Q229 354 247 387.5Q265 421 290.5 443Q316 465 345.5 476Q375 487 404 487Q440 487 467 474Q494 461 510 440Q512 454 512.5 462Q513 470 514 474Q514 479 514 481H598L578 300Q573 253 586 231.5Q599 210 630 210Q665 210 684.5 245Q704 280 704 337Q704 386 683.5 432.5Q663 479 625.5 515Q588 551 535 573Q482 595 416 595Q355 595 302 571.5Q249 548 209 508Q169 468 146 414.5Q123 361 123 300Q123 239 145.5 185Q168 131 207 91Q246 51 298.5 27.5Q351 4 412 4Q475 4 529 29Q583 54 624 96L687 44Q637 -10 566.5 -42.5Q496 -75 412 -75ZM397 205Q440 205 466.5 236Q493 267 497 309Q502 351 480.5 381.5Q459 412 417 412Q377 412 345.5 384Q314 356 311 310Q305 266 330 235.5Q355 205 397 205Z" glyph-name="at.smcp" horiz-adv-x="825" unicode="&#62987;" /><glyph d="M339 -12Q278 -12 223.5 11Q169 34 128.5 74.5Q88 115 64.5 171Q41 227 41 292Q41 358 64 413.5Q87 469 127.5 510Q168 551 222.5 574Q277 597 339 597Q401 597 460 568.5Q519 540 554 488V585H648V0H554V99Q519 46 459.5 17Q400 -12 339 -12ZM348 76Q393 76 432 93Q471 110 499.5 139Q528 168 544.5 208Q561 248 561 293Q561 338 544.5 377.5Q528 417 499.5 446.5Q471 476 432 493Q393 510 348 510Q304 510 265.5 493Q227 476 198.5 446.5Q170 417 153.5 377.5Q137 338 137 293Q137 248 153.5 208Q170 168 198.5 139Q227 110 265.5 93Q304 76 348 76ZM179 652Q179 708 206 741.5Q233 775 279 775Q304 775 323 767Q342 759 359 748Q375 738 389.5 729.5Q404 721 420 721Q456 721 456 771H522Q522 714 496.5 681Q471 648 421 648Q392 648 370.5 658.5Q349 669 330 680Q316 688 304.5 694.5Q293 701 279 701Q244 701 244 652Z" glyph-name="atilde" horiz-adv-x="712" unicode="&#227;" /><glyph d="M205 -10Q120 -10 78.5 28.5Q37 67 37 124Q37 194 85 231Q133 268 225 289Q255 296 283 302Q311 308 333 316.5Q355 325 368.5 337Q382 349 382 367Q382 396 357.5 415Q333 434 273 434Q206 434 176 407Q146 380 146 337V334H55V336Q55 419 111 464.5Q167 510 269 510Q372 510 425.5 466.5Q479 423 479 347V0H387V69Q355 35 310 12.5Q265 -10 205 -10ZM209 70Q239 70 266.5 79.5Q294 89 317 104.5Q340 120 358 141Q376 162 388 185V263Q377 249 337.5 237Q298 225 251 215Q190 202 159.5 184Q129 166 129 131Q129 103 150 86.5Q171 70 209 70ZM105 557Q105 613 132 646.5Q159 680 205 680Q230 680 249 672Q268 664 285 653Q301 643 315.5 634.5Q330 626 346 626Q382 626 382 676H448Q448 619 422.5 586Q397 553 347 553Q318 553 296.5 563.5Q275 574 256 585Q242 593 230.5 599.5Q219 606 205 606Q170 606 170 557Z" glyph-name="atilde.alt" horiz-adv-x="533" unicode="&#59544;" /><glyph d="M242 596H338L555 0H457L413 123H167L123 0H26ZM118 653Q118 709 145 742.5Q172 776 218 776Q243 776 262 768Q281 760 298 749Q314 739 328.5 730.5Q343 722 359 722Q395 722 395 772H461Q461 715 435.5 682Q410 649 360 649Q331 649 309.5 659.5Q288 670 269 681Q255 689 243.5 695.5Q232 702 218 702Q183 702 183 653ZM199 213H381L290 466Z" glyph-name="atilde.smcp" horiz-adv-x="580" unicode="&#57893;" /><glyph d="M242 596H338L555 0H457L413 123H167L123 0H26ZM199 213H381L290 466ZM56 596H146V460H56ZM433 596H523V460H433Z" glyph-name="aumlaut.smcp" horiz-adv-x="580" unicode="&#61817;" /><glyph d="M373 -12Q311 -12 251.5 16.5Q192 45 157 98V0H65V740H158V488Q193 540 251.5 568.5Q310 597 372 597Q435 597 489 574Q543 551 583.5 510Q624 469 647 413.5Q670 358 670 292Q670 227 646.5 171Q623 115 582.5 74.5Q542 34 488 11Q434 -12 373 -12ZM364 76Q408 76 446.5 93Q485 110 513.5 139Q542 168 558 208Q574 248 574 293Q574 338 558 377.5Q542 417 513.5 446.5Q485 476 446.5 493Q408 510 364 510Q318 510 279 493Q240 476 211.5 446.5Q183 417 167 377.5Q151 338 151 293Q151 248 167 208Q183 168 211.5 139Q240 110 279 93Q318 76 364 76Z" glyph-name="b" horiz-adv-x="710" unicode="b" /><glyph d="M57 596H265Q358 596 410 553.5Q462 511 462 434Q462 392 444 361Q426 330 393 311Q435 293 457.5 258.5Q480 224 480 173Q481 88 425.5 44Q370 0 276 0H57ZM153 261V87H278Q328 87 355.5 111Q383 135 383 175Q383 215 358 238Q333 261 275 261ZM153 510V350H271Q320 350 344 373Q368 396 368 432Q368 468 342 489Q316 510 267 510Z" glyph-name="b.smcp" horiz-adv-x="517" unicode="&#57858;" /><glyph d="M21 730H124L470 0H367Z" glyph-name="backslash" horiz-adv-x="489" unicode="\" /><glyph d="M21 730H124L470 0H367Z" glyph-name="backslash.cap" horiz-adv-x="489" unicode="&#58466;" /><glyph d="M29 596H129L412 0H312Z" glyph-name="backslash.smcp" horiz-adv-x="439" unicode="&#58472;" /><glyph d="M100 500H600V0H100ZM190 87H510V413H190ZM349 300 427 380 478 329 400 249 480 171 429 120 350 197 273 118 222 169 299 248 220 326 271 377Z" glyph-name="ballotboxwithx" horiz-adv-x="700" unicode="&#9746;" /><glyph d="M53 730H149V-230H53Z" glyph-name="bar" horiz-adv-x="202" unicode="|" /><glyph d="M53 840H149V-120H53Z" glyph-name="bar.cap" horiz-adv-x="202" unicode="&#58467;" /><glyph d="M53 686H148V-98H53Z" glyph-name="bar.smcp" horiz-adv-x="200" unicode="&#58473;" /><glyph d="M464 -10Q386 -10 318 19.5Q250 49 199.5 100Q149 151 119.5 219Q90 287 90 365Q90 443 119.5 511Q149 579 199.5 630Q250 681 318 710.5Q386 740 464 740Q542 740 610 710.5Q678 681 728.5 630Q779 579 808.5 511Q838 443 838 365Q838 287 808.5 219Q779 151 728.5 100Q678 49 610 19.5Q542 -10 464 -10Z" glyph-name="blackcircle" horiz-adv-x="927" unicode="&#9679;" /><glyph d="M100 500H600V0H100Z" glyph-name="blacksmallsquare" horiz-adv-x="700" unicode="&#9642;" /><glyph d="M100 730H826V0H100Z" glyph-name="blacksquare" horiz-adv-x="926" unicode="&#9632;" /><glyph d="M345 -230Q282 -230 240 -219Q198 -208 172.5 -182.5Q147 -157 136 -115.5Q125 -74 125 -13V100Q125 129 122 149Q119 169 109.5 181Q100 193 81.5 198Q63 203 31 203V293Q63 293 81.5 298.5Q100 304 109.5 316Q119 328 122 348Q125 368 125 397V513Q125 574 136 615.5Q147 657 172.5 682.5Q198 708 240 719Q282 730 345 730H356V642Q313 642 286.5 636.5Q260 631 245.5 616.5Q231 602 226 576.5Q221 551 221 512V396Q221 337 205 301Q189 265 150 248Q190 231 205.5 195.5Q221 160 221 101V-12Q221 -51 226 -76.5Q231 -102 245.5 -116.5Q260 -131 286.5 -136.5Q313 -142 356 -142V-230Z" glyph-name="braceleft" horiz-adv-x="391" unicode="{" /><glyph d="M345 -120Q282 -120 240 -109Q198 -98 172.5 -72.5Q147 -47 136 -5.5Q125 36 125 97V210Q125 239 122 259Q119 279 109.5 291Q100 303 81.5 308Q63 313 31 313V403Q63 403 81.5 408.5Q100 414 109.5 426Q119 438 122 458Q125 478 125 507V623Q125 684 136 725.5Q147 767 172.5 792.5Q198 818 240 829Q282 840 345 840H356V752Q313 752 286.5 746.5Q260 741 245.5 726.5Q231 712 226 686.5Q221 661 221 622V506Q221 447 205 411Q189 375 150 358Q190 341 205.5 305.5Q221 270 221 211V98Q221 59 226 33.5Q231 8 245.5 -6.5Q260 -21 286.5 -26.5Q313 -32 356 -32V-120Z" glyph-name="braceleft.cap" horiz-adv-x="391" unicode="&#58517;" /><glyph d="M302 -98Q250 -98 215 -89.5Q180 -81 159 -60.5Q138 -40 129 -6Q120 28 120 79V164Q120 189 118 205Q116 221 108.5 230.5Q101 240 86.5 244Q72 248 47 248V336Q72 336 86.5 340Q101 344 108.5 353.5Q116 363 118 379Q120 395 120 419V509Q120 559 129 593Q138 627 159 647.5Q180 668 215 677Q250 686 302 686H312V599Q281 599 262 595Q243 591 232 580.5Q221 570 217 552Q213 534 213 506V418Q213 368 201 337.5Q189 307 157 292Q189 277 201 246.5Q213 216 213 165V82Q213 54 217 36Q221 18 232 7.5Q243 -3 262 -7Q281 -11 312 -11V-98Z" glyph-name="braceleft.smcp" horiz-adv-x="357" unicode="&#58525;" /><glyph d="M36 -141Q79 -141 105.5 -135.5Q132 -130 146.5 -116Q161 -102 166 -76.5Q171 -51 171 -12V101Q171 159 186 195Q201 231 241 248Q202 265 186.5 301Q171 337 171 396V512Q171 551 166 576.5Q161 602 146.5 616Q132 630 105.5 635.5Q79 641 36 641V730H47Q110 730 152 719Q194 708 219.5 682.5Q245 657 256 615.5Q267 574 267 513V397Q267 368 270 348Q273 328 282.5 316Q292 304 311 298.5Q330 293 361 293V203Q330 203 311 198Q292 193 282.5 181Q273 169 270 149Q267 129 267 100V-13Q267 -74 256 -115.5Q245 -157 219.5 -182.5Q194 -208 152 -219Q110 -230 47 -230H36Z" glyph-name="braceright" horiz-adv-x="391" unicode="}" /><glyph d="M36 -31Q79 -31 105.5 -25.5Q132 -20 146.5 -6Q161 8 166 33.5Q171 59 171 98V211Q171 269 186 305Q201 341 241 358Q202 375 186.5 411Q171 447 171 506V622Q171 661 166 686.5Q161 712 146.5 726Q132 740 105.5 745.5Q79 751 36 751V840H47Q110 840 152 829Q194 818 219.5 792.5Q245 767 256 725.5Q267 684 267 623V507Q267 478 270 458Q273 438 282.5 426Q292 414 311 408.5Q330 403 361 403V313Q330 313 311 308Q292 303 282.5 291Q273 279 270 259Q267 239 267 210V97Q267 36 256 -5.5Q245 -47 219.5 -72.5Q194 -98 152 -109Q110 -120 47 -120H36Z" glyph-name="braceright.cap" horiz-adv-x="391" unicode="&#58518;" /><glyph d="M47 -11Q77 -11 96 -7.5Q115 -4 125.5 6Q136 16 140 34Q144 52 144 80V165Q144 216 155.5 246.5Q167 277 199 292Q167 307 155.5 337.5Q144 368 144 418V508Q144 536 140 553.5Q136 571 125.5 581Q115 591 96 594.5Q77 598 47 598V686H56Q108 686 143 677Q178 668 199 647.5Q220 627 228.5 593Q237 559 237 509V419Q237 395 239.5 379Q242 363 249.5 353.5Q257 344 272 340Q287 336 312 336V248Q287 248 272 244Q257 240 249.5 230.5Q242 221 239.5 205Q237 189 237 164V79Q237 28 228.5 -6Q220 -40 199 -60.5Q178 -81 143 -89.5Q108 -98 56 -98H47Z" glyph-name="braceright.smcp" horiz-adv-x="358" unicode="&#58526;" /><glyph d="M46 730H319V638H143V-138H319V-230H46Z" glyph-name="bracketleft" horiz-adv-x="364" unicode="[" /><glyph d="M46 840H319V748H143V-28H319V-120H46Z" glyph-name="bracketleft.cap" horiz-adv-x="364" unicode="&#58515;" /><glyph d="M53 686H281V596H148V-8H281V-98H53Z" glyph-name="bracketleft.smcp" horiz-adv-x="328" unicode="&#58523;" /><glyph d="M46 -138H222V638H46V730H319V-230H46Z" glyph-name="bracketright" horiz-adv-x="364" unicode="]" /><glyph d="M46 -28H222V748H46V840H319V-120H46Z" glyph-name="bracketright.cap" horiz-adv-x="364" unicode="&#58516;" /><glyph d="M47 -8H180V596H47V686H275V-98H47Z" glyph-name="bracketright.smcp" horiz-adv-x="328" unicode="&#58524;" /><glyph d="M243 551Q202 551 171.5 564Q141 577 121 599Q101 621 91.5 651Q82 681 82 715H152Q152 667 175 640Q198 613 243 612Q287 613 310.5 640Q334 667 334 715H405Q405 681 394 651Q383 621 362 599Q341 577 311 564Q281 551 243 551Z" glyph-name="breve" horiz-adv-x="489" unicode="&#728;" /><glyph d="M53 730H149V310H53ZM53 190H149V-230H53Z" glyph-name="brokenbar" horiz-adv-x="224" unicode="&#166;" /><glyph d="M53 840H149V420H53ZM53 300H149V-120H53Z" glyph-name="brokenbar.cap" horiz-adv-x="224" unicode="&#58469;" /><glyph d="M177 167Q142 167 116.5 192.5Q91 218 91 253Q91 288 116.5 313Q142 338 177 338Q212 338 237 313Q262 288 262 253Q262 218 237 192.5Q212 167 177 167Z" glyph-name="bullet" horiz-adv-x="353" unicode="&#8226;" /><glyph d="M177 278Q142 278 116.5 303.5Q91 329 91 364Q91 399 116.5 424Q142 449 177 449Q212 449 237 424Q262 399 262 364Q262 329 237 303.5Q212 278 177 278Z" glyph-name="bullet.cap" horiz-adv-x="353" unicode="&#58470;" /><glyph d="M753 279Q735 219 697 173.5Q659 128 608 100Q557 72 497.5 65Q438 58 378 76Q318 94 272.5 132Q227 170 199 221Q171 272 164 331.5Q157 391 175 451Q193 511 231 556.5Q269 602 320 630Q371 658 430.5 665Q490 672 550 654Q610 636 655.5 598Q701 560 729 509Q757 458 764 398.5Q771 339 753 279ZM678 292Q693 337 689.5 381Q686 425 666.5 463.5Q647 502 613.5 531.5Q580 561 536 576Q492 591 447.5 588.5Q403 586 364 567.5Q325 549 295 516Q265 483 250 438Q235 393 238.5 349Q242 305 261.5 266.5Q281 228 314.5 198.5Q348 169 392 154Q436 139 480.5 141.5Q525 144 564 162.5Q603 181 633 214Q663 247 678 292ZM644 316Q634 279 611.5 249.5Q589 220 558.5 202Q528 184 491.5 179Q455 174 416 184Q377 195 348.5 218Q320 241 302.5 272Q285 303 280.5 340Q276 377 286 414Q296 451 318.5 480Q341 509 371.5 527Q402 545 438.5 550.5Q475 556 514 546Q552 536 581 512.5Q610 489 627.5 458Q645 427 649.5 390Q654 353 644 316ZM569 328Q577 349 575.5 370.5Q574 392 565 411Q556 430 540 445Q524 460 501 467Q479 475 456.5 473.5Q434 472 415.5 463Q397 454 382.5 438Q368 422 360 401Q345 358 364.5 318.5Q384 279 429 263Q474 247 514 266Q554 285 569 328ZM525 365Q525 330 508 305Q491 280 465 280Q439 280 421 305Q403 330 403 365Q403 400 421 425Q439 450 465 450Q491 450 508 425Q525 400 525 365Z" glyph-name="bullseye" horiz-adv-x="927" unicode="&#9678;" /><glyph d="M348 -12Q282 -12 226 12Q170 36 128.5 77Q87 118 64 173.5Q41 229 41 292Q41 357 65 413Q89 469 130 510Q171 551 227.5 574Q284 597 348 597Q396 597 439 584Q482 571 517 547.5Q552 524 579 491Q606 458 622 419L537 383Q511 442 462 475.5Q413 509 347 509Q302 509 263.5 492Q225 475 197 446Q169 417 153 377Q137 337 137 292Q137 247 153 208Q169 169 197.5 139.5Q226 110 265 93Q304 76 350 76Q420 76 468 114Q516 152 540 209L627 171Q610 131 583.5 97.5Q557 64 521.5 39.5Q486 15 442.5 1.5Q399 -12 348 -12Z" glyph-name="c" horiz-adv-x="659" unicode="c" /><glyph d="M348 -8Q281 -8 225 16Q169 40 128 82Q87 124 64 179.5Q41 235 41 298Q41 363 64.5 418.5Q88 474 129.5 515.5Q171 557 227 580.5Q283 604 347 604Q390 604 430 592.5Q470 581 504.5 561Q539 541 567.5 512.5Q596 484 615 449L530 400Q504 450 456.5 481Q409 512 348 512Q302 512 263.5 495Q225 478 197 448.5Q169 419 153.5 380.5Q138 342 138 298Q138 254 154 215Q170 176 198 147Q226 118 264 101Q302 84 346 84Q413 84 460.5 118.5Q508 153 533 207L622 164Q583 86 512.5 39Q442 -8 348 -8Z" glyph-name="c.smcp" horiz-adv-x="646" unicode="&#57859;" /><glyph d="M419 815H524L378 652H303ZM348 -12Q282 -12 226 12Q170 36 128.5 77Q87 118 64 173.5Q41 229 41 292Q41 357 65 413Q89 469 130 510Q171 551 227.5 574Q284 597 348 597Q396 597 439 584Q482 571 517 547.5Q552 524 579 491Q606 458 622 419L537 383Q511 442 462 475.5Q413 509 347 509Q302 509 263.5 492Q225 475 197 446Q169 417 153 377Q137 337 137 292Q137 247 153 208Q169 169 197.5 139.5Q226 110 265 93Q304 76 350 76Q420 76 468 114Q516 152 540 209L627 171Q610 131 583.5 97.5Q557 64 521.5 39.5Q486 15 442.5 1.5Q399 -12 348 -12Z" glyph-name="cacute" horiz-adv-x="659" unicode="&#263;" /><glyph d="M422 816H527L381 653H306ZM348 -8Q281 -8 225 16Q169 40 128 82Q87 124 64 179.5Q41 235 41 298Q41 363 64.5 418.5Q88 474 129.5 515.5Q171 557 227 580.5Q283 604 347 604Q390 604 430 592.5Q470 581 504.5 561Q539 541 567.5 512.5Q596 484 615 449L530 400Q504 450 456.5 481Q409 512 348 512Q302 512 263.5 495Q225 478 197 448.5Q169 419 153.5 380.5Q138 342 138 298Q138 254 154 215Q170 176 198 147Q226 118 264 101Q302 84 346 84Q413 84 460.5 118.5Q508 153 533 207L622 164Q583 86 512.5 39Q442 -8 348 -8Z" glyph-name="cacute.smcp" horiz-adv-x="646" unicode="&#57908;" /><glyph d="M90 720H175L243 622L313 720H397L278 557H209Z" glyph-name="caron" horiz-adv-x="489" unicode="&#711;" /><glyph d="M235 721H317L261 545H199Z" glyph-name="caronSlovak" horiz-adv-x="489" unicode="&#58387;" /><glyph d="M348 -12Q282 -12 226 12Q170 36 128.5 77Q87 118 64 173.5Q41 229 41 292Q41 357 65 413Q89 469 130 510Q171 551 227.5 574Q284 597 348 597Q396 597 439 584Q482 571 517 547.5Q552 524 579 491Q606 458 622 419L537 383Q511 442 462 475.5Q413 509 347 509Q302 509 263.5 492Q225 475 197 446Q169 417 153 377Q137 337 137 292Q137 247 153 208Q169 169 197.5 139.5Q226 110 265 93Q304 76 350 76Q420 76 468 114Q516 152 540 209L627 171Q610 131 583.5 97.5Q557 64 521.5 39.5Q486 15 442.5 1.5Q399 -12 348 -12ZM198 815H283L351 717L421 815H505L386 652H317Z" glyph-name="ccaron" horiz-adv-x="659" unicode="&#269;" /><glyph d="M348 -8Q281 -8 225 16Q169 40 128 82Q87 124 64 179.5Q41 235 41 298Q41 363 64.5 418.5Q88 474 129.5 515.5Q171 557 227 580.5Q283 604 347 604Q390 604 430 592.5Q470 581 504.5 561Q539 541 567.5 512.5Q596 484 615 449L530 400Q504 450 456.5 481Q409 512 348 512Q302 512 263.5 495Q225 478 197 448.5Q169 419 153.5 380.5Q138 342 138 298Q138 254 154 215Q170 176 198 147Q226 118 264 101Q302 84 346 84Q413 84 460.5 118.5Q508 153 533 207L622 164Q583 86 512.5 39Q442 -8 348 -8ZM196 816H281L349 718L419 816H503L384 653H315Z" glyph-name="ccaron.smcp" horiz-adv-x="646" unicode="&#57910;" /><glyph d="M341 -235Q297 -235 261 -219.5Q225 -204 198 -179L262 -140Q280 -155 298.5 -165Q317 -175 346 -175Q373 -175 392 -164Q411 -153 411 -136Q411 -102 343 -102H300V-8Q243 0 195.5 26.5Q148 53 113.5 92.5Q79 132 60 183.5Q41 235 41 292Q41 357 65 413Q89 469 130 510Q171 551 227.5 574Q284 597 348 597Q396 597 439 584Q482 571 517 547.5Q552 524 579 491Q606 458 622 419L537 383Q511 442 462 475.5Q413 509 347 509Q302 509 263.5 492Q225 475 197 446Q169 417 153 377Q137 337 137 292Q137 247 153 208Q169 169 197.5 139.5Q226 110 265 93Q304 76 350 76Q420 76 468 114Q516 152 540 209L627 171Q594 94 528.5 44Q463 -6 369 -11V-53Q423 -52 455 -75Q487 -98 487 -133Q487 -156 475.5 -174.5Q464 -193 444 -206.5Q424 -220 397.5 -227.5Q371 -235 341 -235Z" glyph-name="ccedilla" horiz-adv-x="659" unicode="&#231;" /><glyph d="M341 -235Q297 -235 261 -219.5Q225 -204 198 -179L262 -140Q280 -155 298.5 -165Q317 -175 346 -175Q373 -175 392 -164Q411 -153 411 -136Q411 -102 343 -102H300V-4Q243 4 195 31Q147 58 113 98Q79 138 60 189.5Q41 241 41 298Q41 363 64.5 418.5Q88 474 129.5 515.5Q171 557 227 580.5Q283 604 347 604Q390 604 430 592.5Q470 581 504.5 561Q539 541 567.5 512.5Q596 484 615 449L530 400Q504 450 456.5 481Q409 512 348 512Q302 512 263.5 495Q225 478 197 448.5Q169 419 153.5 380.5Q138 342 138 298Q138 254 154 215Q170 176 198 147Q226 118 264 101Q302 84 346 84Q413 84 460.5 118.5Q508 153 533 207L622 164Q585 91 520 44.5Q455 -2 369 -7V-53Q423 -52 455 -75Q487 -98 487 -133Q487 -156 475.5 -174.5Q464 -193 444 -206.5Q424 -220 397.5 -227.5Q371 -235 341 -235Z" glyph-name="ccedilla.smcp" horiz-adv-x="646" unicode="&#57912;" /><glyph d="M348 -12Q282 -12 226 12Q170 36 128.5 77Q87 118 64 173.5Q41 229 41 292Q41 357 65 413Q89 469 130 510Q171 551 227.5 574Q284 597 348 597Q396 597 439 584Q482 571 517 547.5Q552 524 579 491Q606 458 622 419L537 383Q511 442 462 475.5Q413 509 347 509Q302 509 263.5 492Q225 475 197 446Q169 417 153 377Q137 337 137 292Q137 247 153 208Q169 169 197.5 139.5Q226 110 265 93Q304 76 350 76Q420 76 468 114Q516 152 540 209L627 171Q610 131 583.5 97.5Q557 64 521.5 39.5Q486 15 442.5 1.5Q399 -12 348 -12ZM318 811H387L506 648H422L352 746L284 648H199Z" glyph-name="ccircumflex" horiz-adv-x="659" unicode="&#265;" /><glyph d="M348 -8Q281 -8 225 16Q169 40 128 82Q87 124 64 179.5Q41 235 41 298Q41 363 64.5 418.5Q88 474 129.5 515.5Q171 557 227 580.5Q283 604 347 604Q390 604 430 592.5Q470 581 504.5 561Q539 541 567.5 512.5Q596 484 615 449L530 400Q504 450 456.5 481Q409 512 348 512Q302 512 263.5 495Q225 478 197 448.5Q169 419 153.5 380.5Q138 342 138 298Q138 254 154 215Q170 176 198 147Q226 118 264 101Q302 84 346 84Q413 84 460.5 118.5Q508 153 533 207L622 164Q583 86 512.5 39Q442 -8 348 -8ZM316 814H385L504 651H420L350 749L282 651H197Z" glyph-name="ccircumflex.smcp" horiz-adv-x="646" unicode="&#57909;" /><glyph d="M348 -12Q282 -12 226 12Q170 36 128.5 77Q87 118 64 173.5Q41 229 41 292Q41 357 65 413Q89 469 130 510Q171 551 227.5 574Q284 597 348 597Q396 597 439 584Q482 571 517 547.5Q552 524 579 491Q606 458 622 419L537 383Q511 442 462 475.5Q413 509 347 509Q302 509 263.5 492Q225 475 197 446Q169 417 153 377Q137 337 137 292Q137 247 153 208Q169 169 197.5 139.5Q226 110 265 93Q304 76 350 76Q420 76 468 114Q516 152 540 209L627 171Q610 131 583.5 97.5Q557 64 521.5 39.5Q486 15 442.5 1.5Q399 -12 348 -12ZM283 715Q283 744 301 761.5Q319 779 348 779Q380 779 397 761.5Q414 744 414 715Q414 686 397 668Q380 650 348 650Q317 650 300 668Q283 686 283 715Z" glyph-name="cdotaccent" horiz-adv-x="659" unicode="&#267;" /><glyph d="M348 -8Q281 -8 225 16Q169 40 128 82Q87 124 64 179.5Q41 235 41 298Q41 363 64.5 418.5Q88 474 129.5 515.5Q171 557 227 580.5Q283 604 347 604Q390 604 430 592.5Q470 581 504.5 561Q539 541 567.5 512.5Q596 484 615 449L530 400Q504 450 456.5 481Q409 512 348 512Q302 512 263.5 495Q225 478 197 448.5Q169 419 153.5 380.5Q138 342 138 298Q138 254 154 215Q170 176 198 147Q226 118 264 101Q302 84 346 84Q413 84 460.5 118.5Q508 153 533 207L622 164Q583 86 512.5 39Q442 -8 348 -8ZM286 727Q286 756 304 773.5Q322 791 351 791Q383 791 400 773.5Q417 756 417 727Q417 698 400 680Q383 662 351 662Q320 662 303 680Q286 698 286 727Z" glyph-name="cdotaccent.smcp" horiz-adv-x="646" unicode="&#57911;" /><glyph d="M231 -235Q187 -235 151 -219.5Q115 -204 88 -179L152 -140Q170 -155 188.5 -165Q207 -175 236 -175Q263 -175 282 -164Q301 -153 301 -136Q301 -102 233 -102H190V0H259V-53Q313 -52 345 -75Q377 -98 377 -133Q377 -156 365.5 -174.5Q354 -193 334 -206.5Q314 -220 287.5 -227.5Q261 -235 231 -235Z" glyph-name="cedilla" horiz-adv-x="489" unicode="&#184;" /><glyph d="M258 -5Q211 4 171.5 27Q132 50 103 84.5Q74 119 58 163Q42 207 42 257Q42 308 58.5 352Q75 396 104 430Q133 464 172.5 487Q212 510 258 518V644H355V519Q425 508 477 467.5Q529 427 554 366L468 328Q447 379 405.5 406.5Q364 434 309 434Q273 434 241.5 420.5Q210 407 187 383.5Q164 360 150.5 327.5Q137 295 137 257Q137 219 150.5 186.5Q164 154 187.5 130Q211 106 242.5 92.5Q274 79 311 79Q368 79 409 109.5Q450 140 470 188L557 151Q531 88 479 46.5Q427 5 355 -6V-130H258Z" glyph-name="cent" horiz-adv-x="588" unicode="&#162;" /><glyph d="M246 -5Q200 3 162 26Q124 49 96.5 83Q69 117 53.5 159.5Q38 202 38 250Q38 298 53.5 340.5Q69 383 97 416.5Q125 450 163 473Q201 496 246 505V630H344V506Q412 495 461.5 455.5Q511 416 536 356L450 320Q430 366 391 393.5Q352 421 298 421Q263 421 233 407.5Q203 394 180.5 371Q158 348 145 317Q132 286 132 250Q132 214 144.5 183Q157 152 179.5 129Q202 106 232.5 93Q263 80 299 80Q354 80 392.5 109.5Q431 139 450 184L537 147Q511 87 462 46Q413 5 344 -6V-130H246Z" glyph-name="cent.LP" horiz-adv-x="572" unicode="&#58659;" /><glyph d="M258 -5Q211 4 171.5 27Q132 50 103 84.5Q74 119 58 163Q42 207 42 257Q42 308 58.5 352Q75 396 104 430Q133 464 172.5 487Q212 510 258 518V644H355V519Q425 508 477 467.5Q529 427 554 366L468 328Q447 379 405.5 406.5Q364 434 309 434Q273 434 241.5 420.5Q210 407 187 383.5Q164 360 150.5 327.5Q137 295 137 257Q137 219 150.5 186.5Q164 154 187.5 130Q211 106 242.5 92.5Q274 79 311 79Q368 79 409 109.5Q450 140 470 188L557 151Q531 88 479 46.5Q427 5 355 -6V-130H258Z" glyph-name="cent.LT" horiz-adv-x="588" unicode="&#62564;" /><glyph d="M210 720H279L398 557H314L244 655L176 557H91Z" glyph-name="circumflex" horiz-adv-x="489" unicode="&#710;" /><glyph d="M336 0Q345 17 358.5 43Q372 69 386 101Q400 133 411.5 170.5Q423 208 427 248Q406 196 362 163Q318 130 260 130Q223 130 191 144Q159 158 135 182Q111 206 97 238Q83 270 83 307Q83 344 97 376Q111 408 135 432Q159 456 191 470Q223 484 260 484Q271 484 281.5 482Q292 480 302 477Q283 518 283 564Q283 600 296.5 632Q310 664 334 688Q358 712 390 726Q422 740 458 740Q494 740 526 726Q558 712 582 688Q606 664 620 632Q634 600 634 564Q634 519 615 476Q637 484 661 484Q698 484 730 470Q762 456 786 432Q810 408 823.5 376Q837 344 837 307Q837 270 823 238Q809 206 785 182Q761 158 729 144Q697 130 660 130Q602 130 559.5 163Q517 196 497 247Q502 208 514.5 170.5Q527 133 542 101Q557 69 571.5 43Q586 17 595 0Z" glyph-name="club" horiz-adv-x="920" unicode="&#9827;" /><glyph d="M42 63Q42 95 62 115Q82 135 114 135Q149 135 168.5 115Q188 95 188 63Q188 31 168.5 11Q149 -9 114 -9Q80 -9 61 11Q42 31 42 63ZM42 426Q42 458 62 478Q82 498 114 498Q149 498 168.5 478Q188 458 188 426Q188 394 168.5 374Q149 354 114 354Q80 354 61 374Q42 394 42 426Z" glyph-name="colon" horiz-adv-x="230" unicode=":" /><glyph d="M99 137H194V0H99ZM99 500H194V363H99Z" glyph-name="colon.T" horiz-adv-x="294" unicode="&#61828;" /><glyph d="M68 87H174L88 -117H21Z" glyph-name="comma" horiz-adv-x="202" unicode="," /><glyph d="M115 87H208L143 -117H76Z" glyph-name="comma.T" horiz-adv-x="294" unicode="&#61827;" /><glyph d="M175 -249 215 -45H301L238 -249Z" glyph-name="commaaccent" horiz-adv-x="492" unicode="&#58388;" /><glyph d="M414 -10Q336 -10 268 19.5Q200 49 149 100Q98 151 68.5 219Q39 287 39 365Q39 443 68.5 511Q98 579 149 630Q200 681 268 710.5Q336 740 414 740Q492 740 560 710.5Q628 681 678.5 630Q729 579 758.5 511Q788 443 788 365Q788 287 758.5 219Q729 151 678.5 100Q628 49 560 19.5Q492 -10 414 -10ZM414 70Q475 70 528 93Q581 116 620.5 156Q660 196 682.5 250Q705 304 705 365Q705 426 682.5 480Q660 534 620.5 574Q581 614 528 637.5Q475 661 414 661Q352 661 298.5 637.5Q245 614 206 574Q167 534 145 480Q123 426 123 365Q123 304 145 250Q167 196 206 156Q245 116 298.5 93Q352 70 414 70ZM418 165Q375 165 338 180.5Q301 196 274 223Q247 250 232 286.5Q217 323 217 365Q217 407 232 443.5Q247 480 274 507Q301 534 338 549.5Q375 565 418 565Q477 565 523.5 536Q570 507 593 462Q578 455 564 448Q550 441 539 435Q527 428 516 421Q505 447 479 465Q453 483 417 483Q393 483 372 473.5Q351 464 335 448Q319 432 310 410.5Q301 389 301 365Q301 340 310 318.5Q319 297 335 281Q351 265 372 256Q393 247 417 247Q454 247 480.5 266Q507 285 518 312L597 277Q574 229 526.5 197Q479 165 418 165Z" glyph-name="copyright" horiz-adv-x="826" unicode="&#169;" /><glyph d="M290 -10Q233 -10 188.5 7Q144 24 114 54.5Q84 85 68.5 128.5Q53 172 53 225V499Q53 551 70 595Q87 639 118.5 671.5Q150 704 193.5 722Q237 740 290 740Q344 740 388 721.5Q432 703 463 670.5Q494 638 511 594.5Q528 551 528 500V224Q528 115 465.5 52.5Q403 -10 290 -10ZM289 64Q367 64 407.5 107.5Q448 151 448 223V499Q448 577 407.5 622Q367 667 291 667Q214 667 173 620.5Q132 574 132 499V225Q132 152 172 108Q212 64 289 64ZM291 113Q238 113 208.5 143.5Q179 174 179 222V506Q179 554 209.5 585.5Q240 617 291 617Q343 617 372 585.5Q401 554 401 506V404H321V503Q321 517 313 525.5Q305 534 291 534Q277 534 268.5 525Q260 516 260 503V220Q260 191 291 191Q305 191 313 198.5Q321 206 321 220V336H401V221Q401 173 371.5 143Q342 113 291 113Z" glyph-name="copyright.LT" horiz-adv-x="580" unicode="&#62565;" /><glyph d="M191 435Q160 435 132.5 447Q105 459 85 479Q65 499 53 526.5Q41 554 41 585Q41 617 53 644.5Q65 672 85 692Q105 712 132.5 724Q160 736 191 736Q237 736 272.5 713Q308 690 326 654L264 622Q254 643 235 655.5Q216 668 191 668Q157 668 134 644Q111 620 111 585Q111 551 134 527Q157 503 191 503Q218 503 237 516Q256 529 265 551L328 521Q310 483 274.5 459Q239 435 191 435Z" glyph-name="cordinal" horiz-adv-x="367" unicode="&#57729;" /><glyph d="M191 435Q160 435 132.5 447Q105 459 85 479Q65 499 53 526.5Q41 554 41 585Q41 617 53 644.5Q65 672 85 692Q105 712 132.5 724Q160 736 191 736Q237 736 272.5 713Q308 690 326 654L264 622Q254 643 235 655.5Q216 668 191 668Q157 668 134 644Q111 620 111 585Q111 551 134 527Q157 503 191 503Q218 503 237 516Q256 529 265 551L328 521Q310 483 274.5 459Q239 435 191 435Z" glyph-name="cordinal.smcp" horiz-adv-x="367" unicode="&#58195;" /><glyph d="M391 102Q349 102 312 114Q275 126 243 148L136 38L72 102L179 212Q156 244 144 282Q132 320 132 362Q132 405 144 443Q156 481 179 513L70 627L135 690L244 577Q275 598 312 610Q349 622 391 622Q432 622 468.5 610Q505 598 536 577L639 683L703 620L601 515Q624 483 637 444.5Q650 406 650 362Q650 317 636.5 278Q623 239 600 207L702 102L637 39L534 145Q503 125 467 113.5Q431 102 391 102ZM391 191Q426 191 456 204.5Q486 218 508 241.5Q530 265 543 296Q556 327 556 362Q556 397 543 428.5Q530 460 508 483Q486 506 456 519.5Q426 533 391 533Q356 533 326 519.5Q296 506 274 483Q252 460 239.5 428.5Q227 397 227 362Q227 327 239.5 296Q252 265 274 241.5Q296 218 326 204.5Q356 191 391 191Z" glyph-name="currency" horiz-adv-x="773" unicode="&#164;" /><glyph d="M339 -12Q278 -12 223.5 11Q169 34 128.5 74.5Q88 115 64.5 171Q41 227 41 292Q41 358 64 413.5Q87 469 127.5 510Q168 551 222.5 574Q277 597 339 597Q400 597 459 569Q518 541 553 489V740H647V0H554V99Q519 46 459.5 17Q400 -12 339 -12ZM348 76Q393 76 432 93Q471 110 499.5 139Q528 168 544.5 208Q561 248 561 293Q561 338 544.5 377.5Q528 417 499.5 446.5Q471 476 432 493Q393 510 348 510Q304 510 265.5 493Q227 476 198.5 446.5Q170 417 153.5 377.5Q137 338 137 293Q137 248 153.5 208Q170 168 198.5 139Q227 110 265.5 93Q304 76 348 76Z" glyph-name="d" horiz-adv-x="711" unicode="d" /><glyph d="M57 596H227Q297 596 354.5 573Q412 550 452.5 510Q493 470 515 415.5Q537 361 537 298Q537 234 514 179.5Q491 125 450 85Q409 45 352.5 22.5Q296 0 229 0H57ZM152 508V89H223Q271 89 311 105Q351 121 379.5 149Q408 177 424 215.5Q440 254 440 298Q440 343 425 381.5Q410 420 382 448Q354 476 313 492Q272 508 220 508Z" glyph-name="d.smcp" horiz-adv-x="578" unicode="&#57860;" /><glyph d="M53 500H230V730H327V500H506V414H327V0H230V414H53Z" glyph-name="dagger" horiz-adv-x="558" unicode="&#8224;" /><glyph d="M53 537H230V730H327V537H506V452H327V287H506V202H327V0H230V202H53V287H230V452H53Z" glyph-name="daggerdbl" horiz-adv-x="558" unicode="&#8225;" /><glyph d="M339 -12Q278 -12 223.5 11Q169 34 128.5 74.5Q88 115 64.5 171Q41 227 41 292Q41 358 64 413.5Q87 469 127.5 510Q168 551 222.5 574Q277 597 339 597Q400 597 459 569Q518 541 553 489V740H647V0H554V99Q519 46 459.5 17Q400 -12 339 -12ZM348 76Q393 76 432 93Q471 110 499.5 139Q528 168 544.5 208Q561 248 561 293Q561 338 544.5 377.5Q528 417 499.5 446.5Q471 476 432 493Q393 510 348 510Q304 510 265.5 493Q227 476 198.5 446.5Q170 417 153.5 377.5Q137 338 137 293Q137 248 153.5 208Q170 168 198.5 139Q227 110 265.5 93Q304 76 348 76ZM725 741H807L751 565H689Z" glyph-name="dcaron" horiz-adv-x="761" unicode="&#271;" /><glyph d="M57 596H227Q297 596 354.5 573Q412 550 452.5 510Q493 470 515 415.5Q537 361 537 298Q537 234 514 179.5Q491 125 450 85Q409 45 352.5 22.5Q296 0 229 0H57ZM152 508V89H223Q271 89 311 105Q351 121 379.5 149Q408 177 424 215.5Q440 254 440 298Q440 343 425 381.5Q410 420 382 448Q354 476 313 492Q272 508 220 508ZM105 816H190L258 718L328 816H412L293 653H224Z" glyph-name="dcaron.smcp" horiz-adv-x="578" unicode="&#57913;" /><glyph d="M456 679H553V740H647V679H715V610H647V0H554V99Q519 46 459.5 17Q400 -12 339 -12Q278 -12 223.5 11Q169 34 128.5 74.5Q88 115 64.5 171Q41 227 41 292Q41 358 64 413.5Q87 469 127.5 510Q168 551 222.5 574Q277 597 339 597Q400 597 459 569Q518 541 553 489V610H456ZM348 76Q393 76 432 93Q471 110 499.5 139Q528 168 544.5 208Q561 248 561 293Q561 338 544.5 377.5Q528 417 499.5 446.5Q471 476 432 493Q393 510 348 510Q304 510 265.5 493Q227 476 198.5 446.5Q170 417 153.5 377.5Q137 338 137 293Q137 248 153.5 208Q170 168 198.5 139Q227 110 265.5 93Q304 76 348 76Z" glyph-name="dcroat" horiz-adv-x="715" unicode="&#273;" /><glyph d="M25 340H86V596H256Q327 596 384 573Q441 550 482 510Q523 470 545 415.5Q567 361 567 298Q567 234 544 179.5Q521 125 479.5 85Q438 45 381.5 22.5Q325 0 259 0H86V258H25ZM182 258V89H253Q301 89 341 105Q381 121 409.5 149Q438 177 453.5 215.5Q469 254 469 298Q469 343 454.5 381.5Q440 420 412 448Q384 476 343 492Q302 508 250 508H182V340H319V258Z" glyph-name="dcroat.smcp" horiz-adv-x="607" unicode="&#57916;" /><glyph d="M210 452Q180 452 154 463.5Q128 475 108.5 494.5Q89 514 77.5 540.5Q66 567 66 597Q66 627 77.5 653Q89 679 108.5 698.5Q128 718 154 729Q180 740 210 740Q240 740 266 729Q292 718 311.5 698.5Q331 679 342 653Q353 627 353 597Q353 567 342 540.5Q331 514 311.5 494.5Q292 475 266 463.5Q240 452 210 452ZM210 533Q236 533 254.5 551.5Q273 570 273 596Q273 622 254.5 640.5Q236 659 210 659Q184 659 165.5 640.5Q147 622 147 596Q147 570 165.5 551.5Q184 533 210 533Z" glyph-name="degree" horiz-adv-x="419" unicode="&#176;" /><glyph d="M460 791 787 390 460 -10 133 390Z" glyph-name="diamond" horiz-adv-x="920" unicode="&#9830;" /><glyph d="M82 631Q82 659 99 676Q116 693 145 693Q176 693 192.5 676Q209 659 209 631Q209 602 192.5 585Q176 568 145 568Q115 568 98.5 585Q82 602 82 631ZM277 631Q277 659 294 676Q311 693 340 693Q371 693 387.5 676Q404 659 404 631Q404 602 387.5 585Q371 568 340 568Q310 568 293.5 585Q277 602 277 631Z" glyph-name="dieresis" horiz-adv-x="492" unicode="&#168;" /><glyph d="M46 406H416V324H46ZM191 572H272V453H191ZM191 276H272V157H191Z" glyph-name="divide" horiz-adv-x="461" unicode="&#247;" /><glyph d="M552 206Q552 168 538 132.5Q524 97 497.5 68.5Q471 40 433.5 20Q396 0 348 -7V-120H251V-7Q176 2 122 34Q68 66 28 113L109 183Q135 144 170.5 119Q206 94 253 85V348Q218 359 182.5 374Q147 389 118.5 411.5Q90 434 72.5 466.5Q55 499 55 544Q55 582 69 615Q83 648 108.5 673.5Q134 699 170 715.5Q206 732 251 737V840H348V736Q413 727 457.5 699.5Q502 672 536 631L457 572Q437 601 410 620.5Q383 640 346 649V416Q382 404 419 388.5Q456 373 485.5 349Q515 325 533.5 290.5Q552 256 552 206ZM454 206Q454 252 422 277Q390 302 346 318V85Q397 96 425.5 128.5Q454 161 454 206ZM152 547Q152 506 181 483.5Q210 461 253 446V651Q206 643 179 615Q152 587 152 547Z" glyph-name="dollar" horiz-adv-x="588" unicode="$" /><glyph d="M528 206Q528 169 515 133.5Q502 98 476.5 69.5Q451 41 415 21Q379 1 332 -6V-120H238V-7Q168 2 113.5 36.5Q59 71 21 120L106 186Q129 148 164 122Q199 96 239 86V347Q204 358 170.5 372.5Q137 387 110.5 409.5Q84 432 67.5 465Q51 498 51 544Q51 582 65 614Q79 646 103.5 671.5Q128 697 162.5 713.5Q197 730 238 736V840H332V737Q392 729 435.5 702Q479 675 512 635L433 575Q413 604 387.5 622.5Q362 641 330 649V416Q366 404 401 388.5Q436 373 464.5 349Q493 325 510.5 290.5Q528 256 528 206ZM430 206Q430 251 401 276Q372 301 330 318V86Q376 98 403 130Q430 162 430 206ZM148 547Q148 507 173.5 484.5Q199 462 239 447V650Q197 639 172.5 612Q148 585 148 547Z" glyph-name="dollar.LP" horiz-adv-x="560" unicode="&#58658;" /><glyph d="M552 206Q552 168 538 132.5Q524 97 497.5 68.5Q471 40 433.5 20Q396 0 348 -7V-120H251V-7Q176 2 122 34Q68 66 28 113L109 183Q135 144 170.5 119Q206 94 253 85V348Q218 359 182.5 374Q147 389 118.5 411.5Q90 434 72.5 466.5Q55 499 55 544Q55 582 69 615Q83 648 108.5 673.5Q134 699 170 715.5Q206 732 251 737V840H348V736Q413 727 457.5 699.5Q502 672 536 631L457 572Q437 601 410 620.5Q383 640 346 649V416Q382 404 419 388.5Q456 373 485.5 349Q515 325 533.5 290.5Q552 256 552 206ZM454 206Q454 252 422 277Q390 302 346 318V85Q397 96 425.5 128.5Q454 161 454 206ZM152 547Q152 506 181 483.5Q210 461 253 446V651Q206 643 179 615Q152 587 152 547Z" glyph-name="dollar.LT" horiz-adv-x="588" unicode="&#62566;" /><glyph d="M171 631Q171 660 189 677.5Q207 695 236 695Q268 695 285 677.5Q302 660 302 631Q302 602 285 584Q268 566 236 566Q205 566 188 584Q171 602 171 631Z" glyph-name="dotaccent" horiz-adv-x="492" unicode="&#729;" /><glyph d="M171 -116Q171 -87 189 -69.5Q207 -52 236 -52Q268 -52 285 -69.5Q302 -87 302 -116Q302 -145 285 -163Q268 -181 236 -181Q205 -181 188 -163Q171 -145 171 -116Z" glyph-name="dotbelow" horiz-adv-x="492" unicode="&#58389;" /><glyph d="M64 585H160V0H64Z" glyph-name="dotlessi" horiz-adv-x="224" unicode="&#305;" /><glyph d="M-75 -177Q-32 -177 -4.5 -172.5Q23 -168 38 -153.5Q53 -139 58.5 -112.5Q64 -86 64 -41V585H160V-42Q160 -108 149.5 -151.5Q139 -195 113.5 -221Q88 -247 45.5 -257.5Q3 -268 -60 -268H-75Z" glyph-name="dotlessj" horiz-adv-x="224" unicode="&#567;" /><glyph d="M53 730H149V-230H53ZM232 730H329V-230H232Z" glyph-name="doublebar" horiz-adv-x="382" unicode="&#8214;" /><glyph d="M53 840H149V-120H53ZM232 840H329V-120H232Z" glyph-name="doublebar.cap" horiz-adv-x="382" unicode="&#58468;" /><glyph d="M53 686H148V-98H53ZM230 686H326V-98H230Z" glyph-name="doublebar.smcp" horiz-adv-x="378" unicode="&#58474;" /><glyph d="M65 720H165L278 557H206ZM212 720H313L424 557H352Z" glyph-name="doublegrave" horiz-adv-x="489" unicode="&#58386;" /><glyph d="M350 -12Q280 -12 223 11Q166 34 125.5 74.5Q85 115 63 170Q41 225 41 289Q41 354 64 410.5Q87 467 127.5 508.5Q168 550 224 573.5Q280 597 345 597Q409 597 464 575.5Q519 554 559 514.5Q599 475 622 420.5Q645 366 645 300V260H134Q139 218 156.5 184Q174 150 202.5 125Q231 100 268.5 86.5Q306 73 350 73Q420 73 469.5 106.5Q519 140 545 197L626 154Q586 76 518 32Q450 -12 350 -12ZM345 512Q306 512 272 499.5Q238 487 211 465Q184 443 165.5 412Q147 381 139 345H548Q535 423 482 467.5Q429 512 345 512Z" glyph-name="e" horiz-adv-x="688" unicode="e" /><glyph d="M58 596H415V507H152V344H415V254H152V90H415V0H58Z" glyph-name="e.smcp" horiz-adv-x="462" unicode="&#57861;" /><glyph d="M350 -12Q280 -12 223 11Q166 34 125.5 74.5Q85 115 63 170Q41 225 41 289Q41 354 64 410.5Q87 467 127.5 508.5Q168 550 224 573.5Q280 597 345 597Q409 597 464 575.5Q519 554 559 514.5Q599 475 622 420.5Q645 366 645 300V260H134Q139 218 156.5 184Q174 150 202.5 125Q231 100 268.5 86.5Q306 73 350 73Q420 73 469.5 106.5Q519 140 545 197L626 154Q586 76 518 32Q450 -12 350 -12ZM345 512Q306 512 272 499.5Q238 487 211 465Q184 443 165.5 412Q147 381 139 345H548Q535 423 482 467.5Q429 512 345 512ZM431 815H536L390 652H315Z" glyph-name="eacute" horiz-adv-x="688" unicode="&#233;" /><glyph d="M58 596H415V507H152V344H415V254H152V90H415V0H58ZM301 816H406L260 653H185Z" glyph-name="eacute.smcp" horiz-adv-x="461" unicode="&#57917;" /><glyph d="M350 -12Q280 -12 223 11Q166 34 125.5 74.5Q85 115 63 170Q41 225 41 289Q41 354 64 410.5Q87 467 127.5 508.5Q168 550 224 573.5Q280 597 345 597Q409 597 464 575.5Q519 554 559 514.5Q599 475 622 420.5Q645 366 645 300V260H134Q139 218 156.5 184Q174 150 202.5 125Q231 100 268.5 86.5Q306 73 350 73Q420 73 469.5 106.5Q519 140 545 197L626 154Q586 76 518 32Q450 -12 350 -12ZM345 512Q306 512 272 499.5Q238 487 211 465Q184 443 165.5 412Q147 381 139 345H548Q535 423 482 467.5Q429 512 345 512ZM350 647Q309 647 278.5 660Q248 673 228 695Q208 717 198.5 747Q189 777 189 811H259Q259 763 282 736Q305 709 350 708Q394 709 417.5 736Q441 763 441 811H512Q512 777 501 747Q490 717 469 695Q448 673 418 660Q388 647 350 647Z" glyph-name="ebreve" horiz-adv-x="688" unicode="&#277;" /><glyph d="M58 596H415V507H152V344H415V254H152V90H415V0H58ZM241 646Q200 646 169.5 659Q139 672 119 694Q99 716 89.5 746Q80 776 80 810H150Q150 762 173 735Q196 708 241 707Q285 708 308.5 735Q332 762 332 810H403Q403 776 392 746Q381 716 360 694Q339 672 309 659Q279 646 241 646Z" glyph-name="ebreve.smcp" horiz-adv-x="461" unicode="&#57923;" /><glyph d="M350 -12Q280 -12 223 11Q166 34 125.5 74.5Q85 115 63 170Q41 225 41 289Q41 354 64 410.5Q87 467 127.5 508.5Q168 550 224 573.5Q280 597 345 597Q409 597 464 575.5Q519 554 559 514.5Q599 475 622 420.5Q645 366 645 300V260H134Q139 218 156.5 184Q174 150 202.5 125Q231 100 268.5 86.5Q306 73 350 73Q420 73 469.5 106.5Q519 140 545 197L626 154Q586 76 518 32Q450 -12 350 -12ZM345 512Q306 512 272 499.5Q238 487 211 465Q184 443 165.5 412Q147 381 139 345H548Q535 423 482 467.5Q429 512 345 512ZM197 815H282L350 717L420 815H504L385 652H316Z" glyph-name="ecaron" horiz-adv-x="688" unicode="&#283;" /><glyph d="M58 596H415V507H152V344H415V254H152V90H415V0H58ZM86 816H171L239 718L309 816H393L274 653H205Z" glyph-name="ecaron.smcp" horiz-adv-x="461" unicode="&#57921;" /><glyph d="M350 -12Q280 -12 223 11Q166 34 125.5 74.5Q85 115 63 170Q41 225 41 289Q41 354 64 410.5Q87 467 127.5 508.5Q168 550 224 573.5Q280 597 345 597Q409 597 464 575.5Q519 554 559 514.5Q599 475 622 420.5Q645 366 645 300V260H134Q139 218 156.5 184Q174 150 202.5 125Q231 100 268.5 86.5Q306 73 350 73Q420 73 469.5 106.5Q519 140 545 197L626 154Q586 76 518 32Q450 -12 350 -12ZM345 512Q306 512 272 499.5Q238 487 211 465Q184 443 165.5 412Q147 381 139 345H548Q535 423 482 467.5Q429 512 345 512ZM315 805H384L503 642H419L349 740L281 642H196Z" glyph-name="ecircumflex" horiz-adv-x="688" unicode="&#234;" /><glyph d="M58 596H415V507H152V344H415V254H152V90H415V0H58ZM205 816H274L393 653H309L239 751L171 653H86Z" glyph-name="ecircumflex.smcp" horiz-adv-x="461" unicode="&#57919;" /><glyph d="M350 -12Q280 -12 223 11Q166 34 125.5 74.5Q85 115 63 170Q41 225 41 289Q41 354 64 410.5Q87 467 127.5 508.5Q168 550 224 573.5Q280 597 345 597Q409 597 464 575.5Q519 554 559 514.5Q599 475 622 420.5Q645 366 645 300V260H134Q139 218 156.5 184Q174 150 202.5 125Q231 100 268.5 86.5Q306 73 350 73Q420 73 469.5 106.5Q519 140 545 197L626 154Q586 76 518 32Q450 -12 350 -12ZM345 512Q306 512 272 499.5Q238 487 211 465Q184 443 165.5 412Q147 381 139 345H548Q535 423 482 467.5Q429 512 345 512ZM387 709Q387 737 404 754Q421 771 450 771Q481 771 497.5 754Q514 737 514 709Q514 680 497.5 663Q481 646 450 646Q420 646 403.5 663Q387 680 387 709ZM192 709Q192 737 209 754Q226 771 255 771Q286 771 302.5 754Q319 737 319 709Q319 680 302.5 663Q286 646 255 646Q225 646 208.5 663Q192 680 192 709Z" glyph-name="edieresis" horiz-adv-x="688" unicode="&#235;" /><glyph d="M58 596H415V507H152V344H415V254H152V90H415V0H58ZM275 727Q275 755 292 772Q309 789 338 789Q369 789 385.5 772Q402 755 402 727Q402 698 385.5 681Q369 664 338 664Q308 664 291.5 681Q275 698 275 727ZM80 727Q80 755 97 772Q114 789 143 789Q174 789 190.5 772Q207 755 207 727Q207 698 190.5 681Q174 664 143 664Q113 664 96.5 681Q80 698 80 727Z" glyph-name="edieresis.smcp" horiz-adv-x="461" unicode="&#57904;" /><glyph d="M350 -12Q280 -12 223 11Q166 34 125.5 74.5Q85 115 63 170Q41 225 41 289Q41 354 64 410.5Q87 467 127.5 508.5Q168 550 224 573.5Q280 597 345 597Q409 597 464 575.5Q519 554 559 514.5Q599 475 622 420.5Q645 366 645 300V260H134Q139 218 156.5 184Q174 150 202.5 125Q231 100 268.5 86.5Q306 73 350 73Q420 73 469.5 106.5Q519 140 545 197L626 154Q586 76 518 32Q450 -12 350 -12ZM345 512Q306 512 272 499.5Q238 487 211 465Q184 443 165.5 412Q147 381 139 345H548Q535 423 482 467.5Q429 512 345 512ZM283 713Q283 742 301 759.5Q319 777 348 777Q380 777 397 759.5Q414 742 414 713Q414 684 397 666Q380 648 348 648Q317 648 300 666Q283 684 283 713Z" glyph-name="edotaccent" horiz-adv-x="688" unicode="&#279;" /><glyph d="M58 596H415V507H152V344H415V254H152V90H415V0H58ZM177 727Q177 756 195 773.5Q213 791 242 791Q274 791 291 773.5Q308 756 308 727Q308 698 291 680Q274 662 242 662Q211 662 194 680Q177 698 177 727Z" glyph-name="edotaccent.smcp" horiz-adv-x="461" unicode="&#57926;" /><glyph d="M350 -12Q280 -12 223 11Q166 34 125.5 74.5Q85 115 63 170Q41 225 41 289Q41 354 64 410.5Q87 467 127.5 508.5Q168 550 224 573.5Q280 597 345 597Q409 597 464 575.5Q519 554 559 514.5Q599 475 622 420.5Q645 366 645 300V260H134Q139 218 156.5 184Q174 150 202.5 125Q231 100 268.5 86.5Q306 73 350 73Q420 73 469.5 106.5Q519 140 545 197L626 154Q586 76 518 32Q450 -12 350 -12ZM345 512Q306 512 272 499.5Q238 487 211 465Q184 443 165.5 412Q147 381 139 345H548Q535 423 482 467.5Q429 512 345 512ZM169 815H273L390 652H315Z" glyph-name="egrave" horiz-adv-x="688" unicode="&#232;" /><glyph d="M58 596H415V507H152V344H415V254H152V90H415V0H58ZM74 816H178L295 653H220Z" glyph-name="egrave.smcp" horiz-adv-x="461" unicode="&#57918;" /><glyph d="M275 -10Q221 -10 178 6.5Q135 23 104.5 52.5Q74 82 57.5 122Q41 162 41 210Q41 268 69 314.5Q97 361 142 389Q107 415 86 454Q65 493 65 542Q65 586 81 622Q97 658 125 684.5Q153 711 192 725.5Q231 740 277 740Q322 740 360.5 725.5Q399 711 427.5 684.5Q456 658 472 622Q488 586 488 542Q488 492 466 453.5Q444 415 409 389Q454 361 481.5 314.5Q509 268 509 210Q509 162 492.5 122Q476 82 445.5 52.5Q415 23 371.5 6.5Q328 -10 275 -10ZM274 78Q306 78 331.5 88.5Q357 99 376 117Q395 135 405 159Q415 183 415 210Q415 237 405 261.5Q395 286 377 304Q359 322 333.5 332.5Q308 343 276 343Q245 343 219 332.5Q193 322 174 304Q155 286 145 261.5Q135 237 135 210Q135 183 145 159Q155 135 173.5 117Q192 99 217.5 88.5Q243 78 274 78ZM275 427Q329 427 363 460.5Q397 494 397 542Q397 590 364 623.5Q331 657 277 657Q223 657 189 623.5Q155 590 155 542Q155 493 188 460Q221 427 275 427Z" glyph-name="eight" horiz-adv-x="549" unicode="8" /><glyph d="M275 -10Q221 -10 178 6.5Q135 23 104.5 52.5Q74 82 57.5 122Q41 162 41 210Q41 268 69 314.5Q97 361 142 389Q107 415 86 454Q65 493 65 542Q65 586 81 622Q97 658 125 684.5Q153 711 192 725.5Q231 740 277 740Q322 740 360.5 725.5Q399 711 427.5 684.5Q456 658 472 622Q488 586 488 542Q488 492 466 453.5Q444 415 409 389Q454 361 481.5 314.5Q509 268 509 210Q509 162 492.5 122Q476 82 445.5 52.5Q415 23 371.5 6.5Q328 -10 275 -10ZM274 78Q306 78 331.5 88.5Q357 99 376 117Q395 135 405 159Q415 183 415 210Q415 237 405 261.5Q395 286 377 304Q359 322 333.5 332.5Q308 343 276 343Q245 343 219 332.5Q193 322 174 304Q155 286 145 261.5Q135 237 135 210Q135 183 145 159Q155 135 173.5 117Q192 99 217.5 88.5Q243 78 274 78ZM275 427Q329 427 363 460.5Q397 494 397 542Q397 590 364 623.5Q331 657 277 657Q223 657 189 623.5Q155 590 155 542Q155 493 188 460Q221 427 275 427Z" glyph-name="eight.LP" horiz-adv-x="549" unicode="&#58685;" /><glyph d="M294 -10Q233 -10 186.5 6Q140 22 108.5 51Q77 80 60.5 120.5Q44 161 44 210Q44 269 72 314.5Q100 360 150 388Q111 414 89.5 453Q68 492 68 542Q68 586 84 622Q100 658 130 684.5Q160 711 202 725.5Q244 740 296 740Q347 740 389 725.5Q431 711 461 684.5Q491 658 507.5 622Q524 586 524 542Q524 491 501 452.5Q478 414 438 388Q488 359 516.5 314Q545 269 545 210Q545 161 528 120.5Q511 80 479 51Q447 22 400 6Q353 -10 294 -10ZM294 77Q332 77 361.5 87.5Q391 98 411 116Q431 134 441.5 158.5Q452 183 452 210Q452 237 442 261.5Q432 286 412 304Q392 322 363 332.5Q334 343 295 343Q256 343 226.5 332.5Q197 322 177 303.5Q157 285 147 261Q137 237 137 210Q137 183 147 158.5Q157 134 177 116Q197 98 226.5 87.5Q256 77 294 77ZM295 427Q364 427 399 460Q434 493 434 542Q434 590 398.5 623.5Q363 657 296 657Q230 657 193.5 623.5Q157 590 157 542Q157 493 191 460Q225 427 295 427Z" glyph-name="eight.LT" horiz-adv-x="588" unicode="&#58696;" /><glyph d="M167 -6Q104 -6 65.5 31.5Q27 69 27 127Q27 157 40 182Q53 207 76 224Q41 256 41 307Q41 361 75.5 394.5Q110 428 167 428Q224 428 259.5 394.5Q295 361 295 307Q295 281 285.5 260.5Q276 240 260 226Q281 209 294 184Q307 159 307 127Q307 69 269 31.5Q231 -6 167 -6ZM167 67Q195 67 211.5 84.5Q228 102 228 127Q228 152 211.5 169.5Q195 187 167 187Q139 187 123 169Q107 151 107 127Q107 102 123 84.5Q139 67 167 67ZM167 258Q190 258 203 272Q216 286 216 307Q216 327 203 341.5Q190 356 167 356Q144 356 131.5 341.5Q119 327 119 307Q119 286 131.5 272Q144 258 167 258Z" glyph-name="eight.inf" horiz-adv-x="335" unicode="&#58745;" /><glyph d="M1195 -6Q1161 -6 1132.5 5.5Q1104 17 1083 37.5Q1062 58 1050.5 85.5Q1039 113 1039 144Q1039 174 1049 203.5Q1059 233 1075 256L1182 422H1277L1192 290Q1202 292 1209 292Q1239 292 1264.5 281Q1290 270 1309.5 250.5Q1329 231 1340 204Q1351 177 1351 144Q1351 112 1339 84.5Q1327 57 1306 37Q1285 17 1256.5 5.5Q1228 -6 1195 -6ZM894 730H1007L480 0H367ZM776 78H858V300Q848 286 829.5 277.5Q811 269 791 269H785V352H788Q809 352 823 358.5Q837 365 845.5 375.5Q854 386 857.5 398.5Q861 411 861 422H942V78H1021V0H776ZM26 386H109V608Q99 594 80.5 585.5Q62 577 42 577H36V660H39Q60 660 74 666.5Q88 673 96 683.5Q104 694 107.5 706.5Q111 719 111 730H192V386H272V308H26ZM294 386H377V608Q367 594 348.5 585.5Q330 577 310 577H304V660H307Q328 660 342 666.5Q356 673 364.5 683.5Q373 694 376.5 706.5Q380 719 380 730H460V386H540V308H294ZM1194 71Q1225 71 1247 92.5Q1269 114 1269 146Q1269 177 1247 198Q1225 219 1194 219Q1163 219 1142 198Q1121 177 1121 145Q1121 114 1142 92.5Q1163 71 1194 71Z" glyph-name="elevensixteenths" horiz-adv-x="1373" unicode="&#61984;" /><glyph d="M32 54Q32 82 49 99Q66 116 95 116Q125 116 142 99Q159 82 159 54Q159 25 142 8Q125 -9 95 -9Q65 -9 48.5 8Q32 25 32 54ZM364 54Q364 82 381 99Q398 116 427 116Q457 116 474 99Q491 82 491 54Q491 25 474 8Q457 -9 427 -9Q397 -9 380.5 8Q364 25 364 54ZM198 54Q198 82 215 99Q232 116 261 116Q291 116 308 99Q325 82 325 54Q325 25 308 8Q291 -9 261 -9Q231 -9 214.5 8Q198 25 198 54Z" glyph-name="ellipsis" horiz-adv-x="521" unicode="&#8230;" /><glyph d="M350 -12Q280 -12 223 11Q166 34 125.5 74.5Q85 115 63 170Q41 225 41 289Q41 354 64 410.5Q87 467 127.5 508.5Q168 550 224 573.5Q280 597 345 597Q409 597 464 575.5Q519 554 559 514.5Q599 475 622 420.5Q645 366 645 300V260H134Q139 218 156.5 184Q174 150 202.5 125Q231 100 268.5 86.5Q306 73 350 73Q420 73 469.5 106.5Q519 140 545 197L626 154Q586 76 518 32Q450 -12 350 -12ZM345 512Q306 512 272 499.5Q238 487 211 465Q184 443 165.5 412Q147 381 139 345H548Q535 423 482 467.5Q429 512 345 512ZM219 724H483V654H219Z" glyph-name="emacron" horiz-adv-x="688" unicode="&#275;" /><glyph d="M58 596H415V507H152V344H415V254H152V90H415V0H58ZM106 723H370V653H106Z" glyph-name="emacron.smcp" horiz-adv-x="461" unicode="&#57922;" /><glyph d="M46 294H658V211H46Z" glyph-name="emdash" horiz-adv-x="704" unicode="&#8212;" /><glyph d="M46 345H658V262H46Z" glyph-name="emdash.cap" horiz-adv-x="704" unicode="&#58502;" /><glyph d="M46 294H458V211H46Z" glyph-name="endash" horiz-adv-x="504" unicode="&#8211;" /><glyph d="M46 345H458V262H46Z" glyph-name="endash.cap" horiz-adv-x="504" unicode="&#58500;" /><glyph d="M370 -177Q413 -177 440 -172.5Q467 -168 482.5 -153.5Q498 -139 503.5 -112.5Q509 -86 509 -41V328Q509 412 466 462Q423 512 338 512Q300 512 267 498Q234 484 210 459Q186 434 172.5 399.5Q159 365 159 324V0H64V585H158V495Q188 541 239 569Q290 597 356 597Q413 597 459.5 579Q506 561 538 526.5Q570 492 587.5 443Q605 394 605 332V-42Q605 -108 594 -151.5Q583 -195 557.5 -221Q532 -247 489.5 -257.5Q447 -268 384 -268H370Z" glyph-name="eng" horiz-adv-x="667" unicode="&#331;" /><glyph d="M343 -139Q379 -139 401 -135.5Q423 -132 435 -120.5Q447 -109 451.5 -87.5Q456 -66 456 -30V0L152 446V0H57V596H162L457 162V596H552V-31Q552 -88 542.5 -126.5Q533 -165 510 -188Q487 -211 450 -220.5Q413 -230 357 -230H343Z" glyph-name="eng.smcp" horiz-adv-x="609" unicode="&#58155;" /><glyph d="M360 -219Q298 -219 260.5 -189.5Q223 -160 223 -116Q223 -88 238 -61.5Q253 -35 293 -7Q235 2 188.5 27.5Q142 53 109 92Q76 131 58.5 181.5Q41 232 41 289Q41 354 64 410.5Q87 467 127.5 508.5Q168 550 224 573.5Q280 597 345 597Q409 597 464 575.5Q519 554 559 514.5Q599 475 622 420.5Q645 366 645 300V260H134Q139 218 156.5 184Q174 150 202.5 125Q231 100 268.5 86.5Q306 73 350 73Q420 73 469.5 106.5Q519 140 545 197L626 154Q594 92 544 51Q494 10 425 -4Q389 -27 365.5 -42.5Q342 -58 329 -70Q316 -82 311 -92Q306 -102 306 -113Q306 -132 321.5 -141.5Q337 -151 360 -151Q383 -151 399.5 -141.5Q416 -132 431 -118L496 -162Q470 -185 433.5 -202Q397 -219 360 -219ZM345 512Q306 512 272 499.5Q238 487 211 465Q184 443 165.5 412Q147 381 139 345H548Q535 423 482 467.5Q429 512 345 512Z" glyph-name="eogonek" horiz-adv-x="688" unicode="&#281;" /><glyph d="M58 596H415V507H152V344H415V254H152V90H415V0H412L414 -1Q376 -25 351.5 -41Q327 -57 313 -69.5Q299 -82 294 -92Q289 -102 289 -113Q289 -132 304.5 -141.5Q320 -151 343 -151Q366 -151 382.5 -141.5Q399 -132 414 -118L479 -162Q453 -185 416.5 -202Q380 -219 343 -219Q281 -219 243.5 -189.5Q206 -160 206 -116Q206 -87 223.5 -58.5Q241 -30 287 0H58Z" glyph-name="eogonek.smcp" horiz-adv-x="461" unicode="&#57929;" /><glyph d="M46 487H416V404H46ZM46 322H416V240H46Z" glyph-name="equal" horiz-adv-x="461" unicode="=" /><glyph d="M27 292H240V226H27ZM27 194H240V127H27Z" glyph-name="equal.inf" horiz-adv-x="265" unicode="&#58749;" /><glyph d="M46 404H416V322H46ZM46 240H416V159H46ZM46 568H416V486H46Z" glyph-name="equivalence" horiz-adv-x="461" unicode="&#8801;" /><glyph d="M298 730Q263 759 223 790Q183 821 136 854H279Q302 836 323 818Q344 800 364 783L454 854H553L410 740Q528 625 582 512.5Q636 400 636 285Q636 224 613 170.5Q590 117 550.5 77.5Q511 38 457 15.5Q403 -7 340 -7Q279 -7 225.5 15Q172 37 132 76Q92 115 68.5 168Q45 221 45 283Q45 345 67.5 398Q90 451 128.5 490Q167 529 219 551Q271 573 329 573Q383 573 421.5 558Q460 543 487 518Q463 560 428 601.5Q393 643 345 688L260 621H159ZM341 81Q382 81 418.5 97Q455 113 482 140.5Q509 168 525 204.5Q541 241 541 283Q541 324 525.5 361Q510 398 483.5 425.5Q457 453 420.5 469Q384 485 342 485Q301 485 264.5 469.5Q228 454 200.5 426.5Q173 399 157 362Q141 325 141 283Q141 241 157 204Q173 167 200.5 140Q228 113 264.5 97Q301 81 341 81Z" glyph-name="eth" horiz-adv-x="682" unicode="&#240;" /><glyph d="M25 340H86V596H256Q327 596 384 573Q441 550 482 510Q523 470 545 415.5Q567 361 567 298Q567 234 544 179.5Q521 125 479.5 85Q438 45 381.5 22.5Q325 0 259 0H86V258H25ZM182 258V89H253Q301 89 341 105Q381 121 409.5 149Q438 177 453.5 215.5Q469 254 469 298Q469 343 454.5 381.5Q440 420 412 448Q384 476 343 492Q302 508 250 508H182V340H319V258Z" glyph-name="eth.smcp" horiz-adv-x="607" unicode="&#58156;" /><glyph d="M88 195Q84 234 80 285Q76 336 73 392.5Q70 449 68.5 506Q67 563 67 613V730H163V613Q163 563 161.5 506Q160 449 157 392.5Q154 336 150 285Q146 234 141 195ZM42 63Q42 95 62 115Q82 135 114 135Q149 135 168.5 115Q188 95 188 63Q188 31 168.5 11Q149 -9 114 -9Q80 -9 61 11Q42 31 42 63Z" glyph-name="exclam" horiz-adv-x="228" unicode="!" /><glyph d="M67 -113Q67 -63 68.5 -5.5Q70 52 73 108Q76 164 80 215.5Q84 267 88 306H141Q146 267 150 215.5Q154 164 157 108Q160 52 161.5 -5.5Q163 -63 163 -113V-230H67ZM42 430Q42 462 62 482Q82 502 114 502Q149 502 168.5 482Q188 462 188 430Q188 398 168.5 378Q149 358 114 358Q80 358 61 378Q42 398 42 430Z" glyph-name="exclamdown" horiz-adv-x="228" unicode="&#161;" /><glyph d="M67 117Q67 167 68.5 224.5Q70 282 73 338Q76 394 80 445.5Q84 497 88 536H141Q146 497 150 445.5Q154 394 157 338Q160 282 161.5 224.5Q163 167 163 117V0H67ZM42 663Q42 695 62 715Q82 735 114 735Q149 735 168.5 715Q188 695 188 663Q188 631 168.5 611Q149 591 114 591Q80 591 61 611Q42 631 42 663Z" glyph-name="exclamdown.cap" horiz-adv-x="228" unicode="&#58433;" /><glyph d="M27 585H129V594Q129 660 139.5 703.5Q150 747 175.5 773Q201 799 244 809.5Q287 820 352 820H361V731Q316 731 288.5 726Q261 721 247 706Q233 691 228.5 664Q224 637 224 593V585H361V499H224V0H129V499H27Z" glyph-name="f" horiz-adv-x="393" unicode="f" /><glyph d="M57 596H395V507H152V344H395V254H152V0H57Z" glyph-name="f.smcp" horiz-adv-x="438" unicode="&#57862;" /><glyph d="M27 585H129V594Q129 660 139.5 703.5Q150 747 175.5 773Q201 799 244 809.5Q287 820 352 820H361V731Q316 731 288.5 726Q261 721 247 706Q233 691 228.5 664Q224 637 224 593V585H361V499H224V0H129V499H27ZM457 585H553V0H457ZM437 728Q437 758 455.5 776.5Q474 795 505 795Q538 795 556 776.5Q574 758 574 728Q574 697 556 678.5Q538 660 505 660Q473 660 455 678.5Q437 697 437 728Z" glyph-name="fi" horiz-adv-x="617" unicode="&#64257;" /><glyph d="M1203 -6Q1169 -6 1140.5 5.5Q1112 17 1091 37.5Q1070 58 1058.5 85.5Q1047 113 1047 144Q1047 174 1057 203.5Q1067 233 1083 256L1190 422H1286L1200 290Q1205 291 1209 291.5Q1213 292 1218 292Q1247 292 1273 281Q1299 270 1318 250.5Q1337 231 1348 204Q1359 177 1359 144Q1359 112 1347.5 84.5Q1336 57 1315 37Q1294 17 1265.5 5.5Q1237 -6 1203 -6ZM903 730H1015L488 0H376ZM436 302Q384 302 346.5 324.5Q309 347 291 381L369 425Q378 405 394.5 392.5Q411 380 437 380Q465 380 483 398Q501 416 501 445Q501 475 482.5 493Q464 511 436 511Q413 511 396 499.5Q379 488 370 470L294 500L326 730H561V653H391L380 569Q393 577 409 581.5Q425 586 446 586Q475 586 500.5 577Q526 568 544.5 550Q563 532 574 506Q585 480 585 445Q585 413 574 386.5Q563 360 543 341.5Q523 323 495.5 312.5Q468 302 436 302ZM783 78H867V301Q857 286 838.5 277.5Q820 269 800 269H793V352H796Q817 352 831 358.5Q845 365 853.5 375.5Q862 386 865.5 398.5Q869 411 869 422H950V78H1029V0H783ZM26 386H109V608Q99 594 80.5 585.5Q62 577 42 577H36V660H39Q60 660 74 666.5Q88 673 96 683.5Q104 694 107.5 706.5Q111 719 111 730H192V386H272V308H26ZM1203 71Q1232 71 1254.5 92.5Q1277 114 1277 146Q1277 177 1254.5 198Q1232 219 1203 219Q1172 219 1150.5 198Q1129 177 1129 145Q1129 114 1150.5 92.5Q1172 71 1203 71Z" glyph-name="fifteensixteenths" horiz-adv-x="1380" unicode="&#61986;" /><glyph d="M46 294H608V211H46Z" glyph-name="figuredash" horiz-adv-x="654" unicode="&#8210;" /><glyph d="M46 345H608V262H46Z" glyph-name="figuredash.cap" horiz-adv-x="654" unicode="&#58503;" /><glyph d="M291 -10Q202 -10 138.5 28.5Q75 67 44 126L134 180Q155 138 193.5 109Q232 80 291 80Q323 80 350.5 91Q378 102 398.5 122Q419 142 431 170Q443 198 443 232Q443 268 430.5 297Q418 326 397 346.5Q376 367 348 377.5Q320 388 290 388Q233 388 196 362Q159 336 137 293L48 332L104 730H498V639H184L153 425Q179 447 214.5 461.5Q250 476 296 476Q344 476 388.5 461Q433 446 466.5 415.5Q500 385 520.5 339Q541 293 541 232Q541 178 522 133.5Q503 89 470 57Q437 25 391 7.5Q345 -10 291 -10Z" glyph-name="five" horiz-adv-x="579" unicode="5" /><glyph d="M291 -10Q202 -10 138.5 28.5Q75 67 44 126L134 180Q155 138 193.5 109Q232 80 291 80Q323 80 350.5 91Q378 102 398.5 122Q419 142 431 170Q443 198 443 232Q443 268 430.5 297Q418 326 397 346.5Q376 367 348 377.5Q320 388 290 388Q233 388 196 362Q159 336 137 293L48 332L104 730H498V639H184L153 425Q179 447 214.5 461.5Q250 476 296 476Q344 476 388.5 461Q433 446 466.5 415.5Q500 385 520.5 339Q541 293 541 232Q541 178 522 133.5Q503 89 470 57Q437 25 391 7.5Q345 -10 291 -10Z" glyph-name="five.LP" horiz-adv-x="579" unicode="&#58682;" /><glyph d="M294 -10Q204 -10 140.5 27Q77 64 44 123L136 179Q158 135 197 107.5Q236 80 295 80Q327 80 355 91.5Q383 103 403.5 124Q424 145 436 174.5Q448 204 448 239Q448 277 435.5 306.5Q423 336 401 356.5Q379 377 351 388Q323 399 291 399Q240 399 204 378Q168 357 145 324L54 363L108 730H504V639H187L156 443Q182 463 217.5 475.5Q253 488 298 488Q346 488 391 473Q436 458 470.5 427Q505 396 526 349Q547 302 547 238Q547 184 528.5 138.5Q510 93 476 60Q442 27 396 8.5Q350 -10 294 -10Z" glyph-name="five.LT" horiz-adv-x="588" unicode="&#58693;" /><glyph d="M167 -6Q114 -6 76.5 16.5Q39 39 20 73L98 117Q108 97 124.5 84.5Q141 72 167 72Q194 72 213 90Q232 108 232 137Q232 167 213 185Q194 203 166 203Q143 203 126 191.5Q109 180 100 162L25 192L56 422H291V345H121L109 260Q122 268 138.5 273Q155 278 176 278Q205 278 230.5 269Q256 260 274.5 242Q293 224 304 198Q315 172 315 137Q315 105 304 78.5Q293 52 273.5 33.5Q254 15 226.5 4.5Q199 -6 167 -6Z" glyph-name="five.inf" horiz-adv-x="336" unicode="&#58742;" /><glyph d="M932 -6Q898 -6 869.5 5.5Q841 17 820 37.5Q799 58 787.5 85.5Q776 113 776 144Q776 174 786.5 203.5Q797 233 812 256L919 422H1015L929 290Q934 291 938 291.5Q942 292 947 292Q976 292 1002 281Q1028 270 1047 250.5Q1066 231 1077 204Q1088 177 1088 144Q1088 112 1076.5 84.5Q1065 57 1044 37Q1023 17 994.5 5.5Q966 -6 932 -6ZM632 730H744L217 0H105ZM167 302Q114 302 76.5 324.5Q39 347 20 381L98 425Q108 405 124.5 392.5Q141 380 167 380Q194 380 213 398Q232 416 232 445Q232 475 213 493Q194 511 166 511Q143 511 126 499.5Q109 488 100 470L25 500L56 730H291V653H121L109 568Q122 576 138.5 581Q155 586 176 586Q205 586 230.5 577Q256 568 274.5 550Q293 532 304 506Q315 480 315 445Q315 413 304 386.5Q293 360 273.5 341.5Q254 323 226.5 312.5Q199 302 167 302ZM513 78H596V300Q586 286 567.5 277.5Q549 269 529 269H523V352H526Q547 352 561 358.5Q575 365 583 375.5Q591 386 594.5 398.5Q598 411 598 422H679V78H759V0H513ZM931 71Q962 71 984 92.5Q1006 114 1006 146Q1006 177 984 198Q962 219 931 219Q900 219 879 198Q858 177 858 145Q858 114 879 92.5Q900 71 931 71Z" glyph-name="fivesixteenths" horiz-adv-x="1110" unicode="&#61975;" /><glyph d="M27 585H129V594Q129 660 139.5 703.5Q150 747 175.5 773Q201 799 244 809.5Q287 820 352 820H361V731Q316 731 288.5 726Q261 721 247 706Q233 691 228.5 664Q224 637 224 593V585H361V499H224V0H129V499H27ZM458 740H554V0H458Z" glyph-name="fl" horiz-adv-x="619" unicode="&#64258;" /><glyph d="M89 415H261L296 529Q313 587 335 625.5Q357 664 385 687.5Q413 711 448 720.5Q483 730 526 730H534V642Q504 642 482.5 636.5Q461 631 444.5 618Q428 605 416 582.5Q404 560 394 525L360 415H512V329H334L295 201Q278 144 258.5 105.5Q239 67 212.5 43.5Q186 20 150.5 10Q115 0 67 0H55V89Q87 89 109 94.5Q131 100 147.5 113Q164 126 175.5 149Q187 172 198 206L235 329H89Z" glyph-name="florin" horiz-adv-x="588" unicode="&#402;" /><glyph d="M75 415H236L267 530Q282 590 303 628.5Q324 667 351 689.5Q378 712 411 721Q444 730 483 730H491V642Q469 642 449.5 638Q430 634 414 621.5Q398 609 385.5 586.5Q373 564 364 528L335 415H477V329H313L280 200Q265 142 246 103.5Q227 65 201 42Q175 19 140.5 9.5Q106 0 59 0H51V89Q79 89 99.5 93Q120 97 135 109Q150 121 161 143.5Q172 166 181 203L214 329H75Z" glyph-name="florin.LP" horiz-adv-x="542" unicode="&#58661;" /><glyph d="M89 415H261L296 529Q313 587 335 625.5Q357 664 385 687.5Q413 711 448 720.5Q483 730 526 730H534V642Q504 642 482.5 636.5Q461 631 444.5 618Q428 605 416 582.5Q404 560 394 525L360 415H512V329H334L295 201Q278 144 258.5 105.5Q239 67 212.5 43.5Q186 20 150.5 10Q115 0 67 0H55V89Q87 89 109 94.5Q131 100 147.5 113Q164 126 175.5 149Q187 172 198 206L235 329H89Z" glyph-name="florin.LT" horiz-adv-x="588" unicode="&#62568;" /><glyph d="M374 168H41V257L371 730H470V256H577V168H470V0H374ZM374 256V581L146 256Z" glyph-name="four" horiz-adv-x="617" unicode="4" /><glyph d="M374 168H41V257L371 730H470V256H577V168H470V0H374ZM374 256V581L146 256Z" glyph-name="four.LP" horiz-adv-x="617" unicode="&#58681;" /><glyph d="M357 163H43L42 252L350 730H452V251H546V163H452V0H357ZM357 251V579L146 251Z" glyph-name="four.LT" horiz-adv-x="588" unicode="&#58692;" /><glyph d="M206 92H26V167L204 422H286V165H347V92H286V0H206ZM206 165V298L113 165Z" glyph-name="four.inf" horiz-adv-x="372" unicode="&#58741;" /><glyph d="M548 730H660L133 0H21Z" glyph-name="fraction" horiz-adv-x="679" unicode="&#8260;" /><glyph d="M53 730H466V638H149V488H466V402H149V318H466V233H149V0H53Z" glyph-name="franc" horiz-adv-x="517" unicode="&#8355;" /><glyph d="M339 -12Q278 -12 223.5 11Q169 34 128.5 74.5Q88 115 64.5 171Q41 227 41 292Q41 358 64 413.5Q87 469 127.5 510Q168 551 222.5 574Q277 597 339 597Q401 597 460 568Q519 539 554 486V585H649V11Q649 -57 627 -111.5Q605 -166 565.5 -204.5Q526 -243 471 -264Q416 -285 349 -285Q242 -285 174 -243.5Q106 -202 65 -130L149 -80Q165 -107 183 -128.5Q201 -150 224.5 -166Q248 -182 278.5 -190.5Q309 -199 350 -199Q397 -199 435 -184Q473 -169 499.5 -141.5Q526 -114 540 -76Q554 -38 554 8V99Q519 46 459.5 17Q400 -12 339 -12ZM348 76Q393 76 432 93Q471 110 499.5 139Q528 168 544.5 208Q561 248 561 293Q561 338 544.5 377.5Q528 417 499.5 446.5Q471 476 432 493Q393 510 348 510Q304 510 265.5 493Q227 476 198.5 446.5Q170 417 153.5 377.5Q137 338 137 293Q137 248 153.5 208Q170 168 198.5 139Q227 110 265.5 93Q304 76 348 76Z" glyph-name="g" horiz-adv-x="714" unicode="g" /><glyph d="M275 -259Q210 -259 165 -248.5Q120 -238 92.5 -220Q65 -202 53 -178Q41 -154 41 -127Q41 -94 56.5 -72Q72 -50 96 -36Q37 -9 37 58Q37 96 61 121Q85 146 123 157Q90 183 71 221.5Q52 260 52 308Q52 350 67.5 387Q83 424 110.5 451.5Q138 479 174.5 495Q211 511 253 511Q310 511 354.5 484Q399 457 423 412Q430 457 454 476.5Q478 496 522 496H534V391H520Q504 391 492 389Q480 387 472 378.5Q464 370 460 353.5Q456 337 456 308Q456 266 441 229Q426 192 400 164.5Q374 137 338 121Q302 105 260 105H188Q150 105 133.5 93.5Q117 82 117 66Q117 49 132 39Q147 29 184 29H341Q429 29 477 -5.5Q525 -40 525 -103Q525 -171 462.5 -215Q400 -259 275 -259ZM252 190Q276 190 297.5 199.5Q319 209 335 225Q351 241 360 262.5Q369 284 369 308Q369 332 360 353.5Q351 375 335 391Q319 407 297.5 416.5Q276 426 252 426Q229 426 208 416.5Q187 407 171.5 391Q156 375 147 353.5Q138 332 138 308Q138 284 147 262.5Q156 241 171.5 225Q187 209 208 199.5Q229 190 252 190ZM218 -53Q173 -52 149 -69Q125 -86 125 -112Q125 -125 130.5 -136Q136 -147 150.5 -155.5Q165 -164 190 -169Q215 -174 255 -174H298Q375 -174 407 -153Q439 -132 439 -107Q439 -80 415 -66.5Q391 -53 337 -53Z" glyph-name="g.alt" horiz-adv-x="558" unicode="&#58566;" /><glyph d="M347 -8Q279 -8 222.5 16.5Q166 41 125 83Q84 125 61 180.5Q38 236 38 298Q38 362 61.5 418Q85 474 126 515Q167 556 223.5 580Q280 604 346 604Q437 604 506 562.5Q575 521 613 453L529 405Q502 456 455.5 485Q409 514 346 514Q301 514 262 497Q223 480 194.5 450.5Q166 421 150 382Q134 343 134 298Q134 253 149.5 213.5Q165 174 193.5 145Q222 116 261 99Q300 82 346 82Q426 82 476 126.5Q526 171 540 241H331V331H643V293Q643 232 622 177.5Q601 123 562.5 81.5Q524 40 469.5 16Q415 -8 347 -8Z" glyph-name="g.smcp" horiz-adv-x="681" unicode="&#57863;" /><glyph d="M339 -12Q278 -12 223.5 11Q169 34 128.5 74.5Q88 115 64.5 171Q41 227 41 292Q41 358 64 413.5Q87 469 127.5 510Q168 551 222.5 574Q277 597 339 597Q401 597 460 568Q519 539 554 486V585H649V11Q649 -57 627 -111.5Q605 -166 565.5 -204.5Q526 -243 471 -264Q416 -285 349 -285Q242 -285 174 -243.5Q106 -202 65 -130L149 -80Q165 -107 183 -128.5Q201 -150 224.5 -166Q248 -182 278.5 -190.5Q309 -199 350 -199Q397 -199 435 -184Q473 -169 499.5 -141.5Q526 -114 540 -76Q554 -38 554 8V99Q519 46 459.5 17Q400 -12 339 -12ZM348 76Q393 76 432 93Q471 110 499.5 139Q528 168 544.5 208Q561 248 561 293Q561 338 544.5 377.5Q528 417 499.5 446.5Q471 476 432 493Q393 510 348 510Q304 510 265.5 493Q227 476 198.5 446.5Q170 417 153.5 377.5Q137 338 137 293Q137 248 153.5 208Q170 168 198.5 139Q227 110 265.5 93Q304 76 348 76ZM359 650Q318 650 287.5 663Q257 676 237 698Q217 720 207.5 750Q198 780 198 814H268Q268 766 291 739Q314 712 359 711Q403 712 426.5 739Q450 766 450 814H521Q521 780 510 750Q499 720 478 698Q457 676 427 663Q397 650 359 650Z" glyph-name="gbreve" horiz-adv-x="714" unicode="&#287;" /><glyph d="M275 -259Q210 -259 165 -248.5Q120 -238 92.5 -220Q65 -202 53 -178Q41 -154 41 -127Q41 -94 56.5 -72Q72 -50 96 -36Q37 -9 37 58Q37 96 61 121Q85 146 123 157Q90 183 71 221.5Q52 260 52 308Q52 350 67.5 387Q83 424 110.5 451.5Q138 479 174.5 495Q211 511 253 511Q310 511 354.5 484Q399 457 423 412Q430 457 454 476.5Q478 496 522 496H534V391H520Q504 391 492 389Q480 387 472 378.5Q464 370 460 353.5Q456 337 456 308Q456 266 441 229Q426 192 400 164.5Q374 137 338 121Q302 105 260 105H188Q150 105 133.5 93.5Q117 82 117 66Q117 49 132 39Q147 29 184 29H341Q429 29 477 -5.5Q525 -40 525 -103Q525 -171 462.5 -215Q400 -259 275 -259ZM252 190Q276 190 297.5 199.5Q319 209 335 225Q351 241 360 262.5Q369 284 369 308Q369 332 360 353.5Q351 375 335 391Q319 407 297.5 416.5Q276 426 252 426Q229 426 208 416.5Q187 407 171.5 391Q156 375 147 353.5Q138 332 138 308Q138 284 147 262.5Q156 241 171.5 225Q187 209 208 199.5Q229 190 252 190ZM205 -53Q166 -55 145.5 -71Q125 -87 125 -112Q125 -125 130.5 -136Q136 -147 150.5 -155.5Q165 -164 190 -169Q215 -174 255 -174H298Q375 -174 407 -153Q439 -132 439 -107Q439 -80 415 -66.5Q391 -53 337 -53ZM255 551Q214 551 183.5 564Q153 577 133 599Q113 621 103.5 651Q94 681 94 715H164Q164 667 187 640Q210 613 255 612Q299 613 322.5 640Q346 667 346 715H417Q417 681 406 651Q395 621 374 599Q353 577 323 564Q293 551 255 551Z" glyph-name="gbreve.alt" horiz-adv-x="558" unicode="&#59664;" /><glyph d="M347 -8Q279 -8 222.5 16.5Q166 41 125 83Q84 125 61 180.5Q38 236 38 298Q38 362 61.5 418Q85 474 126 515Q167 556 223.5 580Q280 604 346 604Q437 604 506 562.5Q575 521 613 453L529 405Q502 456 455.5 485Q409 514 346 514Q301 514 262 497Q223 480 194.5 450.5Q166 421 150 382Q134 343 134 298Q134 253 149.5 213.5Q165 174 193.5 145Q222 116 261 99Q300 82 346 82Q426 82 476 126.5Q526 171 540 241H331V331H643V293Q643 232 622 177.5Q601 123 562.5 81.5Q524 40 469.5 16Q415 -8 347 -8ZM345 649Q304 649 273.5 662Q243 675 223 697Q203 719 193.5 749Q184 779 184 813H254Q254 765 277 738Q300 711 345 710Q389 711 412.5 738Q436 765 436 813H507Q507 779 496 749Q485 719 464 697Q443 675 413 662Q383 649 345 649Z" glyph-name="gbreve.smcp" horiz-adv-x="681" unicode="&#57934;" /><glyph d="M339 -12Q278 -12 223.5 11Q169 34 128.5 74.5Q88 115 64.5 171Q41 227 41 292Q41 358 64 413.5Q87 469 127.5 510Q168 551 222.5 574Q277 597 339 597Q401 597 460 568Q519 539 554 486V585H649V11Q649 -57 627 -111.5Q605 -166 565.5 -204.5Q526 -243 471 -264Q416 -285 349 -285Q242 -285 174 -243.5Q106 -202 65 -130L149 -80Q165 -107 183 -128.5Q201 -150 224.5 -166Q248 -182 278.5 -190.5Q309 -199 350 -199Q397 -199 435 -184Q473 -169 499.5 -141.5Q526 -114 540 -76Q554 -38 554 8V99Q519 46 459.5 17Q400 -12 339 -12ZM348 76Q393 76 432 93Q471 110 499.5 139Q528 168 544.5 208Q561 248 561 293Q561 338 544.5 377.5Q528 417 499.5 446.5Q471 476 432 493Q393 510 348 510Q304 510 265.5 493Q227 476 198.5 446.5Q170 417 153.5 377.5Q137 338 137 293Q137 248 153.5 208Q170 168 198.5 139Q227 110 265.5 93Q304 76 348 76ZM309 813H378L497 650H413L343 748L275 650H190Z" glyph-name="gcircumflex" horiz-adv-x="714" unicode="&#285;" /><glyph d="M275 -259Q210 -259 165 -248.5Q120 -238 92.5 -220Q65 -202 53 -178Q41 -154 41 -127Q41 -94 56.5 -72Q72 -50 96 -36Q37 -9 37 58Q37 96 61 121Q85 146 123 157Q90 183 71 221.5Q52 260 52 308Q52 350 67.5 387Q83 424 110.5 451.5Q138 479 174.5 495Q211 511 253 511Q310 511 354.5 484Q399 457 423 412Q430 457 454 476.5Q478 496 522 496H534V391H520Q504 391 492 389Q480 387 472 378.5Q464 370 460 353.5Q456 337 456 308Q456 266 441 229Q426 192 400 164.5Q374 137 338 121Q302 105 260 105H188Q150 105 133.5 93.5Q117 82 117 66Q117 49 132 39Q147 29 184 29H341Q429 29 477 -5.5Q525 -40 525 -103Q525 -171 462.5 -215Q400 -259 275 -259ZM252 190Q276 190 297.5 199.5Q319 209 335 225Q351 241 360 262.5Q369 284 369 308Q369 332 360 353.5Q351 375 335 391Q319 407 297.5 416.5Q276 426 252 426Q229 426 208 416.5Q187 407 171.5 391Q156 375 147 353.5Q138 332 138 308Q138 284 147 262.5Q156 241 171.5 225Q187 209 208 199.5Q229 190 252 190ZM205 -53Q166 -55 145.5 -71Q125 -87 125 -112Q125 -125 130.5 -136Q136 -147 150.5 -155.5Q165 -164 190 -169Q215 -174 255 -174H298Q375 -174 407 -153Q439 -132 439 -107Q439 -80 415 -66.5Q391 -53 337 -53ZM214 720H283L402 557H318L248 655L180 557H95Z" glyph-name="gcircumflex.alt" horiz-adv-x="558" unicode="&#59662;" /><glyph d="M347 -8Q279 -8 222.5 16.5Q166 41 125 83Q84 125 61 180.5Q38 236 38 298Q38 362 61.5 418Q85 474 126 515Q167 556 223.5 580Q280 604 346 604Q437 604 506 562.5Q575 521 613 453L529 405Q502 456 455.5 485Q409 514 346 514Q301 514 262 497Q223 480 194.5 450.5Q166 421 150 382Q134 343 134 298Q134 253 149.5 213.5Q165 174 193.5 145Q222 116 261 99Q300 82 346 82Q426 82 476 126.5Q526 171 540 241H331V331H643V293Q643 232 622 177.5Q601 123 562.5 81.5Q524 40 469.5 16Q415 -8 347 -8ZM310 815H379L498 652H414L344 750L276 652H191Z" glyph-name="gcircumflex.smcp" horiz-adv-x="681" unicode="&#57931;" /><glyph d="M339 -12Q278 -12 223.5 11Q169 34 128.5 74.5Q88 115 64.5 171Q41 227 41 292Q41 358 64 413.5Q87 469 127.5 510Q168 551 222.5 574Q277 597 339 597Q401 597 460 568Q519 539 554 486V585H649V11Q649 -57 627 -111.5Q605 -166 565.5 -204.5Q526 -243 471 -264Q416 -285 349 -285Q242 -285 174 -243.5Q106 -202 65 -130L149 -80Q165 -107 183 -128.5Q201 -150 224.5 -166Q248 -182 278.5 -190.5Q309 -199 350 -199Q397 -199 435 -184Q473 -169 499.5 -141.5Q526 -114 540 -76Q554 -38 554 8V99Q519 46 459.5 17Q400 -12 339 -12ZM348 76Q393 76 432 93Q471 110 499.5 139Q528 168 544.5 208Q561 248 561 293Q561 338 544.5 377.5Q528 417 499.5 446.5Q471 476 432 493Q393 510 348 510Q304 510 265.5 493Q227 476 198.5 446.5Q170 417 153.5 377.5Q137 338 137 293Q137 248 153.5 208Q170 168 198.5 139Q227 110 265.5 93Q304 76 348 76ZM304 652 344 856H430L367 652Z" glyph-name="gcommaaccent" horiz-adv-x="714" unicode="&#291;" /><glyph d="M275 -259Q210 -259 165 -248.5Q120 -238 92.5 -220Q65 -202 53 -178Q41 -154 41 -127Q41 -94 56.5 -72Q72 -50 96 -36Q37 -9 37 58Q37 96 61 121Q85 146 123 157Q90 183 71 221.5Q52 260 52 308Q52 350 67.5 387Q83 424 110.5 451.5Q138 479 174.5 495Q211 511 253 511Q310 511 354.5 484Q399 457 423 412Q430 457 454 476.5Q478 496 522 496H534V391H520Q504 391 492 389Q480 387 472 378.5Q464 370 460 353.5Q456 337 456 308Q456 266 441 229Q426 192 400 164.5Q374 137 338 121Q302 105 260 105H188Q150 105 133.5 93.5Q117 82 117 66Q117 49 132 39Q147 29 184 29H341Q429 29 477 -5.5Q525 -40 525 -103Q525 -171 462.5 -215Q400 -259 275 -259ZM252 190Q276 190 297.5 199.5Q319 209 335 225Q351 241 360 262.5Q369 284 369 308Q369 332 360 353.5Q351 375 335 391Q319 407 297.5 416.5Q276 426 252 426Q229 426 208 416.5Q187 407 171.5 391Q156 375 147 353.5Q138 332 138 308Q138 284 147 262.5Q156 241 171.5 225Q187 209 208 199.5Q229 190 252 190ZM205 -53Q166 -55 145.5 -71Q125 -87 125 -112Q125 -125 130.5 -136Q136 -147 150.5 -155.5Q165 -164 190 -169Q215 -174 255 -174H298Q375 -174 407 -153Q439 -132 439 -107Q439 -80 415 -66.5Q391 -53 337 -53ZM226 560 266 764H352L289 560Z" glyph-name="gcommaaccent.alt" horiz-adv-x="558" unicode="&#59665;" /><glyph d="M347 -8Q279 -8 222.5 16.5Q166 41 125 83Q84 125 61 180.5Q38 236 38 298Q38 362 61.5 418Q85 474 126 515Q167 556 223.5 580Q280 604 346 604Q437 604 506 562.5Q575 521 613 453L529 405Q502 456 455.5 485Q409 514 346 514Q301 514 262 497Q223 480 194.5 450.5Q166 421 150 382Q134 343 134 298Q134 253 149.5 213.5Q165 174 193.5 145Q222 116 261 99Q300 82 346 82Q426 82 476 126.5Q526 171 540 241H331V331H643V293Q643 232 622 177.5Q601 123 562.5 81.5Q524 40 469.5 16Q415 -8 347 -8ZM263 -265 303 -61H389L326 -265Z" glyph-name="gcommaaccent.smcp" horiz-adv-x="681" unicode="&#57920;" /><glyph d="M339 -12Q278 -12 223.5 11Q169 34 128.5 74.5Q88 115 64.5 171Q41 227 41 292Q41 358 64 413.5Q87 469 127.5 510Q168 551 222.5 574Q277 597 339 597Q401 597 460 568Q519 539 554 486V585H649V11Q649 -57 627 -111.5Q605 -166 565.5 -204.5Q526 -243 471 -264Q416 -285 349 -285Q242 -285 174 -243.5Q106 -202 65 -130L149 -80Q165 -107 183 -128.5Q201 -150 224.5 -166Q248 -182 278.5 -190.5Q309 -199 350 -199Q397 -199 435 -184Q473 -169 499.5 -141.5Q526 -114 540 -76Q554 -38 554 8V99Q519 46 459.5 17Q400 -12 339 -12ZM348 76Q393 76 432 93Q471 110 499.5 139Q528 168 544.5 208Q561 248 561 293Q561 338 544.5 377.5Q528 417 499.5 446.5Q471 476 432 493Q393 510 348 510Q304 510 265.5 493Q227 476 198.5 446.5Q170 417 153.5 377.5Q137 338 137 293Q137 248 153.5 208Q170 168 198.5 139Q227 110 265.5 93Q304 76 348 76ZM275 716Q275 745 293 762.5Q311 780 340 780Q372 780 389 762.5Q406 745 406 716Q406 687 389 669Q372 651 340 651Q309 651 292 669Q275 687 275 716Z" glyph-name="gdotaccent" horiz-adv-x="714" unicode="&#289;" /><glyph d="M275 -259Q210 -259 165 -248.5Q120 -238 92.5 -220Q65 -202 53 -178Q41 -154 41 -127Q41 -94 56.5 -72Q72 -50 96 -36Q37 -9 37 58Q37 96 61 121Q85 146 123 157Q90 183 71 221.5Q52 260 52 308Q52 350 67.5 387Q83 424 110.5 451.5Q138 479 174.5 495Q211 511 253 511Q310 511 354.5 484Q399 457 423 412Q430 457 454 476.5Q478 496 522 496H534V391H520Q504 391 492 389Q480 387 472 378.5Q464 370 460 353.5Q456 337 456 308Q456 266 441 229Q426 192 400 164.5Q374 137 338 121Q302 105 260 105H188Q150 105 133.5 93.5Q117 82 117 66Q117 49 132 39Q147 29 184 29H341Q429 29 477 -5.5Q525 -40 525 -103Q525 -171 462.5 -215Q400 -259 275 -259ZM252 190Q276 190 297.5 199.5Q319 209 335 225Q351 241 360 262.5Q369 284 369 308Q369 332 360 353.5Q351 375 335 391Q319 407 297.5 416.5Q276 426 252 426Q229 426 208 416.5Q187 407 171.5 391Q156 375 147 353.5Q138 332 138 308Q138 284 147 262.5Q156 241 171.5 225Q187 209 208 199.5Q229 190 252 190ZM213 -53Q170 -53 147.5 -69.5Q125 -86 125 -112Q125 -125 130.5 -136Q136 -147 150.5 -155.5Q165 -164 190 -169Q215 -174 255 -174H298Q375 -174 407 -153Q439 -132 439 -107Q439 -80 415 -66.5Q391 -53 337 -53ZM193 631Q193 660 211 677.5Q229 695 258 695Q290 695 307 677.5Q324 660 324 631Q324 602 307 584Q290 566 258 566Q227 566 210 584Q193 602 193 631Z" glyph-name="gdotaccent.alt" horiz-adv-x="558" unicode="&#59663;" /><glyph d="M347 -8Q279 -8 222.5 16.5Q166 41 125 83Q84 125 61 180.5Q38 236 38 298Q38 362 61.5 418Q85 474 126 515Q167 556 223.5 580Q280 604 346 604Q437 604 506 562.5Q575 521 613 453L529 405Q502 456 455.5 485Q409 514 346 514Q301 514 262 497Q223 480 194.5 450.5Q166 421 150 382Q134 343 134 298Q134 253 149.5 213.5Q165 174 193.5 145Q222 116 261 99Q300 82 346 82Q426 82 476 126.5Q526 171 540 241H331V331H643V293Q643 232 622 177.5Q601 123 562.5 81.5Q524 40 469.5 16Q415 -8 347 -8ZM282 727Q282 756 300 773.5Q318 791 347 791Q379 791 396 773.5Q413 756 413 727Q413 698 396 680Q379 662 347 662Q316 662 299 680Q282 698 282 727Z" glyph-name="gdotaccent.smcp" horiz-adv-x="681" unicode="&#57935;" /><glyph d="M-68 -179Q-28 -179 -2.5 -171.5Q23 -164 38 -147Q53 -130 58.5 -103.5Q64 -77 64 -39V619Q63 672 79.5 715.5Q96 759 126.5 791Q157 823 202 840.5Q247 858 303 858Q355 858 398.5 841Q442 824 473.5 793.5Q505 763 522.5 721.5Q540 680 540 631Q540 569 509.5 522Q479 475 425 450Q493 426 535.5 371.5Q578 317 578 239Q578 185 560.5 139.5Q543 94 510 61Q477 28 431 9Q385 -10 328 -10Q296 -10 269 -4.5Q242 1 222 12L223 101Q242 90 269.5 84Q297 78 328 78Q360 78 387.5 90.5Q415 103 436 124.5Q457 146 469 175.5Q481 205 481 239Q481 272 468 301Q455 330 431.5 351.5Q408 373 374.5 386Q341 399 300 399H277V487H300Q330 487 356.5 498Q383 509 402.5 528.5Q422 548 433.5 574.5Q445 601 445 633Q445 662 434.5 688.5Q424 715 405.5 734.5Q387 754 360.5 765.5Q334 777 302 777Q271 777 244 767Q217 757 197.5 738Q178 719 166.5 691.5Q155 664 155 629V-38Q155 -100 144.5 -143.5Q134 -187 109.5 -214.5Q85 -242 45.5 -255Q6 -268 -52 -268H-68Z" glyph-name="germandbls" horiz-adv-x="620" unicode="&#223;" /><glyph d="M125 720H229L346 557H271Z" glyph-name="grave" horiz-adv-x="489" unicode="`" /><glyph d="M46 270 316 365 46 459V544L416 406V324L46 184Z" glyph-name="greater" horiz-adv-x="461" unicode="&gt;" /><glyph d="M45 352 313 448 45 541V626L415 489V406L45 267ZM45 227H415V145H45Z" glyph-name="greaterequal" horiz-adv-x="461" unicode="&#8805;" /><glyph d="M58 224V280L227 395V327L116 252L227 177V110ZM240 224V280L408 395V327L298 252L408 177V110Z" glyph-name="guillemotleft" horiz-adv-x="466" unicode="&#171;" /><glyph d="M58 338V394L227 508V440L116 365L227 290V223ZM240 338V394L408 508V440L298 365L408 290V223Z" glyph-name="guillemotleft.cap" horiz-adv-x="466" unicode="&#58451;" /><glyph d="M58 178 169 252 58 328V396L227 280V225L58 110ZM240 178 351 252 240 328V396L408 280V225L240 110Z" glyph-name="guillemotright" horiz-adv-x="466" unicode="&#187;" /><glyph d="M58 290 168 365 58 440V508L227 394V338L58 223ZM240 290 350 365 240 440V508L408 394V338L240 223Z" glyph-name="guillemotright.cap" horiz-adv-x="466" unicode="&#58452;" /><glyph d="M63 222V283L222 402V327L120 252L222 178V103Z" glyph-name="guilsinglleft" horiz-adv-x="284" unicode="&#8249;" /><glyph d="M63 335V396L222 515V440L120 365L222 291V216Z" glyph-name="guilsinglleft.cap" horiz-adv-x="284" unicode="&#58449;" /><glyph d="M63 178 166 252 63 328V403L222 284V223L63 104Z" glyph-name="guilsinglright" horiz-adv-x="284" unicode="&#8250;" /><glyph d="M63 291 166 365 63 441V515L222 396V336L63 217Z" glyph-name="guilsinglright.cap" horiz-adv-x="284" unicode="&#58450;" /><glyph d="M65 740H159V497Q190 542 240.5 569.5Q291 597 357 597Q414 597 460.5 579Q507 561 539.5 526.5Q572 492 589.5 443Q607 394 607 332V0H510V327Q510 412 467 462Q424 512 339 512Q301 512 268.5 498Q236 484 212 459Q188 434 174.5 399.5Q161 365 161 324V0H65Z" glyph-name="h" horiz-adv-x="669" unicode="h" /><glyph d="M410 253H153V0H57V596H153V346H410V596H506V0H410Z" glyph-name="h.smcp" horiz-adv-x="562" unicode="&#57864;" /><glyph d="M8 689H76V740H170V689H256V624H170V497Q201 542 251.5 569.5Q302 597 368 597Q425 597 471.5 579Q518 561 550.5 526.5Q583 492 600.5 443Q618 394 618 332V0H521V327Q521 412 478 462Q435 512 350 512Q312 512 279.5 498Q247 484 223 459Q199 434 185.5 399.5Q172 365 172 324V0H76V624H8Z" glyph-name="hbar" horiz-adv-x="680" unicode="&#295;" /><glyph d="M428 246H171V0H76V423H20V516H76V596H171V516H428V596H524V516H579V423H524V0H428ZM171 338H428V423H171Z" glyph-name="hbar.smcp" horiz-adv-x="599" unicode="&#57943;" /><glyph d="M65 740H159V497Q190 542 240.5 569.5Q291 597 357 597Q414 597 460.5 579Q507 561 539.5 526.5Q572 492 589.5 443Q607 394 607 332V0H510V327Q510 412 467 462Q424 512 339 512Q301 512 268.5 498Q236 484 212 459Q188 434 174.5 399.5Q161 365 161 324V0H65ZM73 951H142L261 788H177L107 886L39 788H-46Z" glyph-name="hcircumflex" horiz-adv-x="669" unicode="&#293;" /><glyph d="M410 253H153V0H57V596H153V346H410V596H506V0H410ZM245 815H314L433 652H349L279 750L211 652H126Z" glyph-name="hcircumflex.smcp" horiz-adv-x="562" unicode="&#57939;" /><glyph d="M89 550Q89 589 103 623.5Q117 658 142 684Q167 710 200 725Q233 740 272 740Q310 740 342.5 727.5Q375 715 399 693.5Q423 672 438 642.5Q453 613 457 579Q462 613 476.5 642.5Q491 672 515 693.5Q539 715 571 727.5Q603 740 642 740Q681 740 715 725Q749 710 775 684Q801 658 816 623.5Q831 589 831 550Q831 507 818 463.5Q805 420 777 371.5Q749 323 705 266Q661 209 599 140L457 -17L316 140Q254 209 210.5 266Q167 323 140 371.5Q113 420 101 463.5Q89 507 89 550Z" glyph-name="heart" horiz-adv-x="920" unicode="&#9829;" /><glyph d="M100 0V427L437 750L774 427V0Z" glyph-name="house" horiz-adv-x="874" unicode="&#8962;" /><glyph d="M178 720H278L131 557H62ZM326 720H425L279 557H209Z" glyph-name="hungarumlaut" horiz-adv-x="489" unicode="&#733;" /><glyph d="M46 294H416V211H46Z" glyph-name="hyphen" horiz-adv-x="461" unicode="-" /><glyph d="M46 345H416V262H46Z" glyph-name="hyphen.cap" horiz-adv-x="461" unicode="&#58498;" /><glyph d="M64 585H160V0H64ZM44 728Q44 758 62.5 776.5Q81 795 112 795Q145 795 163 776.5Q181 758 181 728Q181 697 163 678.5Q145 660 112 660Q80 660 62 678.5Q44 697 44 728Z" glyph-name="i" horiz-adv-x="224" unicode="i" /><glyph d="M62 596H159V0H62Z" glyph-name="i.smcp" horiz-adv-x="221" unicode="&#57865;" /><glyph d="M191 805H296L150 642H75ZM64 585H160V0H64Z" glyph-name="iacute" horiz-adv-x="224" unicode="&#237;" /><glyph d="M185 816H290L144 653H69ZM62 596H159V0H62Z" glyph-name="iacute.smcp" horiz-adv-x="221" unicode="&#57944;" /><glyph d="M64 585H160V0H64ZM113 638Q72 638 41.5 651Q11 664 -9 686Q-29 708 -38.5 738Q-48 768 -48 802H22Q22 754 45 727Q68 700 113 699Q157 700 180.5 727Q204 754 204 802H275Q275 768 264 738Q253 708 232 686Q211 664 181 651Q151 638 113 638Z" glyph-name="ibreve" horiz-adv-x="224" unicode="&#301;" /><glyph d="M62 596H159V0H62ZM110 646Q69 646 38.5 659Q8 672 -12 694Q-32 716 -41.5 746Q-51 776 -51 810H19Q19 762 42 735Q65 708 110 707Q154 708 177.5 735Q201 762 201 810H272Q272 776 261 746Q250 716 229 694Q208 672 178 659Q148 646 110 646Z" glyph-name="ibreve.smcp" horiz-adv-x="221" unicode="&#57951;" /><glyph d="M64 585H160V0H64ZM78 799H147L266 636H182L112 734L44 636H-41Z" glyph-name="icircumflex" horiz-adv-x="224" unicode="&#238;" /><glyph d="M62 596H159V0H62ZM79 811H148L267 648H183L113 746L45 648H-40Z" glyph-name="icircumflex.smcp" horiz-adv-x="221" unicode="&#57946;" /><glyph d="M177 814H273V652H177ZM-48 814H48V652H-48ZM64 585H160V0H64Z" glyph-name="idieresis" horiz-adv-x="224" unicode="&#239;" /><glyph d="M174 795H269V657H174ZM-39 795H56V657H-39ZM62 596H159V0H62Z" glyph-name="idieresis.smcp" horiz-adv-x="221" unicode="&#57947;" /><glyph d="M64 585H160V0H64ZM44 728Q44 758 62.5 776.5Q81 795 112 795Q145 795 163 776.5Q181 758 181 728Q181 697 163 678.5Q145 660 112 660Q80 660 62 678.5Q44 697 44 728Z" glyph-name="idotaccent" horiz-adv-x="224" unicode="&#59269;" /><glyph d="M62 596H159V0H62ZM45 723Q45 752 63 769.5Q81 787 110 787Q142 787 159 769.5Q176 752 176 723Q176 694 159 676Q142 658 110 658Q79 658 62 676Q45 694 45 723Z" glyph-name="idotaccent.smcp" horiz-adv-x="221" unicode="&#57954;" /><glyph d="M64 585H160V0H64ZM-67 805H37L154 642H79Z" glyph-name="igrave" horiz-adv-x="224" unicode="&#236;" /><glyph d="M-71 816H33L150 653H75ZM62 596H159V0H62Z" glyph-name="igrave.smcp" horiz-adv-x="221" unicode="&#57945;" /><glyph d="M64 585H160V0H64ZM44 728Q44 758 62.5 776.5Q81 795 112 795Q145 795 163 776.5Q181 758 181 728Q181 697 163 678.5Q145 660 112 660Q80 660 62 678.5Q44 697 44 728ZM381 -25Q381 -89 370.5 -132Q360 -175 334.5 -201Q309 -227 267.5 -238Q226 -249 164 -249H64V-158H149Q192 -158 218.5 -153Q245 -148 260 -134Q275 -120 280 -93.5Q285 -67 285 -24V585H381ZM265 728Q265 758 283.5 776.5Q302 795 333 795Q366 795 384 776.5Q402 758 402 728Q402 697 384 678.5Q366 660 333 660Q301 660 283 678.5Q265 697 265 728Z" glyph-name="ij" horiz-adv-x="445" unicode="&#307;" /><glyph d="M215 88H232Q278 89 293 109.5Q308 130 308 175V596H404V178Q404 131 395.5 97Q387 63 367 41.5Q347 20 314.5 10Q282 0 234 0H215ZM53 596H149V0H53Z" glyph-name="ij.smcp" horiz-adv-x="457" unicode="&#58151;" /><glyph d="M64 585H160V0H64ZM-20 712H244V642H-20Z" glyph-name="imacron" horiz-adv-x="224" unicode="&#299;" /><glyph d="M-23 723H241V653H-23ZM62 596H159V0H62Z" glyph-name="imacron.smcp" horiz-adv-x="221" unicode="&#57950;" /><glyph d="M252 215Q217 215 186 228.5Q155 242 132 265Q109 288 95.5 318.5Q82 349 82 384Q82 419 95.5 450Q109 481 132 504Q155 527 186 540.5Q217 554 252 554Q281 554 308.5 544.5Q336 535 362.5 519.5Q389 504 413.5 484Q438 464 462 442Q486 464 510.5 484.5Q535 505 561 520.5Q587 536 614 545Q641 554 670 554Q705 554 736 540.5Q767 527 790 504Q813 481 826.5 450Q840 419 840 384Q840 349 826.5 318.5Q813 288 790 265Q767 242 736 228.5Q705 215 670 215Q641 215 614 224.5Q587 234 561 249.5Q535 265 510.5 285Q486 305 462 327Q438 305 413.5 285Q389 265 362.5 249.5Q336 234 308.5 224.5Q281 215 252 215ZM253 298Q289 298 326 323.5Q363 349 402 385Q364 420 327 444.5Q290 469 253 469Q236 469 220.5 462Q205 455 193 443.5Q181 432 174 416.5Q167 401 167 384Q167 367 174 351.5Q181 336 193 324Q205 312 220.5 305Q236 298 253 298ZM670 299Q705 299 730 324.5Q755 350 755 385Q755 402 748 417.5Q741 433 729.5 444.5Q718 456 702.5 463Q687 470 670 470Q634 470 597.5 445.5Q561 421 522 386Q561 350 598 324.5Q635 299 670 299Z" glyph-name="infinity" horiz-adv-x="921" unicode="&#8734;" /><glyph d="M5 -116Q42 -116 64 -112Q86 -108 97.5 -96Q109 -84 112.5 -62Q116 -40 116 -5V531Q116 588 125.5 626.5Q135 665 158 688Q181 711 219.5 720.5Q258 730 315 730H323V642Q286 642 264 638Q242 634 230.5 622Q219 610 215.5 588Q212 566 212 530V-4Q212 -62 202.5 -100.5Q193 -139 170 -162Q147 -185 108.5 -194.5Q70 -204 13 -204H5Z" glyph-name="integral" horiz-adv-x="355" unicode="&#8747;" /><glyph d="M223 189Q222 229 220.5 281.5Q219 334 218 391Q217 448 216.5 505.5Q216 563 216 613V652Q180 643 157.5 620Q135 597 121 565L33 599Q56 660 114 700Q172 740 259 740Q309 740 350.5 726Q392 712 422 687Q452 662 469 626.5Q486 591 486 547Q486 500 472 470.5Q458 441 436.5 420Q415 399 390 381.5Q365 364 343.5 341.5Q322 319 308 285.5Q294 252 294 199V189ZM179 63Q179 95 199 115Q219 135 251 135Q286 135 305.5 115Q325 95 325 63Q325 31 305.5 11Q286 -9 251 -9Q217 -9 198 11Q179 31 179 63ZM389 548Q389 586 366 613Q343 640 303 651V613Q303 562 301 506.5Q299 451 296 396Q312 415 328.5 430Q345 445 358.5 461Q372 477 380.5 497.5Q389 518 389 548Z" glyph-name="interrobang" horiz-adv-x="533" unicode="&#8253;" /><glyph d="M275 -240Q226 -240 184 -226Q142 -212 112 -187Q82 -162 65 -126.5Q48 -91 48 -47Q48 0 62 29.5Q76 59 97.5 80Q119 101 144 118.5Q169 136 190.5 159Q212 182 226 215Q240 248 240 301V311H312Q313 271 314 219Q315 167 316 110Q317 53 317.5 -5Q318 -63 318 -113V-152Q353 -143 376.5 -120Q400 -97 414 -65L502 -99Q479 -160 420.5 -200Q362 -240 275 -240ZM206 431Q206 463 226 483Q246 503 278 503Q313 503 332.5 483Q352 463 352 431Q352 399 332.5 379Q313 359 278 359Q244 359 225 379Q206 399 206 431ZM146 -48Q146 -86 168.5 -113Q191 -140 231 -151V-113Q231 -63 233 -7.5Q235 48 238 103Q222 84 206 69Q190 54 176.5 38Q163 22 154.5 2Q146 -18 146 -48Z" glyph-name="interrobangdown" horiz-adv-x="533" unicode="&#59701;" /><glyph d="M275 -10Q226 -10 184 4Q142 18 112 43Q82 68 65 104Q48 140 48 183Q48 230 62 259.5Q76 289 97.5 310Q119 331 144 348.5Q169 366 190.5 389Q212 412 226 445Q240 478 240 531V541H312Q313 501 314 449Q315 397 316 340Q317 283 317.5 225Q318 167 318 117V78Q353 87 376.5 110.5Q400 134 414 166L502 131Q479 71 420.5 30.5Q362 -10 275 -10ZM208 662Q208 694 228 714Q248 734 280 734Q315 734 334.5 714Q354 694 354 662Q354 630 334.5 610Q315 590 280 590Q246 590 227 610Q208 630 208 662ZM146 182Q146 144 168.5 116.5Q191 89 231 78V117Q231 167 233 222.5Q235 278 238 333Q222 314 206 299Q190 284 176.5 268Q163 252 154.5 232Q146 212 146 182Z" glyph-name="interrobangdown.cap" horiz-adv-x="533" unicode="&#59803;" /><glyph d="M82 556Q82 590 91.5 620Q101 650 121 672Q141 694 171.5 707Q202 720 243 720Q281 720 311 707Q341 694 362 672Q383 650 394 620Q405 590 405 556H334Q334 604 310.5 631Q287 658 243 659Q198 658 175 631Q152 604 152 556Z" glyph-name="invertedbreve" horiz-adv-x="489" unicode="&#58385;" /><glyph d="M116 -223Q56 -223 24.5 -191Q-7 -159 -8 -115Q-9 -80 10.5 -49.5Q30 -19 64 8V585H160V0H161Q114 -34 93 -61Q72 -88 72 -110Q72 -130 85 -141.5Q98 -153 118 -153Q138 -153 152 -144.5Q166 -136 179 -123L234 -175Q211 -195 181 -209Q151 -223 116 -223ZM44 728Q44 758 62.5 776.5Q81 795 112 795Q145 795 163 776.5Q181 758 181 728Q181 697 163 678.5Q145 660 112 660Q80 660 62 678.5Q44 697 44 728Z" glyph-name="iogonek" horiz-adv-x="224" unicode="&#303;" /><glyph d="M114 -223Q54 -223 22.5 -191Q-9 -159 -10 -115Q-11 -80 8.5 -49.5Q28 -19 62 8V596H159V0Q112 -34 91 -61Q70 -88 70 -110Q70 -130 83 -141.5Q96 -153 116 -153Q136 -153 150 -144.5Q164 -136 177 -123L232 -175Q209 -195 179 -209Q149 -223 114 -223Z" glyph-name="iogonek.smcp" horiz-adv-x="221" unicode="&#63054;" /><glyph d="M64 585H160V0H64ZM-58 652Q-58 708 -31 741.5Q-4 775 42 775Q67 775 86 767Q105 759 122 748Q138 738 152.5 729.5Q167 721 183 721Q219 721 219 771H285Q285 714 259.5 681Q234 648 184 648Q155 648 133.5 658.5Q112 669 93 680Q79 688 67.5 694.5Q56 701 42 701Q7 701 7 652Z" glyph-name="itilde" horiz-adv-x="224" unicode="&#297;" /><glyph d="M62 596H159V0H62ZM-57 653Q-57 709 -30 742.5Q-3 776 43 776Q68 776 87 768Q106 760 123 749Q139 739 153.5 730.5Q168 722 184 722Q220 722 220 772H286Q286 715 260.5 682Q235 649 185 649Q156 649 134.5 659.5Q113 670 94 681Q80 689 68.5 695.5Q57 702 43 702Q8 702 8 653Z" glyph-name="itilde.smcp" horiz-adv-x="221" unicode="&#57948;" /><glyph d="M-75 -177Q-32 -177 -4.5 -172.5Q23 -168 38 -153.5Q53 -139 58.5 -112.5Q64 -86 64 -41V585H160V-42Q160 -107 149 -150.5Q138 -194 112.5 -220Q87 -246 45 -257Q3 -268 -60 -268H-75ZM44 728Q44 758 62.5 776.5Q81 795 112 795Q145 795 163 776.5Q181 758 181 728Q181 697 163 678.5Q145 660 112 660Q80 660 62 678.5Q44 697 44 728Z" glyph-name="j" horiz-adv-x="224" unicode="j" /><glyph d="M193 -8Q128 -8 83 22.5Q38 53 21 103L112 142Q121 115 141 97.5Q161 80 192 80Q227 80 246.5 104Q266 128 266 167V596H362V172Q362 87 318.5 39.5Q275 -8 193 -8Z" glyph-name="j.smcp" horiz-adv-x="416" unicode="&#57866;" /><glyph d="M-75 -177Q-32 -177 -4.5 -172.5Q23 -168 38 -153.5Q53 -139 58.5 -112.5Q64 -86 64 -41V585H160V-42Q160 -108 149.5 -151.5Q139 -195 113.5 -221Q88 -247 45.5 -257.5Q3 -268 -60 -268H-75ZM78 805H147L266 642H182L112 740L44 642H-41Z" glyph-name="jcircumflex" horiz-adv-x="225" unicode="&#309;" /><glyph d="M193 -8Q128 -8 83 22.5Q38 53 21 103L112 142Q121 115 141 97.5Q161 80 192 80Q227 80 246.5 104Q266 128 266 167V596H362V172Q362 87 318.5 39.5Q275 -8 193 -8ZM276 810H345L464 647H380L310 745L242 647H157Z" glyph-name="jcircumflex.smcp" horiz-adv-x="416" unicode="&#63027;" /><glyph d="M65 740H159V268L460 585H578L342 337L584 0H475L274 280L159 160V0H65Z" glyph-name="k" horiz-adv-x="606" unicode="k" /><glyph d="M238 292 153 194V0H58V596H153V314L391 596H507L307 359L519 0H411Z" glyph-name="k.smcp" horiz-adv-x="541" unicode="&#57867;" /><glyph d="M65 740H159V268L460 585H578L342 337L584 0H475L274 280L159 160V0H65ZM180 -254 220 -50H306L243 -254Z" glyph-name="kcommaaccent" horiz-adv-x="606" unicode="&#311;" /><glyph d="M238 292 153 194V0H58V596H153V314L391 596H507L307 359L519 0H411ZM197 -252 237 -48H323L260 -252Z" glyph-name="kcommaaccent.smcp" horiz-adv-x="541" unicode="&#57960;" /><glyph d="M274 279 159 160V0H65V585H159V268L459 585H577L342 337L584 0H474Z" glyph-name="kgreenlandic" horiz-adv-x="606" unicode="&#312;" /><glyph d="M65 740H161V0H65Z" glyph-name="l" horiz-adv-x="226" unicode="l" /><glyph d="M57 596H153V92H389V0H57Z" glyph-name="l.smcp" horiz-adv-x="429" unicode="&#57868;" /><glyph d="M193 970H298L152 807H77ZM65 740H161V0H65Z" glyph-name="lacute" horiz-adv-x="226" unicode="&#314;" /><glyph d="M57 596H153V92H389V0H57ZM180 816H285L139 653H64Z" glyph-name="lacute.smcp" horiz-adv-x="429" unicode="&#57963;" /><glyph d="M228 740H310L254 564H192ZM60 740H156V0H60Z" glyph-name="lcaron" horiz-adv-x="270" unicode="&#318;" /><glyph d="M57 596H153V92H389V0H57ZM307 596H389L333 420H271Z" glyph-name="lcaron.smcp" horiz-adv-x="429" unicode="&#57964;" /><glyph d="M29 -254 69 -50H155L92 -254ZM65 740H161V0H65Z" glyph-name="lcommaaccent" horiz-adv-x="226" unicode="&#316;" /><glyph d="M57 596H153V92H389V0H57ZM144 -256 184 -52H270L207 -256Z" glyph-name="lcommaaccent.smcp" horiz-adv-x="429" unicode="&#57965;" /><glyph d="M65 740H161V0H65ZM230 294Q230 323 248 340.5Q266 358 295 358Q327 358 344 340.5Q361 323 361 294Q361 265 344 247Q327 229 295 229Q264 229 247 247Q230 265 230 294Z" glyph-name="ldot" horiz-adv-x="366" unicode="&#320;" /><glyph d="M57 596H153V92H389V0H57ZM275 319Q275 348 293 365.5Q311 383 340 383Q372 383 389 365.5Q406 348 406 319Q406 290 389 272Q372 254 340 254Q309 254 292 272Q275 290 275 319Z" glyph-name="ldot.smcp" horiz-adv-x="430" unicode="&#57969;" /><glyph d="M46 324V406L416 544V459L146 365L416 270V184Z" glyph-name="less" horiz-adv-x="461" unicode="&lt;" /><glyph d="M45 406V489L415 626V541L146 448L415 352V267ZM45 227H415V145H45Z" glyph-name="lessequal" horiz-adv-x="461" unicode="&#8804;" /><glyph d="M78 418H181Q170 444 163 473Q156 502 156 536Q156 581 172 618.5Q188 656 216.5 683Q245 710 285 725Q325 740 374 740Q455 740 508 708Q561 676 590 622L504 576Q485 615 454 635.5Q423 656 374 656Q317 656 283.5 622.5Q250 589 250 537Q250 504 257.5 474.5Q265 445 277 418H480V338H314Q331 302 343.5 263.5Q356 225 356 179Q356 144 346 115Q372 95 399 81.5Q426 68 458 68Q506 68 527.5 93Q549 118 549 180V210H647V168Q647 80 607 35Q567 -10 476 -10Q423 -10 384 9Q345 28 313 53Q289 24 255 6.5Q221 -11 179 -11Q112 -11 79 18Q46 47 46 95Q46 141 79 171Q112 201 166 202Q201 202 231 189Q261 176 287 159Q287 163 287.5 167Q288 171 288 176Q288 222 268 260Q248 298 224 338H78ZM179 55Q205 55 226 65.5Q247 76 261 94Q239 111 217 122.5Q195 134 171 134Q147 134 135.5 123Q124 112 124 95Q124 77 138.5 66Q153 55 179 55Z" glyph-name="lira" horiz-adv-x="694" unicode="&#8356;" /><glyph d="M470 427H29V519H567V183H470Z" glyph-name="logicalnot" horiz-adv-x="603" unicode="&#172;" /><glyph d="M46 -100H470V-182H46Z" glyph-name="lowline" horiz-adv-x="515" unicode="&#58641;" /><glyph d="M33 366 413 746 795 364 415 -16ZM416 108 671 364 412 622 157 367Z" glyph-name="lozenge" horiz-adv-x="843" unicode="&#9674;" /><glyph d="M8 436 115 470V854H212V501L322 537V466L212 430V0H115V399L8 365Z" glyph-name="lslash" horiz-adv-x="329" unicode="&#322;" /><glyph d="M16 292 83 318V596H179V355L338 416V340L179 279V92H415V0H83V242L16 216Z" glyph-name="lslash.smcp" horiz-adv-x="455" unicode="&#63225;" /><glyph d="M64 585H158V503Q187 547 234.5 572Q282 597 345 597Q423 597 475 564.5Q527 532 552 478Q581 532 636 564.5Q691 597 763 597Q825 597 872.5 579Q920 561 952 528Q984 495 1000.5 448.5Q1017 402 1017 345V0H921V346Q921 420 877 466.5Q833 513 755 513Q720 513 689 501Q658 489 635.5 466.5Q613 444 600 411.5Q587 379 587 337V0H491V355Q491 427 448.5 470Q406 513 331 513Q294 513 262.5 500.5Q231 488 208 464.5Q185 441 172 407Q159 373 159 329V0H64Z" glyph-name="m" horiz-adv-x="1080" unicode="m" /><glyph d="M57 596H152L350 321L550 596H641V0H546V437L349 169L152 441V0H57Z" glyph-name="m.smcp" horiz-adv-x="698" unicode="&#57869;" /><glyph d="M113 627H377V557H113Z" glyph-name="macron" horiz-adv-x="489" unicode="&#175;" /><glyph d="M349 -10Q295 -10 248 10.5Q201 31 165.5 66Q130 101 110 148.5Q90 196 90 250Q90 304 110 351.5Q130 399 165.5 434Q201 469 248 489.5Q295 510 349 510Q403 510 450 489.5Q497 469 532.5 434Q568 399 588 351.5Q608 304 608 250Q608 196 588 148.5Q568 101 532.5 66Q497 31 450 10.5Q403 -10 349 -10Z" glyph-name="mediumblackcircle" horiz-adv-x="698" unicode="&#9899;" /><glyph d="M349 -10Q295 -10 248 10Q201 30 165.5 65.5Q130 101 110 148.5Q90 196 90 250Q90 305 110 352.5Q130 400 165.5 435Q201 470 248 490Q295 510 349 510Q403 510 450.5 490Q498 470 533 435Q568 400 588.5 352.5Q609 305 609 250Q609 196 588.5 148.5Q568 101 533 65.5Q498 30 450.5 10Q403 -10 349 -10ZM349 79Q384 79 414 92.5Q444 106 466 129.5Q488 153 501 184Q514 215 514 250Q514 285 501 316.5Q488 348 466 371Q444 394 414 407.5Q384 421 349 421Q315 421 285 407.5Q255 394 232.5 371Q210 348 197.5 316.5Q185 285 185 250Q185 215 197.5 184Q210 153 232.5 129.5Q255 106 285 92.5Q315 79 349 79Z" glyph-name="mediumwhitecircle" horiz-adv-x="698" unicode="&#9898;" /><glyph d="M46 406H416V324H46Z" glyph-name="minus" horiz-adv-x="461" unicode="&#8722;" /><glyph d="M27 246H240V177H27Z" glyph-name="minus.inf" horiz-adv-x="268" unicode="&#58748;" /><glyph d="M37 526 76 730H165L98 526Z" glyph-name="minute" horiz-adv-x="201" unicode="&#8242;" /><glyph d="M54 500H151V232Q151 158 187 116Q223 74 283 74Q313 74 338 85Q363 96 381.5 115.5Q400 135 410.5 162.5Q421 190 421 224V500H517V0H422V67Q397 32 358.5 11Q320 -10 269 -10Q233 -10 203 1.5Q173 13 150 33V-230H54Z" glyph-name="mu" horiz-adv-x="571" unicode="&#181;" /><glyph d="M57 248 173 364 57 481 114 538 230 421 347 538 405 480 288 363 404 248 347 191 231 306 115 190Z" glyph-name="multiply" horiz-adv-x="461" unicode="&#215;" /><glyph d="M64 585H158V495Q188 541 239 569Q290 597 356 597Q413 597 459.5 579Q506 561 538 526.5Q570 492 587.5 443Q605 394 605 332V0H509V328Q509 412 466 462Q423 512 338 512Q300 512 267 498Q234 484 210 459Q186 434 172.5 399.5Q159 365 159 324V0H64Z" glyph-name="n" horiz-adv-x="667" unicode="n" /><glyph d="M57 596H162L457 159V596H552V0H454L152 445V0H57Z" glyph-name="n.smcp" horiz-adv-x="609" unicode="&#57870;" /><glyph d="M64 585H158V495Q188 541 239 569Q290 597 356 597Q413 597 459.5 579Q506 561 538 526.5Q570 492 587.5 443Q605 394 605 332V0H509V328Q509 412 466 462Q423 512 338 512Q300 512 267 498Q234 484 210 459Q186 434 172.5 399.5Q159 365 159 324V0H64ZM426 815H531L385 652H310Z" glyph-name="nacute" horiz-adv-x="667" unicode="&#324;" /><glyph d="M57 596H162L457 159V596H552V0H454L152 445V0H57ZM386 810H491L345 647H270Z" glyph-name="nacute.smcp" horiz-adv-x="609" unicode="&#57974;" /><glyph d="M64 585H158V495Q188 541 239 569Q290 597 356 597Q413 597 459.5 579Q506 561 538 526.5Q570 492 587.5 443Q605 394 605 332V0H509V328Q509 412 466 462Q423 512 338 512Q300 512 267 498Q234 484 210 459Q186 434 172.5 399.5Q159 365 159 324V0H64ZM201 815H286L354 717L424 815H508L389 652H320Z" glyph-name="ncaron" horiz-adv-x="667" unicode="&#328;" /><glyph d="M57 596H162L457 159V596H552V0H454L152 445V0H57ZM154 808H239L307 710L377 808H461L342 645H273Z" glyph-name="ncaron.smcp" horiz-adv-x="609" unicode="&#57978;" /><glyph d="M64 585H158V495Q188 541 239 569Q290 597 356 597Q413 597 459.5 579Q506 561 538 526.5Q570 492 587.5 443Q605 394 605 332V0H509V328Q509 412 466 462Q423 512 338 512Q300 512 267 498Q234 484 210 459Q186 434 172.5 399.5Q159 365 159 324V0H64ZM253 -254 293 -50H379L316 -254Z" glyph-name="ncommaaccent" horiz-adv-x="667" unicode="&#326;" /><glyph d="M57 596H162L457 159V596H552V0H454L152 445V0H57ZM232 -255 272 -51H358L295 -255Z" glyph-name="ncommaaccent.smcp" horiz-adv-x="609" unicode="&#57981;" /><glyph d="M345 248Q329 243 312 240.5Q295 238 278 238Q228 238 184 257Q140 276 107.5 309.5Q75 343 56 388.5Q37 434 37 488Q37 543 57 589Q77 635 111.5 668.5Q146 702 193.5 721Q241 740 295 740Q351 740 398 720.5Q445 701 479.5 667Q514 633 533.5 587.5Q553 542 553 489Q553 441 538.5 394.5Q524 348 498 312L293 0H178ZM296 325Q330 325 359.5 338Q389 351 411 373Q433 395 445.5 424.5Q458 454 458 488Q458 522 445.5 552Q433 582 411 604.5Q389 627 359.5 640Q330 653 296 653Q263 653 233 640Q203 627 181 604.5Q159 582 146 552Q133 522 133 488Q133 454 146 424Q159 394 181 372Q203 350 233 337.5Q263 325 296 325Z" glyph-name="nine" horiz-adv-x="591" unicode="9" /><glyph d="M345 248Q329 243 312 240.5Q295 238 278 238Q228 238 184 257Q140 276 107.5 309.5Q75 343 56 388.5Q37 434 37 488Q37 543 57 589Q77 635 111.5 668.5Q146 702 193.5 721Q241 740 295 740Q351 740 398 720.5Q445 701 479.5 667Q514 633 533.5 587.5Q553 542 553 489Q553 441 538.5 394.5Q524 348 498 312L293 0H178ZM296 325Q330 325 359.5 338Q389 351 411 373Q433 395 445.5 424.5Q458 454 458 488Q458 522 445.5 552Q433 582 411 604.5Q389 627 359.5 640Q330 653 296 653Q263 653 233 640Q203 627 181 604.5Q159 582 146 552Q133 522 133 488Q133 454 146 424Q159 394 181 372Q203 350 233 337.5Q263 325 296 325Z" glyph-name="nine.LP" horiz-adv-x="591" unicode="&#58686;" /><glyph d="M171 0 337 256Q307 248 277 248Q228 248 185 266.5Q142 285 110.5 318Q79 351 60.5 396Q42 441 42 494Q42 547 61.5 592Q81 637 114.5 670Q148 703 194 721.5Q240 740 294 740Q349 740 395.5 721Q442 702 475.5 668.5Q509 635 528 590.5Q547 546 547 495Q547 447 532 403Q517 359 493 324L286 0ZM296 334Q328 334 356.5 346.5Q385 359 406 381Q427 403 439.5 431.5Q452 460 452 493Q452 526 439.5 554.5Q427 583 406 605Q385 627 356.5 639.5Q328 652 296 652Q263 652 234.5 639.5Q206 627 184 605.5Q162 584 149.5 555Q137 526 137 493Q137 460 149.5 431.5Q162 403 184 381Q206 359 234.5 346.5Q263 334 296 334Z" glyph-name="nine.LT" horiz-adv-x="588" unicode="&#58697;" /><glyph d="M179 133Q174 132 170 132Q166 132 162 132Q133 132 107.5 142.5Q82 153 62.5 172.5Q43 192 32 219Q21 246 21 279Q21 311 32.5 338.5Q44 366 65 386Q86 406 114.5 417Q143 428 176 428Q210 428 238.5 416.5Q267 405 288 384.5Q309 364 320.5 337Q332 310 332 279Q332 250 322 220.5Q312 191 297 168L190 0H93ZM177 204Q208 204 229 226Q250 248 250 279Q250 309 229 330.5Q208 352 177 352Q147 352 125.5 330.5Q104 309 104 278Q104 247 125.5 225.5Q147 204 177 204Z" glyph-name="nine.inf" horiz-adv-x="353" unicode="&#58746;" /><glyph d="M926 -6Q892 -6 863.5 5.5Q835 17 814 37.5Q793 58 781.5 85.5Q770 113 770 144Q770 174 780.5 203.5Q791 233 806 256L913 422H1009L923 290Q928 291 932 291.5Q936 292 941 292Q970 292 996 281Q1022 270 1041 250.5Q1060 231 1071 204Q1082 177 1082 144Q1082 112 1070.5 84.5Q1059 57 1038 37Q1017 17 988.5 5.5Q960 -6 926 -6ZM179 441Q174 440 170 440Q166 440 162 440Q133 440 107.5 450.5Q82 461 62.5 480.5Q43 500 32 527Q21 554 21 587Q21 619 32.5 646.5Q44 674 65 694Q86 714 114.5 725Q143 736 176 736Q210 736 238.5 724.5Q267 713 288 692.5Q309 672 320.5 645Q332 618 332 587Q332 558 322 528.5Q312 499 297 476L190 308H93ZM625 730H737L210 0H98ZM507 78H590V300Q580 286 561.5 277.5Q543 269 523 269H517V352H520Q541 352 555 358.5Q569 365 577 375.5Q585 386 588.5 398.5Q592 411 592 422H673V78H753V0H507ZM925 71Q956 71 978 92.5Q1000 114 1000 146Q1000 177 978 198Q956 219 925 219Q894 219 873 198Q852 177 852 145Q852 114 873 92.5Q894 71 925 71ZM177 512Q208 512 229 534Q250 556 250 587Q250 617 229 638.5Q208 660 177 660Q147 660 125.5 638.5Q104 617 104 586Q104 555 125.5 533.5Q147 512 177 512Z" glyph-name="ninesixteenths" horiz-adv-x="1104" unicode="&#61977;" /><glyph glyph-name="nonmarkingreturn" horiz-adv-x="250" unicode="" /><glyph d="M324 487H416V404H285L247 322H416V240H208L177 173H100L131 240H46V322H169L207 404H46V487H245L277 555H356Z" glyph-name="notequal" horiz-adv-x="461" unicode="&#8800;" /><glyph d="M64 585H158V495Q188 541 239 569Q290 597 356 597Q413 597 459.5 579Q506 561 538 526.5Q570 492 587.5 443Q605 394 605 332V0H509V328Q509 412 466 462Q423 512 338 512Q300 512 267 498Q234 484 210 459Q186 434 172.5 399.5Q159 365 159 324V0H64ZM175 652Q175 708 202 741.5Q229 775 275 775Q300 775 319 767Q338 759 355 748Q371 738 385.5 729.5Q400 721 416 721Q452 721 452 771H518Q518 714 492.5 681Q467 648 417 648Q388 648 366.5 658.5Q345 669 326 680Q312 688 300.5 694.5Q289 701 275 701Q240 701 240 652Z" glyph-name="ntilde" horiz-adv-x="667" unicode="&#241;" /><glyph d="M57 596H162L457 159V596H552V0H454L152 445V0H57ZM137 653Q137 709 164 742.5Q191 776 237 776Q262 776 281 768Q300 760 317 749Q333 739 347.5 730.5Q362 722 378 722Q414 722 414 772H480Q480 715 454.5 682Q429 649 379 649Q350 649 328.5 659.5Q307 670 288 681Q274 689 262.5 695.5Q251 702 237 702Q202 702 202 653Z" glyph-name="ntilde.smcp" horiz-adv-x="609" unicode="&#57977;" /><glyph d="M506 179H311V0H215V179H38V271H215V467H38V560H215V730H311V560H506V730H604V560H783V467H604V271H783V179H604V0H506ZM311 271H506V467H311Z" glyph-name="numbersign" horiz-adv-x="821" unicode="#" /><glyph d="M438 155 248 227 162 0H63L162 261L45 305L46 404L198 346L266 524L46 608V706L299 610L345 730H444L386 576L575 505L661 730H759L660 472L776 428V330L625 387L557 208L775 125V27L523 122L477 0H380ZM284 313 472 242 539 420 352 491Z" glyph-name="numbersign.alt" horiz-adv-x="821" unicode="&#62563;" /><glyph d="M344 -12Q281 -12 226 11.5Q171 35 129.5 76Q88 117 64.5 172.5Q41 228 41 292Q41 357 64.5 412.5Q88 468 129.5 509Q171 550 226 573.5Q281 597 344 597Q407 597 462.5 573.5Q518 550 559.5 509Q601 468 624.5 412.5Q648 357 648 292Q648 228 624.5 172.5Q601 117 559.5 76Q518 35 462.5 11.5Q407 -12 344 -12ZM344 76Q388 76 426 93Q464 110 492.5 139.5Q521 169 537 208Q553 247 553 292Q553 337 537 376.5Q521 416 492.5 445.5Q464 475 426 492Q388 509 344 509Q301 509 263 492Q225 475 197 445.5Q169 416 153 376.5Q137 337 137 292Q137 247 153 208Q169 169 197 139.5Q225 110 263 93Q301 76 344 76Z" glyph-name="o" horiz-adv-x="691" unicode="o" /><glyph d="M343 -8Q279 -8 223.5 16Q168 40 127 81.5Q86 123 62 179Q38 235 38 298Q38 361 62 417Q86 473 127 514.5Q168 556 223.5 580Q279 604 343 604Q406 604 462 580Q518 556 559.5 514.5Q601 473 625 417Q649 361 649 298Q649 235 625 179Q601 123 559.5 81.5Q518 40 462.5 16Q407 -8 343 -8ZM343 84Q387 84 425 101Q463 118 491 147Q519 176 535 215Q551 254 551 298Q551 342 535 381Q519 420 491 449Q463 478 425 495Q387 512 343 512Q299 512 261 495Q223 478 195 449Q167 420 151 381Q135 342 135 298Q135 254 151 215Q167 176 194.5 147Q222 118 260 101Q298 84 343 84Z" glyph-name="o.smcp" horiz-adv-x="686" unicode="&#57871;" /><glyph d="M418 815H523L377 652H302ZM344 -12Q281 -12 226 11.5Q171 35 129.5 76Q88 117 64.5 172.5Q41 228 41 292Q41 357 64.5 412.5Q88 468 129.5 509Q171 550 226 573.5Q281 597 344 597Q407 597 462.5 573.5Q518 550 559.5 509Q601 468 624.5 412.5Q648 357 648 292Q648 228 624.5 172.5Q601 117 559.5 76Q518 35 462.5 11.5Q407 -12 344 -12ZM344 76Q388 76 426 93Q464 110 492.5 139.5Q521 169 537 208Q553 247 553 292Q553 337 537 376.5Q521 416 492.5 445.5Q464 475 426 492Q388 509 344 509Q301 509 263 492Q225 475 197 445.5Q169 416 153 376.5Q137 337 137 292Q137 247 153 208Q169 169 197 139.5Q225 110 263 93Q301 76 344 76Z" glyph-name="oacute" horiz-adv-x="691" unicode="&#243;" /><glyph d="M343 -8Q279 -8 223.5 16Q168 40 127 81.5Q86 123 62 179Q38 235 38 298Q38 361 62 417Q86 473 127 514.5Q168 556 223.5 580Q279 604 343 604Q406 604 462 580Q518 556 559.5 514.5Q601 473 625 417Q649 361 649 298Q649 235 625 179Q601 123 559.5 81.5Q518 40 462.5 16Q407 -8 343 -8ZM343 84Q387 84 425 101Q463 118 491 147Q519 176 535 215Q551 254 551 298Q551 342 535 381Q519 420 491 449Q463 478 425 495Q387 512 343 512Q299 512 261 495Q223 478 195 449Q167 420 151 381Q135 342 135 298Q135 254 151 215Q167 176 194.5 147Q222 118 260 101Q298 84 343 84ZM412 816H517L371 653H296Z" glyph-name="oacute.smcp" horiz-adv-x="686" unicode="&#57985;" /><glyph d="M344 -12Q281 -12 226 11.5Q171 35 129.5 76Q88 117 64.5 172.5Q41 228 41 292Q41 357 64.5 412.5Q88 468 129.5 509Q171 550 226 573.5Q281 597 344 597Q407 597 462.5 573.5Q518 550 559.5 509Q601 468 624.5 412.5Q648 357 648 292Q648 228 624.5 172.5Q601 117 559.5 76Q518 35 462.5 11.5Q407 -12 344 -12ZM344 76Q388 76 426 93Q464 110 492.5 139.5Q521 169 537 208Q553 247 553 292Q553 337 537 376.5Q521 416 492.5 445.5Q464 475 426 492Q388 509 344 509Q301 509 263 492Q225 475 197 445.5Q169 416 153 376.5Q137 337 137 292Q137 247 153 208Q169 169 197 139.5Q225 110 263 93Q301 76 344 76ZM344 651Q303 651 272.5 664Q242 677 222 699Q202 721 192.5 751Q183 781 183 815H253Q253 767 276 740Q299 713 344 712Q388 713 411.5 740Q435 767 435 815H506Q506 781 495 751Q484 721 463 699Q442 677 412 664Q382 651 344 651Z" glyph-name="obreve" horiz-adv-x="691" unicode="&#335;" /><glyph d="M343 -8Q279 -8 223.5 16Q168 40 127 81.5Q86 123 62 179Q38 235 38 298Q38 361 62 417Q86 473 127 514.5Q168 556 223.5 580Q279 604 343 604Q406 604 462 580Q518 556 559.5 514.5Q601 473 625 417Q649 361 649 298Q649 235 625 179Q601 123 559.5 81.5Q518 40 462.5 16Q407 -8 343 -8ZM343 84Q387 84 425 101Q463 118 491 147Q519 176 535 215Q551 254 551 298Q551 342 535 381Q519 420 491 449Q463 478 425 495Q387 512 343 512Q299 512 261 495Q223 478 195 449Q167 420 151 381Q135 342 135 298Q135 254 151 215Q167 176 194.5 147Q222 118 260 101Q298 84 343 84ZM342 649Q301 649 270.5 662Q240 675 220 697Q200 719 190.5 749Q181 779 181 813H251Q251 765 274 738Q297 711 342 710Q386 711 409.5 738Q433 765 433 813H504Q504 779 493 749Q482 719 461 697Q440 675 410 662Q380 649 342 649Z" glyph-name="obreve.smcp" horiz-adv-x="686" unicode="&#57992;" /><glyph d="M344 -12Q281 -12 226 11.5Q171 35 129.5 76Q88 117 64.5 172.5Q41 228 41 292Q41 357 64.5 412.5Q88 468 129.5 509Q171 550 226 573.5Q281 597 344 597Q407 597 462.5 573.5Q518 550 559.5 509Q601 468 624.5 412.5Q648 357 648 292Q648 228 624.5 172.5Q601 117 559.5 76Q518 35 462.5 11.5Q407 -12 344 -12ZM344 76Q388 76 426 93Q464 110 492.5 139.5Q521 169 537 208Q553 247 553 292Q553 337 537 376.5Q521 416 492.5 445.5Q464 475 426 492Q388 509 344 509Q301 509 263 492Q225 475 197 445.5Q169 416 153 376.5Q137 337 137 292Q137 247 153 208Q169 169 197 139.5Q225 110 263 93Q301 76 344 76ZM309 815H378L497 652H413L343 750L275 652H190Z" glyph-name="ocircumflex" horiz-adv-x="691" unicode="&#244;" /><glyph d="M343 -8Q279 -8 223.5 16Q168 40 127 81.5Q86 123 62 179Q38 235 38 298Q38 361 62 417Q86 473 127 514.5Q168 556 223.5 580Q279 604 343 604Q406 604 462 580Q518 556 559.5 514.5Q601 473 625 417Q649 361 649 298Q649 235 625 179Q601 123 559.5 81.5Q518 40 462.5 16Q407 -8 343 -8ZM343 84Q387 84 425 101Q463 118 491 147Q519 176 535 215Q551 254 551 298Q551 342 535 381Q519 420 491 449Q463 478 425 495Q387 512 343 512Q299 512 261 495Q223 478 195 449Q167 420 151 381Q135 342 135 298Q135 254 151 215Q167 176 194.5 147Q222 118 260 101Q298 84 343 84ZM308 814H377L496 651H412L342 749L274 651H189Z" glyph-name="ocircumflex.smcp" horiz-adv-x="686" unicode="&#57987;" /><glyph d="M181 704Q181 732 198 749Q215 766 244 766Q275 766 291.5 749Q308 732 308 704Q308 675 291.5 658Q275 641 244 641Q214 641 197.5 658Q181 675 181 704ZM376 704Q376 732 393 749Q410 766 439 766Q470 766 486.5 749Q503 732 503 704Q503 675 486.5 658Q470 641 439 641Q409 641 392.5 658Q376 675 376 704ZM344 -12Q281 -12 226 11.5Q171 35 129.5 76Q88 117 64.5 172.5Q41 228 41 292Q41 357 64.5 412.5Q88 468 129.5 509Q171 550 226 573.5Q281 597 344 597Q407 597 462.5 573.5Q518 550 559.5 509Q601 468 624.5 412.5Q648 357 648 292Q648 228 624.5 172.5Q601 117 559.5 76Q518 35 462.5 11.5Q407 -12 344 -12ZM344 76Q388 76 426 93Q464 110 492.5 139.5Q521 169 537 208Q553 247 553 292Q553 337 537 376.5Q521 416 492.5 445.5Q464 475 426 492Q388 509 344 509Q301 509 263 492Q225 475 197 445.5Q169 416 153 376.5Q137 337 137 292Q137 247 153 208Q169 169 197 139.5Q225 110 263 93Q301 76 344 76Z" glyph-name="odieresis" horiz-adv-x="691" unicode="&#246;" /><glyph d="M343 -8Q279 -8 223.5 16Q168 40 127 81.5Q86 123 62 179Q38 235 38 298Q38 361 62 417Q86 473 127 514.5Q168 556 223.5 580Q279 604 343 604Q406 604 462 580Q518 556 559.5 514.5Q601 473 625 417Q649 361 649 298Q649 235 625 179Q601 123 559.5 81.5Q518 40 462.5 16Q407 -8 343 -8ZM343 84Q387 84 425 101Q463 118 491 147Q519 176 535 215Q551 254 551 298Q551 342 535 381Q519 420 491 449Q463 478 425 495Q387 512 343 512Q299 512 261 495Q223 478 195 449Q167 420 151 381Q135 342 135 298Q135 254 151 215Q167 176 194.5 147Q222 118 260 101Q298 84 343 84ZM183 726Q183 754 200 771Q217 788 246 788Q277 788 293.5 771Q310 754 310 726Q310 697 293.5 680Q277 663 246 663Q216 663 199.5 680Q183 697 183 726ZM378 726Q378 754 395 771Q412 788 441 788Q472 788 488.5 771Q505 754 505 726Q505 697 488.5 680Q472 663 441 663Q411 663 394.5 680Q378 697 378 726Z" glyph-name="odieresis.smcp" horiz-adv-x="686" unicode="&#57988;" /><glyph d="M344 -12Q281 -12 226 11.5Q171 35 129.5 76Q88 117 64.5 172.5Q41 228 41 292Q41 357 64.5 412.5Q88 468 129.5 509Q171 550 226 573.5Q281 597 344 597Q429 597 496.5 557.5Q564 518 602 452Q640 518 706 557.5Q772 597 859 597Q923 597 977.5 575.5Q1032 554 1072.5 514.5Q1113 475 1136 420.5Q1159 366 1159 300V263H647Q652 221 670 186Q688 151 716.5 126Q745 101 783 87Q821 73 864 73Q936 73 986.5 108.5Q1037 144 1062 201L1144 163Q1107 82 1036 35Q965 -12 864 -12Q773 -12 705.5 26Q638 64 600 129Q561 64 494.5 26Q428 -12 344 -12ZM344 76Q388 76 426.5 93Q465 110 493 139.5Q521 169 537 208Q553 247 553 292Q553 337 537 377Q521 417 493 446Q465 475 426.5 492Q388 509 344 509Q300 509 262 492Q224 475 196.5 446Q169 417 153 377Q137 337 137 292Q137 247 153 208Q169 169 196.5 139.5Q224 110 262 93Q300 76 344 76ZM860 512Q821 512 787 499.5Q753 487 726 465.5Q699 444 680.5 413.5Q662 383 653 347H1063Q1049 425 995 468.5Q941 512 860 512Z" glyph-name="oe" horiz-adv-x="1203" unicode="&#339;" /><glyph d="M553 85Q515 41 462 16.5Q409 -8 343 -8Q279 -8 223.5 16Q168 40 127 81.5Q86 123 62 179Q38 235 38 298Q38 361 62 417Q86 473 127 514.5Q168 556 223.5 580Q279 604 343 604Q408 604 461.5 579Q515 554 553 510V596H910V507H647V344H910V254H647V90H910V0H553ZM343 84Q387 84 425 101Q463 118 491 147Q519 176 535 215Q551 254 551 298Q551 342 535 381Q519 420 491 449Q463 478 425 495Q387 512 343 512Q299 512 261 495Q223 478 195 449Q167 420 151 381Q135 342 135 298Q135 254 151 215Q167 176 194.5 147Q222 118 260 101Q298 84 343 84Z" glyph-name="oe.smcp" horiz-adv-x="956" unicode="&#58008;" /><glyph d="M239 -219Q177 -219 139.5 -189.5Q102 -160 102 -116Q102 -97 108.5 -79Q115 -61 131.5 -42.5Q148 -24 175.5 -5Q203 14 244 34L310 -1Q272 -25 247.5 -41Q223 -57 209 -69.5Q195 -82 190 -92Q185 -102 185 -113Q185 -132 200.5 -141.5Q216 -151 239 -151Q262 -151 278.5 -141.5Q295 -132 310 -118L375 -162Q349 -185 312.5 -202Q276 -219 239 -219Z" glyph-name="ogonek" horiz-adv-x="489" unicode="&#731;" /><glyph d="M344 -12Q281 -12 226 11.5Q171 35 129.5 76Q88 117 64.5 172.5Q41 228 41 292Q41 357 64.5 412.5Q88 468 129.5 509Q171 550 226 573.5Q281 597 344 597Q407 597 462.5 573.5Q518 550 559.5 509Q601 468 624.5 412.5Q648 357 648 292Q648 228 624.5 172.5Q601 117 559.5 76Q518 35 462.5 11.5Q407 -12 344 -12ZM344 76Q388 76 426 93Q464 110 492.5 139.5Q521 169 537 208Q553 247 553 292Q553 337 537 376.5Q521 416 492.5 445.5Q464 475 426 492Q388 509 344 509Q301 509 263 492Q225 475 197 445.5Q169 416 153 376.5Q137 337 137 292Q137 247 153 208Q169 169 197 139.5Q225 110 263 93Q301 76 344 76ZM171 815H275L392 652H317Z" glyph-name="ograve" horiz-adv-x="691" unicode="&#242;" /><glyph d="M343 -8Q279 -8 223.5 16Q168 40 127 81.5Q86 123 62 179Q38 235 38 298Q38 361 62 417Q86 473 127 514.5Q168 556 223.5 580Q279 604 343 604Q406 604 462 580Q518 556 559.5 514.5Q601 473 625 417Q649 361 649 298Q649 235 625 179Q601 123 559.5 81.5Q518 40 462.5 16Q407 -8 343 -8ZM343 84Q387 84 425 101Q463 118 491 147Q519 176 535 215Q551 254 551 298Q551 342 535 381Q519 420 491 449Q463 478 425 495Q387 512 343 512Q299 512 261 495Q223 478 195 449Q167 420 151 381Q135 342 135 298Q135 254 151 215Q167 176 194.5 147Q222 118 260 101Q298 84 343 84ZM165 816H269L386 653H311Z" glyph-name="ograve.smcp" horiz-adv-x="686" unicode="&#57986;" /><glyph d="M26 93H234Q208 122 183 157.5Q158 193 138 233.5Q118 274 105.5 320Q93 366 93 417Q93 484 118 543Q143 602 186 646Q229 690 288 715.5Q347 741 414 741Q481 741 540 715.5Q599 690 642.5 646.5Q686 603 711.5 544Q737 485 737 417Q737 366 724.5 320Q712 274 692 233.5Q672 193 646.5 157.5Q621 122 595 93H803V0H508L467 81Q500 121 531 160Q562 199 586 239.5Q610 280 624 324Q638 368 638 419Q638 469 621 511.5Q604 554 574 585Q544 616 503 634Q462 652 414 652Q367 652 326.5 634Q286 616 256 585Q226 554 209 511.5Q192 469 192 419Q192 368 206 323.5Q220 279 243.5 238.5Q267 198 298 159.5Q329 121 363 81L326 0H26Z" glyph-name="ohm" horiz-adv-x="829" unicode="&#59425;" /><glyph d="M354 815H454L307 652H238ZM502 815H601L455 652H385ZM344 -12Q281 -12 226 11.5Q171 35 129.5 76Q88 117 64.5 172.5Q41 228 41 292Q41 357 64.5 412.5Q88 468 129.5 509Q171 550 226 573.5Q281 597 344 597Q407 597 462.5 573.5Q518 550 559.5 509Q601 468 624.5 412.5Q648 357 648 292Q648 228 624.5 172.5Q601 117 559.5 76Q518 35 462.5 11.5Q407 -12 344 -12ZM344 76Q388 76 426 93Q464 110 492.5 139.5Q521 169 537 208Q553 247 553 292Q553 337 537 376.5Q521 416 492.5 445.5Q464 475 426 492Q388 509 344 509Q301 509 263 492Q225 475 197 445.5Q169 416 153 376.5Q137 337 137 292Q137 247 153 208Q169 169 197 139.5Q225 110 263 93Q301 76 344 76Z" glyph-name="ohungarumlaut" horiz-adv-x="691" unicode="&#337;" /><glyph d="M343 -8Q279 -8 223.5 16Q168 40 127 81.5Q86 123 62 179Q38 235 38 298Q38 361 62 417Q86 473 127 514.5Q168 556 223.5 580Q279 604 343 604Q406 604 462 580Q518 556 559.5 514.5Q601 473 625 417Q649 361 649 298Q649 235 625 179Q601 123 559.5 81.5Q518 40 462.5 16Q407 -8 343 -8ZM343 84Q387 84 425 101Q463 118 491 147Q519 176 535 215Q551 254 551 298Q551 342 535 381Q519 420 491 449Q463 478 425 495Q387 512 343 512Q299 512 261 495Q223 478 195 449Q167 420 151 381Q135 342 135 298Q135 254 151 215Q167 176 194.5 147Q222 118 260 101Q298 84 343 84ZM344 814H444L297 651H228ZM492 814H591L445 651H375Z" glyph-name="ohungarumlaut.smcp" horiz-adv-x="686" unicode="&#57994;" /><glyph d="M216 725H480V655H216ZM344 -12Q281 -12 226 11.5Q171 35 129.5 76Q88 117 64.5 172.5Q41 228 41 292Q41 357 64.5 412.5Q88 468 129.5 509Q171 550 226 573.5Q281 597 344 597Q407 597 462.5 573.5Q518 550 559.5 509Q601 468 624.5 412.5Q648 357 648 292Q648 228 624.5 172.5Q601 117 559.5 76Q518 35 462.5 11.5Q407 -12 344 -12ZM344 76Q388 76 426 93Q464 110 492.5 139.5Q521 169 537 208Q553 247 553 292Q553 337 537 376.5Q521 416 492.5 445.5Q464 475 426 492Q388 509 344 509Q301 509 263 492Q225 475 197 445.5Q169 416 153 376.5Q137 337 137 292Q137 247 153 208Q169 169 197 139.5Q225 110 263 93Q301 76 344 76Z" glyph-name="omacron" horiz-adv-x="691" unicode="&#333;" /><glyph d="M343 -8Q279 -8 223.5 16Q168 40 127 81.5Q86 123 62 179Q38 235 38 298Q38 361 62 417Q86 473 127 514.5Q168 556 223.5 580Q279 604 343 604Q406 604 462 580Q518 556 559.5 514.5Q601 473 625 417Q649 361 649 298Q649 235 625 179Q601 123 559.5 81.5Q518 40 462.5 16Q407 -8 343 -8ZM343 84Q387 84 425 101Q463 118 491 147Q519 176 535 215Q551 254 551 298Q551 342 535 381Q519 420 491 449Q463 478 425 495Q387 512 343 512Q299 512 261 495Q223 478 195 449Q167 420 151 381Q135 342 135 298Q135 254 151 215Q167 176 194.5 147Q222 118 260 101Q298 84 343 84ZM211 723H475V653H211Z" glyph-name="omacron.smcp" horiz-adv-x="686" unicode="&#57991;" /><glyph d="M148 0V639H29V730H244V0Z" glyph-name="one" horiz-adv-x="323" unicode="1" /><glyph d="M42 93H188V563Q172 538 138 523.5Q104 509 69 509H57V610H62Q98 610 122.5 621.5Q147 633 162.5 650.5Q178 668 184.5 689.5Q191 711 191 730H285V93H428V0H42Z" glyph-name="one.LP" horiz-adv-x="463" unicode="&#58678;" /><glyph d="M45 93H244V563Q228 538 194 523.5Q160 509 125 509H114V610H119Q155 610 179.5 621.5Q204 633 219.5 650.5Q235 668 241.5 689.5Q248 711 248 730H341V93H544V0H45Z" glyph-name="one.LT" horiz-adv-x="588" unicode="&#58689;" /><glyph d="M26 78H109V300Q99 286 80.5 277.5Q62 269 42 269H36V352H39Q60 352 74 358.5Q88 365 96 375.5Q104 386 107.5 398.5Q111 411 111 422H192V78H272V0H26Z" glyph-name="one.inf" horiz-adv-x="294" unicode="&#58738;" /><glyph d="M626 730H738L211 0H99ZM540 69Q540 98 550.5 120.5Q561 143 577.5 161Q594 179 614.5 194Q635 209 655 222Q688 242 713 261.5Q738 281 738 307Q738 327 723 341.5Q708 356 680 356Q652 356 633.5 339Q615 322 604 297L533 334Q553 377 590 402.5Q627 428 680 428Q746 428 785 393Q824 358 824 307Q824 280 814 258.5Q804 237 787.5 220Q771 203 751 189Q731 175 711 162Q679 142 653.5 123Q628 104 627 79H823V0H540ZM26 386H109V608Q99 594 80.5 585.5Q62 577 42 577H36V660H39Q60 660 74 666.5Q88 673 96 683.5Q104 694 107.5 706.5Q111 719 111 730H192V386H272V308H26Z" glyph-name="onehalf" horiz-adv-x="853" unicode="&#189;" /><glyph d="M626 730H738L211 0H99ZM653 92H473V167L651 422H733V165H794V92H733V0H653ZM26 386H109V608Q99 594 80.5 585.5Q62 577 42 577H36V660H39Q60 660 74 666.5Q88 673 96 683.5Q104 694 107.5 706.5Q111 719 111 730H192V386H272V308H26ZM653 165V298L560 165Z" glyph-name="onequarter" horiz-adv-x="820" unicode="&#188;" /><glyph d="M926 -6Q892 -6 863.5 5.5Q835 17 814 37.5Q793 58 781.5 85.5Q770 113 770 144Q770 174 780 203.5Q790 233 806 256L913 422H1009L923 290Q928 291 932 291.5Q936 292 941 292Q970 292 995.5 281Q1021 270 1040 250.5Q1059 231 1070 204Q1081 177 1081 144Q1081 112 1069.5 84.5Q1058 57 1037.5 37Q1017 17 988.5 5.5Q960 -6 926 -6ZM626 730H738L211 0H99ZM506 78H590V300Q580 286 561.5 277.5Q543 269 523 269H516V352H519Q540 352 554 358.5Q568 365 576.5 375.5Q585 386 588.5 398.5Q592 411 592 422H673V78H752V0H506ZM26 386H109V608Q99 594 80.5 585.5Q62 577 42 577H36V660H39Q60 660 74 666.5Q88 673 96 683.5Q104 694 107.5 706.5Q111 719 111 730H192V386H272V308H26ZM925 71Q955 71 977.5 92.5Q1000 114 1000 146Q1000 177 977.5 198Q955 219 925 219Q895 219 873.5 198Q852 177 852 145Q852 114 873.5 92.5Q895 71 925 71Z" glyph-name="onesixteenth" horiz-adv-x="1104" unicode="&#61973;" /><glyph d="M26 386H109V608Q99 594 80.5 585.5Q62 577 42 577H36V660H39Q60 660 74 666.5Q88 673 96 683.5Q104 694 107.5 706.5Q111 719 111 730H192V386H272V308H26Z" glyph-name="onesuperior" horiz-adv-x="294" unicode="&#185;" /><glyph d="M46 294H366V211H46Z" glyph-name="onethirdemdash" horiz-adv-x="411" unicode="&#58481;" /><glyph d="M46 345H366V262H46Z" glyph-name="onethirdemdash.cap" horiz-adv-x="411" unicode="&#58499;" /></font>
</defs>
</svg>
